<svg width="164" height="52" viewBox="0 0 164 52" fill="none" xmlns="http://www.w3.org/2000/svg">
<path d="M100.74 45.4996V43.9996H102V42.6896C101.984 42.4272 102.025 42.1644 102.12 41.9193C102.215 41.6742 102.362 41.4525 102.55 41.2696C103.012 40.8881 103.604 40.7016 104.2 40.7496H106.38V42.2596H104.38C104.295 42.248 104.208 42.2564 104.126 42.2839C104.045 42.3115 103.97 42.3576 103.909 42.4186C103.848 42.4795 103.802 42.5538 103.775 42.6355C103.747 42.7172 103.739 42.8041 103.75 42.8896V43.9996H105.75V45.5096H103.75V50.9996H102.03V45.4996H100.74Z" fill="white"/>
<path d="M111.421 43.9996V45.5096H110.561C110.184 45.5023 109.812 45.581 109.47 45.7396C109.19 45.8819 108.95 46.0915 108.771 46.3496V50.9996H107.061V43.9996H108.771V44.9996C108.993 44.6786 109.293 44.4188 109.643 44.244C109.992 44.0693 110.38 43.9852 110.771 43.9996H111.421Z" fill="white"/>
<path d="M113.951 50.7494C113.396 50.4368 112.939 49.9763 112.631 49.4194C112.316 48.8288 112.154 48.1686 112.161 47.4994C112.151 46.833 112.313 46.1753 112.631 45.5894C112.943 45.0377 113.399 44.5814 113.951 44.2694C114.547 43.9513 115.215 43.7896 115.891 43.7994C116.57 43.7879 117.241 43.9497 117.84 44.2694C118.392 44.5787 118.845 45.0359 119.151 45.5894C119.468 46.1753 119.63 46.833 119.621 47.4994C119.627 48.1686 119.465 48.8288 119.151 49.4194C118.849 49.9779 118.394 50.4391 117.84 50.7494C117.243 51.0764 116.571 51.2419 115.891 51.2294C115.213 51.2429 114.544 51.0774 113.951 50.7494ZM117.34 49.0994C117.717 48.6538 117.91 48.0819 117.881 47.4994C117.91 46.9259 117.717 46.3632 117.34 45.9294C116.951 45.5512 116.429 45.3398 115.885 45.3398C115.342 45.3398 114.821 45.5512 114.431 45.9294C114.062 46.3667 113.872 46.9278 113.901 47.4994C113.872 48.0801 114.061 48.6504 114.431 49.0994C114.817 49.4847 115.34 49.7011 115.885 49.7011C116.431 49.7011 116.954 49.4847 117.34 49.0994Z" fill="white"/>
<path d="M130.901 44.4407C131.305 44.9161 131.512 45.5276 131.481 46.1507V51.0007H129.841V46.6607C129.868 46.3017 129.761 45.9452 129.541 45.6607C129.432 45.5337 129.294 45.4341 129.14 45.3698C128.985 45.3055 128.818 45.2784 128.651 45.2907C128.372 45.2953 128.099 45.3747 127.861 45.5207C127.608 45.6651 127.389 45.8631 127.221 46.1007V51.0007H125.601V46.6607C125.631 46.303 125.528 45.9466 125.311 45.6607C125.2 45.5329 125.061 45.4328 124.905 45.3686C124.748 45.3043 124.579 45.2776 124.411 45.2907C124.104 45.2953 123.805 45.3891 123.551 45.5607C123.286 45.7356 123.064 45.968 122.901 46.2407V51.0007H121.301V44.0007H122.901V44.7707C123.179 44.4647 123.52 44.2225 123.901 44.0607C124.278 43.8928 124.688 43.8076 125.101 43.8107C125.508 43.7988 125.91 43.9028 126.261 44.1107C126.591 44.3143 126.855 44.6096 127.021 44.9607C127.285 44.6078 127.627 44.3204 128.021 44.1207C128.426 43.9127 128.875 43.8064 129.331 43.8107C129.622 43.7974 129.912 43.8477 130.182 43.9583C130.451 44.0688 130.693 44.2369 130.891 44.4507" fill="white"/>
<path d="M139.891 51.5207C141.137 51.5756 142.356 51.1455 143.291 50.3207C143.588 50.0251 143.823 49.6727 143.981 49.2844C144.139 48.8961 144.218 48.4799 144.211 48.0607C144.215 47.671 144.141 47.2844 143.993 46.9237C143.846 46.5631 143.627 46.2356 143.351 45.9607C142.7 45.3436 141.877 44.939 140.991 44.8007L139.331 44.4807C138.641 44.3507 138.261 44.0007 138.261 43.5307C138.261 42.9107 138.861 42.4807 139.831 42.4807C140.368 42.4601 140.892 42.6503 141.291 43.0107C141.512 43.261 141.654 43.5704 141.701 43.9007L144.081 43.3607C144.008 42.679 143.696 42.0451 143.201 41.5707C142.28 40.722 141.063 40.2694 139.811 40.3107C138.656 40.2744 137.53 40.6702 136.651 41.4207C136.332 41.7182 136.078 42.0791 135.906 42.4803C135.733 42.8815 135.647 43.3141 135.651 43.7507C135.633 44.1193 135.692 44.4876 135.825 44.832C135.958 45.1764 136.161 45.4893 136.421 45.7507C137.055 46.3311 137.837 46.7255 138.681 46.8907L140.311 47.2807C141.131 47.4707 141.491 47.7707 141.491 48.2807C141.491 48.7907 140.891 49.3307 139.901 49.3307C139.598 49.3467 139.295 49.2999 139.011 49.1932C138.727 49.0865 138.468 48.9222 138.251 48.7107C137.986 48.4441 137.832 48.0866 137.821 47.7107L135.371 48.2507C135.445 48.9696 135.771 49.6391 136.291 50.1407C136.772 50.597 137.339 50.953 137.958 51.1882C138.578 51.4234 139.239 51.533 139.901 51.5107M158.041 51.5107C159.393 51.5468 160.705 51.0472 161.691 50.1207C162.306 49.5248 162.751 48.7758 162.981 47.9507L160.461 47.1107C160.347 47.5372 160.119 47.9245 159.801 48.2307C159.324 48.6731 158.692 48.9102 158.041 48.8907C157.325 48.8948 156.636 48.6184 156.121 48.1207C155.61 47.4956 155.331 46.7131 155.331 45.9057C155.331 45.0983 155.61 44.3158 156.121 43.6907C156.371 43.4474 156.667 43.2559 156.991 43.1272C157.316 42.9985 157.662 42.9351 158.011 42.9407C158.323 42.9258 158.635 42.9749 158.927 43.0849C159.22 43.195 159.486 43.3637 159.711 43.5807C160.012 43.9063 160.234 44.2962 160.361 44.7207L162.911 43.8607C162.701 43.0623 162.288 42.3319 161.711 41.7407C161.211 41.2637 160.621 40.8908 159.976 40.6436C159.33 40.3964 158.642 40.2799 157.951 40.3007C157.231 40.2919 156.516 40.4262 155.849 40.6957C155.181 40.9652 154.573 41.3646 154.061 41.8707C153.026 42.9613 152.45 44.4074 152.45 45.9107C152.45 47.414 153.026 48.8601 154.061 49.9507C155.117 50.9704 156.533 51.5312 158.001 51.5107M149.321 51.5107C150.121 51.5546 150.914 51.3293 151.571 50.8707V48.5507C151.147 48.8383 150.644 48.9884 150.131 48.9807C149.742 49.0084 149.358 48.8828 149.061 48.6307C148.817 48.3305 148.702 47.9457 148.741 47.5607V37.7207H145.901V40.6207H151.571V43.3707H145.901V48.2507C145.861 49.111 146.163 49.9523 146.741 50.5907C147.088 50.9082 147.495 51.1532 147.938 51.3111C148.381 51.4691 148.851 51.537 149.321 51.5107Z" fill="white"/>
<path d="M5.03003 14.14H0.910156V9.82001H9.91016V30H5L5.03003 14.14ZM5.03003 0.5H9.9502V6.08H5.03003V0.5Z" fill="white"/>
<path d="M33.1902 11.4093C34.5787 12.9654 35.2974 15.0065 35.1902 17.0893V29.9993H30.27V18.2993C30.3364 17.1096 29.9824 15.9344 29.27 14.9793C28.8809 14.552 28.3995 14.2192 27.8623 14.006C27.3251 13.7929 26.7464 13.7051 26.1702 13.7493C25.0278 13.7819 23.9147 14.1188 22.946 14.7253C21.9774 15.3318 21.1884 16.1859 20.6602 17.1993V29.9993H15.75V9.80929H20.6602V12.3293C21.4879 11.3448 22.5317 10.5645 23.7102 10.0493C24.9578 9.51472 26.3029 9.24567 27.6602 9.25928C28.6799 9.20756 29.699 9.37241 30.6504 9.74299C31.6018 10.1136 32.4641 10.6815 33.1802 11.4093" fill="white"/>
<path d="M42.2891 28.6996C41.4992 28.1119 40.8448 27.3613 40.3704 26.4986C39.8959 25.6359 39.6124 24.6814 39.5391 23.6996H44.5391C44.6277 24.1106 44.7983 24.4995 45.0405 24.8431C45.2828 25.1867 45.5919 25.478 45.9492 25.6996C46.8223 26.1942 47.8166 26.4333 48.8191 26.3896C49.8594 26.4468 50.8958 26.2222 51.8191 25.7396C52.1467 25.5699 52.421 25.3128 52.6116 24.9969C52.8022 24.681 52.9018 24.3185 52.8992 23.9496C52.926 23.4984 52.818 23.0493 52.5891 22.6596C52.2694 22.2703 51.8237 22.005 51.3291 21.9096C50.415 21.6898 49.4792 21.5724 48.5391 21.5596C45.4524 21.4196 43.269 20.8696 41.989 19.9096C41.3495 19.401 40.8426 18.7452 40.5117 17.9981C40.1808 17.251 40.0359 16.4349 40.0891 15.6196C40.0526 14.7139 40.2396 13.8132 40.6338 12.997C41.0279 12.1807 41.6171 11.4742 42.3491 10.9396C44.2019 9.71425 46.4015 9.12138 48.6191 9.24958C50.7396 9.14689 52.8386 9.71362 54.6191 10.8696C55.346 11.3804 55.9611 12.0341 56.427 12.7906C56.8929 13.5471 57.1999 14.3906 57.3291 15.2696H52.4192C51.8392 13.9796 50.5491 13.3396 48.5291 13.3396C47.5937 13.2896 46.661 13.4789 45.8191 13.8896C45.524 14.0229 45.2731 14.2377 45.0959 14.5087C44.9188 14.7798 44.8228 15.0958 44.8191 15.4196C44.7971 15.8182 44.9099 16.2127 45.1392 16.5396C45.4587 16.887 45.8909 17.1101 46.3591 17.1696C47.2511 17.3544 48.1583 17.4548 49.0691 17.4696C50.8061 17.4782 52.5309 17.7617 54.1792 18.3096C55.2822 18.6793 56.2292 19.4081 56.8691 20.3796C57.4453 21.4101 57.7256 22.5798 57.6792 23.7596C57.7179 24.7194 57.5256 25.6746 57.1184 26.5447C56.7112 27.4148 56.1009 28.1744 55.3391 28.7596C53.4424 30.0628 51.1667 30.6994 48.8691 30.5696C46.51 30.6971 44.1749 30.0395 42.229 28.6996" fill="white"/>
<path d="M77.7798 10.6201C79.2355 11.5376 80.4063 12.8433 81.1599 14.3901C81.9939 16.0983 82.4119 17.9795 82.3799 19.8801C82.4086 21.7836 81.9908 23.6673 81.1599 25.3801C80.4049 26.9367 79.2353 28.255 77.7798 29.1901C76.3257 30.115 74.6331 30.5947 72.9099 30.5701C71.713 30.6247 70.5199 30.397 69.4272 29.9053C68.3346 29.4137 67.373 28.672 66.6199 27.7401V37.8401H61.8398V9.84013H66.6399V12.0801C67.3551 11.1794 68.2781 10.4657 69.3298 10.0001C70.4665 9.51284 71.6933 9.2709 72.9299 9.29012C74.6499 9.26877 76.3398 9.74073 77.7998 10.6501M75.95 24.4501C76.9778 23.1675 77.4975 21.5514 77.4099 19.9101C77.4978 18.2871 76.9772 16.6897 75.95 15.4301C75.4723 14.8849 74.8784 14.4536 74.2122 14.1681C73.5459 13.8825 72.8241 13.75 72.0999 13.7801C70.9293 13.7464 69.7769 14.0747 68.7998 14.7201C67.8536 15.3836 67.1067 16.293 66.6399 17.3501V22.5001C67.1439 23.5456 67.8998 24.4494 68.8398 25.1301C69.7909 25.8049 70.934 26.1555 72.0999 26.1301C72.8256 26.1571 73.5481 26.0211 74.2144 25.7321C74.8806 25.4431 75.4738 25.0085 75.95 24.4601" fill="white"/>
<path d="M89.0596 14.14H84.9297V9.82001H93.9297V30H89.0195L89.0596 14.14ZM89.0596 0.5H93.9695V6.08H89.0596V0.5Z" fill="white"/>
<path d="M112.131 9.81081V14.1408H109.651C108.579 14.1101 107.515 14.34 106.551 14.8108C105.743 15.2008 105.053 15.7977 104.551 16.5408V30.0008H99.6309V9.81081H104.551V12.7608C105.163 11.8447 105.994 11.0954 106.968 10.5804C107.942 10.0654 109.029 9.80093 110.131 9.81081H112.131Z" fill="white"/>
<path d="M135 21.13H119.24C119.344 22.5783 119.965 23.941 120.99 24.97C122.093 25.8915 123.505 26.3597 124.94 26.28C125.93 26.3072 126.912 26.1052 127.81 25.69C128.553 25.3552 129.212 24.86 129.74 24.24H134.89C134.481 25.4536 133.777 26.5464 132.84 27.42C131.808 28.4176 130.588 29.1995 129.25 29.72C127.854 30.2807 126.364 30.5693 124.86 30.57C122.933 30.6026 121.031 30.1339 119.34 29.21C117.748 28.3288 116.446 27.0055 115.59 25.4C114.675 23.6631 114.214 21.7229 114.25 19.76C114.221 17.8749 114.69 16.0156 115.61 14.37C116.488 12.7965 117.787 11.4982 119.36 10.62C121.007 9.70366 122.865 9.23476 124.75 9.25997C126.629 9.22296 128.487 9.66336 130.15 10.54C131.695 11.3784 132.96 12.6507 133.79 14.2C134.685 15.9281 135.129 17.8544 135.08 19.8C135.094 20.2448 135.067 20.69 135 21.13ZM121.29 14.51C120.367 15.2048 119.714 16.1977 119.44 17.32H129.84C129.26 14.8133 127.557 13.5566 124.73 13.55C123.513 13.5107 122.315 13.861 121.31 14.55" fill="white"/>
<path d="M162.379 24.65C161.409 26.5118 159.9 28.0381 158.049 29.03C156.011 30.043 153.765 30.5702 151.489 30.5702C149.213 30.5702 146.968 30.043 144.929 29.03C143.078 28.0358 141.567 26.5103 140.589 24.65C139.521 22.5817 138.991 20.2773 139.049 17.95V0.5H144.279V18.3C144.177 20.3028 144.863 22.266 146.189 23.77C147.637 25.0819 149.521 25.8086 151.474 25.8086C153.428 25.8086 155.312 25.0819 156.759 23.77C158.078 22.2623 158.76 20.3008 158.659 18.3V0.5H163.889V18C163.947 20.3238 163.428 22.6257 162.379 24.7" fill="white"/>
</svg>
