<svg width="204" height="57" viewBox="0 0 204 57" fill="none" xmlns="http://www.w3.org/2000/svg">
<path d="M27.72 9.24L18.48 0L0 18.48L18.48 36.96L27.72 27.72L18.48 18.48L27.72 9.24Z" fill="white"/>
<path d="M27.7243 9.23468L18.4824 18.4766L27.7243 27.7184L36.9662 18.4766L27.7243 9.23468Z" fill="#ED1A5C"/>
<path d="M49.3184 22.5596H53.6484C54.0184 24.0096 55.2784 24.8596 57.3384 24.8596C59.3984 24.8596 60.8284 24.0796 60.8284 22.7596C60.8284 21.4396 60.3184 20.8296 57.0684 20.6996C51.5184 20.4596 49.7884 18.6996 49.7884 15.5796C49.7884 12.1296 52.5284 10.0996 57.1384 10.0996C61.7484 10.0996 64.1384 12.1596 64.6884 15.2796H60.4584C60.0484 14.3596 59.1684 13.6196 57.0984 13.6196C55.0284 13.6196 53.9184 14.2996 53.9184 15.4096C53.9184 16.5196 54.4284 17.0396 57.5784 17.1696C63.2284 17.4096 64.9884 19.1696 64.9884 22.5896C64.9884 26.2496 62.1484 28.4496 57.4084 28.4496C52.4684 28.4496 49.6584 26.0496 49.3184 22.5596Z" fill="white"/>
<path d="M76.7991 28.4493C75.5749 28.5047 74.3526 28.3045 73.2101 27.8612C72.0675 27.418 71.0299 26.7415 70.1634 25.875C69.2969 25.0085 68.6204 23.9709 68.1772 22.8284C67.7339 21.6858 67.5337 20.4635 67.5891 19.2393C67.5891 16.7967 68.5594 14.4541 70.2866 12.7268C72.0139 10.9996 74.3565 10.0293 76.7991 10.0293C79.2418 10.0293 81.5843 10.9996 83.3116 12.7268C85.0388 14.4541 86.0091 16.7967 86.0091 19.2393C86.0676 20.4643 85.8695 21.688 85.4274 22.8319C84.9852 23.9758 84.3089 25.0147 83.4417 25.8819C82.5745 26.7491 81.5356 27.4254 80.3917 27.8675C79.2478 28.3097 78.0241 28.5078 76.7991 28.4493ZM76.7991 24.6593C79.7991 24.6593 81.7091 22.5193 81.7091 19.2393C81.7091 15.9593 79.8491 13.8893 76.7991 13.8893C73.7491 13.8893 71.8891 16.0193 71.8891 19.2393C71.8891 22.4593 73.7191 24.6593 76.7991 24.6593Z" fill="white"/>
<path d="M94.4101 27.9391C90.9601 27.9391 89.3301 26.0791 89.3301 23.1991V3.03906H93.5601V22.7991C93.5601 23.7991 94.0701 24.2191 94.8801 24.2191H96.7101V27.9391H94.4101Z" fill="white"/>
<path d="M112.039 27.9403V25.8403C111.32 26.6861 110.42 27.3596 109.406 27.8113C108.391 28.263 107.289 28.4814 106.179 28.4503C102.249 28.4503 99.8789 25.7403 99.8789 21.6803V10.5703H104.109V20.6603C104.109 22.9303 105.109 24.5903 107.459 24.5903C108.424 24.5567 109.361 24.2593 110.168 23.7303C110.976 23.2014 111.623 22.4613 112.039 21.5903V10.5903H116.269V27.9403H112.039Z" fill="white"/>
<path d="M126.039 27.9396C122.349 27.9396 120.629 26.0496 120.629 23.1696V4.84961H124.859V10.5696H130.409V14.2996H124.859V22.6296C124.829 22.8393 124.847 23.0529 124.912 23.2545C124.977 23.4561 125.087 23.6404 125.233 23.7934C125.379 23.9465 125.559 24.0644 125.757 24.1382C125.955 24.212 126.168 24.2399 126.379 24.2196H130.379V27.9396H126.039Z" fill="white"/>
<path d="M137.488 14.3008H133.488V10.5708H141.698V27.9408H137.468L137.488 14.3008ZM137.488 3.05078H141.718V7.35078H137.488V3.05078Z" fill="white"/>
<path d="M154.59 28.4493C153.366 28.5047 152.144 28.3045 151.001 27.8612C149.859 27.418 148.821 26.7415 147.954 25.875C147.088 25.0085 146.411 23.9709 145.968 22.8284C145.525 21.6858 145.325 20.4635 145.38 19.2393C145.38 16.7967 146.35 14.4541 148.078 12.7268C149.805 10.9996 152.147 10.0293 154.59 10.0293C157.033 10.0293 159.375 10.9996 161.103 12.7268C162.83 14.4541 163.8 16.7967 163.8 19.2393C163.859 20.4643 163.661 21.688 163.218 22.8319C162.776 23.9758 162.1 25.0147 161.233 25.8819C160.366 26.7491 159.327 27.4254 158.183 27.8675C157.039 28.3097 155.815 28.5078 154.59 28.4493ZM154.59 24.6593C157.59 24.6593 159.5 22.5193 159.5 19.2393C159.5 15.9593 157.64 13.8893 154.59 13.8893C151.54 13.8893 149.68 16.0193 149.68 19.2393C149.68 22.4593 151.51 24.6593 154.59 24.6593Z" fill="white"/>
<path d="M167.398 27.941V10.571H171.638V12.741C172.38 11.8827 173.303 11.2005 174.34 10.7438C175.378 10.2871 176.505 10.0675 177.638 10.101C181.708 10.101 184.148 12.811 184.148 16.841V27.941H179.908V17.891C179.908 15.621 178.828 13.961 176.358 13.961C175.371 13.9876 174.41 14.2804 173.575 14.8085C172.741 15.3366 172.065 16.0803 171.618 16.961V27.961L167.398 27.941Z" fill="white"/>
<path d="M187.54 22.5596H191.88C192.25 24.0096 193.5 24.8596 195.57 24.8596C197.64 24.8596 199.04 24.0396 199.04 22.7596C199.04 21.4796 198.53 20.8296 195.28 20.6996C189.72 20.4596 188 18.6996 188 15.5796C188 12.1296 190.74 10.0996 195.35 10.0996C199.96 10.0996 202.35 12.1596 202.9 15.2796H198.66C198.26 14.3596 197.38 13.6196 195.31 13.6196C193.24 13.6196 192.13 14.2996 192.13 15.4096C192.13 16.5196 192.64 17.0396 195.79 17.1696C201.44 17.4096 203.2 19.1696 203.2 22.5896C203.2 26.2496 200.36 28.4496 195.62 28.4496C190.67 28.4496 187.86 26.0496 187.52 22.5596" fill="white"/>
<path d="M148.66 52.31H146.83V37.25H148.66V43.86C148.744 43.6811 148.845 43.5104 148.96 43.35C149.132 43.1092 149.334 42.8908 149.56 42.7C149.84 42.4725 150.154 42.2903 150.49 42.16C150.905 42.0025 151.347 41.9278 151.79 41.94C152.365 41.9383 152.934 42.0575 153.46 42.29C153.983 42.5216 154.45 42.8626 154.83 43.29C155.244 43.7871 155.563 44.3568 155.77 44.97C156.223 46.4256 156.223 47.9844 155.77 49.44C155.561 50.0492 155.242 50.6151 154.83 51.11C154.459 51.544 153.999 51.8935 153.482 52.1349C152.964 52.3764 152.401 52.5043 151.83 52.51C151.386 52.5239 150.943 52.4456 150.53 52.28C150.195 52.1563 149.881 51.9809 149.6 51.76C149.373 51.5885 149.172 51.3866 149 51.16C148.887 51.0121 148.787 50.8549 148.7 50.69L148.66 52.31ZM148.66 47.25C148.656 47.7267 148.72 48.2015 148.85 48.66C148.968 49.0683 149.154 49.4537 149.4 49.8C149.63 50.1176 149.927 50.3806 150.27 50.57C150.638 50.748 151.041 50.8404 151.45 50.8404C151.859 50.8404 152.262 50.748 152.63 50.57C152.976 50.381 153.277 50.1181 153.51 49.8C153.76 49.4542 153.949 49.0688 154.07 48.66C154.2 48.2015 154.264 47.7267 154.26 47.25C154.265 46.77 154.201 46.2918 154.07 45.83C153.953 45.4196 153.763 45.0335 153.51 44.69C153.274 44.3775 152.974 44.1185 152.63 43.93C152.262 43.752 151.859 43.6596 151.45 43.6596C151.041 43.6596 150.638 43.752 150.27 43.93C149.93 44.1189 149.633 44.3779 149.4 44.69C149.15 45.0341 148.964 45.4202 148.85 45.83C148.719 46.2918 148.655 46.77 148.66 47.25Z" fill="white"/>
<path d="M161.168 56.6992H159.318L161.108 52.1492L157.068 42.1992H159.098L162.058 49.7192L165.028 42.1992H166.918L161.168 56.6992Z" fill="white"/>
<path d="M178.109 52.26C179.463 52.3208 180.787 51.8508 181.799 50.95C182.121 50.6292 182.376 50.2471 182.547 49.8263C182.719 49.4055 182.805 48.9545 182.799 48.5C182.805 48.0746 182.725 47.6524 182.564 47.2588C182.402 46.8652 182.162 46.5084 181.859 46.21C181.15 45.5369 180.254 45.0941 179.289 44.94L177.489 44.59C176.739 44.45 176.319 44.08 176.319 43.59C176.319 43.1 176.969 42.45 178.029 42.45C178.615 42.429 179.185 42.6371 179.619 43.03C179.865 43.3101 180.019 43.6593 180.059 44.03L182.659 43.45C182.571 42.7038 182.216 42.0146 181.659 41.51C180.692 40.5635 179.392 40.0355 178.039 40.04C176.785 39.9984 175.56 40.4304 174.609 41.25C174.259 41.5714 173.981 41.9627 173.791 42.3984C173.602 42.8342 173.506 43.3048 173.509 43.78C173.496 44.1766 173.564 44.5716 173.709 44.9412C173.853 45.3108 174.071 45.6472 174.349 45.93C175.037 46.5595 175.885 46.9884 176.799 47.17L178.579 47.59C179.469 47.8 179.869 48.13 179.869 48.71C179.869 49.44 179.209 49.86 178.139 49.86C177.809 49.8764 177.478 49.8244 177.168 49.7074C176.859 49.5904 176.576 49.4109 176.339 49.18C176.053 48.8912 175.886 48.506 175.869 48.1L173.199 48.69C173.282 49.4723 173.636 50.2011 174.199 50.75C174.722 51.248 175.339 51.6363 176.014 51.8922C176.689 52.1481 177.408 52.2664 178.129 52.24M197.859 52.24C198.593 52.2634 199.325 52.1411 200.011 51.8802C200.698 51.6193 201.326 51.225 201.859 50.72C202.53 50.0735 203.013 49.2582 203.259 48.36L200.529 47.45C200.368 48.0233 200.02 48.5261 199.539 48.8778C199.059 49.2295 198.474 49.4099 197.879 49.39C197.494 49.3935 197.113 49.3211 196.756 49.1769C196.399 49.0328 196.074 48.8198 195.799 48.55C195.208 47.8904 194.899 47.025 194.939 46.14C194.896 45.2545 195.205 44.3879 195.799 43.73C196.071 43.4635 196.393 43.2538 196.747 43.113C197.1 42.9723 197.479 42.9032 197.859 42.91C198.199 42.8941 198.539 42.948 198.857 43.0684C199.175 43.1888 199.465 43.3731 199.709 43.61C200.039 43.9612 200.279 44.3865 200.409 44.85L203.189 43.92C202.961 43.0464 202.509 42.247 201.879 41.6C201.329 41.0779 200.681 40.671 199.972 40.4031C199.262 40.1352 198.507 40.0118 197.749 40.04C196.967 40.0308 196.191 40.1763 195.465 40.468C194.739 40.7598 194.078 41.192 193.519 41.74C192.396 42.9298 191.771 44.5039 191.771 46.14C191.771 47.7761 192.396 49.3502 193.519 50.54C194.086 51.0913 194.755 51.5252 195.49 51.817C196.224 52.1087 197.009 52.2525 197.799 52.24M188.359 52.24C189.231 52.2891 190.095 52.0425 190.809 51.54V49.04C190.346 49.3514 189.797 49.5121 189.239 49.5C189.03 49.5357 188.815 49.5203 188.613 49.4552C188.411 49.3901 188.227 49.2772 188.078 49.126C187.929 48.9749 187.818 48.7899 187.756 48.5869C187.693 48.384 187.681 48.1689 187.719 47.96V37.25H184.639V40.41H190.809V43.41H184.639V48.72C184.595 49.6567 184.922 50.573 185.549 51.27C185.928 51.6143 186.372 51.8799 186.854 52.0516C187.336 52.2232 187.848 52.2975 188.359 52.27" fill="white"/>
</svg>
