<svg width="278" height="535" viewBox="0 0 278 535" fill="none" xmlns="http://www.w3.org/2000/svg">
<path d="M125.58 1V65.73V77.18L107.26 58.86H41V1H125.58Z" fill="white"/>
<path d="M125.58 1V65.73V77.18L107.26 58.86H41V1H125.58Z" stroke="#582C89" stroke-width="1.5" stroke-miterlimit="10"/>
<path d="M87.3404 46.9995L65.4504 25.0995C64.5684 24.2198 63.8686 23.1747 63.3912 22.0241C62.9137 20.8736 62.668 19.6401 62.668 18.3944C62.668 17.1487 62.9137 15.9153 63.3912 14.7647C63.8686 13.6142 64.5684 12.5691 65.4504 11.6895L100.76 46.9995C99.8798 47.8817 98.8339 48.5817 97.6825 49.0593C96.5312 49.5369 95.2969 49.7827 94.0504 49.7827C92.8039 49.7827 91.5696 49.5369 90.4182 49.0593C89.2668 48.5817 88.2209 47.8817 87.3404 46.9995Z" fill="white"/>
<path d="M87.3404 46.9995L65.4504 25.0995C64.5684 24.2198 63.8686 23.1747 63.3912 22.0241C62.9137 20.8736 62.668 19.6401 62.668 18.3944C62.668 17.1487 62.9137 15.9153 63.3912 14.7647C63.8686 13.6142 64.5684 12.5691 65.4504 11.6895L100.76 46.9995C99.8798 47.8817 98.8339 48.5817 97.6825 49.0593C96.5312 49.5369 95.2969 49.7827 94.0504 49.7827C92.8039 49.7827 91.5696 49.5369 90.4182 49.0593C89.2668 48.5817 88.2209 47.8817 87.3404 46.9995Z" stroke="#582C89" stroke-width="1.5" stroke-miterlimit="10"/>
<path d="M65.4395 11.6406L77.2195 23.4106C77.719 22.9118 78.1152 22.3195 78.3856 21.6674C78.656 21.0154 78.7951 20.3164 78.7951 19.6105C78.7951 18.9047 78.656 18.2057 78.3856 17.5537C78.1152 16.9016 77.719 16.3093 77.2195 15.8105L69.2195 7.81055L65.4395 11.6406Z" fill="white"/>
<path d="M65.4395 11.6406L77.2195 23.4106C77.719 22.9118 78.1152 22.3195 78.3856 21.6674C78.656 21.0154 78.7951 20.3164 78.7951 19.6105C78.7951 18.9047 78.656 18.2057 78.3856 17.5537C78.1152 16.9016 77.719 16.3093 77.2195 15.8105L69.2195 7.81055L65.4395 11.6406Z" stroke="#582C89" stroke-width="1.5" stroke-miterlimit="10"/>
<path d="M88.9909 35.1807L100.761 47.0007L104.561 43.2007L96.5609 35.2007C96.0622 34.7012 95.4699 34.3049 94.8178 34.0345C94.1658 33.7642 93.4668 33.625 92.7609 33.625C92.0551 33.625 91.3561 33.7642 90.7041 34.0345C90.052 34.3049 89.4597 34.7012 88.9609 35.2007" fill="white"/>
<path d="M88.9902 35.1796L100.76 46.9997L104.56 43.1997L96.5602 35.1997C95.5568 34.1974 94.1976 33.6327 92.7794 33.6289C91.3611 33.6252 89.9989 34.1826 88.9902 35.1796Z" stroke="#582C89" stroke-width="1.5" stroke-miterlimit="10"/>
<path d="M84.3691 16.9004C87.3158 16.9004 90.1422 18.0689 92.2287 20.1497C94.3151 22.2305 95.4912 25.0537 95.4991 28.0004" fill="white"/>
<path d="M84.3691 16.9004C87.3158 16.9004 90.1422 18.0689 92.2287 20.1497C94.3151 22.2305 95.4912 25.0537 95.4991 28.0004" stroke="#582C89" stroke-width="1.5" stroke-miterlimit="10"/>
<path d="M84.3691 11.3301C88.7983 11.3301 93.046 13.0895 96.1778 16.2214C99.3097 19.3533 101.069 23.601 101.069 28.0301" stroke="#582C89" stroke-width="1.5" stroke-miterlimit="10"/>
<path d="M112.34 63.9394L41 58.8594H107.26L112.34 63.9394Z" fill="#582C89"/>
<path d="M129.709 309.631H165.059C178.52 309.632 191.598 314.112 202.233 322.364C212.867 330.616 220.455 342.172 223.799 355.211L248.579 465.021H199.669L210.149 510.521H117.079L137.779 388.521H71.4694L57.6194 388.841C52.3001 388.855 47.0382 387.742 42.1806 385.575C37.323 383.407 32.9802 380.234 29.4385 376.266C25.8968 372.297 23.2368 367.622 21.6339 362.55C20.031 357.478 19.5216 352.124 20.1394 346.841L23.6694 296.901L102.999 279.141L134.249 281.701L160.999 303.141L165.059 309.631" fill="#F3F3F1"/>
<path d="M129.709 309.631H165.059M165.059 309.631C178.52 309.632 191.598 314.112 202.233 322.364C212.867 330.616 220.455 342.172 223.799 355.211L248.579 465.021H199.669L210.149 510.521H117.079L137.779 388.521H71.4694L57.6194 388.841C52.3001 388.855 47.0382 387.742 42.1806 385.575C37.323 383.407 32.9802 380.234 29.4385 376.266C25.8968 372.297 23.2368 367.622 21.6339 362.55C20.031 357.478 19.5216 352.124 20.1394 346.841L23.6694 296.901L102.999 279.141L134.249 281.701L160.999 303.141L165.059 309.631Z" stroke="#582C89" stroke-width="1.5" stroke-miterlimit="10"/>
<path d="M229.82 408.33C231.598 412.025 234.77 414.863 238.64 416.22C245.37 418.77 265.8 423.65 271.14 427.6C276.48 431.55 277.64 434.6 276.71 438.74H215.71C214.38 438.738 213.104 438.212 212.159 437.276C211.214 436.34 210.676 435.07 210.66 433.74L210.34 415.14" fill="white"/>
<path d="M229.82 408.33C231.598 412.025 234.77 414.863 238.64 416.22C245.37 418.77 265.8 423.65 271.14 427.6C276.48 431.55 277.64 434.6 276.71 438.74H215.71C214.38 438.738 213.104 438.212 212.159 437.276C211.214 436.34 210.676 435.07 210.66 433.74L210.34 415.14" stroke="#582C89" stroke-width="1.5" stroke-miterlimit="10"/>
<path d="M239.601 416.57L231.211 424.11" stroke="#582C89" stroke-width="1.5" stroke-miterlimit="10"/>
<path d="M251.401 420.181L245.131 427.831" stroke="#582C89" stroke-width="1.5" stroke-miterlimit="10"/>
<path d="M210.38 416.91L232.42 411.95L228.91 407.61L210.07 414.5L210.38 416.91Z" fill="#582C89"/>
<path d="M160.699 199.991L190.079 127.681L235.069 136.861L207.539 210.291L160.699 199.991Z" fill="white"/>
<path d="M160.699 199.991L190.079 127.681L235.069 136.861L207.539 210.291L160.699 199.991Z" stroke="#582C89" stroke-width="1.5" stroke-miterlimit="10"/>
<path d="M163.721 192.881L210.441 202.561" stroke="#582C89" stroke-width="1.5" stroke-miterlimit="10"/>
<path d="M183.8 205.07C185.5 199.99 182.2 193.58 182.2 193.58L177.59 206.84L181.59 219.84L191.51 222.84L201.74 208.94L183.8 205.07Z" fill="#EFF0F1"/>
<path d="M183.8 205.07C185.5 199.99 182.2 193.58 182.2 193.58L177.59 206.84L181.59 219.84L191.51 222.84L201.74 208.94L183.8 205.07Z" stroke="#582C89" stroke-width="1.5" stroke-miterlimit="10"/>
<path d="M105.199 246.06L125.519 280.14C126.61 282.705 128.337 284.949 130.538 286.659C132.738 288.369 135.339 289.488 138.094 289.911C140.848 290.333 143.665 290.045 146.277 289.074C148.889 288.103 151.21 286.48 153.019 284.36L200.539 222.89L179.079 216.51L146.479 257.68C146.479 257.68 130.179 227.96 122.769 195.94" fill="#F3F3F1"/>
<path d="M105.199 246.06L125.519 280.14C126.61 282.705 128.337 284.949 130.538 286.659C132.738 288.369 135.339 289.488 138.094 289.911C140.848 290.333 143.665 290.045 146.277 289.074C148.889 288.103 151.21 286.48 153.019 284.36L200.539 222.89L179.079 216.51L146.479 257.68C146.479 257.68 130.179 227.96 122.769 195.94" stroke="#582C89" stroke-width="1.5" stroke-miterlimit="10"/>
<path d="M128.05 293.611V291.931C127.64 276.351 125.96 199.141 121.62 186.491C114.88 166.841 80.89 166.891 80.89 166.891H58.19C58.19 166.891 24.89 168.651 13.81 175.201C2.73 181.751 1 266.061 1 283.841C1 283.841 2.36 296.151 17.46 299.961" fill="#F3F3F1"/>
<path d="M128.05 293.611V291.931C127.64 276.351 125.96 199.141 121.62 186.491C114.88 166.841 80.89 166.891 80.89 166.891H58.19C58.19 166.891 24.89 168.651 13.81 175.201C2.73 181.751 1 266.061 1 283.841C1 283.841 2.36 296.151 17.46 299.961" stroke="#582C89" stroke-width="1.5" stroke-linejoin="bevel"/>
<path d="M96.3906 244.82L109.101 238.36C109.101 238.36 113.101 238.21 110.101 241.75C110.101 241.75 105.641 244.65 103.401 245.83C101.161 247.01 99.1906 248.07 99.1906 248.07" fill="#EFF0F1"/>
<path d="M96.3906 244.82L109.101 238.36C109.101 238.36 113.101 238.21 110.101 241.75C110.101 241.75 105.641 244.65 103.401 245.83C101.161 247.01 99.1906 248.07 99.1906 248.07" stroke="#582C89" stroke-width="1.5" stroke-miterlimit="10"/>
<path d="M99.3298 248.011C99.3298 248.011 108.1 243.141 112.96 241.411C114.69 240.801 115.85 241.631 115.3 243.681L101.42 252.531L84.2098 254.211L71.3398 252.211C71.3398 252.211 79.9998 237.541 90.1298 242.511C90.1298 242.511 98.8999 237.671 100.74 240.681C100.927 240.983 101.021 241.335 101.008 241.691C100.996 242.047 100.878 242.392 100.67 242.681" fill="#EFF0F1"/>
<path d="M99.3298 248.011C99.3298 248.011 108.1 243.141 112.96 241.411C114.69 240.801 115.85 241.631 115.3 243.681L101.42 252.531L84.2098 254.211L71.3398 252.211C71.3398 252.211 79.9998 237.541 90.1298 242.511C90.1298 242.511 98.8999 237.671 100.74 240.681C100.927 240.983 101.021 241.335 101.008 241.691C100.996 242.047 100.878 242.392 100.67 242.681" stroke="#582C89" stroke-width="1.5" stroke-miterlimit="10"/>
<path d="M4.05078 291.081C4.58581 291.935 5.1984 292.738 5.88078 293.481C13.5708 302.011 26.8108 302.591 35.6108 295.211L84.8008 258.851L73.8008 242.101L33.8308 264.141L35.3908 224.521" fill="#F3F3F1"/>
<path d="M4.05078 291.081C4.58581 291.935 5.1984 292.738 5.88078 293.481C13.5708 302.011 26.8108 302.591 35.6108 295.211L84.8008 258.851L73.8008 242.101L33.8308 264.141L35.3908 224.521" stroke="#582C89" stroke-width="1.5" stroke-linejoin="bevel"/>
<path d="M87.3399 168.011L48.6699 168.161" stroke="#582C89" stroke-width="1.5" stroke-miterlimit="10"/>
<path d="M73.9609 168.65V238.71" stroke="#582C89" stroke-width="1.5" stroke-linejoin="bevel"/>
<path d="M79.4199 178.49H83.9199" stroke="#582C89" stroke-width="1.5" stroke-linejoin="bevel"/>
<path d="M79.4199 189H83.9199" stroke="#582C89" stroke-width="1.5" stroke-linejoin="bevel"/>
<path d="M79.4199 199.521H83.9199" stroke="#582C89" stroke-width="1.5" stroke-linejoin="bevel"/>
<path d="M79.4199 210.03H83.9199" stroke="#582C89" stroke-width="1.5" stroke-linejoin="bevel"/>
<path d="M79.4199 220.551H83.9199" stroke="#582C89" stroke-width="1.5" stroke-linejoin="bevel"/>
<path d="M187.41 133.761L232.57 143.111" stroke="#582C89" stroke-width="1.5" stroke-miterlimit="10"/>
<path d="M10.2793 530.651V428.281C10.2793 417.765 14.4567 407.68 21.8925 400.244C29.3283 392.808 39.4135 388.631 49.9293 388.631H148.339V534.141" stroke="#582C89" stroke-width="1.5" stroke-miterlimit="10"/>
<path d="M162.899 453C163.779 454.83 165.011 456.469 166.525 457.822C168.038 459.176 169.803 460.219 171.719 460.89C178.449 463.44 198.879 468.32 204.219 472.26C209.559 476.2 210.719 479.26 209.789 483.41H148.789C147.468 483.394 146.205 482.863 145.271 481.928C144.337 480.994 143.805 479.731 143.789 478.41L143.439 459.76" fill="white"/>
<path d="M162.899 453C163.779 454.83 165.011 456.469 166.525 457.822C168.038 459.176 169.803 460.219 171.719 460.89C178.449 463.44 198.879 468.32 204.219 472.26C209.559 476.2 210.719 479.26 209.789 483.41H148.789C147.468 483.394 146.205 482.863 145.271 481.928C144.337 480.994 143.805 479.731 143.789 478.41L143.439 459.76" stroke="#582C89" stroke-width="1.5" stroke-miterlimit="10"/>
<path d="M172.679 461.24L164.279 468.78" stroke="#582C89" stroke-width="1.5" stroke-miterlimit="10"/>
<path d="M184.481 464.851L178.211 472.501" stroke="#582C89" stroke-width="1.5" stroke-miterlimit="10"/>
<path d="M143.46 461.581L165.5 456.62L161.98 452.271L143.15 459.171L143.46 461.581Z" fill="#582C89"/>
<path d="M77.9707 388.221L151.641 393.801V388.751L77.9707 388.221Z" fill="#582C89"/>
<path d="M77.9707 388.221L151.641 393.801V388.751L77.9707 388.221Z" stroke="#582C89" stroke-width="1.5" stroke-miterlimit="10"/>
<path d="M46.5898 167.221L87.3298 168.341L84.7098 160.411C84.0543 158.558 83.9718 156.552 84.473 154.652C84.9743 152.753 86.036 151.048 87.5198 149.76C88.6642 148.82 90.0139 148.162 91.4598 147.841C104.54 144.911 110 131.651 109 116.141C107.68 95.0205 104.49 82.0005 86.9998 81.0505C82.77 80.8131 78.535 81.4141 74.5382 82.8188C70.5414 84.2236 66.8616 86.4044 63.7104 89.2359C60.5592 92.0675 57.9987 95.4939 56.176 99.3182C54.3534 103.143 53.3046 107.289 53.0898 111.521L50.6298 136.521L46.5898 167.221Z" fill="#EFF0F1"/>
<path d="M46.5898 167.221L87.3298 168.341L84.7098 160.411C84.0543 158.558 83.9718 156.552 84.473 154.652C84.9743 152.753 86.036 151.048 87.5198 149.76C88.6642 148.82 90.0139 148.162 91.4598 147.841C104.54 144.911 110 131.651 109 116.141C107.68 95.0205 104.49 82.0005 86.9998 81.0505C82.77 80.8131 78.535 81.4141 74.5382 82.8188C70.5414 84.2236 66.8616 86.4044 63.7104 89.2359C60.5592 92.0675 57.9987 95.4939 56.176 99.3182C54.3534 103.143 53.3046 107.289 53.0898 111.521L50.6298 136.521L46.5898 167.221Z" stroke="#582C89" stroke-width="1.5" stroke-miterlimit="10"/>
<path d="M46.0691 160.991L86.6991 160.791L87.3191 168.341L44.0391 168.321L46.0691 160.991Z" fill="#F3F3F1"/>
<path d="M46.0691 160.991L86.6991 160.791L87.3191 168.341L44.0391 168.321L46.0691 160.991Z" stroke="#582C89" stroke-width="1.5" stroke-miterlimit="10"/>
<path d="M78.1708 132.851C77.767 133.018 77.4033 133.269 77.1039 133.587C76.8045 133.905 76.5763 134.284 76.4344 134.697C76.2925 135.11 76.2402 135.549 76.281 135.984C76.3218 136.419 76.4547 136.841 76.6708 137.221C79.4408 142.091 84.1608 145.981 89.9308 146.291C92.2512 146.509 94.5903 146.175 96.7562 145.314C98.9222 144.454 100.853 143.092 102.391 141.341C102.485 141.236 102.569 141.122 102.641 141.001L106.111 135.411C106.111 135.411 98.9608 141.511 93.1108 141.731C88.3008 141.921 84.1108 138.361 82.0408 134.281C81.6881 133.597 81.0917 133.071 80.3694 132.806C79.6472 132.541 78.8519 132.557 78.1408 132.851" fill="#582C89"/>
<path d="M78.1708 132.85C77.767 133.017 77.4033 133.268 77.1039 133.587C76.8045 133.905 76.5763 134.283 76.4344 134.697C76.2925 135.11 76.2402 135.549 76.281 135.984C76.3218 136.419 76.4547 136.84 76.6708 137.22C79.4408 142.09 84.1608 145.98 89.9308 146.29C92.2512 146.509 94.5903 146.174 96.7562 145.314C98.9222 144.453 100.853 143.092 102.391 141.34C102.485 141.235 102.569 141.122 102.641 141L106.111 135.41C106.111 135.41 98.9608 141.51 93.1108 141.73C88.3008 141.92 84.1108 138.36 82.0408 134.28C81.6887 133.604 81.0973 133.083 80.3819 132.818C79.6665 132.554 78.8783 132.565 78.1708 132.85Z" stroke="#582C89" stroke-width="1.5" stroke-linejoin="bevel"/>
<path d="M44.7205 144.63C43.8305 133.76 49.8605 111.311 49.8605 111.311C54.7605 105.311 59.5405 104.771 59.5405 104.771L72.9305 168.771L56.4505 210.891C56.4505 210.891 45.3505 152.21 44.7205 144.63Z" fill="#F3F3F1"/>
<path d="M44.7205 144.63C43.8305 133.76 49.8605 111.311 49.8605 111.311C54.7605 105.311 59.5405 104.771 59.5405 104.771L72.9305 168.771L56.4505 210.891C56.4505 210.891 45.3505 152.21 44.7205 144.63Z" stroke="#582C89" stroke-width="1.5" stroke-linejoin="bevel"/>
<path d="M109 123.311L104.31 121.721L89.5 127.641C89.5 127.641 95.78 132.001 100.5 128.301C105.22 124.601 104.96 125.211 104.96 125.211C106.026 126.162 107.185 127.003 108.42 127.721" fill="#582C89"/>
<path d="M109 123.311L104.31 121.721L89.5 127.641C89.5 127.641 95.78 132.001 100.5 128.301C105.22 124.601 104.96 125.211 104.96 125.211C106.026 126.162 107.185 127.003 108.42 127.721" stroke="#582C89" stroke-width="1.5" stroke-miterlimit="10"/>
<path d="M107.709 93.04L55.1495 100.04C41.2995 119.95 44.7195 144.59 44.7195 144.59C53.2995 110.64 91.3795 103.77 103.189 100.04C106.659 98.95 108.189 98.3401 107.859 94.7101L107.709 93.04Z" fill="#F3F3F1"/>
<path d="M107.709 93.04L55.1495 100.04C41.2995 119.95 44.7195 144.59 44.7195 144.59C53.2995 110.64 91.3795 103.77 103.189 100.04C106.659 98.95 108.189 98.3401 107.859 94.7101L107.709 93.04Z" stroke="#582C89" stroke-width="1.5" stroke-linejoin="bevel"/>
<path d="M56.7891 97.0102C59.5024 92.8591 63.0614 89.3274 67.2333 86.6461C71.4051 83.9648 76.096 82.1942 80.9991 81.4502C93.1491 79.6102 100.559 84.8702 104.819 89.0102C106.409 90.5502 107.559 91.9402 108.359 92.7502L56.7891 97.0102Z" fill="#F3F3F1"/>
<path d="M56.7891 97.0102C59.5024 92.8591 63.0614 89.3274 67.2333 86.6461C71.4051 83.9648 76.096 82.1942 80.9991 81.4502C93.1491 79.6102 100.559 84.8702 104.819 89.0102C106.409 90.5502 107.559 91.9402 108.359 92.7502L56.7891 97.0102Z" stroke="#582C89" stroke-width="1.5" stroke-linejoin="bevel"/>
<path d="M47.6891 100.78L113.229 95.3605C113.32 95.3504 113.404 95.3049 113.462 95.2339C113.52 95.1628 113.548 95.0718 113.539 94.9805L113.289 91.8705C113.279 91.7786 113.234 91.694 113.163 91.6344C113.092 91.5749 113.001 91.5448 112.909 91.5505L47.3691 96.9805C47.3239 96.9829 47.2797 96.9946 47.2392 97.0148C47.1987 97.035 47.1628 97.0634 47.1337 97.0981C47.1046 97.1328 47.083 97.1731 47.0702 97.2165C47.0573 97.26 47.0536 97.3055 47.0591 97.3505L47.3091 100.46C47.3192 100.552 47.3643 100.637 47.4351 100.697C47.5058 100.756 47.5968 100.786 47.6891 100.78Z" fill="#F3F3F1"/>
<path d="M47.6891 100.78L113.229 95.3605C113.32 95.3504 113.404 95.3049 113.462 95.2339C113.52 95.1628 113.548 95.0718 113.539 94.9805L113.289 91.8705C113.279 91.7786 113.234 91.694 113.163 91.6344C113.092 91.5749 113.001 91.5448 112.909 91.5505L47.3691 96.9805C47.3239 96.9829 47.2797 96.9946 47.2392 97.0148C47.1987 97.035 47.1628 97.0634 47.1337 97.0981C47.1046 97.1328 47.083 97.1731 47.0702 97.2165C47.0573 97.26 47.0536 97.3055 47.0591 97.3505L47.3091 100.46C47.3192 100.552 47.3643 100.637 47.4351 100.697C47.5058 100.756 47.5968 100.786 47.6891 100.78Z" stroke="#582C89" stroke-width="1.5" stroke-miterlimit="10"/>
</svg>
