<svg width="177" height="209" viewBox="0 0 177 209" fill="none" xmlns="http://www.w3.org/2000/svg">
<path d="M135.839 62.8496H85.0391V77.1296H135.839V62.8496Z" fill="#EAEDEE"/>
<path d="M135.839 62.8496H85.0391V77.1296H135.839V62.8496Z" stroke="#572C87" stroke-width="0.5" stroke-miterlimit="10"/>
<path d="M175.799 3.83984H131.219V50.3598H175.799V3.83984Z" fill="white"/>
<path d="M175.799 3.83984H131.219V50.3598H175.799V3.83984Z" stroke="#572C87" stroke-width="0.5" stroke-linejoin="bevel"/>
<path d="M91.1288 3.83984H46.5488V50.3598H91.1288V3.83984Z" fill="white"/>
<path d="M91.1288 3.83984H46.5488V50.3598H91.1288V3.83984Z" stroke="#572C87" stroke-width="0.5" stroke-linejoin="bevel"/>
<path d="M56.3882 26.4602C56.3524 28.6576 56.9721 30.8157 58.1681 32.6593C59.3642 34.503 61.0823 35.9485 63.1034 36.8116C65.1245 37.6746 67.3568 37.9159 69.5156 37.5049C71.6744 37.0938 73.6619 36.0489 75.2243 34.5035C76.7867 32.958 77.8534 30.9822 78.2881 28.828C78.7229 26.6739 78.506 24.439 77.6652 22.4085C76.8244 20.3781 75.3979 18.6442 73.5674 17.4281C71.737 16.2119 69.5858 15.5686 67.3882 15.5802C64.4915 15.5801 61.7116 16.7225 59.6522 18.7595C57.5927 20.7965 56.4198 23.5637 56.3882 26.4602Z" fill="#572C87"/>
<path d="M56.3882 26.4602C56.3524 28.6576 56.9721 30.8157 58.1681 32.6593C59.3642 34.503 61.0823 35.9485 63.1034 36.8116C65.1245 37.6746 67.3568 37.9159 69.5156 37.5049C71.6744 37.0938 73.6619 36.0489 75.2243 34.5035C76.7867 32.958 77.8534 30.9822 78.2881 28.828C78.7229 26.6739 78.506 24.439 77.6652 22.4085C76.8244 20.3781 75.3979 18.6442 73.5674 17.4281C71.737 16.2119 69.5858 15.5686 67.3882 15.5802C64.4915 15.5801 61.7116 16.7225 59.6522 18.7595C57.5927 20.7965 56.4198 23.5637 56.3882 26.4602Z" stroke="#572C87" stroke-width="0.5" stroke-miterlimit="10"/>
<path d="M56.9492 26.35C56.9473 28.4808 57.5768 30.5644 58.7584 32.3376C59.9399 34.1108 61.6205 35.4941 63.5878 36.3127C65.5551 37.1314 67.7209 37.3485 69.8115 36.937C71.9022 36.5254 73.824 35.5035 75.3342 34.0002C76.8444 32.497 77.8752 30.58 78.2965 28.4912C78.7177 26.4025 78.5105 24.2358 77.7011 22.2647C76.8916 20.2937 75.5161 18.6067 73.7484 17.4169C71.9806 16.2272 69.9 15.588 67.7692 15.5801C64.9137 15.5827 62.1758 16.7182 60.1566 18.7374C58.1374 20.7566 57.0019 23.4945 56.9992 26.35" fill="white"/>
<path d="M78.4972 26.4085C78.52 20.4604 73.7167 15.6201 67.7686 15.5972C61.8205 15.5744 56.9802 20.3777 56.9574 26.3258C56.9345 32.2738 61.7378 37.1142 67.6859 37.1371C73.634 37.1599 78.4743 32.3565 78.4972 26.4085Z" stroke="#572C87" stroke-width="0.5" stroke-miterlimit="10"/>
<path d="M59.82 19C58.5602 19.9763 57.6969 21.3761 57.39 22.94C57.281 23.7077 57.374 24.4905 57.6598 25.2112C57.9457 25.9319 58.4145 26.5657 59.02 27.05C59.6014 27.4337 60.0312 28.0079 60.2356 28.6739C60.4399 29.3399 60.4061 30.0562 60.14 30.7C59.88 31.91 59.43 34.33 63.14 34.94C64.5806 35.0995 65.9571 35.6225 67.14 36.46C67.8718 37.0556 68.7866 37.3805 69.73 37.38H70.17C71.2652 37.1249 72.2919 36.6352 73.1794 35.9446C74.0668 35.254 74.7937 34.379 75.31 33.38C76.17 31.66 75.54 29.96 76.74 28.25C79.04 24.95 78.88 23.25 77.02 20.87C75.16 18.49 74.15 20.11 71.02 17.33C67.89 14.55 66.75 15.16 64.3 17.33C61.85 19.5 59.83 19.05 59.83 19.05" fill="#EAEDEE"/>
<path d="M59.82 19C58.5602 19.9763 57.6969 21.3761 57.39 22.94C57.281 23.7077 57.374 24.4905 57.6598 25.2112C57.9457 25.9319 58.4145 26.5657 59.02 27.05C59.6014 27.4337 60.0312 28.0079 60.2356 28.6739C60.4399 29.3399 60.4061 30.0562 60.14 30.7C59.88 31.91 59.43 34.33 63.14 34.94C64.5806 35.0995 65.9571 35.6225 67.14 36.46C67.8718 37.0556 68.7866 37.3805 69.73 37.38H70.17C71.2652 37.1249 72.2919 36.6352 73.1794 35.9446C74.0668 35.254 74.7937 34.379 75.31 33.38C76.17 31.66 75.54 29.96 76.74 28.25C79.04 24.95 78.88 23.25 77.02 20.87C75.16 18.49 74.15 20.11 71.02 17.33C67.89 14.55 66.75 15.16 64.3 17.33C61.85 19.5 59.82 19 59.82 19Z" stroke="#572C87" stroke-width="0.5" stroke-miterlimit="10"/>
<path d="M64.2891 26.3499C64.2871 27.0307 64.4871 27.6968 64.8639 28.2638C65.2407 28.8308 65.7773 29.2733 66.4057 29.5352C67.0341 29.7971 67.726 29.8666 68.394 29.735C69.0619 29.6034 69.6759 29.2766 70.158 28.7959C70.6401 28.3152 70.9686 27.7023 71.1022 27.0347C71.2357 26.3672 71.1682 25.675 70.9082 25.0458C70.6481 24.4167 70.2072 23.8788 69.6413 23.5004C69.0753 23.1219 68.4099 22.9199 67.7291 22.9199C66.8185 22.9199 65.945 23.281 65.3001 23.924C64.6553 24.5669 64.2917 25.4393 64.2891 26.3499Z" fill="#572C87"/>
<path d="M64.2891 26.3499C64.2871 27.0307 64.4871 27.6968 64.8639 28.2638C65.2407 28.8308 65.7773 29.2733 66.4057 29.5352C67.0341 29.7971 67.726 29.8666 68.394 29.735C69.0619 29.6034 69.6759 29.2766 70.158 28.7959C70.6401 28.3152 70.9686 27.7023 71.1022 27.0347C71.2357 26.3672 71.1682 25.675 70.9082 25.0458C70.6481 24.4167 70.2072 23.8788 69.6413 23.5004C69.0753 23.1219 68.4099 22.9199 67.7291 22.9199C66.8185 22.9199 65.945 23.281 65.3001 23.924C64.6553 24.5669 64.2917 25.4393 64.2891 26.3499Z" stroke="#572C87" stroke-width="0.5" stroke-miterlimit="10"/>
<path d="M64.709 26.14C64.707 26.7792 64.8948 27.4046 65.2485 27.9371C65.6022 28.4696 66.106 28.8852 66.696 29.1312C67.286 29.3772 67.9358 29.4426 68.563 29.3191C69.1902 29.1956 69.7667 28.8888 70.2194 28.4374C70.6721 27.9861 70.9807 27.4106 71.1062 26.7838C71.2316 26.1569 71.1683 25.507 70.9241 24.9162C70.6799 24.3254 70.2659 23.8203 69.7345 23.465C69.2031 23.1096 68.5782 22.9199 67.939 22.9199C67.0841 22.9199 66.264 23.2588 65.6586 23.8624C65.0531 24.466 64.7116 25.285 64.709 26.14Z" fill="white"/>
<path d="M64.709 26.14C64.707 26.7792 64.8948 27.4046 65.2485 27.9371C65.6022 28.4696 66.106 28.8852 66.696 29.1312C67.286 29.3772 67.9358 29.4426 68.563 29.3191C69.1902 29.1956 69.7667 28.8888 70.2194 28.4374C70.6721 27.9861 70.9807 27.4106 71.1062 26.7838C71.2316 26.1569 71.1683 25.507 70.9241 24.9162C70.6799 24.3254 70.2659 23.8203 69.7345 23.465C69.2031 23.1096 68.5782 22.9199 67.939 22.9199C67.0841 22.9199 66.264 23.2588 65.6586 23.8624C65.0531 24.466 64.7116 25.285 64.709 26.14Z" stroke="#572C87" stroke-width="0.5" stroke-miterlimit="10"/>
<path d="M67.7183 16.6699L66.7383 17.2499" stroke="#572C87" stroke-width="0.5" stroke-miterlimit="10"/>
<path d="M65.8086 20.5795L64.8086 20.1895" stroke="#572C87" stroke-width="0.5" stroke-miterlimit="10"/>
<path d="M62.8301 31.6302L61.8301 31.2402" stroke="#F3F3F1" stroke-width="0.5" stroke-miterlimit="10"/>
<path d="M67.5586 20.7188L67.8786 21.3788" stroke="#572C87" stroke-width="0.5" stroke-miterlimit="10"/>
<path d="M61.0684 20.3887L61.3983 21.0486" stroke="#572C87" stroke-width="0.5" stroke-miterlimit="10"/>
<path d="M65.1484 32.2988L65.4684 32.9589" stroke="#8E9AA0" stroke-width="0.5" stroke-miterlimit="10"/>
<path d="M69.1888 17.8398L68.7188 18.2098" stroke="#572C87" stroke-width="0.5" stroke-miterlimit="10"/>
<path d="M71.4883 19.1289L72.0583 19.8189" stroke="#F3F3F1" stroke-width="0.5" stroke-miterlimit="10"/>
<path d="M75.8697 20.7188H74.6797" stroke="#572C87" stroke-width="0.5" stroke-miterlimit="10"/>
<path d="M74.4297 21.9395V22.4794" stroke="#572C87" stroke-width="0.5" stroke-miterlimit="10"/>
<path d="M69.5488 30.7891V31.3291" stroke="#8E9AA0" stroke-width="0.5" stroke-miterlimit="10"/>
<path d="M61.8301 27.5391V28.0791" stroke="#572C87" stroke-width="0.5" stroke-miterlimit="10"/>
<path d="M58.8594 23.5391V24.0791" stroke="#F3F3F1" stroke-width="0.5" stroke-miterlimit="10"/>
<path d="M73.0798 25.2285L72.5098 25.4485" stroke="#572C87" stroke-width="0.5" stroke-miterlimit="10"/>
<path d="M72.6286 33.8594L72.0586 34.0794" stroke="#F3F3F1" stroke-width="0.5" stroke-miterlimit="10"/>
<path d="M71.7695 21.4688V22.4088" stroke="#8E9AA0" stroke-width="0.5" stroke-miterlimit="10"/>
<path d="M68.9492 33.9688V34.8988" stroke="#572C87" stroke-width="0.5" stroke-miterlimit="10"/>
<path d="M74.43 27.5098L73.25 28.1198" stroke="#F3F3F1" stroke-width="0.5" stroke-miterlimit="10"/>
<path d="M62.4185 24.1797L61.2285 24.7897" stroke="#8E9AA0" stroke-width="0.5" stroke-miterlimit="10"/>
<path d="M76.7592 24.8502L75.8691 24.4902" stroke="#8E9AA0" stroke-width="0.5" stroke-miterlimit="10"/>
<path d="M73.2496 31.4186L72.3496 31.0586" stroke="#572C87" stroke-width="0.5" stroke-miterlimit="10"/>
<path d="M134.33 1H88.0195V54.01H134.33V1Z" fill="white"/>
<path d="M134.33 1H88.0195V54.01H134.33V1Z" stroke="#572C87" stroke-width="0.5" stroke-linejoin="bevel"/>
<path d="M88.0199 3.83984H87.3398V50.3598H88.0199V3.83984Z" fill="#572C87"/>
<path d="M88.0199 3.83984H87.3398V50.3598H88.0199V3.83984Z" stroke="#572C87" stroke-width="0.5" stroke-miterlimit="10"/>
<path d="M135.01 3.83984H134.33V50.3598H135.01V3.83984Z" fill="#572C87"/>
<path d="M135.01 3.83984H134.33V50.3598H135.01V3.83984Z" stroke="#572C87" stroke-width="0.5" stroke-miterlimit="10"/>
<path d="M142.988 23.1802H166.118V20.8202C166.118 20.755 166.105 20.6904 166.08 20.6303C166.055 20.5702 166.018 20.5157 165.971 20.4701C165.925 20.4244 165.87 20.3886 165.809 20.3645C165.748 20.3405 165.683 20.3288 165.618 20.3302H143.488C143.357 20.3302 143.232 20.3814 143.138 20.4731C143.045 20.5647 142.991 20.6893 142.988 20.8202V23.1802Z" fill="#EAEDEE"/>
<path d="M142.988 23.1802H166.118V20.8202C166.118 20.755 166.105 20.6904 166.08 20.6303C166.055 20.5702 166.018 20.5157 165.971 20.4701C165.925 20.4244 165.87 20.3886 165.809 20.3645C165.748 20.3405 165.683 20.3288 165.618 20.3302H143.488C143.357 20.3302 143.232 20.3814 143.138 20.4731C143.045 20.5647 142.991 20.6893 142.988 20.8202V23.1802Z" stroke="#572C87" stroke-width="0.5" stroke-miterlimit="10"/>
<path d="M166.118 23.1797H142.988V26.8297H166.118V23.1797Z" fill="white"/>
<path d="M166.118 23.1797H142.988V26.8297H166.118V23.1797Z" stroke="#572C87" stroke-width="0.5" stroke-linejoin="bevel"/>
<path d="M166.12 23.1797C166.12 23.1797 167.12 24.6097 166.8 25.0097C166.48 25.4097 165.67 24.4797 163.8 25.0097C161.73 25.5997 158.39 26.4197 157.35 23.9497C157.02 23.1697 156.92 23.1797 156.92 23.1797H166.12Z" fill="white"/>
<path d="M166.12 23.1797C166.12 23.1797 167.12 24.6097 166.8 25.0097C166.48 25.4097 165.67 24.4797 163.8 25.0097C161.73 25.5997 158.39 26.4197 157.35 23.9497C157.02 23.1697 156.92 23.1797 156.92 23.1797H166.12Z" stroke="#572C87" stroke-width="0.5" stroke-miterlimit="10"/>
<path d="M149.87 23.1797L151.4 24.5497C150.665 25.1644 149.747 25.5163 148.79 25.5497C147.29 25.5497 146.91 24.6097 144.66 25.0097C142.41 25.4097 140.58 23.9297 142.73 23.1797H149.87Z" fill="white"/>
<path d="M149.87 23.1797L151.4 24.5497C150.665 25.1644 149.747 25.5163 148.79 25.5497C147.29 25.5497 146.91 24.6097 144.66 25.0097C142.41 25.4097 140.58 23.9297 142.73 23.1797H149.87Z" stroke="#572C87" stroke-width="0.5" stroke-linejoin="bevel"/>
<path d="M142.069 29.5801H167.069C167.252 29.5801 167.428 29.5074 167.557 29.378C167.686 29.2486 167.759 29.0731 167.759 28.8901V27.5301C167.76 27.4386 167.744 27.3478 167.71 27.2629C167.675 27.1781 167.625 27.1008 167.561 27.0357C167.496 26.9706 167.42 26.9188 167.336 26.8835C167.251 26.8482 167.161 26.8301 167.069 26.8301H142.069C141.884 26.8301 141.705 26.9038 141.574 27.0351C141.443 27.1664 141.369 27.3444 141.369 27.5301V28.8901C141.369 28.9815 141.387 29.0721 141.423 29.1564C141.458 29.2408 141.51 29.3173 141.575 29.3815C141.64 29.4457 141.717 29.4964 141.802 29.5305C141.887 29.5645 141.978 29.5814 142.069 29.5801Z" fill="white"/>
<path d="M167.029 26.8301H142.059C141.673 26.8301 141.359 27.1435 141.359 27.5301V28.8801C141.359 29.2667 141.673 29.5801 142.059 29.5801H167.029C167.416 29.5801 167.729 29.2667 167.729 28.8801V27.5301C167.729 27.1435 167.416 26.8301 167.029 26.8301Z" stroke="#572C87" stroke-width="0.5" stroke-linejoin="bevel"/>
<path d="M160.02 23.1797L154.5 27.9197L149.08 23.1797H160.02Z" fill="white"/>
<path d="M160.02 23.1797L154.5 27.9197L149.08 23.1797H160.02Z" stroke="#572C87" stroke-width="0.5" stroke-linejoin="bevel"/>
<path d="M143.488 32.5492H165.618C165.751 32.5492 165.878 32.4965 165.972 32.4028C166.066 32.309 166.118 32.1818 166.118 32.0492V29.6992H142.988V32.0492C142.991 32.181 143.044 32.3067 143.138 32.3999C143.231 32.4931 143.356 32.5466 143.488 32.5492Z" fill="#EAEDEE"/>
<path d="M143.488 32.5492H165.618C165.751 32.5492 165.878 32.4965 165.972 32.4028C166.066 32.309 166.118 32.1818 166.118 32.0492V29.6992H142.988V32.0492C142.991 32.181 143.044 32.3067 143.138 32.3999C143.231 32.4931 143.356 32.5466 143.488 32.5492Z" stroke="#572C87" stroke-width="0.5" stroke-miterlimit="10"/>
<path d="M93.8496 70.2686L101.28 65.9785V74.5585L93.8496 70.2686Z" fill="white"/>
<path d="M93.8496 70.2686L101.28 65.9785V74.5585L93.8496 70.2686Z" stroke="#572C87" stroke-width="0.5" stroke-linejoin="bevel"/>
<path d="M127.039 70.2686L119.609 74.5585V65.9785L127.039 70.2686Z" fill="white"/>
<path d="M127.039 70.2686L119.609 74.5585V65.9785L127.039 70.2686Z" stroke="#572C87" stroke-width="0.5" stroke-linejoin="bevel"/>
<path d="M107.66 70.2695C107.66 70.8629 107.836 71.4429 108.166 71.9362C108.495 72.4296 108.964 72.8141 109.512 73.0411C110.06 73.2682 110.663 73.3276 111.245 73.2119C111.827 73.0961 112.362 72.8104 112.781 72.3908C113.201 71.9713 113.487 71.4367 113.602 70.8548C113.718 70.2729 113.659 69.6696 113.432 69.1215C113.205 68.5733 112.82 68.1047 112.327 67.7751C111.833 67.4454 111.254 67.2695 110.66 67.2695C109.865 67.2695 109.101 67.5856 108.539 68.1482C107.976 68.7108 107.66 69.4739 107.66 70.2695Z" fill="#572C87"/>
<path d="M110.688 73.3085C112.367 73.3085 113.728 71.9475 113.728 70.2686C113.728 68.5896 112.367 67.2285 110.688 67.2285C109.01 67.2285 107.648 68.5896 107.648 70.2686C107.648 71.9475 109.01 73.3085 110.688 73.3085Z" stroke="#572C87" stroke-width="0.5" stroke-miterlimit="10"/>
<path d="M135.839 77.1289H85.0391V78.5789H135.839V77.1289Z" fill="#572C87"/>
<path d="M135.839 77.1289H85.0391V78.5789H135.839V77.1289Z" stroke="#572C87" stroke-width="0.5" stroke-linejoin="bevel"/>
<path d="M47.0197 53.9091L45.5996 48.8691" stroke="white" stroke-width="0.5" stroke-linejoin="bevel"/>
<path d="M62.8887 51C63.7586 51.9253 64.4382 53.0126 64.8887 54.2L62.8887 51Z" fill="#572C87"/>
<path d="M62.8887 51C63.7586 51.9253 64.4382 53.0126 64.8887 54.2" stroke="white" stroke-width="0.5" stroke-linejoin="bevel"/>
<path d="M82.8984 42.9989L91.3084 42.3589L96.9984 39.2889C96.6468 38.801 96.1818 38.4059 95.6435 38.1376C95.1052 37.8693 94.5098 37.7359 93.9084 37.7489C92.4171 37.9259 90.9488 38.2612 89.5284 38.7489" fill="#F3F3F1"/>
<path d="M82.8984 42.9989L91.3084 42.3589L96.9984 39.2889C96.6468 38.801 96.1818 38.4059 95.6435 38.1376C95.1052 37.8693 94.5098 37.7359 93.9084 37.7489C92.4171 37.9259 90.9488 38.2612 89.5284 38.7489" stroke="#572C87" stroke-width="0.5" stroke-miterlimit="10"/>
<path d="M81.6793 44.4796L83.2193 43.4896L80.0693 39.3496L78.5293 40.2896L81.6793 44.4796Z" fill="white"/>
<path d="M81.6793 44.4796L83.2193 43.4896L80.0693 39.3496L78.5293 40.2896L81.6793 44.4796Z" stroke="#572C87" stroke-width="0.5" stroke-miterlimit="10"/>
<path d="M49.75 192.04L52.77 202.09L59.33 201.7L56.97 190.09L49.75 192.04Z" fill="white"/>
<path d="M49.75 192.04L52.77 202.09L59.33 201.7L56.97 190.09L49.75 192.04Z" stroke="#572C87" stroke-width="0.5" stroke-miterlimit="10"/>
<path d="M51.3296 205.819C51.3296 205.819 49.8396 202.359 51.6296 200.419C51.7704 200.27 51.9611 200.177 52.1657 200.159C52.3702 200.14 52.5743 200.197 52.7396 200.319L53.2996 200.719C53.8403 201.017 54.4474 201.173 55.0646 201.173C55.6818 201.173 56.2889 201.017 56.8296 200.719L57.5296 200.309C58.1101 199.964 58.7703 199.777 59.4453 199.764C60.1204 199.752 60.787 199.916 61.3796 200.239L66.6996 203.119L68.4696 203.629C72.9896 204.829 71.7296 207.779 71.7296 207.779H51.8996C50.8996 207.659 50.6696 206.779 51.2296 205.949L51.3296 205.819Z" fill="#F3F3F1"/>
<path d="M51.3296 205.819C51.3296 205.819 49.8396 202.359 51.6296 200.419C51.7704 200.27 51.9611 200.177 52.1657 200.159C52.3702 200.14 52.5743 200.197 52.7396 200.319L53.2996 200.719C53.8403 201.017 54.4474 201.173 55.0646 201.173C55.6818 201.173 56.2889 201.017 56.8296 200.719L57.5296 200.309C58.1101 199.964 58.7703 199.777 59.4453 199.764C60.1204 199.752 60.787 199.916 61.3796 200.239L66.6996 203.119L68.4696 203.629C72.9896 204.829 71.7296 207.779 71.7296 207.779H51.8996C50.8996 207.659 50.6696 206.779 51.2296 205.949L51.3296 205.819Z" stroke="#572C87" stroke-width="0.5" stroke-miterlimit="10"/>
<path d="M61.6788 200.41L60.2988 202.68" stroke="#572C87" stroke-width="0.5" stroke-miterlimit="10"/>
<path d="M63.379 201.449L62.209 203.399" stroke="#F3F3F1" stroke-width="0.5" stroke-miterlimit="10"/>
<path d="M63.379 201.449L62.209 203.399" stroke="#572C87" stroke-width="0.5" stroke-miterlimit="10"/>
<path d="M65.0889 202.479L64.1289 204.129" stroke="#F3F3F1" stroke-width="0.5" stroke-miterlimit="10"/>
<path d="M65.0889 202.479L64.1289 204.129" stroke="#572C87" stroke-width="0.5" stroke-miterlimit="10"/>
<path d="M19.1094 192.04L22.8294 202.09L28.6894 201.7L26.3294 190.09L19.1094 192.04Z" fill="white"/>
<path d="M19.1094 192.04L22.8294 202.09L28.6894 201.7L26.3294 190.09L19.1094 192.04Z" stroke="#572C87" stroke-width="0.5" stroke-miterlimit="10"/>
<path d="M20.6895 205.819C20.6895 205.819 19.1894 202.359 20.9894 200.419C21.1303 200.269 21.321 200.177 21.5255 200.158C21.73 200.14 21.9342 200.197 22.0995 200.319L22.6595 200.719C23.2002 201.017 23.8073 201.173 24.4245 201.173C25.0417 201.173 25.6488 201.017 26.1895 200.719L26.8795 200.309C27.4618 199.964 28.1236 199.777 28.8002 199.764C29.4768 199.752 30.145 199.916 30.7394 200.239L36.0595 203.119L37.8295 203.629C42.3495 204.829 41.0795 207.779 41.0795 207.779H21.2595C20.2595 207.659 20.0295 206.779 20.5895 205.949L20.6895 205.819Z" fill="#F3F3F1"/>
<path d="M20.6895 205.819C20.6895 205.819 19.1894 202.359 20.9894 200.419C21.1303 200.269 21.321 200.177 21.5255 200.158C21.73 200.14 21.9342 200.197 22.0995 200.319L22.6595 200.719C23.2002 201.017 23.8073 201.173 24.4245 201.173C25.0417 201.173 25.6488 201.017 26.1895 200.719L26.8795 200.309C27.4618 199.964 28.1236 199.777 28.8002 199.764C29.4768 199.752 30.145 199.916 30.7394 200.239L36.0595 203.119L37.8295 203.629C42.3495 204.829 41.0795 207.779 41.0795 207.779H21.2595C20.2595 207.659 20.0295 206.779 20.5895 205.949L20.6895 205.819Z" stroke="#572C87" stroke-width="0.5" stroke-miterlimit="10"/>
<path d="M31.0382 200.41L29.6582 202.68" stroke="#F3F3F1" stroke-width="0.5" stroke-miterlimit="10"/>
<path d="M31.0382 200.41L29.6582 202.68" stroke="#572C87" stroke-width="0.5" stroke-miterlimit="10"/>
<path d="M32.7383 201.449L31.5684 203.399" stroke="#F3F3F1" stroke-width="0.5" stroke-miterlimit="10"/>
<path d="M32.7383 201.449L31.5684 203.399" stroke="#572C87" stroke-width="0.5" stroke-miterlimit="10"/>
<path d="M34.4485 202.479L33.4785 204.129" stroke="#F3F3F1" stroke-width="0.5" stroke-miterlimit="10"/>
<path d="M34.4485 202.479L33.4785 204.129" stroke="#572C87" stroke-width="0.5" stroke-miterlimit="10"/>
<path d="M20.5801 205.969H41.0801" stroke="#572C87" stroke-width="0.5" stroke-miterlimit="10"/>
<path d="M51.0586 205.969H71.5586" stroke="#572C87" stroke-width="0.5" stroke-miterlimit="10"/>
<path d="M24.9095 37.25L39.7295 37.45C42.6021 37.4897 45.4174 38.2606 47.9095 39.69L61.9095 51.86L77.9095 39.53L81.6194 44.53L66.0995 61.74C65.5032 62.3997 64.7812 62.9339 63.9758 63.3109C63.1704 63.688 62.2979 63.9004 61.4093 63.9358C60.5208 63.9712 59.6341 63.8288 58.8012 63.517C57.9684 63.2052 57.2063 62.7302 56.5594 62.12L45.0895 51.26C45.7695 56.9 45.6394 74.11 45.6394 74.11L73.2694 197.31L10.2694 196.9C9.57945 180.29 7.08946 132.42 12.3395 101.75C14.4195 89.6 19.0295 74.06 19.0295 74.06L16.1194 55.86" fill="#F3F3F1"/>
<path d="M24.9095 37.25L39.7295 37.45C42.6022 37.4897 45.4174 38.2606 47.9095 39.69L61.9095 51.86L77.9095 39.53L81.6194 44.53L66.0995 61.74C65.5032 62.3998 64.7812 62.9339 63.9758 63.3109C63.1704 63.688 62.2979 63.9004 61.4093 63.9358C60.5208 63.9712 59.6341 63.8288 58.8012 63.517C57.9684 63.2052 57.2063 62.7302 56.5594 62.12L45.0895 51.26C45.7695 56.9 45.6394 74.11 45.6394 74.11L73.2694 197.31L10.2694 196.9C9.57945 180.29 7.08946 132.42 12.3395 101.75C14.4195 89.6 19.0295 74.06 19.0295 74.06L16.1194 55.86" stroke="#572C87" stroke-width="0.5" stroke-miterlimit="10"/>
<path d="M30.9884 37.1387H20.1484H14.4584H13.8584L13.2584 37.2186C11.5599 37.5523 10.0113 38.4168 8.83586 39.6875C7.66044 40.9582 6.91901 42.5693 6.71842 44.2886L3.16844 67.7886C2.96095 69.1197 3.01527 70.4784 3.32841 71.7886L8.89842 95.5986L15.6884 93.8287L12.2184 69.6387L16.1384 55.8387" fill="#EAEDEE"/>
<path d="M30.9884 37.1387H20.1484H14.4584H13.8584L13.2584 37.2186C11.5599 37.5523 10.0113 38.4168 8.83586 39.6875C7.66044 40.9582 6.91901 42.5693 6.71842 44.2886L3.16844 67.7886C2.96095 69.1197 3.01527 70.4784 3.32841 71.7886L8.89842 95.5986L15.6884 93.8287L12.2184 69.6387L16.1384 55.8387" stroke="#572C87" stroke-width="0.5" stroke-miterlimit="10"/>
<path d="M24.9087 37.25L39.7287 37.45C42.6014 37.4897 45.4166 38.2606 47.9087 39.69L61.9087 51.86L77.9087 39.53L81.6187 44.53L66.0987 61.74C65.5024 62.3997 64.7804 62.9339 63.975 63.3109C63.1697 63.688 62.2971 63.9004 61.4086 63.9358C60.52 63.9712 59.6333 63.8288 58.8005 63.517C57.9677 63.2052 57.2055 62.7302 56.5587 62.12L45.0887 51.26C45.7687 56.9 45.6387 74.11 45.6387 74.11H19.0487L16.1387 55.91" fill="#EAEDEE"/>
<path d="M24.9087 37.25L39.7287 37.45C42.6014 37.4897 45.4166 38.2606 47.9087 39.69L61.9087 51.86L77.9087 39.53L81.6187 44.53L66.0987 61.74C65.5024 62.3998 64.7804 62.9339 63.975 63.3109C63.1697 63.688 62.2971 63.9004 61.4086 63.9358C60.52 63.9712 59.6333 63.8288 58.8005 63.517C57.9677 63.2052 57.2055 62.7302 56.5587 62.12L45.0887 51.26C45.7687 56.9 45.6387 74.11 45.6387 74.11H19.0487L16.1387 55.91" stroke="#572C87" stroke-width="0.5" stroke-miterlimit="10"/>
<path d="M35.959 9.28906C35.959 9.28906 41.959 12.3591 41.319 19.0391C40.689 25.1491 39.479 27.0391 39.479 27.0391C39.479 27.0391 36.909 31.7791 32.959 29.7791" fill="white"/>
<path d="M35.959 9.28906C35.959 9.28906 41.959 12.3591 41.319 19.0391C40.689 25.1491 39.479 27.0391 39.479 27.0391C39.479 27.0391 36.909 31.7791 32.959 29.7791" stroke="#572C87" stroke-width="0.5" stroke-linejoin="bevel"/>
<path d="M31.0593 18.8586C31.9211 15.329 33.5994 12.0511 35.9593 9.28857C35.9593 9.28857 30.0793 6.40858 25.1493 9.85858C23.587 10.9654 22.3283 12.4476 21.4893 14.1686C20.3985 16.4579 20.0055 19.0176 20.3593 21.5286C20.7093 24.4686 20.5393 30.4686 15.2793 37.0786C15.2793 37.0786 25.2793 41.2386 32.9893 34.1386" fill="white"/>
<path d="M31.0593 18.8586C31.9211 15.329 33.5994 12.0511 35.9593 9.28857C35.9593 9.28857 30.0793 6.40858 25.1493 9.85858C23.587 10.9654 22.3283 12.4476 21.4893 14.1686C20.3985 16.4579 20.0055 19.0176 20.3593 21.5286C20.7093 24.4686 20.5393 30.4686 15.2793 37.0786C15.2793 37.0786 25.2793 41.2386 32.9893 34.1386" stroke="#572C87" stroke-width="0.5" stroke-linejoin="bevel"/>
<path d="M28.0801 37.1588C29.7601 42.3788 30.9701 52.6989 30.9701 52.6989L39.3801 51.3588C38.9301 38.7788 34.1401 32.0488 34.1401 32.0488" fill="white"/>
<path d="M28.0801 37.1588C29.7601 42.3788 30.9701 52.6989 30.9701 52.6989L39.3801 51.3588C38.9301 38.7788 34.1401 32.0488 34.1401 32.0488" stroke="#572C87" stroke-width="0.5" stroke-linejoin="bevel"/>
<path d="M34.9401 30.2988C34.566 32.0422 33.7642 33.6652 32.6069 35.0215C31.4495 36.3779 29.9729 37.4252 28.3101 38.0688L28.0801 37.1588C28.0801 37.1588 31.5301 36.0288 34.9401 30.2988Z" fill="#572C87"/>
<path d="M34.9401 30.2988C34.566 32.0422 33.7642 33.6652 32.6069 35.0215C31.4495 36.3779 29.9729 37.4252 28.3101 38.0688L28.0801 37.1588C28.0801 37.1588 31.5301 35.9988 34.9401 30.2988Z" stroke="#572C87" stroke-width="0.5" stroke-linejoin="bevel"/>
<path d="M24.5586 29.5202C24.5586 29.5202 19.1087 21.3002 20.8487 15.6602L24.5586 29.5202Z" fill="white"/>
<path d="M24.5586 29.5202C24.5586 29.5202 19.1087 21.3002 20.8487 15.6602" stroke="#572C87" stroke-width="0.5" stroke-linejoin="bevel"/>
<path d="M40.4297 13.9492L31.0098 19.8992" stroke="#572C87" stroke-width="0.5" stroke-linejoin="bevel"/>
<path d="M32.9495 29.8196C32.9495 29.8196 27.1495 37.0596 19.5195 29.3496" stroke="#572C87" stroke-width="0.5" stroke-linejoin="bevel"/>
<path d="M32.9497 29.8203C32.9497 29.8203 29.7597 22.0702 32.4997 14.7402C32.4997 14.7402 28.2297 20.3103 31.7797 31.0803L32.9497 29.8203Z" fill="#572C87"/>
<path d="M32.9497 29.8203C32.9497 29.8203 29.7597 22.0702 32.4997 14.7402C32.4997 14.7402 28.2297 20.3103 31.7797 31.0803L32.9497 29.8203Z" stroke="#572C87" stroke-width="0.5" stroke-linejoin="bevel"/>
<path d="M45.6991 74.0488H19.0391" stroke="#572C87" stroke-width="0.5" stroke-linejoin="bevel"/>
<path d="M16.6191 58.9191L15.7891 53.2891" stroke="#572C87" stroke-width="0.5" stroke-miterlimit="10"/>
<path d="M61.9297 51.8594C61.9297 51.8594 63.7497 52.7694 64.0997 54.1894L61.9297 51.8594Z" fill="white"/>
<path d="M61.9297 51.8594C61.9297 51.8594 63.7497 52.7694 64.0997 54.1894" stroke="#572C87" stroke-width="0.5" stroke-linejoin="bevel"/>
<path d="M96.16 207.82H0" stroke="white" stroke-width="0.5" stroke-miterlimit="10"/>
<path d="M45.1396 51.2092L44.8496 48.8691" stroke="#572C87" stroke-width="0.5" stroke-linejoin="bevel"/>
<path d="M13.14 104.61C14.3282 105.597 15.3807 106.737 16.27 108C16.4904 108.314 16.6086 108.687 16.6086 109.07C16.6086 109.453 16.4904 109.827 16.27 110.14L12.06 105.6L10 99.6603L10.41 96.5703L14.06 95.5703C14.06 95.5703 16.79 99.9203 15.06 103.43L15.77 105C15.746 105.278 15.6516 105.545 15.4959 105.776C15.3402 106.006 15.1282 106.194 14.88 106.32" fill="white"/>
<path d="M13.14 104.61C14.3282 105.597 15.3807 106.737 16.27 108C16.4904 108.314 16.6086 108.687 16.6086 109.07C16.6086 109.453 16.4904 109.827 16.27 110.14L12.06 105.6L10 99.6603L10.41 96.5703L14.06 95.5703C14.06 95.5703 16.79 99.9203 15.06 103.43L15.77 105C15.746 105.278 15.6516 105.545 15.4959 105.776C15.3402 106.006 15.1282 106.194 14.88 106.32" stroke="#572C87" stroke-width="0.5" stroke-miterlimit="10" stroke-linecap="round"/>
<path d="M14.8886 94.0391L15.2786 96.1691L9.17859 97.7891L8.80859 95.6191L14.8886 94.0391Z" fill="white"/>
<path d="M14.8886 94.0391L15.2786 96.1691L9.17859 97.7891L8.80859 95.6191L14.8886 94.0391Z" stroke="#572C87" stroke-width="0.5" stroke-miterlimit="10" stroke-linecap="round"/>
<path d="M81.7695 33.5886C81.7695 38.4386 89.6096 42.3686 99.2896 42.3686C108.97 42.3686 116.77 38.4386 116.77 33.5886C116.77 28.7386 108.93 24.8086 99.2595 24.8086C89.5895 24.8086 81.7695 28.7386 81.7695 33.5886Z" fill="white"/>
<path d="M99.2485 42.3686C108.925 42.3686 116.769 38.4377 116.769 33.5886C116.769 28.7396 108.925 24.8086 99.2485 24.8086C89.5725 24.8086 81.7285 28.7396 81.7285 33.5886C81.7285 38.4377 89.5725 42.3686 99.2485 42.3686Z" stroke="#572C87" stroke-width="0.5" stroke-miterlimit="10"/>
<path d="M87.9297 34.69C87.9297 37.83 92.9997 40.37 99.2597 40.37C105.52 40.37 110.59 37.83 110.59 34.69C110.59 31.55 105.51 29 99.2597 29C93.0097 29 87.9297 31.54 87.9297 34.67" fill="white"/>
<path d="M87.9297 34.69C87.9297 37.83 92.9997 40.37 99.2597 40.37C105.52 40.37 110.59 37.83 110.59 34.69C110.59 31.55 105.51 29 99.2597 29C93.0097 29 87.9297 31.56 87.9297 34.69Z" stroke="#572C87" stroke-width="0.5" stroke-miterlimit="10"/>
<path d="M93.0594 30.9995C93.0594 30.9995 89.1094 28.3896 91.5194 24.3196C93.9294 20.2496 94.5194 27.1496 96.5994 28.2096C98.6794 29.2696 93.0594 30.9995 93.0594 30.9995Z" fill="#EAEDEE"/>
<path d="M93.0594 30.9995C93.0594 30.9995 89.1094 28.3896 91.5194 24.3196C93.9294 20.2496 94.5194 27.1496 96.5994 28.2096C98.6794 29.2696 93.0594 30.9995 93.0594 30.9995Z" stroke="#572C87" stroke-width="0.5" stroke-miterlimit="10"/>
<path d="M94.2691 34.2989C94.2691 34.2989 91.0891 34.9389 90.6991 31.8889C90.3091 28.8389 97.3891 23.4789 98.6991 29.3089C100.009 35.1389 94.2991 34.3089 94.2991 34.3089" fill="#EAEDEE"/>
<path d="M94.2691 34.2989C94.2691 34.2989 91.0891 34.9389 90.6991 31.8889C90.3091 28.8389 97.3891 23.4789 98.6991 29.3089C100.009 35.1389 94.2691 34.2989 94.2691 34.2989Z" stroke="#572C87" stroke-width="0.5" stroke-miterlimit="10"/>
<path d="M105.379 38.1287C105.379 38.1287 109.619 40.2287 111.919 36.1287C114.219 32.0287 107.919 34.9387 106.009 33.6887C104.099 32.4387 105.379 38.1487 105.379 38.1487" fill="#EAEDEE"/>
<path d="M105.379 38.1292C105.379 38.1292 109.619 40.2292 111.919 36.1292C114.219 32.0292 107.919 34.9392 106.009 33.6892C104.099 32.4392 105.379 38.1292 105.379 38.1292Z" stroke="#572C87" stroke-width="0.5" stroke-miterlimit="10"/>
<path d="M101.959 38.7204C101.959 38.7204 102.959 41.8004 105.819 40.6004C108.679 39.4004 109.729 30.6004 104.059 32.4104C98.3887 34.2204 101.959 38.7204 101.959 38.7204Z" fill="#EAEDEE"/>
<path d="M101.959 38.7204C101.959 38.7204 102.959 41.8004 105.819 40.6004C108.679 39.4004 109.729 30.6004 104.059 32.4104C98.3887 34.2204 101.959 38.7204 101.959 38.7204Z" stroke="#572C87" stroke-width="0.5" stroke-miterlimit="10"/>
<path d="M93.2597 34.2985C94.993 32.9252 96.6597 31.4752 98.2597 29.9486C98.4653 29.6958 98.7532 29.5232 99.0731 29.4611C99.3929 29.3989 99.7244 29.4511 100.01 29.6085C100.532 30.0105 101.08 30.378 101.65 30.7086H101.7C102.277 31.0305 102.871 31.3209 103.48 31.5786C103.756 31.7482 103.965 32.0083 104.071 32.3147C104.176 32.6211 104.172 32.9547 104.06 33.2586C103.546 35.4186 103.136 37.5985 102.83 39.7985C102.792 40.0592 102.698 40.3087 102.556 40.5299C102.413 40.7511 102.224 40.9388 102.001 41.0803C101.779 41.2217 101.529 41.3135 101.268 41.3495C101.007 41.3854 100.742 41.3646 100.49 41.2885C97.777 40.3647 95.2703 38.9211 93.1097 37.0385C92.918 36.8583 92.7674 36.6388 92.6682 36.395C92.569 36.1513 92.5235 35.889 92.5349 35.626C92.5463 35.3631 92.6143 35.1057 92.7342 34.8715C92.8541 34.6372 93.0231 34.4316 93.2297 34.2686" fill="#EAEDEE"/>
<path d="M93.2584 34.2985C94.9917 32.9252 96.6584 31.4752 98.2584 29.9486C98.4639 29.6958 98.7518 29.5232 99.0717 29.4611C99.3916 29.3989 99.7231 29.4511 100.008 29.6085C100.53 30.0105 101.078 30.378 101.648 30.7086H101.698C102.276 31.0305 102.87 31.3209 103.478 31.5786C103.755 31.7482 103.963 32.0083 104.069 32.3147C104.175 32.6211 104.171 32.9547 104.058 33.2586C103.545 35.4186 103.135 37.5985 102.828 39.7985C102.791 40.0592 102.697 40.3087 102.554 40.5299C102.411 40.7511 102.222 40.9388 102 41.0803C101.778 41.2217 101.528 41.3135 101.267 41.3495C101.006 41.3854 100.74 41.3646 100.488 41.2885C97.7756 40.3647 95.269 38.9211 93.1084 37.0385C92.9235 36.8564 92.7794 36.6371 92.6858 36.395C92.5921 36.153 92.5511 35.8938 92.5652 35.6347C92.5794 35.3756 92.6486 35.1224 92.7681 34.892C92.8876 34.6617 93.0547 34.4594 93.2584 34.2985Z" stroke="#572C87" stroke-width="0.5" stroke-miterlimit="10"/>
<path d="M87.769 41.6889L93.969 40.9289C93.8548 40.534 93.6217 40.184 93.3014 39.9263C92.9811 39.6686 92.5891 39.5159 92.179 39.4889C91.6476 39.5514 91.1091 39.5085 90.5944 39.3626C90.0796 39.2168 89.5986 38.9709 89.179 38.6389C88.109 37.8089 84.179 38.2689 81.799 39.3089L80.709 40.0689L82.989 42.9789" fill="#F3F3F1"/>
<path d="M87.769 41.6889L93.969 40.9289C93.8548 40.534 93.6217 40.184 93.3014 39.9263C92.9811 39.6686 92.5891 39.5159 92.179 39.4889C91.6476 39.5514 91.1091 39.5085 90.5944 39.3626C90.0796 39.2168 89.5986 38.9709 89.179 38.6389C88.109 37.8089 84.179 38.2689 81.799 39.3089L80.709 40.0689L82.989 42.9789" stroke="#572C87" stroke-width="0.5" stroke-miterlimit="10"/>
</svg>
