<svg width="179" height="190" viewBox="0 0 179 190" fill="none" xmlns="http://www.w3.org/2000/svg">
<path d="M177.959 112.344V154.134" stroke="#572C87" stroke-width="0.5" stroke-linejoin="bevel"/>
<path d="M177.958 113.114H42.9383L27.7383 92.0039H156.528L177.958 113.114Z" fill="#F3F3F1"/>
<path d="M177.958 113.114H42.9383L27.7383 92.0039H156.528L177.958 113.114Z" stroke="#572C87" stroke-width="0.5" stroke-linejoin="bevel"/>
<path d="M49.3386 160.064L44.3086 152.054L43.9286 143.984L37.8086 143.514L38.4786 152.134L37.9886 155.744" fill="white"/>
<path d="M49.3386 160.064L44.3086 152.054L43.9286 143.984L37.8086 143.514L38.4786 152.134L37.9886 155.744" stroke="#572C87" stroke-width="0.5" stroke-miterlimit="10"/>
<path d="M38.4785 152.135L43.0786 159.205" stroke="#572C87" stroke-width="0.5" stroke-miterlimit="10"/>
<path d="M49.4799 159.134C49.4799 159.134 48.4798 160.014 46.1298 159.464C44.1974 159.132 42.371 158.347 40.7999 157.174C39.632 156.359 38.3898 155.656 37.0898 155.074L37.2398 162.804L41.0798 162.734L38.9598 157.374C38.9598 157.374 42.5599 159.374 43.6599 161.264C44.7599 163.154 47.9899 162.904 52.9099 162.634C52.9099 162.634 54.7898 162.234 54.2398 161.714C53.6898 161.194 49.3099 159.714 49.4799 159.134Z" fill="white"/>
<path d="M49.4799 159.134C49.4799 159.134 48.4798 160.014 46.1298 159.464C44.1974 159.132 42.371 158.347 40.7999 157.174C39.632 156.359 38.3898 155.656 37.0898 155.074L37.2398 162.804L41.0798 162.734L38.9598 157.374C38.9598 157.374 42.5599 159.374 43.6599 161.264C44.7599 163.154 47.9899 162.904 52.9099 162.634C52.9099 162.634 54.7898 162.234 54.2398 161.714C53.6898 161.194 49.3099 159.704 49.4799 159.134Z" stroke="#572C87" stroke-width="0.5" stroke-miterlimit="10"/>
<path d="M31.5395 163.574L26.5095 155.554L26.1295 147.484L20.0195 147.014L20.6795 155.634L20.1895 159.254" fill="white"/>
<path d="M31.5395 163.574L26.5095 155.554L26.1295 147.484L20.0195 147.014L20.6795 155.634L20.1895 159.254" stroke="#572C87" stroke-width="0.5" stroke-miterlimit="10"/>
<path d="M20.6797 155.633L25.2797 162.713" stroke="#572C87" stroke-width="0.5" stroke-miterlimit="10"/>
<path d="M0 73.7441H71.94" stroke="#572C87" stroke-width="0.5" stroke-linejoin="bevel"/>
<path d="M61.6495 50.883L56.4495 51.863L54.2695 43.483L60.6395 42.293L61.6495 50.883Z" fill="#F3F3F1"/>
<path d="M61.6495 50.883L56.4495 51.863L54.2695 43.483L60.6395 42.293L61.6495 50.883Z" stroke="#572C87" stroke-width="0.5" stroke-linejoin="bevel"/>
<path d="M55.4789 36.4531C55.3655 37.0225 55.4766 37.6137 55.7889 38.1031C56.0919 38.4248 56.2962 38.8265 56.3777 39.2608C56.4592 39.695 56.4145 40.1435 56.2489 40.5531" fill="#F3F3F1"/>
<path d="M55.4789 36.4531C55.3655 37.0225 55.4766 37.6137 55.7889 38.1031C56.0919 38.4248 56.2962 38.8265 56.3777 39.2608C56.4592 39.695 56.4145 40.1435 56.2489 40.5531" stroke="#572C87" stroke-width="0.5" stroke-linejoin="bevel"/>
<path d="M56.4787 34.6836C56.3657 35.2562 56.4767 35.8503 56.7886 36.3436C57.0905 36.6658 57.2941 37.0676 57.3756 37.5016C57.4571 37.9355 57.413 38.3838 57.2486 38.7936" fill="#F3F3F1"/>
<path d="M56.4787 34.6836C56.3657 35.2562 56.4767 35.8503 56.7886 36.3436C57.0905 36.6658 57.2941 37.0676 57.3756 37.5016C57.4571 37.9355 57.413 38.3838 57.2486 38.7936" stroke="#572C87" stroke-width="0.5" stroke-linejoin="bevel"/>
<path d="M60.92 43.1741L54.2401 44.4141L54.0801 43.5241L60.8701 42.2441L60.92 43.1741Z" fill="#F3F3F1"/>
<path d="M60.92 43.1741L54.2401 44.4141L54.0801 43.5241L60.8701 42.2441L60.92 43.1741Z" stroke="#572C87" stroke-width="0.5" stroke-linejoin="bevel"/>
<path d="M60.6688 40.5527L53.5488 41.8927L53.5688 43.6127L61.2788 42.1727L60.6688 40.5527Z" fill="#F3F3F1"/>
<path d="M60.6688 40.5527L53.5488 41.8927L53.5688 43.6127L61.2788 42.1727L60.6688 40.5527Z" stroke="#572C87" stroke-width="0.5" stroke-linejoin="bevel"/>
<path d="M58.4794 48.7235C59.8979 48.1109 61.127 47.1305 62.0394 45.8835C62.1097 45.8092 62.1489 45.7108 62.1489 45.6085C62.1489 45.5062 62.1097 45.4078 62.0394 45.3335C61.6494 44.9535 60.9294 44.3335 60.9594 44.5635C60.9894 44.7935 61.1393 45.3835 61.1393 45.3835C61.1393 45.3835 57.5893 47.5535 57.1393 47.7235C56.7486 47.9123 56.3352 48.0501 55.9094 48.1335C55.6894 48.0335 55.4494 47.3935 55.2894 46.9235C55.1294 46.4535 54.8293 45.3935 54.8293 45.3935C54.8293 45.3935 54.2094 45.6335 54.2094 46.0335C54.2094 46.7535 54.5594 47.2535 54.2094 47.8635C53.5094 48.9635 53.1193 49.5335 52.7493 50.2535C52.6213 50.4967 52.4226 50.6955 52.1793 50.8235L51.6094 51.1035L53.4493 54.3235L60.2294 50.3935C60.506 50.2369 60.749 50.0274 60.9446 49.7769C61.1402 49.5264 61.2845 49.2398 61.3693 48.9335C61.5099 48.3993 61.6036 47.8539 61.6494 47.3035" fill="#F3F3F1"/>
<path d="M58.4794 48.7235C59.8979 48.1109 61.127 47.1305 62.0394 45.8835C62.1097 45.8092 62.1489 45.7108 62.1489 45.6085C62.1489 45.5062 62.1097 45.4078 62.0394 45.3335C61.6494 44.9535 60.9294 44.3335 60.9594 44.5635C60.9894 44.7935 61.1393 45.3835 61.1393 45.3835C61.1393 45.3835 57.5893 47.5535 57.1393 47.7235C56.7486 47.9123 56.3352 48.0501 55.9094 48.1335C55.6894 48.0335 55.4494 47.3935 55.2894 46.9235C55.1294 46.4535 54.8293 45.3935 54.8293 45.3935C54.8293 45.3935 54.2094 45.6335 54.2094 46.0335C54.2094 46.7535 54.5594 47.2535 54.2094 47.8635C53.5094 48.9635 53.1193 49.5335 52.7493 50.2535C52.6213 50.4967 52.4226 50.6955 52.1793 50.8235L51.6094 51.1035L53.4493 54.3235L60.2294 50.3935C60.506 50.2369 60.749 50.0274 60.9446 49.7769C61.1402 49.5264 61.2845 49.2398 61.3693 48.9335C61.5099 48.3993 61.6036 47.8539 61.6494 47.3035" stroke="#572C87" stroke-width="0.5" stroke-linejoin="bevel"/>
<path d="M58.8496 49.8827C59.691 49.3683 60.4962 48.797 61.2596 48.1727C61.3673 48.0879 61.4474 47.9731 61.4896 47.8427C61.6326 47.3115 61.7329 46.7698 61.7896 46.2227" fill="#F3F3F1"/>
<path d="M58.8496 49.8827C59.691 49.3683 60.4962 48.797 61.2596 48.1727C61.3673 48.0879 61.4474 47.9731 61.4896 47.8427C61.6326 47.3115 61.7329 46.7698 61.7896 46.2227" stroke="#572C87" stroke-width="0.5" stroke-linejoin="bevel"/>
<path d="M24.3785 41.8927L26.0685 55.2727L12.2285 149.943L50.9285 151.943L49.6985 83.9427C49.3285 76.9427 50.4585 71.3627 50.6985 67.2827C51.9985 47.8227 52.0485 44.8527 46.5585 36.2227C42.5585 29.8727 40.4685 28.2227 40.4685 28.2227" fill="white"/>
<path d="M24.3785 41.8927L26.0685 55.2727L12.2285 149.943L50.9285 151.943L49.6985 83.9427C49.3285 76.9427 50.4585 71.3627 50.6985 67.2827C51.9985 47.8227 52.0485 44.8527 46.5585 36.2227C42.5585 29.8727 40.4685 28.2227 40.4685 28.2227" stroke="#572C87" stroke-width="0.5" stroke-linejoin="bevel"/>
<path d="M31.8887 44.4941L36.5486 59.0141L34.7087 60.0441L33.4186 55.7241L32.3787 49.2941L31.8887 44.4941Z" fill="#572C87"/>
<path d="M31.8887 44.4941L36.5486 59.0141L34.7087 60.0441L33.4186 55.7241L32.3787 49.2941L31.8887 44.4941Z" stroke="#572C87" stroke-width="0.5" stroke-linejoin="bevel"/>
<path d="M52.5083 50.123L54.8183 54.4031L51.5883 56.2231L50.2383 51.6831L52.5083 50.123Z" fill="#F3F3F1"/>
<path d="M52.5083 50.123L54.8183 54.4031L51.5883 56.2231L50.2383 51.6831L52.5083 50.123Z" stroke="#572C87" stroke-width="0.5" stroke-linejoin="bevel"/>
<path d="M31.7683 42.8542C31.9083 44.3042 32.0883 47.2142 32.5183 50.2642C32.8436 53.2629 33.4701 56.2211 34.3883 59.0942L34.7284 60.0942L50.5083 51.2042L53.0384 60.2942C53.0384 60.2942 33.7684 75.7342 26.9084 71.5842C25.4647 70.6151 24.2885 69.2979 23.4883 67.7542C22.5838 66.0987 21.9493 64.3096 21.6084 62.4542C19.6084 52.2742 20.6084 39.1042 23.1584 34.8542C27.4284 27.7042 32.1584 28.4542 32.1584 28.4542" fill="white"/>
<path d="M31.7683 42.8542C31.9083 44.3042 32.0883 47.2142 32.5183 50.2642C32.8436 53.2629 33.4701 56.2211 34.3883 59.0942L34.7284 60.0942L50.5083 51.2042L53.0384 60.2942C53.0384 60.2942 33.7684 75.7342 26.9084 71.5842C25.4647 70.6151 24.2885 69.2979 23.4883 67.7542C22.5838 66.0987 21.9493 64.3096 21.6084 62.4542C19.6084 52.2742 20.6084 39.1042 23.1584 34.8542C27.4284 27.7042 32.1584 28.4542 32.1584 28.4542" stroke="#572C87" stroke-width="0.5" stroke-linejoin="bevel"/>
<path d="M18.9883 62.9841L20.2583 37.5841C20.2583 37.5841 20.1083 27.5841 27.0383 26.2541C33.9683 24.9241 37.1583 28.9641 42.5283 20.0241L44.6283 14.9141C44.6283 14.9141 41.6283 29.0541 40.5683 30.3641C40.0383 31.0241 38.5683 33.2741 33.8483 30.8041C29.1283 28.3341 24.9083 30.2941 24.6583 36.6341C24.4083 42.9741 24.6583 65.6341 24.6583 65.6341L18.9883 62.9841Z" fill="#EFF0F1"/>
<path d="M18.9883 62.9841L20.2583 37.5841C20.2583 37.5841 20.1083 27.5841 27.0383 26.2541C33.9683 24.9241 37.1583 28.9641 42.5283 20.0241L44.6283 14.9141C44.6283 14.9141 41.6283 29.0541 40.5683 30.3641C40.0383 31.0241 38.5683 33.2741 33.8483 30.8041C29.1283 28.3341 24.9083 30.2941 24.6583 36.6341C24.4083 42.9741 24.6583 65.6341 24.6583 65.6341L18.9883 62.9841Z" stroke="#572C87" stroke-width="0.5" stroke-linejoin="bevel"/>
<path d="M48.5991 62.6435C48.6165 62.7744 48.5825 62.9069 48.5041 63.0133C48.4258 63.1196 48.3092 63.1913 48.1791 63.2135C48.114 63.2234 48.0477 63.2204 47.9839 63.2047C47.92 63.189 47.8599 63.1608 47.8069 63.1218C47.754 63.0827 47.7093 63.0337 47.6753 62.9773C47.6414 62.921 47.6189 62.8585 47.6091 62.7935C47.5993 62.7278 47.6024 62.6609 47.6185 62.5964C47.6345 62.532 47.663 62.4714 47.7025 62.418C47.742 62.3646 47.7915 62.3195 47.8484 62.2853C47.9053 62.251 47.9684 62.2283 48.0341 62.2185C48.0998 62.2086 48.1667 62.2118 48.2311 62.2279C48.2956 62.2439 48.3562 62.2724 48.4096 62.3119C48.463 62.3514 48.5081 62.401 48.5423 62.4579C48.5766 62.5148 48.5993 62.5778 48.6091 62.6435" fill="#F3F3F1"/>
<path d="M48.5991 62.6435C48.6165 62.7744 48.5825 62.9069 48.5041 63.0133C48.4258 63.1196 48.3092 63.1913 48.1791 63.2135C48.114 63.2234 48.0477 63.2204 47.9839 63.2047C47.92 63.189 47.8599 63.1608 47.8069 63.1218C47.754 63.0827 47.7093 63.0337 47.6753 62.9773C47.6414 62.921 47.6189 62.8585 47.6091 62.7935C47.5993 62.7278 47.6024 62.6609 47.6185 62.5964C47.6345 62.532 47.663 62.4714 47.7025 62.418C47.742 62.3646 47.7915 62.3195 47.8484 62.2853C47.9053 62.251 47.9684 62.2283 48.0341 62.2185C48.0998 62.2086 48.1667 62.2118 48.2311 62.2279C48.2956 62.2439 48.3562 62.2724 48.4096 62.3119C48.463 62.3514 48.5081 62.401 48.5423 62.4579C48.5766 62.5148 48.5993 62.5778 48.6091 62.6435" stroke="#572C87" stroke-width="0.5" stroke-linejoin="bevel"/>
<path d="M50.5995 55.5839C50.6093 55.7932 50.5413 55.9988 50.4087 56.1611C50.2761 56.3235 50.0883 56.4311 49.8812 56.4633C49.6741 56.4956 49.4623 56.4502 49.2867 56.3358C49.111 56.2215 48.9838 56.0463 48.9295 55.8439C48.8985 55.7286 48.8922 55.6081 48.9109 55.4902C48.9296 55.3724 48.9729 55.2598 49.038 55.1597C49.1031 55.0597 49.1886 54.9745 49.2888 54.9097C49.389 54.8449 49.5017 54.8019 49.6196 54.7836C49.7376 54.7652 49.858 54.7719 49.9732 54.8032C50.0884 54.8344 50.1957 54.8896 50.2881 54.9651C50.3805 55.0406 50.456 55.1347 50.5097 55.2413C50.5633 55.3479 50.5939 55.4646 50.5995 55.5839Z" fill="#F3F3F1"/>
<path d="M50.5995 55.5839C50.6093 55.7932 50.5413 55.9988 50.4087 56.1611C50.2761 56.3235 50.0883 56.4311 49.8812 56.4633C49.6741 56.4956 49.4623 56.4502 49.2867 56.3358C49.111 56.2215 48.9838 56.0463 48.9295 55.8439C48.8985 55.7286 48.8922 55.6081 48.9109 55.4902C48.9296 55.3724 48.9729 55.2598 49.038 55.1597C49.1031 55.0597 49.1886 54.9745 49.2888 54.9097C49.389 54.8449 49.5017 54.8019 49.6196 54.7836C49.7376 54.7652 49.858 54.7719 49.9732 54.8032C50.0884 54.8344 50.1957 54.8896 50.2881 54.9651C50.3805 55.0406 50.456 55.1347 50.5097 55.2413C50.5633 55.3479 50.5939 55.4646 50.5995 55.5839Z" stroke="#572C87" stroke-width="0.5" stroke-linejoin="bevel"/>
<path d="M47.939 59.7933C47.9599 60.0263 47.8923 60.2586 47.7496 60.4439C47.6069 60.6292 47.3996 60.754 47.169 60.7933C46.987 60.8224 46.8005 60.7962 46.6336 60.7181C46.4667 60.64 46.3271 60.5136 46.2329 60.3552C46.1387 60.1969 46.0942 60.0138 46.1052 59.8299C46.1162 59.646 46.1822 59.4696 46.2946 59.3236C46.407 59.1776 46.5607 59.0687 46.7357 59.011C46.9107 58.9534 47.0991 58.9496 47.2762 59.0002C47.4534 59.0508 47.6113 59.1535 47.7295 59.2949C47.8476 59.4363 47.9206 59.6099 47.939 59.7933Z" fill="#F3F3F1"/>
<path d="M47.939 59.7933C47.9599 60.0263 47.8923 60.2586 47.7496 60.4439C47.6069 60.6292 47.3996 60.754 47.169 60.7933C46.987 60.8224 46.8005 60.7962 46.6336 60.7181C46.4667 60.64 46.3271 60.5136 46.2329 60.3552C46.1387 60.1969 46.0942 60.0138 46.1052 59.8299C46.1162 59.646 46.1822 59.4696 46.2946 59.3236C46.407 59.1776 46.5607 59.0687 46.7357 59.011C46.9107 58.9534 47.0991 58.9496 47.2762 59.0002C47.4534 59.0508 47.6113 59.1535 47.7295 59.2949C47.8476 59.4363 47.9206 59.6099 47.939 59.7933Z" stroke="#572C87" stroke-width="0.5" stroke-linejoin="bevel"/>
<path d="M46.1993 53.584C46.2824 53.7293 46.3247 53.8943 46.3218 54.0617C46.3189 54.229 46.2709 54.3925 46.1828 54.5348C46.0947 54.6771 45.9699 54.793 45.8215 54.8703C45.673 54.9476 45.5065 54.9834 45.3394 54.974C45.1889 54.9646 45.0432 54.9175 44.9156 54.8372C44.7881 54.7568 44.6828 54.6457 44.6094 54.514" stroke="#572C87" stroke-width="0.5" stroke-linejoin="bevel"/>
<path d="M50.8684 61.8833C50.7657 61.7498 50.7017 61.5906 50.6833 61.4231C50.6648 61.2557 50.6928 61.0864 50.7639 60.9337C50.8351 60.781 50.9468 60.6508 51.0869 60.5573C51.2271 60.4638 51.3901 60.4105 51.5584 60.4033C51.7088 60.3965 51.8585 60.4266 51.9945 60.4911C52.1305 60.5556 52.2486 60.6525 52.3385 60.7733" stroke="#572C87" stroke-width="0.5" stroke-linejoin="bevel"/>
<path d="M51.0388 58.4326C51.0587 58.5652 51.0251 58.7002 50.9454 58.8081C50.8657 58.9159 50.7464 58.9877 50.6138 59.0075C50.4811 59.0274 50.3461 58.9938 50.2383 58.9141C50.1304 58.8344 50.0587 58.7152 50.0388 58.5825C50.029 58.5169 50.0321 58.4499 50.0481 58.3855C50.0642 58.3211 50.0927 58.2604 50.1322 58.207C50.1717 58.1536 50.2212 58.1085 50.2781 58.0743C50.335 58.0401 50.3981 58.0174 50.4638 58.0075C50.5295 57.9977 50.5964 58.0009 50.6608 58.0169C50.7252 58.0329 50.7859 58.0615 50.8393 58.101C50.8927 58.1404 50.9378 58.19 50.972 58.2469C51.0063 58.3038 51.029 58.3669 51.0388 58.4326Z" fill="#F3F3F1"/>
<path d="M51.0388 58.4326C51.0587 58.5652 51.0251 58.7002 50.9454 58.8081C50.8657 58.9159 50.7464 58.9877 50.6138 59.0075C50.4811 59.0274 50.3461 58.9938 50.2383 58.9141C50.1304 58.8344 50.0587 58.7152 50.0388 58.5825C50.029 58.5169 50.0321 58.4499 50.0481 58.3855C50.0642 58.3211 50.0927 58.2604 50.1322 58.207C50.1717 58.1536 50.2212 58.1085 50.2781 58.0743C50.335 58.0401 50.3981 58.0174 50.4638 58.0075C50.5295 57.9977 50.5964 58.0009 50.6608 58.0169C50.7252 58.0329 50.7859 58.0615 50.8393 58.101C50.8927 58.1404 50.9378 58.19 50.972 58.2469C51.0063 58.3038 51.029 58.3669 51.0388 58.4326Z" stroke="#572C87" stroke-width="0.5" stroke-linejoin="bevel"/>
<path d="M49.4196 53.1041C49.4296 53.1692 49.4266 53.2355 49.4108 53.2993C49.3951 53.3632 49.3669 53.4233 49.3279 53.4763C49.2889 53.5292 49.2397 53.574 49.1834 53.6079C49.1271 53.6419 49.0646 53.6644 48.9996 53.6741C48.9344 53.6855 48.8676 53.6835 48.8032 53.6683C48.7388 53.6532 48.6781 53.6251 48.6249 53.5859C48.5716 53.5466 48.5269 53.497 48.4933 53.44C48.4597 53.383 48.438 53.3197 48.4296 53.2541C48.4196 53.1891 48.4226 53.1228 48.4384 53.0589C48.4541 52.9951 48.4823 52.9349 48.5213 52.882C48.5603 52.829 48.6094 52.7843 48.6658 52.7504C48.7221 52.7164 48.7846 52.6939 48.8496 52.6841C48.9805 52.6667 49.1131 52.7008 49.2194 52.7791C49.3257 52.8574 49.3975 52.974 49.4196 53.1041Z" fill="#F3F3F1"/>
<path d="M49.4196 53.1041C49.4296 53.1692 49.4266 53.2355 49.4108 53.2993C49.3951 53.3632 49.3669 53.4233 49.3279 53.4763C49.2889 53.5292 49.2397 53.574 49.1834 53.6079C49.1271 53.6419 49.0646 53.6644 48.9996 53.6741C48.9344 53.6855 48.8676 53.6835 48.8032 53.6683C48.7388 53.6532 48.6781 53.6251 48.6249 53.5859C48.5716 53.5466 48.5269 53.497 48.4933 53.44C48.4597 53.383 48.438 53.3197 48.4296 53.2541C48.4196 53.1891 48.4226 53.1228 48.4384 53.0589C48.4541 52.9951 48.4823 52.9349 48.5213 52.882C48.5603 52.829 48.6094 52.7843 48.6658 52.7504C48.7221 52.7164 48.7846 52.6939 48.8496 52.6841C48.9805 52.6667 49.1131 52.7008 49.2194 52.7791C49.3257 52.8574 49.3975 52.974 49.4196 53.1041Z" stroke="#572C87" stroke-width="0.5" stroke-linejoin="bevel"/>
<path d="M46.6692 57.1543C46.6866 57.2852 46.6525 57.4177 46.5742 57.524C46.4959 57.6303 46.3793 57.7021 46.2491 57.7243C46.1841 57.7342 46.1178 57.7312 46.0539 57.7155C45.9901 57.6997 45.93 57.6715 45.877 57.6325C45.8241 57.5935 45.7793 57.5444 45.7454 57.4881C45.7114 57.4318 45.6889 57.3693 45.6791 57.3043C45.6678 57.2391 45.6698 57.1723 45.6849 57.1079C45.7001 57.0435 45.7282 56.9828 45.7675 56.9296C45.8067 56.8763 45.8563 56.8315 45.9133 56.798C45.9703 56.7644 46.0336 56.7427 46.0992 56.7343C46.1642 56.7243 46.2305 56.7273 46.2944 56.7431C46.3582 56.7588 46.4184 56.787 46.4713 56.826C46.5243 56.865 46.569 56.9141 46.603 56.9704C46.6369 57.0267 46.6594 57.0892 46.6692 57.1543Z" fill="#F3F3F1"/>
<path d="M46.6692 57.1543C46.6866 57.2852 46.6525 57.4177 46.5742 57.524C46.4959 57.6303 46.3793 57.7021 46.2491 57.7243C46.1841 57.7342 46.1178 57.7312 46.0539 57.7155C45.9901 57.6997 45.93 57.6715 45.877 57.6325C45.8241 57.5935 45.7793 57.5444 45.7454 57.4881C45.7114 57.4318 45.6889 57.3693 45.6791 57.3043C45.6678 57.2391 45.6698 57.1723 45.6849 57.1079C45.7001 57.0435 45.7282 56.9828 45.7675 56.9296C45.8067 56.8763 45.8563 56.8315 45.9133 56.798C45.9703 56.7644 46.0336 56.7427 46.0992 56.7343C46.1642 56.7243 46.2305 56.7273 46.2944 56.7431C46.3582 56.7588 46.4184 56.787 46.4713 56.826C46.5243 56.865 46.569 56.9141 46.603 56.9704C46.6369 57.0267 46.6594 57.0892 46.6692 57.1543Z" stroke="#572C87" stroke-width="0.5" stroke-linejoin="bevel"/>
<path d="M30.1796 13.584C29.9796 19.584 26.8496 22.344 26.8496 22.344L31.6496 24.264H36.5496" fill="#EFF0F1"/>
<path d="M30.1796 13.584C29.9796 19.584 26.8496 22.344 26.8496 22.344L31.6496 24.264H36.5496" stroke="#572C87" stroke-width="0.5" stroke-linejoin="bevel"/>
<path d="M47.669 9.31343C47.669 9.31343 46.369 2.69343 41.669 1.50343C36.969 0.313429 34.3589 1.10343 31.7489 5.27343C27.3289 12.3534 30.8189 21.8534 34.1889 23.4234C35.7792 23.6734 37.4054 23.5614 38.9464 23.0956C40.4873 22.6299 41.9034 21.8224 43.089 20.7334" fill="#EFF0F1"/>
<path d="M47.669 9.31343C47.669 9.31343 46.369 2.69343 41.669 1.50343C36.969 0.313429 34.3589 1.10343 31.7489 5.27343C27.3289 12.3534 30.8189 21.8534 34.1889 23.4234C35.7792 23.6734 37.4054 23.5614 38.9464 23.0956C40.4873 22.6299 41.9034 21.8224 43.089 20.7334" stroke="#572C87" stroke-width="0.5" stroke-linejoin="bevel"/>
<path d="M39.7687 20.7441C35.8687 20.2541 33.9887 17.4241 34.9487 9.74409C35.4487 5.80409 37.7587 3.64409 42.1287 4.19409C46.4987 4.74409 48.0287 7.39409 47.5287 11.3341C46.5287 19.5441 43.7987 21.2041 39.7687 20.7041" fill="#F3F3F1"/>
<path d="M39.7687 20.7441C35.8687 20.2541 33.9887 17.4241 34.9487 9.74409C35.4487 5.80409 37.7587 3.64409 42.1287 4.19409C46.4987 4.74409 48.0287 7.39409 47.5287 11.3341C46.5187 19.5841 43.8187 21.2441 39.7687 20.7441Z" stroke="#572C87" stroke-width="0.5" stroke-linejoin="bevel"/>
<path d="M26.8493 22.3627C29.6993 23.6927 33.5093 23.5327 34.9893 23.4627C37.46 23.3677 39.8571 22.5956 41.9188 21.2306C43.9804 19.8656 45.6272 17.9602 46.6793 15.7227C42.8493 29.3827 29.6793 29.2727 23.7793 27.8427C25.2993 25.1427 24.6293 23.6827 26.8493 22.3627Z" fill="#EFF0F1"/>
<path d="M26.8493 22.3627C29.6993 23.6927 33.5093 23.5327 34.9893 23.4627C37.46 23.3677 39.8571 22.5956 41.9188 21.2306C43.9804 19.8656 45.6272 17.9602 46.6793 15.7227C42.8493 29.3827 29.6793 29.2727 23.7793 27.8427C25.2993 25.1427 24.6293 23.6827 26.8493 22.3627Z" stroke="#572C87" stroke-width="0.5" stroke-linejoin="bevel"/>
<path d="M47.5488 11.3733L46.2588 10.9833C44.8039 10.5442 43.49 9.73031 42.4488 8.62332L38.5488 4.51333C38.5488 4.51333 49.0188 1.26332 47.5488 11.3733Z" fill="#572C87"/>
<path d="M47.5488 11.3733L46.2588 10.9833C44.8039 10.5442 43.49 9.73031 42.4488 8.62332L38.5488 4.51333C38.5488 4.51333 49.0188 1.26332 47.5488 11.3733Z" stroke="#572C87" stroke-width="0.5" stroke-linejoin="bevel"/>
<path d="M45.769 53.8142L44.8591 47.6242C44.6691 46.4542 44.199 44.2942 43.569 41.9742C42.63 39.0336 40.929 36.3942 38.639 34.3242C37.61 33.1353 36.3941 32.122 35.0391 31.3242" fill="white"/>
<path d="M45.769 53.8142L44.8591 47.6242C44.6691 46.4542 44.199 44.2942 43.569 41.9742C42.63 39.0336 40.929 36.3942 38.639 34.3242C37.61 33.1353 36.3941 32.122 35.0391 31.3242" stroke="#572C87" stroke-width="0.5" stroke-linejoin="bevel"/>
<path d="M45.4489 65.6738C45.2588 66.9439 44.9849 68.2 44.6289 69.4338L45.4489 65.6738Z" fill="#F3F3F1"/>
<path d="M45.4489 65.6738C45.2588 66.9439 44.9849 68.2 44.6289 69.4338" stroke="#572C87" stroke-width="0.5" stroke-linejoin="bevel"/>
<path d="M42.3687 40.6543L41.3887 40.9343" stroke="#572C87" stroke-width="0.5" stroke-linejoin="bevel"/>
<path d="M43.7083 46.9727L42.6582 47.2527" stroke="#572C87" stroke-width="0.5" stroke-linejoin="bevel"/>
<path d="M44.8292 52.6836L43.6992 53.0536" stroke="#572C87" stroke-width="0.5" stroke-linejoin="bevel"/>
<path d="M44.5997 67.8438H43.7598" stroke="#572C87" stroke-width="0.5" stroke-linejoin="bevel"/>
<path d="M58.4785 48.7228C59.897 48.1103 61.1261 47.1298 62.0385 45.8828L58.4785 48.7228Z" fill="#F3F3F1"/>
<path d="M58.4785 48.7228C59.897 48.1103 61.1261 47.1298 62.0385 45.8828" stroke="#572C87" stroke-width="0.5" stroke-linejoin="bevel"/>
<path d="M40.8184 29.873L40.8683 30.313C40.9389 31.8695 41.441 33.3756 42.3184 34.6631C42.6084 35.0131 43.6084 36.3531 43.6084 36.3531C46.6684 40.5531 47.5084 43.5631 47.8584 48.7531L48.1584 52.4731" fill="#F3F3F1"/>
<path d="M40.8184 29.873L40.8683 30.313C40.9389 31.8695 41.441 33.3756 42.3184 34.6631C42.6084 35.0131 43.6084 36.3531 43.6084 36.3531C46.6684 40.5531 47.5084 43.5631 47.8584 48.7531L48.1584 52.4731" stroke="#572C87" stroke-width="0.5" stroke-linejoin="bevel"/>
<path d="M47.9499 63.9941C47.8299 64.5041 46.6699 68.6141 46.6699 68.6141L47.9499 63.9941Z" fill="#F3F3F1"/>
<path d="M47.9499 63.9941C47.8299 64.5041 46.6699 68.6141 46.6699 68.6141" stroke="#572C87" stroke-width="0.5" stroke-linejoin="bevel"/>
<path d="M40.819 29.873C40.637 30.3831 40.324 30.8364 39.9116 31.1874C39.4991 31.5384 39.0017 31.7749 38.4691 31.873C37.3018 32.0834 36.0977 31.9078 35.0391 31.373C35.9641 31.9826 36.8492 32.6506 37.689 33.373C39.2293 34.7096 40.5756 36.2545 41.689 37.9631C43.2617 40.8119 44.3052 43.9221 44.769 47.1431C45.269 50.4331 45.769 53.8331 45.769 53.8331L48.1591 52.4931C48.1591 52.4931 47.5991 45.6931 47.3491 44.4931C46.6552 41.7851 45.5054 39.2151 43.949 36.8931C42.319 34.7331 41.749 34.0531 41.379 32.8931C41.1019 31.9121 40.9145 30.9079 40.819 29.8931" fill="#572C87"/>
<path d="M40.819 29.873C40.637 30.3831 40.324 30.8364 39.9116 31.1874C39.4991 31.5384 39.0017 31.7749 38.4691 31.873C37.3018 32.0834 36.0977 31.9078 35.0391 31.373C35.9641 31.9826 36.8492 32.6506 37.689 33.373C39.2293 34.7096 40.5756 36.2545 41.689 37.9631C43.2617 40.8119 44.3052 43.9221 44.769 47.1431C45.269 50.4331 45.769 53.8331 45.769 53.8331L48.1591 52.4931C48.1591 52.4931 47.5991 45.6931 47.3491 44.4931C46.6552 41.7851 45.5054 39.2151 43.949 36.8931C42.319 34.7331 41.749 34.0531 41.379 32.8931C41.1007 31.9056 40.9133 30.8947 40.819 29.873Z" stroke="#572C87" stroke-width="0.5" stroke-linejoin="bevel"/>
<path d="M45.4489 65.6726L44.8789 68.5226L46.7889 68.1826L47.9089 64.1426L45.4489 65.6726Z" fill="#F3F3F1"/>
<path d="M45.4489 65.6726L44.8789 68.5226L46.7889 68.1826L47.9089 64.1426L45.4489 65.6726Z" stroke="#572C87" stroke-width="0.5" stroke-linejoin="bevel"/>
<path d="M103.189 59.3027L101.319 56.3027L101.199 56.4327C101.06 56.5714 100.965 56.7477 100.926 56.9397C100.887 57.1317 100.905 57.331 100.979 57.5127L101.569 59.0127" fill="#F3F3F1"/>
<path d="M103.189 59.3027L101.319 56.3027L101.199 56.4327C101.06 56.5714 100.965 56.7477 100.926 56.9397C100.887 57.1317 100.905 57.331 100.979 57.5127L101.569 59.0127" stroke="#572C87" stroke-width="0.5" stroke-linejoin="bevel"/>
<path d="M162.239 53.6738L162.259 54.3638L155.849 55.9838L155.719 54.5838L162.239 53.6738Z" fill="#572C87"/>
<path d="M162.239 53.6738L162.259 54.3638L155.849 55.9838L155.719 54.5838L162.239 53.6738Z" stroke="#572C87" stroke-width="0.5" stroke-linejoin="bevel"/>
<path d="M111.59 39.5827L116.69 41.0927L123.98 46.2327L126.46 42.0327L121.09 38.3427L117.77 34.5827L114.53 33.2827C114.362 33.2495 114.189 33.2648 114.029 33.3268C113.87 33.3888 113.731 33.4949 113.63 33.6328L111.19 35.5227C110.953 35.8088 110.801 36.155 110.75 36.5227V37.4028" fill="#F3F3F1"/>
<path d="M111.59 39.5827L116.69 41.0927L123.98 46.2327L126.46 42.0327L121.09 38.3427L117.77 34.5827L114.53 33.2827C114.362 33.2495 114.189 33.2648 114.029 33.3268C113.87 33.3888 113.731 33.4949 113.63 33.6328L111.19 35.5227C110.953 35.8088 110.801 36.155 110.75 36.5227V37.4028" stroke="#572C87" stroke-width="0.5" stroke-linejoin="bevel"/>
<path d="M117.87 33.1042L109.56 38.1042L109.07 39.1042C109.061 39.1257 109.056 39.149 109.057 39.1725C109.057 39.196 109.063 39.219 109.073 39.24C109.084 39.261 109.099 39.2794 109.117 39.294C109.136 39.3086 109.157 39.3189 109.18 39.3242L110.34 39.5142L118.77 34.5842C118.948 34.4639 119.072 34.2803 119.119 34.0709C119.165 33.8615 119.13 33.6423 119.02 33.4581C118.91 33.274 118.734 33.1389 118.527 33.0805C118.321 33.0222 118.1 33.045 117.91 33.1442" fill="#F3F3F1"/>
<path d="M117.87 33.1042L109.56 38.1042L109.07 39.1042C109.061 39.1257 109.056 39.149 109.057 39.1725C109.057 39.196 109.063 39.219 109.073 39.24C109.084 39.261 109.099 39.2794 109.117 39.294C109.136 39.3086 109.157 39.3189 109.18 39.3242L110.34 39.5142L118.77 34.5842C118.948 34.4639 119.072 34.2803 119.119 34.0709C119.165 33.8615 119.13 33.6423 119.02 33.4581C118.91 33.274 118.734 33.1389 118.527 33.0805C118.321 33.0222 118.1 33.045 117.91 33.1442L117.87 33.1042Z" stroke="#572C87" stroke-width="0.5" stroke-linejoin="bevel"/>
<path d="M114.46 40.4438L111.08 39.4438V39.3438C111.135 39.1591 111.226 38.9874 111.348 38.8388C111.471 38.6902 111.622 38.5679 111.793 38.4792C111.964 38.3905 112.151 38.3372 112.343 38.3225C112.535 38.3078 112.728 38.3321 112.91 38.3938L115.02 38.9538" fill="#F3F3F1"/>
<path d="M114.46 40.4438L111.08 39.4438V39.3438C111.135 39.1591 111.226 38.9874 111.348 38.8388C111.471 38.6902 111.622 38.5679 111.793 38.4792C111.964 38.3905 112.151 38.3372 112.343 38.3225C112.535 38.3078 112.728 38.3321 112.91 38.3938L115.02 38.9538" stroke="#572C87" stroke-width="0.5" stroke-linejoin="bevel"/>
<path d="M166.56 178.504L160.77 188.344H160.92C161.4 188.344 161.16 189.344 161.4 188.964L166.79 179.824C166.927 179.608 166.999 179.359 166.999 179.104C166.999 178.848 166.927 178.599 166.79 178.384L166.6 178.104L166.56 178.504Z" fill="#F3F3F1"/>
<path d="M166.56 178.504L160.77 188.344H160.92C161.4 188.344 161.16 189.344 161.4 188.964L166.79 179.824C166.927 179.608 166.999 179.359 166.999 179.104C166.999 178.848 166.927 178.599 166.79 178.384L166.6 178.104L166.56 178.504Z" stroke="#572C87" stroke-width="0.5" stroke-linejoin="bevel"/>
<path d="M156.42 176.894C156.42 177.964 157.54 177.834 158.5 177.364H158.56C160.39 176.514 162.5 176.064 163.28 173.744C163.28 173.744 162.04 171.944 161.68 171.854L155.77 174.894L156.42 176.894Z" fill="#F3F3F1"/>
<path d="M156.42 176.894C156.42 177.964 157.54 177.834 158.5 177.364H158.56C160.39 176.514 162.5 176.064 163.28 173.744C163.28 173.744 162.04 171.944 161.68 171.854L155.77 174.894L156.42 176.894Z" stroke="#572C87" stroke-width="0.5" stroke-linejoin="bevel"/>
<path d="M156.179 176.584L156.379 183.644C156.389 184.121 156.243 184.588 155.963 184.974C155.683 185.36 155.285 185.645 154.829 185.784C153.459 186.204 151.679 186.994 151.459 188.304H160.769L166.389 178.904C166.524 178.686 166.595 178.435 166.595 178.179C166.595 177.923 166.524 177.672 166.389 177.454C165.599 176.314 164.939 175.084 164.149 173.934C164.049 173.804 163.339 172.934 163.319 173.474C163.275 173.933 163.108 174.371 162.835 174.743C162.563 175.114 162.194 175.405 161.769 175.584C160.832 176.083 159.818 176.421 158.769 176.584C158.539 176.584 156.169 176.804 156.159 176.584" fill="#F3F3F1"/>
<path d="M156.179 176.584L156.379 183.644C156.389 184.121 156.243 184.588 155.963 184.974C155.683 185.36 155.285 185.645 154.829 185.784C153.459 186.204 151.679 186.994 151.459 188.304H160.769L166.389 178.904C166.524 178.686 166.595 178.435 166.595 178.179C166.595 177.923 166.524 177.672 166.389 177.454C165.599 176.314 164.939 175.084 164.149 173.934C164.049 173.804 163.339 172.934 163.319 173.474C163.275 173.933 163.108 174.371 162.835 174.743C162.563 175.114 162.194 175.405 161.769 175.584C160.832 176.083 159.818 176.421 158.769 176.584C158.559 176.664 156.189 176.844 156.179 176.584Z" stroke="#572C87" stroke-width="0.5" stroke-linejoin="bevel"/>
<path d="M161.17 189.102H151.77C151.698 189.102 151.63 189.074 151.579 189.023C151.528 188.973 151.5 188.904 151.5 188.832V188.582C151.5 188.511 151.528 188.442 151.579 188.392C151.63 188.341 151.698 188.312 151.77 188.312H161.21C161.282 188.312 161.35 188.341 161.401 188.392C161.452 188.442 161.48 188.511 161.48 188.582V188.802C161.48 188.874 161.452 188.943 161.401 188.993C161.35 189.044 161.282 189.072 161.21 189.072" fill="#F3F3F1"/>
<path d="M161.169 188.344H151.719C151.57 188.344 151.449 188.465 151.449 188.614V188.834C151.449 188.983 151.57 189.104 151.719 189.104H161.169C161.318 189.104 161.439 188.983 161.439 188.834V188.614C161.439 188.465 161.318 188.344 161.169 188.344Z" stroke="#572C87" stroke-width="0.5" stroke-linejoin="bevel"/>
<path d="M156.289 180.084L158.219 180.744" stroke="#572C87" stroke-width="0.5" stroke-linejoin="bevel"/>
<path d="M156.289 181.934L158.219 182.594" stroke="#572C87" stroke-width="0.5" stroke-linejoin="bevel"/>
<path d="M126.549 181.444L126.379 175.104C126.379 175.104 120.689 177.944 120.689 177.964C120.614 178.988 120.477 180.006 120.279 181.014C122.219 182.924 123.889 181.504 126.549 181.444Z" fill="#F3F3F1"/>
<path d="M126.549 181.444L126.379 175.104C126.379 175.104 120.689 177.944 120.689 177.964C120.614 178.988 120.477 180.006 120.279 181.014C122.219 182.924 123.889 181.504 126.549 181.444Z" stroke="#572C87" stroke-width="0.5" stroke-linejoin="bevel"/>
<path d="M133.359 123.904C127.519 148.614 118.359 178.314 118.359 178.314H131.769L144.589 142.914C156.199 111.734 157.149 86.4043 157.149 86.4043H126.409" fill="#EFF0F1"/>
<path d="M133.359 123.904C127.519 148.614 118.359 178.314 118.359 178.314H131.769L144.589 142.914C156.199 111.734 157.149 86.4043 157.149 86.4043H126.409" stroke="#572C87" stroke-width="0.5" stroke-linejoin="bevel"/>
<path d="M126.409 86.4043C126.409 86.4043 126.209 101.794 133.199 123.404C140.189 145.014 152.069 178.304 152.069 178.304L163.509 172.364C163.509 172.364 147.189 119.164 145.709 103.054" fill="#EFF0F1"/>
<path d="M126.409 86.4043C126.409 86.4043 126.209 101.794 133.199 123.404C140.189 145.014 152.069 178.304 152.069 178.304L163.509 172.364C163.509 172.364 147.189 119.164 145.709 103.054" stroke="#572C87" stroke-width="0.5" stroke-linejoin="bevel"/>
<path d="M157.088 86.4043H126.408L126.438 88.7543L157.058 87.0843L157.088 86.4043Z" fill="#572C87"/>
<path d="M157.088 86.4043H126.408L126.438 88.7543L157.058 87.0843L157.088 86.4043Z" stroke="#572C87" stroke-width="0.5" stroke-linejoin="bevel"/>
<path d="M132.139 12.7344C132.139 12.7344 142.639 13.9844 145.989 20.8944L148.049 29.1244H137.699L137.099 26.8444" fill="#F3F3F1"/>
<path d="M132.139 12.7344C132.139 12.7344 142.639 13.9844 145.989 20.8944L148.049 29.1244H137.699L137.099 26.8444" stroke="#572C87" stroke-width="0.5" stroke-linejoin="bevel"/>
<path d="M138.768 26.5832C138.768 26.5832 131.838 27.8832 131.398 21.6332C131.16 18.6609 131.42 15.6696 132.168 12.7832" fill="#F3F3F1"/>
<path d="M138.768 26.5832C138.768 26.5832 131.838 27.8832 131.398 21.6332C131.16 18.6609 131.42 15.6696 132.168 12.7832" stroke="#572C87" stroke-width="0.5" stroke-linejoin="bevel"/>
<path d="M135.769 15.7832L134.899 15.5232C134.054 15.2755 133.313 14.759 132.787 14.0521C132.262 13.3451 131.982 12.4862 131.988 11.6056C131.995 10.7249 132.289 9.87045 132.825 9.17168C133.361 8.47291 134.11 7.96791 134.959 7.73322L136.429 7.32323C138.024 6.86353 139.708 6.80558 141.33 7.15454C142.953 7.50351 144.464 8.24854 145.729 9.32323C146.604 10.0741 147.301 11.0101 147.769 12.0633C148.238 13.1165 148.467 14.2608 148.439 15.4132C148.359 18.3232 147.669 21.9232 144.839 22.8532C144.839 22.8532 139.689 24.1032 139.109 21.0332C138.529 17.9632 138.449 16.5332 135.769 15.7332" fill="#572C87"/>
<path d="M135.769 15.7832L134.899 15.5232C134.054 15.2755 133.313 14.759 132.787 14.0521C132.262 13.3451 131.982 12.4862 131.988 11.6056C131.995 10.7249 132.289 9.87045 132.825 9.17168C133.361 8.47291 134.11 7.96791 134.959 7.73322L136.429 7.32323C138.024 6.86353 139.708 6.80558 141.33 7.15454C142.953 7.50351 144.464 8.24854 145.729 9.32323C146.604 10.0741 147.301 11.0101 147.769 12.0633C148.238 13.1165 148.467 14.2608 148.439 15.4132C148.359 18.3232 147.669 21.9232 144.839 22.8532C144.839 22.8532 139.689 24.1032 139.109 21.0332C138.529 17.9632 138.429 16.5832 135.769 15.7832Z" stroke="#572C87" stroke-width="0.5" stroke-linejoin="bevel"/>
<path d="M157.089 86.404H158.819L155.379 50.874L127.689 46.584L124.719 86.404H125.569H128.519H157.089Z" fill="#F3F3F1"/>
<path d="M157.089 86.404H158.819L155.379 50.874L127.689 46.584L124.719 86.404H125.569H128.519H157.089Z" stroke="#572C87" stroke-width="0.5" stroke-linejoin="bevel"/>
<path d="M126.479 180.733C126.533 180.715 126.59 180.709 126.646 180.716C126.702 180.723 126.755 180.742 126.803 180.773C126.85 180.804 126.89 180.845 126.919 180.894C126.947 180.942 126.965 180.997 126.969 181.053C127.079 182.583 127.389 187.203 126.849 187.483C126.309 187.763 109.029 187.773 109.029 187.773C109.029 187.773 108.249 185.953 111.619 185.073C114.989 184.193 116.119 183.583 117.359 182.543C118.237 181.868 119.225 181.351 120.279 181.013C121.138 181.332 122.055 181.468 122.969 181.413C124.174 181.437 125.37 181.205 126.479 180.733Z" fill="#F3F3F1"/>
<path d="M126.479 180.733C126.533 180.715 126.59 180.709 126.646 180.716C126.702 180.723 126.755 180.742 126.803 180.773C126.85 180.804 126.89 180.845 126.919 180.894C126.947 180.942 126.965 180.997 126.969 181.053C127.079 182.583 127.389 187.203 126.849 187.483C126.309 187.763 109.029 187.773 109.029 187.773C109.029 187.773 108.249 185.953 111.619 185.073C114.989 184.193 116.119 183.583 117.359 182.543C118.237 181.868 119.225 181.351 120.279 181.013C121.138 181.332 122.055 181.468 122.969 181.413C124.174 181.437 125.37 181.205 126.479 180.733Z" stroke="#572C87" stroke-width="0.5" stroke-linejoin="bevel"/>
<path d="M109.32 187.793L126.54 187.463C126.58 187.462 126.62 187.468 126.658 187.483C126.695 187.497 126.73 187.519 126.759 187.547C126.788 187.575 126.811 187.609 126.826 187.646C126.842 187.683 126.85 187.723 126.85 187.763V188.013C126.851 188.053 126.845 188.093 126.83 188.131C126.816 188.168 126.794 188.203 126.766 188.232C126.738 188.261 126.704 188.284 126.667 188.299C126.63 188.315 126.59 188.323 126.55 188.323L109.32 188.653C109.24 188.651 109.164 188.619 109.107 188.563C109.049 188.508 109.015 188.433 109.01 188.353V188.103C109.009 188.063 109.015 188.023 109.03 187.985C109.044 187.948 109.066 187.913 109.094 187.884C109.122 187.855 109.156 187.833 109.193 187.817C109.23 187.801 109.27 187.793 109.31 187.793" fill="#F3F3F1"/>
<path d="M109.32 187.793L126.54 187.463C126.58 187.462 126.62 187.468 126.658 187.483C126.695 187.497 126.73 187.519 126.759 187.547C126.788 187.575 126.811 187.609 126.826 187.646C126.842 187.683 126.85 187.723 126.85 187.763V188.013C126.851 188.053 126.845 188.093 126.83 188.131C126.816 188.168 126.794 188.203 126.766 188.232C126.738 188.261 126.704 188.284 126.667 188.299C126.63 188.315 126.59 188.323 126.55 188.323L109.32 188.653C109.24 188.651 109.164 188.619 109.107 188.563C109.049 188.508 109.015 188.433 109.01 188.353V188.103C109.009 188.062 109.016 188.021 109.031 187.983C109.046 187.945 109.069 187.91 109.098 187.881C109.127 187.852 109.161 187.829 109.2 187.814C109.238 187.799 109.279 187.792 109.32 187.793Z" stroke="#572C87" stroke-width="0.5" stroke-linejoin="bevel"/>
<path d="M116.219 183.283L117.249 184.293" stroke="#572C87" stroke-width="0.5" stroke-linejoin="bevel"/>
<path d="M114.719 184.043L115.739 185.053" stroke="#572C87" stroke-width="0.5" stroke-linejoin="bevel"/>
<path d="M141.729 150.664L142.059 149.754L133.359 123.904L141.729 150.664Z" fill="#F3F3F1"/>
<path d="M141.729 150.664L142.059 149.754L133.359 123.904L141.729 150.664Z" stroke="#572C87" stroke-width="0.5" stroke-linejoin="bevel"/>
<path d="M132.329 60.1827L131.329 66.6427C130.969 70.7827 129.269 75.0027 123.419 73.2727C118.889 71.9327 107.249 65.2727 105.039 64.0427C104.796 63.9052 104.527 63.82 104.249 63.7927L99.7792 63.0227L97.4092 62.7927H95.4692C95.3903 62.7929 95.3143 62.763 95.2567 62.7091C95.1991 62.6552 95.1643 62.5814 95.1592 62.5027C95.1586 62.4244 95.1867 62.3485 95.2383 62.2895C95.29 62.2305 95.3614 62.1925 95.4391 62.1827L97.3792 61.9927L99.6692 62.2927L99.5792 61.9827L96.8492 61.3727L94.4692 61.5527C93.9381 61.5727 93.416 61.4112 92.9889 61.095C92.5618 60.7787 92.255 60.3265 92.1191 59.8127L97.1191 58.3027L103.119 59.3027L106.119 60.2527L121.639 64.1027L122.269 58.4827" fill="white"/>
<path d="M132.329 60.1827L131.329 66.6427C130.969 70.7827 129.269 75.0027 123.419 73.2727C118.889 71.9327 107.249 65.2727 105.039 64.0427C104.796 63.9052 104.527 63.82 104.249 63.7927L99.7792 63.0227L97.4092 62.7927H95.4692C95.3903 62.7929 95.3143 62.763 95.2567 62.7091C95.1991 62.6552 95.1643 62.5814 95.1592 62.5027C95.1586 62.4244 95.1867 62.3485 95.2383 62.2895C95.29 62.2305 95.3614 62.1925 95.4391 62.1827L97.3792 61.9927L99.6692 62.2927L99.5792 61.9827L96.8492 61.3727L94.4692 61.5527C93.9381 61.5727 93.416 61.4112 92.9889 61.095C92.5618 60.7787 92.255 60.3265 92.1191 59.8127L97.1191 58.3027L103.119 59.3027L106.119 60.2527L121.639 64.1027L122.269 58.4827" stroke="#572C87" stroke-width="0.5" stroke-linejoin="bevel"/>
<path d="M162.25 53.6836C162.334 55.1757 162.334 56.6715 162.25 58.1636C162.07 61.6036 161.8 68.3536 156.84 66.2336" fill="white"/>
<path d="M162.25 53.6836C162.334 55.1757 162.334 56.6715 162.25 58.1636C162.07 61.6036 161.8 68.3536 156.84 66.2336" stroke="#572C87" stroke-width="0.5" stroke-linejoin="bevel"/>
<path d="M133.969 49.9341L133.639 60.4041L121.199 58.2941L121.849 52.0041C122.166 48.3057 123.127 44.6913 124.689 41.3241C125.446 39.5726 126.371 37.8981 127.449 36.3241C129.449 33.5141 132.179 31.3241 137.959 30.0341L147.099 28.9141C157.639 28.9141 162.349 43.4941 162.929 53.6841L155.729 54.5841" fill="#F3F3F1"/>
<path d="M133.969 49.9341L133.639 60.4041L121.199 58.2941L121.849 52.0041C122.166 48.3057 123.127 44.6913 124.689 41.3241C125.446 39.5726 126.371 37.8981 127.449 36.3241C129.449 33.5141 132.179 31.3241 137.959 30.0341L147.099 28.9141C157.639 28.9141 162.349 43.4941 162.929 53.6841L155.729 54.5841" stroke="#572C87" stroke-width="0.5" stroke-linejoin="bevel"/>
<path d="M124.719 86.404H158.819L154.769 44.834" fill="#F3F3F1"/>
<path d="M124.719 86.404H158.819L154.769 44.834" stroke="#572C87" stroke-width="0.5" stroke-linejoin="bevel"/>
<path d="M151.379 120.762L150.219 125.202L147.989 115.853L145.959 105.092L145.699 103.062L151.379 120.762Z" fill="#572C87"/>
<path d="M151.379 120.762L150.219 125.202L147.989 115.853L145.959 105.092L145.699 103.062L151.379 120.762Z" stroke="#572C87" stroke-width="0.5" stroke-linejoin="bevel"/>
<path d="M108.748 66.1334L107.408 65.3834L109.268 61.0234L110.778 61.3934L108.748 66.1334Z" fill="#F3F3F1"/>
<path d="M108.748 66.1334L107.408 65.3834L109.268 61.0234L110.778 61.3934L108.748 66.1334Z" stroke="#572C87" stroke-width="0.5" stroke-linejoin="bevel"/>
<path d="M108.218 63.4189L107.742 64.5312L109.149 65.1332L109.625 64.0209L108.218 63.4189Z" fill="#F3F3F1"/>
<path d="M108.218 63.4189L107.742 64.5312L109.149 65.1332L109.625 64.0209L108.218 63.4189Z" stroke="#572C87" stroke-width="0.5" stroke-linejoin="bevel"/>
<path d="M108.467 61.7192L107.578 63.7969L110.042 64.8513L110.931 62.7736L108.467 61.7192Z" fill="#F3F3F1"/>
<path d="M108.467 61.7192L107.578 63.7969L110.042 64.8513L110.931 62.7736L108.467 61.7192Z" stroke="#572C87" stroke-width="0.5" stroke-linejoin="bevel"/>
<path d="M108.652 62.4503L108.242 63.4062L109.777 64.0639L110.187 63.1079L108.652 62.4503Z" fill="#572C87"/>
<path d="M107.689 64.7127L108.009 63.9727L109.409 64.5727L109.049 65.4327" fill="#F3F3F1"/>
<path d="M107.689 64.7127L108.009 63.9727L109.409 64.5727L109.049 65.4327" stroke="#572C87" stroke-width="0.5" stroke-linejoin="bevel"/>
<path d="M92.5293 60.7241L97.1193 60.2441L100.049 61.0041" fill="#F3F3F1"/>
<path d="M92.5293 60.7241L97.1193 60.2441L100.049 61.0041" stroke="#572C87" stroke-width="0.5" stroke-linejoin="bevel"/>
<path d="M92.2285 60.1833L97.4185 59.1133L100.089 59.7533" fill="#F3F3F1"/>
<path d="M92.2285 60.1833L97.4185 59.1133L100.089 59.7533" stroke="#572C87" stroke-width="0.5" stroke-linejoin="bevel"/>
<path d="M133.699 58.2931L133.629 60.4031L121.189 58.2931L121.379 56.4531L133.699 58.2931Z" fill="#EFF0F1"/>
<path d="M133.699 58.2931L133.629 60.4031L121.189 58.2931L121.379 56.4531L133.699 58.2931Z" stroke="#572C87" stroke-width="0.5" stroke-linejoin="bevel"/>
<path d="M150.229 125.202C148.23 117.932 146.72 110.535 145.709 103.062L150.229 125.202Z" fill="#572C87"/>
<path d="M150.229 125.202C148.23 117.932 146.72 110.535 145.709 103.062" stroke="#572C87" stroke-width="0.5" stroke-linejoin="bevel"/>
<path d="M122.319 58.4844L122.229 59.2444L132.059 61.9144L132.319 60.1844L122.319 58.4844Z" fill="#F3F3F1"/>
<path d="M122.319 58.4844L122.229 59.2444L132.059 61.9144L132.319 60.1844L122.319 58.4844Z" stroke="#572C87" stroke-width="0.5" stroke-linejoin="bevel"/>
<path d="M126.398 86.4043L126.558 90.4643" stroke="#572C87" stroke-width="0.5" stroke-linejoin="bevel"/>
<path d="M157.09 86.4043L157 87.9043" stroke="#572C87" stroke-width="0.5" stroke-linejoin="bevel"/>
<path d="M147.538 27.084L137.008 28.224L136.148 30.494L147.148 29.564C147.79 29.5049 148.418 29.3428 149.008 29.084L147.538 27.084Z" fill="#F3F3F1"/>
<path d="M147.538 27.084L137.008 28.224L136.148 30.494L147.148 29.564C147.79 29.5049 148.418 29.3428 149.008 29.084L147.538 27.084Z" stroke="#572C87" stroke-width="0.5" stroke-linejoin="bevel"/>
<path d="M162.929 53.6737L155.719 54.5837L155.559 52.9437L162.799 52.0137L162.929 53.6737Z" fill="#EFF0F1"/>
<path d="M162.929 53.6737L155.719 54.5837L155.559 52.9437L162.799 52.0137L162.929 53.6737Z" stroke="#572C87" stroke-width="0.5" stroke-linejoin="bevel"/>
<path d="M152.229 117.514L150.619 123.884" stroke="#572C87" stroke-width="0.5" stroke-linejoin="bevel"/>
<path d="M122.119 60.2744L122.319 58.4844L132.319 60.1844L132.059 61.9144" fill="#572C87"/>
<path d="M122.119 60.2744L122.319 58.4844L132.319 60.1844L132.059 61.9144" stroke="#572C87" stroke-width="0.5" stroke-linejoin="bevel"/>
<path d="M148.398 189.584H165.288" stroke="#572C87" stroke-width="0.5" stroke-linejoin="bevel"/>
<path d="M106.18 189.014H131.51" stroke="#572C87" stroke-width="0.5" stroke-linejoin="bevel"/>
<path d="M116.209 78.9238L101.529 80.0838L99.5391 99.3238L104.159 101.404L118.529 98.7138L116.209 78.9238Z" fill="#F3F3F1"/>
<path d="M116.209 78.9238L101.529 80.0838L99.5391 99.3238L104.159 101.404L118.529 98.7138L116.209 78.9238Z" stroke="#572C87" stroke-width="0.5" stroke-linejoin="bevel"/>
<path d="M101.529 80.084L104.159 101.404" stroke="#572C87" stroke-width="0.5" stroke-linejoin="bevel"/>
<path d="M102.099 97.374L101.529 80.084L102.099 97.374Z" stroke="#572C87" stroke-width="0.5" stroke-linejoin="bevel"/>
<path d="M104.159 101.403L102.099 97.373L99.5391 99.3231" fill="#F3F3F1"/>
<path d="M104.159 101.403L102.099 97.373L99.5391 99.3231" stroke="#572C87" stroke-width="0.5" stroke-linejoin="bevel"/>
<path d="M102.209 85.584L116.859 84.084" stroke="#572C87" stroke-width="0.5" stroke-linejoin="bevel"/>
<path d="M108.439 84.9031C108.439 85.1899 108.525 85.4703 108.684 85.7087C108.843 85.9472 109.07 86.133 109.335 86.2428C109.6 86.3525 109.891 86.3812 110.172 86.3253C110.454 86.2693 110.712 86.1312 110.915 85.9284C111.118 85.7257 111.256 85.4673 111.312 85.186C111.368 84.9047 111.339 84.6132 111.229 84.3482C111.119 84.0833 110.934 83.8568 110.695 83.6975C110.457 83.5382 110.176 83.4531 109.889 83.4531C109.505 83.4531 109.136 83.6059 108.864 83.8778C108.592 84.1498 108.439 84.5186 108.439 84.9031Z" fill="#572C87"/>
<path d="M108.439 84.9031C108.439 85.1899 108.525 85.4703 108.684 85.7087C108.843 85.9472 109.07 86.133 109.335 86.2428C109.6 86.3525 109.891 86.3812 110.172 86.3253C110.454 86.2693 110.712 86.1312 110.915 85.9284C111.118 85.7257 111.256 85.4673 111.312 85.186C111.368 84.9047 111.339 84.6132 111.229 84.3482C111.119 84.0833 110.934 83.8568 110.695 83.6975C110.457 83.5382 110.176 83.4531 109.889 83.4531C109.505 83.4531 109.136 83.6059 108.864 83.8778C108.592 84.1498 108.439 84.5186 108.439 84.9031Z" stroke="#572C87" stroke-width="0.5" stroke-linejoin="bevel"/>
<path d="M110.49 103.474C110.49 106.714 105.96 109.344 100.37 109.344C94.78 109.344 90.25 106.714 90.25 103.474C90.25 100.234 94.77 97.584 100.37 97.584C105.97 97.584 110.49 100.214 110.49 103.454" fill="#572C87"/>
<path d="M100.358 109.344C105.947 109.344 110.478 106.715 110.478 103.474C110.478 100.232 105.947 97.6035 100.358 97.6035C94.7692 97.6035 90.2383 100.232 90.2383 103.474C90.2383 106.715 94.7692 109.344 100.358 109.344Z" stroke="#572C87" stroke-width="0.5" stroke-linejoin="bevel"/>
<path d="M111.769 102.714C111.769 105.864 106.659 108.424 100.359 108.424C94.0593 108.424 88.9492 105.864 88.9492 102.714C88.9492 99.5641 94.0493 96.9941 100.359 96.9941C106.669 96.9941 111.769 99.5841 111.769 102.714Z" fill="#F3F3F1"/>
<path d="M111.769 102.714C111.769 105.864 106.659 108.424 100.359 108.424C94.0593 108.424 88.9492 105.864 88.9492 102.714C88.9492 99.5641 94.0493 96.9941 100.359 96.9941C106.669 96.9941 111.769 99.5841 111.769 102.714Z" stroke="#572C87" stroke-width="0.5" stroke-linejoin="bevel"/>
<path d="M107.77 103.424C107.77 105.424 104.46 107.124 100.39 107.124C96.3198 107.124 93.0098 105.474 93.0098 103.424C93.0098 101.374 96.3098 99.7344 100.39 99.7344C104.47 99.7344 107.77 101.384 107.77 103.424Z" fill="#F3F3F1"/>
<path d="M107.77 103.424C107.77 105.424 104.46 107.124 100.39 107.124C96.3198 107.124 93.0098 105.474 93.0098 103.424C93.0098 101.374 96.3098 99.7344 100.39 99.7344C104.47 99.7344 107.77 101.384 107.77 103.424Z" stroke="#572C87" stroke-width="0.5" stroke-linejoin="bevel"/>
<path d="M104.408 101.054C105.109 100.602 105.605 99.8946 105.792 99.0821C105.979 98.2697 105.841 97.4165 105.408 96.704C103.838 94.054 103.408 98.544 102.098 99.234C100.788 99.924 104.408 101.054 104.408 101.054Z" fill="#F3F3F1"/>
<path d="M104.408 101.054C105.109 100.602 105.605 99.8946 105.792 99.0821C105.979 98.2697 105.841 97.4165 105.408 96.704C103.838 94.054 103.408 98.544 102.098 99.234C100.788 99.924 104.408 101.054 104.408 101.054Z" stroke="#572C87" stroke-width="0.5" stroke-linejoin="bevel"/>
<path d="M103.618 103.173C103.875 103.239 104.142 103.25 104.403 103.205C104.664 103.16 104.913 103.06 105.132 102.911C105.351 102.763 105.537 102.569 105.676 102.344C105.815 102.118 105.904 101.866 105.938 101.603C106.188 99.6035 101.578 96.1235 100.748 99.9235C99.9183 103.723 103.618 103.173 103.618 103.173Z" fill="#F3F3F1"/>
<path d="M103.618 103.173C103.875 103.239 104.142 103.25 104.403 103.205C104.664 103.16 104.913 103.06 105.132 102.911C105.351 102.763 105.537 102.569 105.676 102.344C105.815 102.118 105.904 101.866 105.938 101.603C106.188 99.6035 101.578 96.1235 100.748 99.9235C99.9183 103.723 103.618 103.173 103.618 103.173Z" stroke="#572C87" stroke-width="0.5" stroke-linejoin="bevel"/>
<path d="M96.3791 105.664C95.6373 106.044 94.7762 106.119 93.9801 105.872C93.1839 105.626 92.5159 105.077 92.119 104.344C90.609 101.664 94.6991 103.574 95.9691 102.764C97.2391 101.954 96.3791 105.664 96.3791 105.664Z" fill="#F3F3F1"/>
<path d="M96.3791 105.664C95.6373 106.044 94.7762 106.119 93.9801 105.872C93.1839 105.626 92.5159 105.077 92.119 104.344C90.609 101.664 94.6991 103.574 95.9691 102.764C97.2391 101.954 96.3791 105.664 96.3791 105.664Z" stroke="#572C87" stroke-width="0.5" stroke-linejoin="bevel"/>
<path d="M98.6098 106.053C98.5382 106.308 98.4134 106.544 98.2435 106.747C98.0736 106.95 97.8626 107.115 97.6244 107.23C97.3862 107.346 97.1263 107.409 96.8617 107.416C96.5972 107.424 96.3341 107.375 96.0898 107.273C94.2498 106.493 93.5398 100.753 97.2398 101.943C100.94 103.133 98.6098 106.053 98.6098 106.053Z" fill="#F3F3F1"/>
<path d="M98.6098 106.053C98.5382 106.308 98.4134 106.544 98.2435 106.747C98.0736 106.95 97.8626 107.115 97.6244 107.23C97.3862 107.346 97.1263 107.409 96.8617 107.416C96.5972 107.424 96.3341 107.375 96.0898 107.273C94.2498 106.493 93.5398 100.753 97.2398 101.943C100.94 103.133 98.6098 106.053 98.6098 106.053Z" stroke="#572C87" stroke-width="0.5" stroke-linejoin="bevel"/>
<path d="M104.28 103.173C103.15 102.273 102.05 101.333 101 100.343C100.867 100.177 100.68 100.064 100.472 100.022C100.263 99.9799 100.047 100.012 99.8601 100.113C99.5177 100.373 99.1604 100.614 98.7901 100.833C98.4155 101.043 98.0281 101.23 97.6301 101.393C97.4482 101.503 97.3107 101.673 97.2413 101.874C97.1719 102.075 97.175 102.294 97.2501 102.493C97.5801 103.903 97.8501 105.323 98.0501 106.753C98.069 106.926 98.1257 107.092 98.2164 107.24C98.3071 107.389 98.4294 107.515 98.5746 107.611C98.7198 107.706 98.8844 107.769 99.0565 107.793C99.2286 107.818 99.4039 107.804 99.5701 107.753C101.34 107.155 102.975 106.214 104.38 104.983C104.507 104.867 104.606 104.725 104.672 104.567C104.738 104.409 104.769 104.238 104.762 104.067C104.756 103.895 104.712 103.727 104.634 103.575C104.556 103.422 104.445 103.288 104.31 103.183" fill="#F3F3F1"/>
<path d="M104.28 103.173C103.15 102.273 102.05 101.333 101 100.343C100.867 100.177 100.68 100.064 100.472 100.022C100.263 99.9799 100.047 100.012 99.8601 100.113C99.5177 100.373 99.1604 100.614 98.7901 100.833C98.4155 101.043 98.0281 101.23 97.6301 101.393C97.4482 101.503 97.3107 101.673 97.2413 101.874C97.1719 102.075 97.175 102.294 97.2501 102.493C97.5801 103.903 97.8501 105.323 98.0501 106.753C98.069 106.926 98.1257 107.092 98.2164 107.24C98.3071 107.389 98.4294 107.515 98.5746 107.611C98.7198 107.706 98.8844 107.769 99.0565 107.793C99.2286 107.818 99.4039 107.804 99.5701 107.753C101.34 107.155 102.975 106.214 104.38 104.983C104.507 104.865 104.606 104.721 104.67 104.56C104.735 104.4 104.763 104.227 104.754 104.054C104.744 103.882 104.697 103.713 104.615 103.561C104.533 103.408 104.419 103.276 104.28 103.173Z" stroke="#572C87" stroke-width="0.5" stroke-linejoin="bevel"/>
<path d="M31.679 162.634C31.679 162.634 30.6791 163.514 28.3391 162.974C26.4061 162.633 24.5783 161.849 22.999 160.684C21.8341 159.864 20.5915 159.161 19.2891 158.584L19.439 166.304L23.2791 166.234L21.1591 160.874C21.1591 160.874 24.7591 162.874 25.8591 164.774C26.9591 166.674 30.1891 166.404 35.1091 166.134C35.1091 166.134 36.989 165.734 36.449 165.224C35.909 164.714 31.509 163.224 31.679 162.634Z" fill="white"/>
<path d="M31.679 162.634C31.679 162.634 30.6791 163.514 28.3391 162.974C26.4061 162.633 24.5783 161.849 22.999 160.684C21.8341 159.864 20.5915 159.161 19.2891 158.584L19.439 166.304L23.2791 166.234L21.1591 160.874C21.1591 160.874 24.7591 162.874 25.8591 164.774C26.9591 166.674 30.1891 166.404 35.1091 166.134C35.1091 166.134 36.989 165.734 36.449 165.224C35.909 164.714 31.509 163.204 31.679 162.634Z" stroke="#572C87" stroke-width="0.5" stroke-miterlimit="10"/>
</svg>
