<svg width="233" height="187" viewBox="0 0 233 187" fill="none" xmlns="http://www.w3.org/2000/svg">
<path d="M176.134 165.45C174.284 165.62 168.484 166.39 168.484 166.39C166.393 164.343 164.757 161.877 163.684 159.155C162.61 156.432 162.123 153.514 162.254 150.59C162.574 138.03 169.034 129.29 180.414 125.97C187.036 124.092 193.413 121.441 199.414 118.07M50.5039 140.07C49.5039 156.07 40.5039 162.07 40.5039 162.07C26.5039 173.07 29.7141 179.7 29.7141 179.7M29.7141 179.7C35.8362 179.365 41.9719 179.365 48.094 179.7C56.444 180.33 58.6839 181.28 59.0239 181.99C59.3639 182.7 58.664 185.37 44.814 185.05C37.924 184.89 32.9741 183.14 29.7141 179.7ZM29.7141 179.7C24.9241 180.05 22.7139 180.15 19.7739 180.97C18.5339 181.31 16.2539 182.05 16.2539 182.72C16.2539 183.57 20.0541 184.97 27.9741 185.92C38.1141 187.14 83.4841 186.97 118.904 182.59C143.834 179.51 123.514 174.86 142.904 171.09C150.164 169.68 157.024 168.35 163.634 167.15C165.244 166.86 166.864 166.59 168.484 166.35L168.774 166.61C171.778 169.308 175.208 171.491 178.924 173.07H179.024C189.174 177.3 212.024 177.83 215.394 171.25C215.641 170.8 215.751 170.288 215.71 169.776C215.669 169.264 215.479 168.776 215.164 168.37C212.694 165.04 197.304 163.75 181.984 164.65" stroke="#512B83" stroke-width="0.75" stroke-linejoin="bevel"/>
<path d="M124.363 164.849L122.813 164.969C122.223 166.14 122.053 167.478 122.333 168.759C122.423 169.139 122.503 169.489 122.543 169.679C122.658 170.094 122.632 170.535 122.47 170.933C122.307 171.331 122.016 171.664 121.643 171.879C121.513 171.945 121.375 171.996 121.233 172.029L118.023 161.579C118.023 161.579 117.673 159.339 120.133 159.739C122.593 160.139 123.133 160.149 123.133 160.149" fill="#F3F3F1"/>
<path d="M124.363 164.849L122.813 164.969C122.223 166.14 122.053 167.478 122.333 168.759C122.423 169.139 122.503 169.489 122.543 169.679C122.658 170.094 122.632 170.535 122.47 170.933C122.307 171.331 122.016 171.664 121.643 171.879C121.513 171.945 121.375 171.996 121.233 172.029L118.023 161.579C118.023 161.579 117.673 159.339 120.133 159.739C122.593 160.139 123.133 160.149 123.133 160.149" stroke="#512B83" stroke-width="0.75" stroke-miterlimit="10"/>
<path d="M122.854 159.971L123.483 164.821L124.913 164.731L123.403 159.981L122.854 159.971Z" fill="#512B83"/>
<path d="M122.812 164.82L122.152 163.59" stroke="#512B83" stroke-width="0.75" stroke-miterlimit="10"/>
<path d="M122.584 165.509L121.504 164.619" stroke="#512B83" stroke-width="0.75" stroke-miterlimit="10"/>
<path d="M181.564 165.289V167.149C181.564 167.357 181.61 167.562 181.698 167.75C181.787 167.939 181.915 168.105 182.074 168.239C183.359 169.372 184.849 170.248 186.464 170.819C188.804 171.459 187.884 171.989 187.884 171.989H177.204C177.204 171.989 174.924 171.919 175.784 169.579C176.253 168.408 176.55 167.175 176.664 165.919" fill="#F3F3F1"/>
<path d="M181.564 165.289V167.149C181.564 167.357 181.61 167.562 181.698 167.75C181.787 167.939 181.915 168.105 182.074 168.239C183.359 169.372 184.849 170.248 186.464 170.819C188.804 171.459 187.884 171.989 187.884 171.989H177.204C177.204 171.989 174.924 171.919 175.784 169.579C176.253 168.408 176.55 167.175 176.664 165.919" stroke="#512B83" stroke-width="0.75" stroke-miterlimit="10"/>
<path d="M180.783 168.47L181.773 167.9" stroke="#512B83" stroke-width="0.75" stroke-miterlimit="10"/>
<path d="M181.613 169.61L182.713 168.76" stroke="#512B83" stroke-width="0.75" stroke-miterlimit="10"/>
<path d="M176.443 167.269L181.563 166.689V165.789L176.614 166.389L176.443 167.269Z" fill="#512B83"/>
<path d="M230.184 98.4297L223.354 103.99C223.094 104.216 222.908 104.515 222.821 104.849C222.734 105.183 222.75 105.535 222.867 105.859C222.984 106.184 223.196 106.465 223.475 106.667C223.755 106.869 224.089 106.981 224.434 106.99C224.825 106.99 225.204 106.852 225.504 106.6L232.334 101.04L230.184 98.4297Z" fill="#DDE1E2"/>
<path d="M230.184 98.4297L223.354 103.99C223.094 104.216 222.908 104.515 222.821 104.849C222.734 105.183 222.75 105.535 222.867 105.859C222.984 106.184 223.196 106.465 223.475 106.667C223.755 106.869 224.089 106.981 224.434 106.99C224.825 106.99 225.204 106.852 225.504 106.6L232.334 101.04L230.184 98.4297Z" stroke="#512B83" stroke-width="0.75" stroke-miterlimit="10"/>
<path d="M223.004 89.6191L216.174 95.1791C215.914 95.4054 215.728 95.705 215.641 96.0386C215.554 96.3723 215.57 96.7244 215.687 97.0489C215.804 97.3733 216.016 97.6548 216.296 97.8565C216.575 98.0582 216.909 98.1707 217.254 98.1791C217.652 98.2059 218.046 98.0888 218.364 97.8491L225.194 92.2891L223.004 89.6191Z" fill="#DDE1E2"/>
<path d="M223.004 89.6191L216.174 95.1791C215.914 95.4054 215.728 95.705 215.641 96.0386C215.554 96.3723 215.57 96.7244 215.687 97.0489C215.804 97.3733 216.016 97.6548 216.296 97.8565C216.575 98.0582 216.909 98.1707 217.254 98.1791C217.652 98.2059 218.046 98.0888 218.364 97.8491L225.194 92.2891L223.004 89.6191Z" stroke="#512B83" stroke-width="0.75" stroke-miterlimit="10"/>
<path d="M202.433 98.2205C201.003 99.3905 194.963 106.601 202.643 116.011C210.323 125.421 217.993 120.911 219.753 119.481L229.753 111.311L212.433 90.0605L202.433 98.2205Z" fill="#F3F3F1"/>
<path d="M202.433 98.2205C201.003 99.3905 194.963 106.601 202.643 116.011C210.323 125.421 217.993 120.911 219.753 119.481L229.753 111.311L212.433 90.0605L202.433 98.2205Z" stroke="#512B83" stroke-width="0.75" stroke-miterlimit="10"/>
<path d="M205.613 118.95C205.173 119.314 204.666 119.587 204.12 119.753C203.574 119.919 203 119.975 202.432 119.918C201.865 119.861 201.314 119.692 200.812 119.42C200.31 119.148 199.867 118.779 199.509 118.335C199.151 117.891 198.885 117.38 198.726 116.832C198.566 116.284 198.518 115.71 198.582 115.143C198.647 114.576 198.823 114.027 199.101 113.529C199.38 113.031 199.754 112.593 200.203 112.24L205.613 118.95Z" fill="#F3F3F1"/>
<path d="M205.613 118.95C205.173 119.314 204.666 119.587 204.12 119.753C203.574 119.919 203 119.975 202.432 119.918C201.865 119.861 201.314 119.692 200.812 119.42C200.31 119.148 199.867 118.779 199.509 118.335C199.151 117.891 198.885 117.38 198.726 116.832C198.566 116.284 198.518 115.71 198.582 115.143C198.647 114.576 198.823 114.027 199.101 113.529C199.38 113.031 199.754 112.593 200.203 112.24L205.613 118.95Z" stroke="#512B83" stroke-width="0.75" stroke-miterlimit="10"/>
<path d="M216.664 116.65L204.424 101.65C204.406 101.632 204.391 101.611 204.382 101.588C204.372 101.565 204.367 101.54 204.367 101.515C204.367 101.49 204.372 101.465 204.382 101.442C204.391 101.418 204.406 101.397 204.424 101.38L204.714 101.14C204.731 101.12 204.753 101.105 204.777 101.094C204.801 101.084 204.827 101.078 204.854 101.078C204.88 101.078 204.906 101.084 204.93 101.094C204.954 101.105 204.976 101.12 204.993 101.14L217.243 116.14C217.28 116.177 217.301 116.227 217.301 116.28C217.301 116.332 217.28 116.382 217.243 116.42L216.954 116.65C216.916 116.686 216.866 116.707 216.813 116.707C216.761 116.707 216.711 116.686 216.674 116.65" fill="#512B83"/>
<path d="M219.522 114.31L207.272 99.3098C207.238 99.2713 207.219 99.2215 207.219 99.1698C207.219 99.1182 207.238 99.0683 207.272 99.0298L207.562 98.7898C207.601 98.7554 207.651 98.7363 207.702 98.7363C207.754 98.7363 207.804 98.7554 207.842 98.7898L220.092 113.79C220.129 113.827 220.149 113.877 220.149 113.93C220.149 113.982 220.129 114.032 220.092 114.07L219.802 114.31C219.764 114.344 219.714 114.363 219.662 114.363C219.611 114.363 219.561 114.344 219.522 114.31Z" fill="#512B83"/>
<path d="M205.614 118.95L204.704 119.51L199.934 112.48L200.194 112.25L205.614 118.95Z" fill="#512B83"/>
<path d="M198.304 107.289L201.744 103.099L201.634 102.949C201.594 102.887 201.541 102.834 201.48 102.792C201.419 102.75 201.35 102.721 201.277 102.706C201.205 102.691 201.13 102.691 201.057 102.705C200.985 102.72 200.916 102.748 200.854 102.789L199.724 103.629L200.484 100.499L201.484 99.1591L201.364 98.9291C201.336 98.8738 201.296 98.8255 201.247 98.7878C201.198 98.7502 201.141 98.7241 201.081 98.7116C201.02 98.6991 200.957 98.7005 200.897 98.7156C200.837 98.7308 200.782 98.7593 200.734 98.7991C200.074 99.3791 198.404 100.989 198.404 100.989L197.554 104.939L196.754 106.189L198.304 107.289Z" fill="#F3F3F1"/>
<path d="M198.304 107.289L201.744 103.099L201.634 102.949C201.594 102.887 201.541 102.834 201.48 102.792C201.419 102.75 201.35 102.721 201.277 102.706C201.205 102.691 201.13 102.691 201.057 102.705C200.985 102.72 200.916 102.748 200.854 102.789L199.724 103.629L200.484 100.499L201.484 99.1591L201.364 98.9291C201.336 98.8738 201.296 98.8255 201.247 98.7878C201.198 98.7502 201.141 98.7241 201.081 98.7116C201.02 98.6991 200.957 98.7005 200.897 98.7156C200.837 98.7308 200.782 98.7593 200.734 98.7991C200.074 99.3791 198.404 100.989 198.404 100.989L197.554 104.939L196.754 106.189L198.304 107.289Z" stroke="#512B83" stroke-width="0.75" stroke-miterlimit="10"/>
<path d="M199.223 106.38L197.213 105.17L196.963 105.78L198.703 107.02L199.223 106.38Z" fill="#512B83"/>
<path d="M176.642 95.4004L177.642 97.2004C180.532 102.537 182.771 108.201 184.312 114.07L196.802 105.32L199.252 107.45C199.252 107.45 192.092 114.32 188.112 118.28C184.442 121.94 178.892 122.41 178.892 122.41L171.572 106.75L176.642 95.4004Z" fill="#DDE1E2"/>
<path d="M176.642 95.4004L177.642 97.2004C180.532 102.537 182.771 108.201 184.312 114.07L196.802 105.32L199.252 107.45C199.252 107.45 192.092 114.32 188.112 118.28C184.442 121.94 178.892 122.41 178.892 122.41L171.572 106.75L176.642 95.4004Z" stroke="#512B83" stroke-width="0.75" stroke-miterlimit="10"/>
<path d="M175.053 94.7891C171.413 95.7891 162.884 97.7891 157.164 105.079C149.104 115.289 143.773 131.179 143.773 131.179L162.583 130.699C162.583 130.699 167.043 123.589 174.043 114.399C174.893 113.289 177.443 109.549 178.773 107.399" fill="#DDE1E2"/>
<path d="M175.053 94.7891C171.413 95.7891 162.884 97.7891 157.164 105.079C149.104 115.289 143.773 131.179 143.773 131.179L162.583 130.699C162.583 130.699 167.043 123.589 174.043 114.399C174.893 113.289 177.443 109.549 178.773 107.399" stroke="#512B83" stroke-width="0.75" stroke-miterlimit="10"/>
<path d="M176.854 92.3006C177.484 91.3006 177.854 91.9106 178.704 92.6606C179.463 93.3268 180.135 94.0862 180.704 94.9207C180.854 95.0901 180.965 95.2914 181.027 95.5096C181.09 95.7277 181.102 95.9571 181.063 96.1806C180.22 97.3789 179.312 98.5306 178.344 99.6306L176.654 100.701L174.273 96.3206L176.844 92.3206" fill="#F3F3F1"/>
<path d="M176.854 92.3006C177.484 91.3006 177.854 91.9106 178.704 92.6606C179.463 93.3268 180.135 94.0862 180.704 94.9207C180.854 95.0901 180.965 95.2914 181.027 95.5096C181.09 95.7277 181.102 95.9571 181.063 96.1806C180.22 97.3789 179.312 98.5306 178.344 99.6306L176.654 100.701L174.273 96.3206L176.854 92.3006Z" stroke="#512B83" stroke-width="0.75" stroke-miterlimit="10"/>
<path d="M176.684 87.8508C176.039 88.1675 175.511 88.6811 175.176 89.3174C174.842 89.9537 174.718 90.6798 174.824 91.3908C175.679 92.9919 176.659 94.5232 177.754 95.9708C178.272 96.7057 179.022 97.2447 179.884 97.5008C180.853 97.8404 181.861 98.0554 182.884 98.1408C183.164 98.1408 183.474 97.7708 183.784 97.3208C184.72 95.8782 185.149 94.1646 185.004 92.4508L184.574 86.7308C184.574 86.7308 179.084 86.5208 176.724 87.8508" fill="#F3F3F1"/>
<path d="M176.684 87.8508C176.039 88.1675 175.511 88.6811 175.176 89.3174C174.842 89.9537 174.718 90.6798 174.824 91.3908C175.679 92.9919 176.659 94.5232 177.754 95.9708C178.272 96.7057 179.022 97.2447 179.884 97.5008C180.853 97.8404 181.861 98.0554 182.884 98.1408C183.164 98.1408 183.474 97.7708 183.784 97.3208C184.72 95.8782 185.149 94.1646 185.004 92.4508L184.574 86.7308C184.574 86.7308 179.084 86.5208 176.724 87.8508" stroke="#512B83" stroke-width="0.75" stroke-miterlimit="10"/>
<path fill-rule="evenodd" clip-rule="evenodd" d="M172.924 91.3706C172.852 92.1752 172.933 92.9863 173.164 93.7606C173.286 94.1484 173.515 94.4941 173.824 94.7576C174.134 95.0212 174.512 95.1921 174.914 95.2505C175.914 95.3105 176.744 94.4105 177.364 93.6005C178.134 92.6005 178.634 93.6906 179.364 92.7006C179.684 92.2806 180.284 89.7706 180.704 89.4506C181.704 88.6706 183.154 88.6106 184.174 87.8406C184.828 87.3751 185.27 86.669 185.403 85.8776C185.536 85.0862 185.349 84.2743 184.884 83.6206C184.418 82.9668 183.712 82.5247 182.921 82.3916C182.13 82.2584 181.318 82.4451 180.664 82.9105C179.724 83.5405 179.244 84.7405 178.234 85.2905C177.394 85.7505 176.784 85.2905 175.924 85.4105C173.224 85.7005 172.924 89.3205 172.924 91.4105" fill="#F3F3F1"/>
<path d="M172.924 91.3706C172.852 92.1752 172.933 92.9863 173.164 93.7606C173.286 94.1484 173.515 94.4941 173.824 94.7576C174.134 95.0212 174.512 95.1921 174.914 95.2505C175.914 95.3105 176.744 94.4105 177.364 93.6005C178.134 92.6005 178.634 93.6906 179.364 92.7006C179.684 92.2806 180.284 89.7706 180.704 89.4506C181.704 88.6706 183.154 88.6106 184.174 87.8406C184.828 87.3751 185.27 86.669 185.403 85.8776C185.536 85.0862 185.349 84.2743 184.884 83.6206C184.418 82.9668 183.712 82.5247 182.921 82.3916C182.13 82.2584 181.318 82.4451 180.664 82.9105C179.724 83.5405 179.244 84.7405 178.234 85.2905C177.394 85.7505 176.784 85.2905 175.924 85.4105C173.224 85.7005 172.924 89.3205 172.924 91.4105" stroke="#512B83" stroke-width="0.75" stroke-miterlimit="10"/>
<path d="M156.364 139.93C155.364 144.13 151.854 162.54 151.284 165.93C151.133 166.879 150.66 167.748 149.945 168.389C149.229 169.03 148.314 169.405 147.354 169.45L124.614 165.57L123.164 159.86L144.044 160.78C144.044 160.78 141.944 142.21 142.544 135.4C143.054 129.76 147.404 125.6 153.044 126.15C163.324 127.15 174.684 128.88 175.644 129.02C177.224 129.23 181.644 129.85 181.384 135.21L182.004 166.36L176.304 166.23C176.304 166.23 172.304 144.99 171.574 139.23C164.171 139.792 156.745 139.969 149.324 139.76" fill="#F3F3F1"/>
<path d="M156.364 139.93C155.364 144.13 151.854 162.54 151.284 165.93C151.133 166.879 150.66 167.748 149.945 168.389C149.229 169.03 148.314 169.405 147.354 169.45L124.614 165.57L123.164 159.86L144.044 160.78C144.044 160.78 141.944 142.21 142.544 135.4C143.054 129.76 147.404 125.6 153.044 126.15C163.324 127.15 174.684 128.88 175.644 129.02C177.224 129.23 181.644 129.85 181.384 135.21L182.004 166.36L176.304 166.23C176.304 166.23 172.304 144.99 171.574 139.23C164.171 139.792 156.745 139.969 149.324 139.76" stroke="#512B83" stroke-width="0.75" stroke-miterlimit="10"/>
<path d="M174.213 95.0391L173.213 95.3991L175.483 101.299C176.509 100.852 177.481 100.292 178.383 99.6291C175.543 98.6291 174.243 95.0391 174.243 95.0391" fill="#F3F3F1"/>
<path d="M174.213 95.0391L173.213 95.3991L175.483 101.299C176.509 100.852 177.481 100.292 178.383 99.6291C175.513 98.6291 174.213 95.0391 174.213 95.0391Z" stroke="#512B83" stroke-width="0.75" stroke-linejoin="bevel"/>
<path d="M174.364 128.911C174.364 128.911 172.094 129.721 168.784 134.261C167.603 135.933 166.597 137.722 165.784 139.601L164.594 139.711C164.594 139.711 164.824 138.381 167.484 134.491C169.095 132.171 171.194 130.233 173.634 128.811L174.364 128.911Z" fill="#512B83"/>
<path d="M210.582 121.679L206.582 122.479L202.072 120.779L202.402 118.939L206.732 118.279C206.732 118.279 207.012 118.939 206.412 119.089C206.076 119.145 205.759 119.286 205.492 119.499L207.492 120.669C207.492 120.669 209.622 120.509 209.852 120.479C210.082 120.449 210.252 120.809 210.252 120.809L210.582 121.679Z" fill="#F3F3F1"/>
<path d="M210.582 121.679L206.582 122.479L202.072 120.779L202.402 118.939L206.732 118.279C206.732 118.279 207.012 118.939 206.412 119.089C206.076 119.145 205.759 119.286 205.492 119.499L207.492 120.669C207.492 120.669 209.622 120.509 209.852 120.479C210.082 120.449 210.252 120.809 210.252 120.809L210.582 121.679Z" stroke="#512B83" stroke-width="0.75" stroke-miterlimit="10"/>
<path d="M175.364 104.131C177.874 109.901 177.954 111.701 180.004 117.061C184.204 117.441 202.384 118.611 202.384 118.611L202.094 121.721C202.094 121.721 187.754 124.331 178.374 123.991C174.134 123.331 170.014 113.241 166.254 106.631" fill="#DDE1E2"/>
<path d="M175.364 104.131C177.874 109.901 177.954 111.701 180.004 117.061C184.204 117.441 202.384 118.611 202.384 118.611L202.094 121.721C202.094 121.721 187.754 124.331 178.374 123.991C174.134 123.331 170.014 113.241 166.254 106.631" stroke="#512B83" stroke-width="0.75" stroke-miterlimit="10"/>
<path d="M202.833 121.081L202.703 118.891L202.363 118.941L202.033 120.781L202.833 121.081Z" fill="#512B83"/>
<path d="M149.303 140.03L156.033 141.33L156.343 139.93L149.303 140.03Z" fill="#512B83"/>
<path d="M170.954 118.529L166.684 107.449L171.924 117.219L170.954 118.529Z" fill="#512B83"/>
<path d="M225.783 106.41L226.513 105.81C226.463 105.81 223.973 103.48 223.973 103.48L223.633 103.77L225.783 106.41Z" fill="#512B83"/>
<path d="M218.693 97.5606L219.423 96.9706C219.363 96.9706 216.883 94.6406 216.883 94.6406L216.533 94.9206L218.693 97.5606Z" fill="#512B83"/>
<path d="M68.1128 125.68V128.89L29.8027 127.07L29.8127 125.69L68.1128 125.68Z" fill="#512B83"/>
<path d="M29.8325 124.4L29.6523 144.61H68.1125V124.55" fill="white"/>
<path d="M29.8325 124.4L29.6523 144.61H68.1125V124.55" stroke="#512B83" stroke-width="0.75" stroke-miterlimit="10"/>
<path d="M29.6523 135.131H68.1125" stroke="#512B83" stroke-width="0.75" stroke-miterlimit="10"/>
<path d="M48.973 125.661C43.033 125.661 37.093 125.661 31.163 125.661C30.163 125.661 29.8729 125.401 29.8429 124.381C29.413 113.752 26.6004 103.356 21.6129 93.9608C18.7365 88.6265 15.3221 83.6004 11.423 78.9608C6.0216 72.1759 2.56387 64.0517 1.41908 55.4552C0.274296 46.8587 1.48543 38.1128 4.92299 30.1508C9.04293 20.4663 16.2601 12.4226 25.443 7.2808C31.9255 3.63961 39.1653 1.55415 46.5914 1.18884C54.0176 0.823526 61.4271 2.18837 68.2357 5.17574C75.0443 8.16312 81.0659 12.6913 85.8256 18.4033C90.5852 24.1154 93.9529 30.855 95.663 38.0908C98.923 52.4108 96.1529 65.6408 87.5829 77.5608C84.7929 81.4408 81.5829 85.0408 79.0929 89.1408C74.4098 96.6894 71.1114 105.013 69.3529 113.721C68.6386 117.293 68.2272 120.919 68.1229 124.561C68.1229 125.481 67.743 125.671 66.903 125.671C60.903 125.671 54.953 125.671 48.973 125.671V125.661Z" fill="#DDE1E2"/>
<path d="M48.973 125.661C43.033 125.661 37.093 125.661 31.163 125.661C30.163 125.661 29.8729 125.401 29.8429 124.381C29.413 113.752 26.6004 103.356 21.6129 93.9608C18.7365 88.6265 15.3221 83.6004 11.423 78.9608C6.0216 72.1759 2.56387 64.0517 1.41908 55.4552C0.274296 46.8587 1.48543 38.1128 4.92299 30.1508C9.04293 20.4663 16.2601 12.4226 25.443 7.2808C31.9255 3.63961 39.1653 1.55415 46.5914 1.18884C54.0176 0.823526 61.4271 2.18837 68.2357 5.17574C75.0443 8.16312 81.0659 12.6913 85.8256 18.4033C90.5852 24.1154 93.9529 30.855 95.663 38.0908C98.923 52.4108 96.1529 65.6408 87.5829 77.5608C84.7929 81.4408 81.5829 85.0408 79.0929 89.1408C74.4098 96.6894 71.1114 105.013 69.3529 113.721C68.6386 117.293 68.2272 120.919 68.1229 124.561C68.1229 125.481 67.743 125.671 66.903 125.671C60.903 125.671 54.953 125.671 48.973 125.671V125.661Z" stroke="#512B83" stroke-width="0.75" stroke-miterlimit="10"/>
<path d="M60.2819 125.679C60.2819 113.679 60.192 101.679 60.142 89.749C60.142 84.049 60.142 78.359 60.142 72.669C60.142 67.739 60.142 62.669 62.892 58.329C63.118 57.9834 63.3616 57.6496 63.622 57.329C64.5538 56.0248 65.8369 55.0122 67.322 54.409C68.3587 54.0709 69.4592 53.9744 70.539 54.1269C71.6188 54.2794 72.6494 54.677 73.5519 55.289C78.5519 58.549 78.4619 65.029 75.0419 69.399C73.2907 71.5071 71.1308 73.2386 68.6921 74.489C65.4181 76.2472 61.9379 77.5908 58.332 78.489C52.2869 80.5954 45.7071 80.5954 39.662 78.489C36.0561 77.5908 32.5759 76.2472 29.3019 74.489C26.8632 73.2386 24.7033 71.5071 22.9521 69.399C19.5321 65.029 19.4821 58.549 24.4421 55.289C25.3431 54.6778 26.3721 54.2807 27.4501 54.1282C28.5282 53.9757 29.6268 54.0717 30.662 54.409C32.1485 55.0144 33.4343 56.0264 34.372 57.329C34.632 57.659 34.872 58.009 35.102 58.329C37.892 62.629 37.872 67.739 37.852 72.669C37.852 78.359 37.852 84.049 37.852 89.749C37.852 101.749 37.7221 113.699 37.7221 125.679" stroke="#512B83" stroke-width="0.75" stroke-miterlimit="10"/>
<path d="M87.2832 11.12L89.0232 1" stroke="#ED1A5C" stroke-width="0.75" stroke-miterlimit="10"/>
<path d="M102.043 9.69922L93.6934 15.7292" stroke="#ED1A5C" stroke-width="0.75" stroke-miterlimit="10"/>
<path d="M96.2324 23.5195L106.692 25.2095" stroke="#ED1A5C" stroke-width="0.75" stroke-miterlimit="10"/>
</svg>
