<svg width="165" height="115" viewBox="0 0 165 115" fill="none" xmlns="http://www.w3.org/2000/svg">
<path d="M103.959 82.1504H164.959" stroke="#582C89" stroke-width="0.5" stroke-miterlimit="10"/>
<path d="M99.6685 27.8799L96.9482 28.7998L93.4082 27.6998L90.8384 25.1198L88.5884 20.8098L86.7783 16.4498L86.3281 12.0399L87.6484 11.0498L91.5181 9.58984L94.3882 11.0498L98.1284 12.0898L100.958 19.9198L101.398 25.1299L101.008 27.5598L99.6685 27.8799Z" fill="white"/>
<path d="M108.54 52.9817L107.26 34.3817L111.22 33.8717L116.729 31.4217L121.64 28.2417L124.18 25.3617L120.86 23.6417L118.05 20.7917L113.09 12.8017L109.55 6.10175L104.43 2.05173L98.7095 1.01172L92.0596 3.28174L90.8398 4.42172L93.2798 6.29175L98.1299 12.0917L100.93 19.4917L101.29 25.9617L100.79 27.1517L98.9595 28.3417L97.5796 28.9817L99.1499 30.6517L98.7095 33.9817L99.3799 44.3617L100.74 52.7317L101.16 53.7617L104.24 53.8417L108.33 54.1117" fill="#EFF0F1"/>
<path d="M4.36914 49.4805H6.98926" stroke="#ED1A5C" stroke-width="0.5" stroke-miterlimit="10"/>
<path d="M9.61914 49.4805H12.2393" stroke="#ED1A5C" stroke-width="0.5" stroke-miterlimit="10"/>
<path d="M8.29883 45.5605V48.1705" stroke="#ED1A5C" stroke-width="0.5" stroke-miterlimit="10"/>
<path d="M8.29883 50.8008V53.4108" stroke="#ED1A5C" stroke-width="0.5" stroke-miterlimit="10"/>
<path d="M1.22998 43.6406H0" stroke="#ED1A5C" stroke-width="0.5" stroke-miterlimit="10"/>
<path d="M5.05981 43.6406H3.83984" stroke="#ED1A5C" stroke-width="0.5" stroke-miterlimit="10"/>
<path d="M2.5293 42.3411V41.1211" stroke="#ED1A5C" stroke-width="0.5" stroke-miterlimit="10"/>
<path d="M2.5293 46.1714V44.9414" stroke="#ED1A5C" stroke-width="0.5" stroke-miterlimit="10"/>
<path d="M81.5093 57.9609H17.959V114.361H81.5093V57.9609Z" fill="#EFF0F1"/>
<path d="M81.5093 57.9609H17.959V114.361H81.5093V57.9609Z" stroke="#582C89" stroke-width="0.5" stroke-miterlimit="10"/>
<path d="M81.5093 57.9609H17.959V74.6409H81.5093V57.9609Z" fill="#582C89"/>
<path d="M55.5498 57.9609V76.7409V114.361H43.9199V76.7409V57.9609H55.5498Z" fill="white"/>
<path d="M55.5498 57.9609V76.7409V114.361H43.9199V76.7409V57.9609H55.5498Z" stroke="#582C89" stroke-width="0.5" stroke-miterlimit="10"/>
<path d="M87.9888 53.9609H11.4785V70.6909H87.9888V53.9609Z" fill="#EFF0F1"/>
<path d="M87.9888 53.9609H11.4785V70.6909H87.9888V53.9609Z" stroke="#582C89" stroke-width="0.5" stroke-miterlimit="10"/>
<path d="M55.5498 53.9609H43.9297V70.6909H55.5498V53.9609Z" fill="white"/>
<path d="M55.5498 53.9609H43.9297V70.6909H55.5498V53.9609Z" stroke="#582C89" stroke-width="0.5" stroke-miterlimit="10"/>
<path d="M58.1992 53.9503H62.499C68.849 49.9503 70.4091 46.5703 69.8291 43.9503L69.7593 43.6703L69.6689 43.3903C69.6689 43.3003 69.5991 43.2104 69.5591 43.1204C69.5266 43.0352 69.49 42.9518 69.4492 42.8704C69.4492 42.7904 69.3688 42.7004 69.3188 42.6204C69.2688 42.5404 69.1388 42.2904 69.0288 42.1304L68.8589 41.8804L68.6792 41.6504L68.4893 41.4203L68.0791 40.9704L67.8589 40.7603L67.6392 40.5604L67.439 40.3804L67.1792 40.1604L66.9893 40.0203L66.6392 39.7504L66.3091 39.5203C66.1291 39.4003 65.9493 39.2704 65.7593 39.1604L65.4492 38.9704L65.3091 38.8903L64.9492 38.6804L64.4189 38.4004L63.999 38.1804C63.5714 37.9688 63.0838 37.9123 62.6191 38.0203C62.1891 38.1203 61.7789 38.2304 61.3789 38.3504L60.8989 38.5004H60.7891L60.4092 38.6304L60.1089 38.7504L59.6792 38.9203C59.5392 38.9703 59.3993 39.0404 59.2593 39.1004H59.209L58.709 39.3404C62.509 40.4204 64.0591 42.1204 64.3291 43.9704C65.0091 48.4804 58.2192 53.9203 58.2192 53.9203" fill="#EFF0F1"/>
<path d="M58.1992 53.9503H62.499C68.849 49.9503 70.4091 46.5703 69.8291 43.9503L69.7593 43.6703L69.6689 43.3903C69.6689 43.3003 69.5991 43.2104 69.5591 43.1204C69.5266 43.0352 69.49 42.9518 69.4492 42.8704C69.4492 42.7904 69.3688 42.7004 69.3188 42.6204C69.2688 42.5404 69.1388 42.2904 69.0288 42.1304L68.8589 41.8804L68.6792 41.6504L68.4893 41.4203L68.0791 40.9704L67.8589 40.7603L67.6392 40.5604L67.439 40.3804L67.1792 40.1604L66.9893 40.0203L66.6392 39.7504L66.3091 39.5203C66.1291 39.4003 65.9493 39.2704 65.7593 39.1604L65.4492 38.9704L65.3091 38.8903L64.9492 38.6804L64.4189 38.4004L63.999 38.1804C63.5714 37.9688 63.0838 37.9123 62.6191 38.0203C62.1891 38.1203 61.7789 38.2304 61.3789 38.3504L60.8989 38.5004H60.7891L60.4092 38.6304L60.1089 38.7504L59.6792 38.9203C59.5392 38.9703 59.3993 39.0404 59.2593 39.1004H59.209L58.709 39.3404C62.509 40.4204 64.0591 42.1204 64.3291 43.9704C64.9891 48.5104 58.1992 53.9503 58.1992 53.9503Z" stroke="#582C89" stroke-width="0.5" stroke-miterlimit="10"/>
<path d="M49.7695 53.9511H53.1494C55.6794 47.4411 59.8994 44.7411 64.3394 44.0011C66.1698 43.7362 68.0289 43.7362 69.8594 44.0011L69.7896 43.7211L69.6997 43.4411C69.6997 43.3511 69.6294 43.2611 69.5894 43.1711C69.5569 43.086 69.5203 43.0026 69.4795 42.9211C69.4795 42.8411 69.3996 42.7511 69.3496 42.6711C69.2996 42.5911 69.1696 42.3411 69.0596 42.1811L68.8896 41.9311L68.7095 41.7011L68.5195 41.4711L68.1094 41.0211L67.8896 40.8111L67.6694 40.6111L67.4697 40.4311L67.2095 40.2111L67.0195 40.0711L66.6694 39.8011L66.3394 39.5711C66.1594 39.4511 65.9796 39.3211 65.7896 39.2111L65.4795 39.0211L65.3394 38.9411L64.9795 38.7311L64.4497 38.4511L64.0293 38.2311C63.6017 38.0196 63.1141 37.9631 62.6494 38.0711C62.2194 38.1711 61.8097 38.2811 61.4097 38.4011L60.9297 38.5511H60.8193L60.4395 38.6811L60.1396 38.8011L59.7095 38.9711C59.5695 39.0211 59.4296 39.0911 59.2896 39.1511H59.2397L58.7397 39.3911C49.8597 43.7411 49.7896 53.9711 49.7896 53.9711" fill="white"/>
<path d="M49.7695 53.9511H53.1494C55.6794 47.4411 59.8994 44.7411 64.3394 44.0011C66.1698 43.7362 68.0289 43.7362 69.8594 44.0011L69.7896 43.7211L69.6997 43.4411C69.6997 43.3511 69.6294 43.2611 69.5894 43.1711C69.5569 43.086 69.5203 43.0026 69.4795 42.9211C69.4795 42.8411 69.3996 42.7511 69.3496 42.6711C69.2996 42.5911 69.1696 42.3411 69.0596 42.1811L68.8896 41.9311L68.7095 41.7011L68.5195 41.4711L68.1094 41.0211L67.8896 40.8111L67.6694 40.6111L67.4697 40.4311L67.2095 40.2111L67.0195 40.0711L66.6694 39.8011L66.3394 39.5711C66.1594 39.4511 65.9796 39.3211 65.7896 39.2111L65.4795 39.0211L65.3394 38.9411L64.9795 38.7311L64.4497 38.4511L64.0293 38.2311C63.6017 38.0196 63.1141 37.9631 62.6494 38.0711C62.2194 38.1711 61.8097 38.2811 61.4097 38.4011L60.9297 38.5511H60.8193L60.4395 38.6811L60.1396 38.8011L59.7095 38.9711C59.5695 39.0211 59.4296 39.0911 59.2896 39.1511H59.2397L58.7397 39.3911C49.7697 43.7211 49.7695 53.9511 49.7695 53.9511Z" stroke="#582C89" stroke-width="0.5" stroke-miterlimit="10"/>
<path d="M41.2777 53.9503H36.9779C30.6379 49.9503 29.0778 46.5703 29.6478 43.9503C29.6478 43.8603 29.6979 43.7603 29.7279 43.6703C29.7579 43.5803 29.778 43.4803 29.808 43.3903L29.9178 43.1204C29.9503 43.0352 29.9868 42.9518 30.0277 42.8704C30.0277 42.7904 30.108 42.7004 30.158 42.6204L30.4481 42.1304L30.6278 41.8804L30.808 41.6504L30.9881 41.4203C31.1148 41.2737 31.2547 41.1237 31.408 40.9704L31.618 40.7603L31.8377 40.5604L32.0379 40.3804C32.1279 40.3104 32.208 40.2304 32.308 40.1604L32.4881 40.0203L32.8377 39.7504L33.1678 39.5203L33.7181 39.1604L34.0277 38.9704L34.1678 38.8903L34.5277 38.6804L35.058 38.4004L35.4881 38.1804C35.9157 37.9688 36.4034 37.9123 36.868 38.0203C37.298 38.1203 37.718 38.2304 38.118 38.3504C38.278 38.4004 38.4377 38.4404 38.5877 38.5004H38.6981L39.078 38.6304L39.3778 38.7504L39.808 38.9203L40.2279 39.1004H40.2777L40.7879 39.3404C36.9779 40.4204 35.438 42.1204 35.158 43.9704C34.488 48.4804 41.2679 53.9203 41.2679 53.9203" fill="#EFF0F1"/>
<path d="M41.2777 53.9503H36.9779C30.6379 49.9503 29.0778 46.5703 29.6478 43.9503C29.6478 43.8603 29.6979 43.7603 29.7279 43.6703C29.7579 43.5803 29.778 43.4803 29.808 43.3903L29.9178 43.1204C29.9503 43.0352 29.9868 42.9518 30.0277 42.8704C30.0277 42.7904 30.108 42.7004 30.158 42.6204L30.4481 42.1304L30.6278 41.8804L30.808 41.6504L30.9881 41.4203C31.1148 41.2737 31.2547 41.1237 31.408 40.9704L31.618 40.7603L31.8377 40.5604L32.0379 40.3804C32.1279 40.3104 32.208 40.2304 32.308 40.1604L32.4881 40.0203L32.8377 39.7504L33.1678 39.5203L33.7181 39.1604L34.0277 38.9704L34.1678 38.8903L34.5277 38.6804L35.058 38.4004L35.4881 38.1804C35.9157 37.9688 36.4034 37.9123 36.868 38.0203C37.298 38.1203 37.718 38.2304 38.118 38.3504C38.278 38.4004 38.4377 38.4404 38.5877 38.5004H38.6981L39.078 38.6304L39.3778 38.7504L39.808 38.9203L40.2279 39.1004H40.2777L40.7879 39.3404C36.9779 40.4204 35.438 42.1204 35.158 43.9704C34.498 48.5104 41.2777 53.9503 41.2777 53.9503Z" stroke="#582C89" stroke-width="0.5" stroke-miterlimit="10"/>
<path d="M49.7695 53.9511H46.3896C43.8596 47.4411 39.6497 44.7411 35.1997 44.0011C33.3692 43.7362 31.5102 43.7362 29.6797 44.0011C29.6797 43.9111 29.7298 43.8111 29.7598 43.7211C29.7898 43.6311 29.8094 43.5311 29.8394 43.4411L29.9497 43.1711C29.9822 43.086 30.0187 43.0026 30.0596 42.9211C30.0596 42.8411 30.1395 42.7511 30.1895 42.6711L30.4795 42.1811L30.6597 41.9311L30.8394 41.7011L31.0195 41.4711C31.1462 41.3245 31.2861 41.1745 31.4395 41.0211L31.6494 40.8111L31.8696 40.6111L32.0693 40.4311C32.1593 40.3611 32.2394 40.2811 32.3394 40.2111L32.5195 40.0711L32.8696 39.8011L33.1997 39.5711L33.7495 39.2111L34.0596 39.0211L34.1997 38.9411L34.5596 38.7311L35.0894 38.4511L35.5195 38.2311C35.9471 38.0196 36.4348 37.9631 36.8994 38.0711C37.3294 38.1711 37.7494 38.2811 38.1494 38.4011C38.3094 38.4511 38.4696 38.4911 38.6196 38.5511H38.7295L39.1094 38.6811L39.4097 38.8011L39.8394 38.9711L40.2598 39.1511H40.3096L40.8193 39.3911C49.6893 43.7411 49.7598 53.9711 49.7598 53.9711" fill="white"/>
<path d="M49.7695 53.9511H46.3896C43.8596 47.4411 39.6497 44.7411 35.1997 44.0011C33.3692 43.7362 31.5102 43.7362 29.6797 44.0011C29.6797 43.9111 29.7298 43.8111 29.7598 43.7211C29.7898 43.6311 29.8094 43.5311 29.8394 43.4411L29.9497 43.1711C29.9822 43.086 30.0187 43.0026 30.0596 42.9211C30.0596 42.8411 30.1395 42.7511 30.1895 42.6711L30.4795 42.1811L30.6597 41.9311L30.8394 41.7011L31.0195 41.4711C31.1462 41.3245 31.2861 41.1745 31.4395 41.0211L31.6494 40.8111L31.8696 40.6111L32.0693 40.4311C32.1593 40.3611 32.2394 40.2811 32.3394 40.2111L32.5195 40.0711L32.8696 39.8011L33.1997 39.5711L33.7495 39.2111L34.0596 39.0211L34.1997 38.9411L34.5596 38.7311L35.0894 38.4511L35.5195 38.2311C35.9471 38.0196 36.4348 37.9631 36.8994 38.0711C37.3294 38.1711 37.7494 38.2811 38.1494 38.4011C38.3094 38.4511 38.4696 38.4911 38.6196 38.5511H38.7295L39.1094 38.6811L39.4097 38.8011L39.8394 38.9711L40.2598 39.1511H40.3096L40.8193 39.3911C49.6693 43.7211 49.7695 53.9511 49.7695 53.9511Z" stroke="#582C89" stroke-width="0.5" stroke-miterlimit="10"/>
<path d="M87.8984 59.1499C88.7884 57.2899 98.8984 39.6699 98.8984 39.6699" stroke="#582C89" stroke-width="0.5" stroke-miterlimit="10"/>
<path d="M105.97 57.291C105.97 57.291 101.25 65.611 95.7695 69.931C91.2352 73.2746 86.4737 76.2986 81.5195 78.981" stroke="#582C89" stroke-width="0.5" stroke-miterlimit="10"/>
<path d="M156.549 81.6513H113.089C113.139 69.7713 104.689 54.1113 104.689 54.1113L108.689 54.1713L107.689 42.8214C107.579 41.3513 107.509 37.2514 107.549 35.8214V34.3713C116.219 34.3713 123.24 26.6113 123.24 26.6113C123.24 26.6113 154.59 41.7113 156.56 81.6913" fill="white"/>
<path d="M156.549 81.6513H113.089C113.139 69.7713 104.689 54.1113 104.689 54.1113L108.689 54.1713L107.689 42.8214C107.579 41.3514 107.509 37.2514 107.549 35.8214V34.3713C116.219 34.3713 123.24 26.6113 123.24 26.6113C123.24 26.6113 154.579 41.6713 156.549 81.6513Z" stroke="#582C89" stroke-width="0.5" stroke-miterlimit="10"/>
<path d="M113.09 81.6505V77.7305" stroke="#582C89" stroke-width="0.5" stroke-miterlimit="10"/>
<path d="M100.279 27.6599C100.279 27.6599 101.9 17.4698 96.5098 9.58984C96.5098 9.58984 103.089 15.0098 102.029 28.7998L100.279 27.6599Z" fill="#582C89"/>
<path d="M99.3184 14.1501C97.2693 10.2206 94.3273 6.82638 90.7285 4.24012C90.7285 4.24012 96.8385 -0.889892 103.729 1.76011C110.619 4.41011 112.729 11.8201 112.729 11.8201C112.729 11.8201 117.419 23.8201 124.239 25.3801C124.239 25.3801 112.808 38.9501 101.548 32.8101" stroke="#582C89" stroke-width="0.5" stroke-miterlimit="10"/>
<path d="M97.4102 28.8008C97.4102 28.8008 100.3 35.3408 107.54 36.0708V34.3308C107.54 34.3308 103.13 34.5908 97.4102 28.8008Z" fill="#582C89"/>
<path d="M107.539 34.3304C107.079 41.0004 108.669 54.1704 108.669 54.1704L100.969 53.8304C97.8389 38.8304 98.8785 30.6504 98.8785 30.6504" stroke="#582C89" stroke-width="0.5" stroke-miterlimit="10"/>
<path d="M110.129 24.8513C110.129 24.8513 114.179 13.5213 110.479 7.36133" stroke="#582C89" stroke-width="0.5" stroke-miterlimit="10"/>
<path d="M90.7689 4.2207C90.7689 4.2207 84.4989 9.6207 87.2689 17.3407C89.7889 24.3407 91.7889 26.3407 91.7889 26.3407C91.7889 26.3407 96.2187 31.1907 100.319 27.6807C100.319 27.6807 107.499 35.6207 117.919 20.8407" stroke="#582C89" stroke-width="0.5" stroke-miterlimit="10"/>
<path d="M86.7695 11.0508L99.6699 15.3408" stroke="#582C89" stroke-width="0.5" stroke-miterlimit="10"/>
<path d="M113.09 80.3398C121.107 69.7739 127.305 57.945 131.43 45.3398C131.43 45.3398 126.78 57.3398 113.09 77.7198V80.3398Z" fill="#582C89"/>
<path d="M131.428 45.351C131.428 45.351 121.518 71.9609 108.078 82.1909C94.8781 92.1909 86.8979 97.1909 86.8979 97.1909L72.5781 87.351L103.688 69.2509C103.688 69.2509 117.548 35.9409 122.258 31.4609" fill="white"/>
<path d="M131.428 45.351C131.428 45.351 121.518 71.9609 108.078 82.1909C94.8781 92.1909 86.8979 97.1909 86.8979 97.1909L72.5781 87.351L103.688 69.2509C103.688 69.2509 117.548 35.9409 122.258 31.4609" stroke="#582C89" stroke-width="0.5" stroke-miterlimit="10"/>
<path d="M107.539 59.9105C106.317 58.0301 105.263 56.0458 104.389 53.9805" stroke="#582C89" stroke-width="0.5" stroke-miterlimit="10"/>
<path d="M104.689 59.3713C104.519 58.9913 102.689 54.1113 102.689 54.1113H104.689L106.209 57.2914L104.689 59.3713Z" fill="#582C89"/>
<path d="M72.8184 87.4609L70.5781 88.6909L74.498 95.9109L80.1382 92.5209L72.8184 87.4609Z" fill="white"/>
<path d="M72.8184 87.4609L70.5781 88.6909L74.498 95.9109L80.1382 92.5209L72.8184 87.4609Z" stroke="#582C89" stroke-width="0.5" stroke-miterlimit="10"/>
<path d="M73.9897 94.96C73.9897 94.96 73.1494 95.53 70.5894 97.68C68.0294 99.83 58.7793 101.98 58.7793 101.98L54.8594 95.68C54.8594 95.68 65.7793 91.24 65.5693 90.91C64.5163 90.2998 63.3026 90.0243 62.0894 90.12C60.5994 90.21 60.5493 88.25 60.5493 88.25L70.5493 88.68L73.9897 94.96Z" fill="white"/>
<path d="M73.9897 94.96C73.9897 94.96 73.1494 95.53 70.5894 97.68C68.0294 99.83 58.7793 101.98 58.7793 101.98L54.8594 95.68C54.8594 95.68 65.7793 91.24 65.5693 90.91C64.5163 90.2998 63.3026 90.0243 62.0894 90.12C60.5994 90.21 60.5493 88.25 60.5493 88.25L70.5493 88.68L73.9897 94.96Z" stroke="#582C89" stroke-width="0.5" stroke-miterlimit="10"/>
<path d="M56.1602 97.7809L62.79 94.8809" stroke="#582C89" stroke-width="0.5" stroke-miterlimit="10"/>
<path d="M57.7891 100.05L64.4194 97.1504" stroke="#582C89" stroke-width="0.5" stroke-miterlimit="10"/>
<path d="M77.6001 84.3906L91.4204 94.1906L86.8901 97.1506L72.5703 87.3106L77.6001 84.3906Z" fill="white"/>
<mask id="mask0_268_2082" style="mask-type:luminance" maskUnits="userSpaceOnUse" x="72" y="84" width="18" height="14">
<path d="M74.1094 86.4106L72.9395 87.5606L86.8794 97.1406L89.9995 93.1906L77.5996 84.3906L74.1094 86.4106Z" fill="white"/>
</mask>
<g mask="url(#mask0_268_2082)">
<path d="M77.2695 94.2008L78.3599 93.5508" stroke="#582C89" stroke-width="0.5" stroke-miterlimit="10" stroke-linecap="round"/>
<path d="M79.3496 93.9812L79.5698 92.7812" stroke="#582C89" stroke-width="0.5" stroke-miterlimit="10" stroke-linecap="round"/>
<path d="M80.5586 92.9902L80.9189 94.1003" stroke="#582C89" stroke-width="0.5" stroke-miterlimit="10" stroke-linecap="round"/>
<path d="M78.6992 95.0508L79.8291 95.1008" stroke="#582C89" stroke-width="0.5" stroke-miterlimit="10" stroke-linecap="round"/>
<path d="M80.7695 96.2505L81.4795 94.9805" stroke="#582C89" stroke-width="0.5" stroke-miterlimit="10" stroke-linecap="round"/>
<path d="M87.8003 87.5508L86.6602 88.1008" stroke="#582C89" stroke-width="0.5" stroke-miterlimit="10" stroke-linecap="round"/>
<path d="M85.7085 87.5898L85.3789 88.7698" stroke="#582C89" stroke-width="0.5" stroke-miterlimit="10" stroke-linecap="round"/>
<path d="M84.4102 88.4798L84.1504 87.3398" stroke="#582C89" stroke-width="0.5" stroke-miterlimit="10" stroke-linecap="round"/>
<path d="M86.4595 86.5814L85.3398 86.4414" stroke="#582C89" stroke-width="0.5" stroke-miterlimit="10" stroke-linecap="round"/>
<path d="M84.5098 85.2207L83.6797 86.4207" stroke="#582C89" stroke-width="0.5" stroke-miterlimit="10" stroke-linecap="round"/>
<path d="M79.0996 84.1917L79.8096 82.9316" stroke="#582C89" stroke-width="0.5" stroke-miterlimit="10" stroke-linecap="round"/>
<path d="M75.4487 96.75L74.6289 97.95" stroke="#582C89" stroke-width="0.5" stroke-miterlimit="10" stroke-linecap="round"/>
<path d="M73.209 90.2508L73.439 89.0508" stroke="#582C89" stroke-width="0.5" stroke-miterlimit="10" stroke-linecap="round"/>
<path d="M74.4199 89.2715L74.7896 90.3715" stroke="#582C89" stroke-width="0.5" stroke-miterlimit="10" stroke-linecap="round"/>
<path d="M72.5586 91.3203L73.6885 91.3803" stroke="#582C89" stroke-width="0.5" stroke-miterlimit="10" stroke-linecap="round"/>
<path d="M74.6406 92.5217L75.3506 91.2617" stroke="#582C89" stroke-width="0.5" stroke-miterlimit="10" stroke-linecap="round"/>
<path d="M75.5894 85.2109L74.4492 85.7609" stroke="#582C89" stroke-width="0.5" stroke-miterlimit="10" stroke-linecap="round"/>
<path d="M73.4995 85.25L73.1699 86.43" stroke="#582C89" stroke-width="0.5" stroke-miterlimit="10" stroke-linecap="round"/>
<path d="M74.2485 84.2415L73.1289 84.1016" stroke="#582C89" stroke-width="0.5" stroke-miterlimit="10" stroke-linecap="round"/>
<path d="M83.689 96.8301L82.8594 98.0301" stroke="#582C89" stroke-width="0.5" stroke-miterlimit="10" stroke-linecap="round"/>
</g>
<path d="M77.5981 84.3906L91.4185 94.1906L86.8882 97.1506L72.5684 87.3106L77.5981 84.3906Z" stroke="#582C89" stroke-width="0.5" stroke-miterlimit="10"/>
</svg>
