<svg width="210" height="184" viewBox="0 0 210 184" fill="none" xmlns="http://www.w3.org/2000/svg">
<path d="M2.90211 39.4126C3.49316 38.5741 4.16286 37.7939 4.90211 37.0826C6.35211 35.9226 6.24218 34.5126 5.97218 32.9526C5.86218 32.3226 5.43223 32.1426 5.02223 31.8526C3.73223 30.9426 1.84228 30.2826 1.32228 29.0426C0.802276 27.8026 2.04223 26.1026 2.52223 24.6026C3.52223 21.5526 3.52216 21.5426 6.70216 21.6926C8.23216 21.7726 9.70223 21.9626 10.7722 20.3926C11.2509 19.8214 11.4876 19.0858 11.4321 18.3426C11.2921 16.8226 10.6322 14.9126 11.2922 13.8826C11.9522 12.8526 13.9721 12.6426 15.4121 12.1026C18.5421 10.9226 18.5522 10.9226 20.5122 13.6126C21.3122 14.7026 21.9121 15.7926 23.6321 15.8926C24.2019 15.9253 24.7712 15.8217 25.293 15.5904C25.8147 15.3591 26.2738 15.0068 26.6321 14.5626C29.2721 12.0426 29.2921 12.0326 32.4121 13.9526C33.6221 14.6926 35.4723 15.1126 35.8523 16.3026C36.2323 17.4926 35.3322 19.0126 34.9722 20.3926C34.8582 20.8478 34.841 21.3219 34.9214 21.7842C35.0018 22.2465 35.178 22.6869 35.439 23.0769C35.6999 23.4669 36.0399 23.7979 36.4365 24.0487C36.8332 24.2994 37.2779 24.4642 37.7422 24.5326C39.1922 24.7626 41.1322 24.5326 41.9522 25.3826C42.7722 26.2326 42.5522 28.1726 42.7422 29.6426C43.2122 33.1026 43.2222 33.1726 39.9722 34.4626C38.5122 35.0426 37.4623 35.7126 37.1223 37.4626C37.0377 37.8008 37.0231 38.1528 37.0798 38.4968C37.1366 38.8408 37.2634 39.1695 37.4522 39.4626C38.2122 40.7826 39.5622 42.1526 39.5122 43.4626C39.4622 44.7726 37.6323 45.7326 36.6023 46.8526C34.3123 49.3226 34.2623 49.3426 31.3023 47.6926C29.9323 46.9326 28.7023 46.2226 27.0923 47.1926C26.5123 47.4592 26.0574 47.9391 25.8223 48.5326C25.2823 50.0226 24.9921 51.9626 23.9021 52.7626C22.8121 53.5626 20.9023 52.7626 19.3023 52.6026C16.1123 52.3526 16.1222 52.3226 15.5022 49.0426C15.2522 47.6726 15.2322 46.2526 13.5022 45.5826C12.7581 45.1907 11.8926 45.0977 11.0823 45.3226C9.63229 45.7626 8.01222 46.9826 6.76222 46.3926C5.51222 45.8026 5.0622 44.0726 4.2422 42.8326C3.7622 42.1126 3.30228 41.3826 2.82228 40.6626C2.54228 40.2526 2.32232 39.8526 2.87232 39.5026M28.6821 35.8726C29.726 34.1094 30.0313 32.0051 29.5313 30.018C29.0312 28.0309 27.7664 26.3217 26.0122 25.2626C24.2411 24.2292 22.1369 23.9268 20.1465 24.4197C18.1561 24.9127 16.4364 26.1621 15.3523 27.9026C14.8249 28.7877 14.478 29.7686 14.3318 30.7886C14.1856 31.8085 14.2429 32.8474 14.5005 33.845C14.7581 34.8427 15.2106 35.7795 15.8323 36.6012C16.4539 37.4229 17.2323 38.1133 18.1223 38.6326C18.9952 39.1511 19.9624 39.4912 20.9678 39.6331C21.9731 39.7749 22.9964 39.7158 23.9788 39.459C24.9611 39.2023 25.8828 38.753 26.6902 38.1374C27.4976 37.5217 28.1746 36.7519 28.6821 35.8726Z" fill="white"/>
<path d="M22.6619 53.2832C22.0242 53.2592 21.3909 53.1688 20.772 53.0132C20.2875 52.9023 19.7966 52.8222 19.302 52.7732C16.012 52.5132 15.902 52.4132 15.302 49.0432L15.2119 48.5332C15.0119 47.3432 14.842 46.3132 13.482 45.7732C12.789 45.4017 11.9793 45.3121 11.2219 45.5232C10.775 45.6695 10.3375 45.8432 9.91189 46.0432C8.83189 46.5332 7.71195 47.0432 6.72195 46.5732C5.84186 45.9764 5.16506 45.1251 4.78201 44.1332C4.56201 43.7232 4.34208 43.2932 4.10208 42.9332L3.47195 41.9332C3.21195 41.5232 2.9419 41.1232 2.6719 40.7132C2.55373 40.5771 2.46526 40.4179 2.41189 40.2457C2.35852 40.0736 2.34161 39.8922 2.36209 39.7132C2.41933 39.485 2.56259 39.2879 2.76199 39.1632C2.96199 38.9332 3.15206 38.6832 3.33206 38.4432C3.74786 37.8493 4.23477 37.3086 4.78201 36.8332C6.12201 35.7632 6.01201 34.4432 5.78201 32.9432C5.71201 32.5232 5.47187 32.3632 5.14187 32.1432L4.94192 32.0132C4.56192 31.7432 4.1119 31.4832 3.6719 31.2332C2.63093 30.7974 1.75054 30.0498 1.15188 29.0932C0.731881 28.0932 1.26201 26.9632 1.78201 25.8432C1.99502 25.3977 2.18206 24.9403 2.34207 24.4732C3.34207 21.3132 3.47202 21.2232 6.79202 21.3832H7.09207C8.49207 21.4632 9.69186 21.5232 10.6319 20.1832C11.0773 19.6587 11.2967 18.9791 11.242 18.2932C11.242 17.8832 11.122 17.4232 11.042 16.9832C10.832 15.7632 10.6119 14.5032 11.1519 13.6732C11.6919 12.8432 12.882 12.5232 14.052 12.2032C14.512 12.0732 14.9819 11.9432 15.3919 11.7932C18.6219 10.5732 18.772 10.6232 20.792 13.3932C20.872 13.5032 20.952 13.6032 21.022 13.7132C21.702 14.6632 22.2819 15.4832 23.7219 15.5732C24.257 15.6032 24.7914 15.5044 25.2803 15.2852C25.7692 15.066 26.1985 14.7326 26.532 14.3132C29.252 11.7132 29.4219 11.6932 32.6319 13.6632C33.0094 13.8837 33.4003 14.0807 33.802 14.2532C34.802 14.7232 35.8819 15.2532 36.1819 16.1532C36.326 17.1787 36.1588 18.2238 35.7019 19.1532C35.5519 19.5532 35.402 19.9732 35.302 20.3532C35.1929 20.7656 35.173 21.1967 35.2437 21.6174C35.3144 22.0382 35.474 22.439 35.7119 22.7932C35.9526 23.1619 36.2686 23.4755 36.6392 23.7133C37.0097 23.9512 37.4266 24.1079 37.8621 24.1732C38.306 24.2397 38.7533 24.2798 39.2019 24.2932C40.3719 24.3632 41.5719 24.4332 42.2019 25.1032C42.8319 25.7732 42.9119 27.0032 42.972 28.1732C42.9757 28.6179 43.0058 29.062 43.062 29.5032C43.542 33.1332 43.4619 33.2732 40.1319 34.6032C38.6619 35.1932 37.7419 35.8332 37.4319 37.3732C37.3585 37.6763 37.3471 37.9912 37.3987 38.2989C37.4503 38.6065 37.5637 38.9005 37.732 39.1632C37.952 39.5432 38.232 39.9332 38.492 40.3132C39.2409 41.1476 39.7066 42.1978 39.822 43.3132C39.822 44.3132 38.8219 45.1232 37.9319 45.8732C37.5533 46.1859 37.1929 46.5197 36.8521 46.8732C34.4621 49.4532 34.302 49.4832 31.242 47.7732H31.1919C29.8219 47.0132 28.752 46.4132 27.282 47.2932C26.7557 47.5346 26.3411 47.9672 26.1221 48.5032C25.9921 48.8732 25.882 49.2632 25.752 49.6732C25.382 50.9132 25.0021 52.2032 24.1121 52.8532C23.7023 53.1373 23.21 53.2779 22.7119 53.2532M12.002 44.8432C12.5834 44.8689 13.154 45.0082 13.6819 45.2532C15.3219 45.8932 15.5319 47.1732 15.6819 48.4132L15.772 48.9032V48.9532C16.352 52.0232 16.3521 52.0232 19.3321 52.2532C19.8496 52.308 20.3638 52.3914 20.8721 52.5032C22.0121 52.7432 23.082 52.9632 23.762 52.5032C24.5174 51.6904 25.021 50.6762 25.2119 49.5832C25.3319 49.1832 25.4521 48.7732 25.5921 48.3932C25.8368 47.7391 26.3287 47.2075 26.9619 46.9132C28.6919 45.9132 29.9619 46.6032 31.3919 47.3832H31.4419C34.2419 48.9432 34.2419 48.9432 36.4419 46.5832C36.798 46.2273 37.1755 45.8934 37.572 45.5832C38.432 44.8732 39.242 44.2032 39.282 43.3932C39.1325 42.4089 38.7019 41.4887 38.042 40.7432C37.772 40.3532 37.482 39.9532 37.262 39.5532C37.0597 39.2378 36.9235 38.8846 36.8616 38.5151C36.7997 38.1455 36.8134 37.7673 36.9019 37.4032C37.2519 35.6332 38.3119 34.8932 39.9019 34.2532C42.9519 33.0332 42.952 33.0332 42.512 29.7332C42.452 29.2732 42.4319 28.7932 42.4119 28.3332C42.3619 27.2532 42.312 26.1332 41.792 25.6032C41.272 25.0732 40.1821 25.0032 39.1121 24.9432C38.6521 24.9432 38.1619 24.8832 37.722 24.8132C37.2197 24.7429 36.7379 24.5677 36.3079 24.2988C35.8779 24.03 35.5094 23.6736 35.2263 23.2528C34.9433 22.832 34.7522 22.3563 34.6653 21.8567C34.5784 21.3571 34.5977 20.8448 34.722 20.3532C34.832 19.9432 34.9819 19.5132 35.1319 19.1032C35.5536 18.2735 35.7175 17.3366 35.6021 16.4132C35.3721 15.6832 34.422 15.2532 33.512 14.8232C33.0893 14.6427 32.6785 14.4356 32.282 14.2032C30.822 13.3032 30.0121 12.8132 29.3721 12.8832C28.7321 12.9532 28.042 13.6032 26.812 14.7832C26.4188 15.2761 25.9075 15.6619 25.3257 15.905C24.7439 16.148 24.1102 16.2404 23.4832 16.1737C22.8562 16.1069 22.2561 15.8831 21.7386 15.5229C21.221 15.1628 20.8025 14.6779 20.522 14.1132L20.302 13.7932C19.352 12.5032 18.872 11.8532 18.302 11.6832C17.732 11.5132 16.9819 11.8132 15.4719 12.3732C15.0197 12.5403 14.5592 12.6839 14.0921 12.8032C13.0221 13.0932 11.902 13.4032 11.482 14.0532C11.062 14.7032 11.262 15.8732 11.482 16.9932C11.562 17.4432 11.6419 17.9132 11.6819 18.3532C11.719 18.7512 11.6764 19.1526 11.5562 19.5338C11.436 19.9151 11.2407 20.2684 10.982 20.5732C9.89196 22.1632 8.42196 22.0832 6.98196 22.0032H6.68191C5.19191 21.9332 4.37189 21.8932 3.91189 22.2132C3.45189 22.5332 3.22198 23.2632 2.75198 24.7332C2.5845 25.2167 2.3908 25.6907 2.1719 26.1532C1.7019 27.1532 1.22202 28.2232 1.54202 28.9932C2.11363 29.8352 2.91563 30.4948 3.85208 30.8932C4.30276 31.1362 4.73987 31.4032 5.16189 31.6932L5.34207 31.8132C5.5644 31.9243 5.75817 32.0848 5.90896 32.2824C6.05975 32.4799 6.16344 32.7094 6.21194 32.9532C6.49194 34.5532 6.61203 36.0932 5.05203 37.3332C4.54325 37.7911 4.08699 38.3042 3.69192 38.8632C3.50192 39.1132 3.30207 39.3732 3.09207 39.6232L3.03201 39.6732C2.93174 39.7283 2.85394 39.8167 2.81204 39.9232C2.81204 40.0632 2.92203 40.2732 3.05203 40.4832C3.32203 40.8832 3.59208 41.2932 3.85208 41.7032L4.48196 42.6532C4.73196 43.0432 4.97192 43.4832 5.19192 43.9032C5.53262 44.7889 6.12315 45.5567 6.89187 46.1132C7.66187 46.4732 8.63188 46.0432 9.65188 45.5832C10.0978 45.3742 10.5553 45.1905 11.022 45.0332C11.3201 44.9415 11.63 44.8943 11.9419 44.8932M22.1121 39.9232C20.3199 39.9197 18.5799 39.3191 17.1673 38.2161C15.7547 37.1132 14.7501 35.571 14.312 33.8332C14.0428 32.8088 13.9829 31.7406 14.1358 30.6925C14.2887 29.6444 14.6512 28.6379 15.2019 27.7332C16.3281 25.9457 18.1022 24.6633 20.1526 24.1544C22.203 23.6455 24.3707 23.9497 26.2019 25.0032C27.7306 25.8897 28.9228 27.2575 29.5923 28.8929C30.2618 30.5283 30.3709 32.3394 29.9026 34.0434C29.4344 35.7474 28.4151 37.2485 27.0039 38.3121C25.5927 39.3758 23.8691 39.9423 22.1021 39.9232M22.1021 24.4232C20.8001 24.414 19.5175 24.7382 18.3762 25.3649C17.235 25.9915 16.2731 26.8997 15.5821 28.0032C15.0686 28.8491 14.7305 29.7896 14.5879 30.7688C14.4453 31.7481 14.5011 32.746 14.752 33.7032C15.0771 35.0844 15.7849 36.346 16.7942 37.3434C17.8035 38.3408 19.0733 39.0336 20.4583 39.3423C21.8432 39.651 23.2872 39.5632 24.6245 39.0889C25.9619 38.6147 27.1386 37.7731 28.0196 36.6608C28.9006 35.5484 29.4504 34.2104 29.6057 32.7999C29.7611 31.3895 29.5159 29.9638 28.8982 28.6864C28.2805 27.4089 27.3151 26.3314 26.1131 25.5774C24.911 24.8234 23.521 24.4233 22.1021 24.4232Z" fill="#582C89"/>
<path d="M22.6619 53.2832C22.0242 53.2592 21.3909 53.1688 20.772 53.0132C20.2875 52.9023 19.7966 52.8222 19.302 52.7732C16.012 52.5132 15.902 52.4132 15.302 49.0432L15.2119 48.5332C15.0119 47.3432 14.842 46.3132 13.482 45.7732C12.789 45.4017 11.9793 45.3121 11.2219 45.5232C10.775 45.6695 10.3375 45.8432 9.91189 46.0432C8.83189 46.5332 7.71195 47.0432 6.72195 46.5732C5.84186 45.9764 5.16506 45.1251 4.78201 44.1332C4.56201 43.7232 4.34208 43.2932 4.10208 42.9332L3.47195 41.9332C3.21195 41.5232 2.9419 41.1232 2.6719 40.7132C2.55373 40.5771 2.46526 40.4179 2.41189 40.2457C2.35852 40.0736 2.34161 39.8922 2.36209 39.7132C2.41933 39.485 2.56259 39.2879 2.76199 39.1632C2.96199 38.9332 3.15206 38.6832 3.33206 38.4432C3.74786 37.8493 4.23477 37.3086 4.78201 36.8332C6.12201 35.7632 6.01201 34.4432 5.78201 32.9432C5.71201 32.5232 5.47187 32.3632 5.14187 32.1432L4.94192 32.0132C4.56192 31.7432 4.1119 31.4832 3.6719 31.2332C2.63093 30.7974 1.75054 30.0498 1.15188 29.0932C0.731881 28.0932 1.26201 26.9632 1.78201 25.8432C1.99502 25.3977 2.18206 24.9403 2.34207 24.4732C3.34207 21.3132 3.47202 21.2232 6.79202 21.3832H7.09207C8.49207 21.4632 9.69186 21.5232 10.6319 20.1832C11.0773 19.6587 11.2967 18.9791 11.242 18.2932C11.242 17.8832 11.122 17.4232 11.042 16.9832C10.832 15.7632 10.6119 14.5032 11.1519 13.6732C11.6919 12.8432 12.882 12.5232 14.052 12.2032C14.512 12.0732 14.9819 11.9432 15.3919 11.7932C18.6219 10.5732 18.772 10.6232 20.792 13.3932C20.872 13.5032 20.952 13.6032 21.022 13.7132C21.702 14.6632 22.2819 15.4832 23.7219 15.5732C24.257 15.6032 24.7914 15.5044 25.2803 15.2852C25.7692 15.066 26.1985 14.7326 26.532 14.3132C29.252 11.7132 29.4219 11.6932 32.6319 13.6632C33.0094 13.8837 33.4003 14.0807 33.802 14.2532C34.802 14.7232 35.8819 15.2532 36.1819 16.1532C36.326 17.1787 36.1588 18.2238 35.7019 19.1532C35.5519 19.5532 35.402 19.9732 35.302 20.3532C35.1929 20.7656 35.173 21.1967 35.2437 21.6174C35.3144 22.0382 35.474 22.439 35.7119 22.7932C35.9526 23.1619 36.2686 23.4755 36.6392 23.7133C37.0097 23.9512 37.4266 24.1079 37.8621 24.1732C38.306 24.2397 38.7533 24.2798 39.2019 24.2932C40.3719 24.3632 41.5719 24.4332 42.2019 25.1032C42.8319 25.7732 42.912 27.0032 42.972 28.1732C42.9757 28.6179 43.0058 29.062 43.062 29.5032C43.542 33.1332 43.4619 33.2732 40.1319 34.6032C38.6619 35.1932 37.7419 35.8332 37.4319 37.3732C37.3585 37.6763 37.3471 37.9912 37.3987 38.2989C37.4503 38.6065 37.5637 38.9005 37.732 39.1632C37.952 39.5432 38.232 39.9332 38.492 40.3132C39.2409 41.1476 39.7066 42.1978 39.822 43.3132C39.822 44.3132 38.8219 45.1232 37.9319 45.8732C37.5533 46.1859 37.1929 46.5197 36.8521 46.8732C34.4621 49.4532 34.302 49.4832 31.242 47.7732H31.1919C29.8219 47.0132 28.752 46.4132 27.282 47.2932C26.7557 47.5346 26.3411 47.9672 26.1221 48.5032C25.9921 48.8732 25.882 49.2632 25.752 49.6732C25.382 50.9132 25.0021 52.2032 24.1121 52.8532C23.6925 53.1588 23.1803 53.3106 22.6619 53.2832ZM12.002 44.8432C12.5834 44.8689 13.154 45.0082 13.6819 45.2532C15.3219 45.8932 15.5319 47.1732 15.6819 48.4132L15.772 48.9032V48.9532C16.352 52.0232 16.3521 52.0232 19.3321 52.2532C19.8496 52.308 20.3638 52.3914 20.8721 52.5032C22.0121 52.7432 23.082 52.9632 23.762 52.5032C24.5174 51.6904 25.021 50.6762 25.2119 49.5832C25.3319 49.1832 25.4521 48.7732 25.5921 48.3932C25.8368 47.7391 26.3287 47.2075 26.9619 46.9132C28.6919 45.9132 29.9619 46.6032 31.3919 47.3832H31.4419C34.2419 48.9432 34.2419 48.9432 36.4419 46.5832C36.798 46.2273 37.1755 45.8934 37.572 45.5832C38.432 44.8732 39.242 44.2032 39.282 43.3932C39.1325 42.4089 38.7019 41.4887 38.042 40.7432C37.772 40.3532 37.482 39.9532 37.262 39.5532C37.0597 39.2378 36.9235 38.8846 36.8616 38.5151C36.7997 38.1455 36.8134 37.7673 36.9019 37.4032C37.2519 35.6332 38.3119 34.8932 39.9019 34.2532C42.9519 33.0332 42.952 33.0332 42.512 29.7332C42.452 29.2732 42.4319 28.7932 42.4119 28.3332C42.3619 27.2532 42.312 26.1332 41.792 25.6032C41.272 25.0732 40.1821 25.0032 39.1121 24.9432C38.6521 24.9432 38.162 24.8832 37.722 24.8132C37.2197 24.7429 36.7379 24.5677 36.3079 24.2988C35.8779 24.03 35.5094 23.6736 35.2263 23.2528C34.9433 22.832 34.7522 22.3563 34.6653 21.8567C34.5784 21.3571 34.5977 20.8448 34.722 20.3532C34.832 19.9432 34.9819 19.5132 35.1319 19.1032C35.5536 18.2735 35.7175 17.3366 35.6021 16.4132C35.3721 15.6832 34.422 15.2532 33.512 14.8232C33.0893 14.6427 32.6785 14.4356 32.282 14.2032C30.822 13.3032 30.0121 12.8132 29.3721 12.8832C28.7321 12.9532 28.042 13.6032 26.812 14.7832C26.4188 15.2761 25.9075 15.6619 25.3257 15.905C24.7439 16.148 24.1102 16.2404 23.4832 16.1737C22.8562 16.1069 22.2561 15.8831 21.7386 15.5229C21.221 15.1628 20.8025 14.6779 20.522 14.1132L20.302 13.7932C19.352 12.5032 18.872 11.8532 18.302 11.6832C17.732 11.5132 16.9819 11.8132 15.4719 12.3732C15.0197 12.5403 14.5592 12.6839 14.0921 12.8032C13.0221 13.0932 11.902 13.4032 11.482 14.0532C11.062 14.7032 11.262 15.8732 11.482 16.9932C11.562 17.4432 11.6419 17.9132 11.6819 18.3532C11.719 18.7512 11.6764 19.1526 11.5562 19.5338C11.436 19.9151 11.2407 20.2684 10.982 20.5732C9.89196 22.1632 8.42196 22.0832 6.98196 22.0032H6.68191C5.19191 21.9332 4.37189 21.8932 3.91189 22.2132C3.45189 22.5332 3.22198 23.2632 2.75198 24.7332C2.5845 25.2167 2.3908 25.6907 2.1719 26.1532C1.7019 27.1532 1.22202 28.2232 1.54202 28.9932C2.11363 29.8352 2.91563 30.4948 3.85208 30.8932C4.30276 31.1362 4.73987 31.4032 5.16189 31.6932L5.34207 31.8132C5.5644 31.9243 5.75817 32.0848 5.90896 32.2824C6.05975 32.48 6.16344 32.7094 6.21194 32.9532C6.49194 34.5532 6.61203 36.0932 5.05203 37.3332C4.54325 37.7911 4.08699 38.3042 3.69192 38.8632C3.50192 39.1132 3.30207 39.3732 3.09207 39.6232L3.03201 39.6732C2.93174 39.7283 2.85394 39.8167 2.81204 39.9232C2.81204 40.0632 2.92203 40.2732 3.05203 40.4832C3.32203 40.8832 3.59208 41.2932 3.85208 41.7032L4.48196 42.6532C4.73196 43.0432 4.97192 43.4832 5.19192 43.9032C5.53262 44.7889 6.12315 45.5567 6.89187 46.1132C7.66187 46.4732 8.63188 46.0432 9.65188 45.5832C10.0978 45.3742 10.5553 45.1905 11.022 45.0332C11.3366 44.9185 11.6673 44.8543 12.002 44.8432ZM22.1719 39.8732C20.3797 39.8697 18.6399 39.2691 17.2273 38.1662C15.8147 37.0632 14.8101 35.521 14.3721 33.7832C14.1029 32.7588 14.0429 31.6906 14.1958 30.6425C14.3487 29.5944 14.7113 28.5879 15.262 27.6832C16.3881 25.8957 18.1623 24.6133 20.2127 24.1044C22.2631 23.5955 24.4308 23.8997 26.262 24.9532C27.7907 25.8397 28.9829 27.2075 29.6524 28.8429C30.3218 30.4784 30.4309 32.2895 29.9627 33.9935C29.4944 35.6975 28.4752 37.1984 27.064 38.2621C25.6528 39.3258 23.929 39.8923 22.1619 39.8732H22.1719ZM22.1719 24.3732C20.87 24.3641 19.5873 24.6882 18.4461 25.3149C17.3048 25.9415 16.3429 26.8497 15.6519 27.9532C15.1385 28.7991 14.8006 29.7396 14.658 30.7189C14.5154 31.6981 14.5712 32.696 14.822 33.6532C15.1472 35.0344 15.855 36.296 16.8643 37.2934C17.8736 38.2908 19.1434 38.9835 20.5283 39.2923C21.9133 39.601 23.3573 39.5132 24.6946 39.039C26.032 38.5647 27.2086 37.7231 28.0896 36.6108C28.9706 35.4985 29.5204 34.1604 29.6758 32.7499C29.8312 31.3395 29.5858 29.9138 28.968 28.6364C28.3503 27.359 27.3852 26.2814 26.1831 25.5274C24.9811 24.7734 23.5909 24.3733 22.1719 24.3732Z" stroke="#582C89" stroke-width="0.25" stroke-miterlimit="10"/>
<path d="M34.8922 9.62341C35.3514 9.43457 35.8268 9.28731 36.3124 9.18341C37.2024 9.07341 37.5224 8.4734 37.8124 7.7634C37.8461 7.64575 37.8538 7.52216 37.8348 7.40125C37.8158 7.28033 37.7705 7.165 37.7023 7.06339C37.4123 6.35339 36.8022 5.60341 36.9022 4.96341C37.0022 4.32341 37.9023 3.96339 38.5323 3.44339C39.7123 2.44339 39.7223 2.4434 41.0023 3.3234C41.6123 3.7434 42.1523 4.20341 43.0023 3.83341C43.3476 3.72004 43.6348 3.47595 43.8024 3.15341C44.1324 2.49341 44.3522 1.5434 44.8922 1.2934C45.4322 1.0434 46.3023 1.4734 47.0323 1.6134C48.6223 1.9334 48.6223 1.9334 48.7423 3.5434C48.7923 4.1934 48.7423 4.79339 49.4423 5.28339C49.6671 5.4433 49.9273 5.54676 50.2006 5.58505C50.4738 5.62334 50.7522 5.59534 51.0123 5.50339C52.7523 5.14339 52.7624 5.1534 53.5524 6.7334C53.8524 7.3534 54.5524 8.00341 54.3624 8.58341C54.1724 9.1634 53.4523 9.5834 52.9523 10.0434C52.7827 10.1998 52.6483 10.3905 52.558 10.6028C52.4676 10.815 52.4234 11.044 52.4281 11.2747C52.4328 11.5053 52.4866 11.7323 52.5856 11.9407C52.6845 12.149 52.8265 12.334 53.0023 12.4834C53.5423 12.9434 54.3923 13.3534 54.5123 13.9134C54.6323 14.4734 54.0423 15.2134 53.7523 15.9134C53.0523 17.4534 53.0424 17.4834 51.3724 17.1834C51.0383 17.0726 50.6794 17.0588 50.3378 17.1438C49.9961 17.2288 49.6856 17.4089 49.4423 17.6634C49.2062 17.9036 49.0735 18.2266 49.0724 18.5634C49.0724 19.2934 49.2522 20.2034 48.8922 20.7234C48.5322 21.2434 47.5424 21.1734 46.8324 21.3634C45.2624 21.7934 45.2323 21.7934 44.4423 20.3634C44.0723 19.7034 43.7524 19.0934 42.8424 19.0834C42.5349 19.0425 42.2234 19.1213 41.9723 19.3034C41.3723 19.7834 40.7524 20.5034 40.1024 20.5534C39.4524 20.6034 38.8723 19.7534 38.2523 19.3034C37.0023 18.3834 37.0224 18.3734 37.6024 16.8734C37.8524 16.2434 38.2122 15.6534 37.6822 14.9334C37.4734 14.5854 37.1416 14.3284 36.7523 14.2134C36.0423 14.0234 35.0723 14.1034 34.7023 13.5434C34.3323 12.9834 34.6024 12.1534 34.5824 11.4334V10.1734C34.5824 9.9434 34.5822 9.72341 34.9022 9.71341M46.4322 14.8434C47.3036 14.3884 47.9623 13.6103 48.267 12.6758C48.5716 11.7412 48.4982 10.7245 48.0624 9.84338C47.5992 8.96427 46.8118 8.30024 45.8671 7.99219C44.9224 7.68413 43.8947 7.75629 43.0023 8.19339C42.559 8.42234 42.1653 8.7368 41.8441 9.11862C41.5229 9.50044 41.2806 9.94209 41.131 10.4181C40.9813 10.894 40.9272 11.3949 40.972 11.8919C41.0169 12.3888 41.1597 12.8719 41.3922 13.3134C41.8479 14.1838 42.6304 14.8379 43.5677 15.1323C44.5051 15.4266 45.5208 15.3371 46.3922 14.8834" fill="#EFF0F1"/>
<path d="M45.6521 21.7643C45.0621 21.7643 44.8222 21.3943 44.2622 20.3843C43.9022 19.7343 43.6223 19.2343 42.8523 19.2243C42.5994 19.1868 42.3415 19.2477 42.1321 19.3943L41.6922 19.7743C41.282 20.2326 40.7409 20.5538 40.1421 20.6943C39.8539 20.6658 39.5747 20.5783 39.3218 20.4372C39.0689 20.2962 38.8478 20.1045 38.6721 19.8743C38.5059 19.7063 38.3288 19.5493 38.1421 19.4043C36.8221 18.4043 36.7821 18.3043 37.4021 16.7143C37.4021 16.6143 37.4822 16.5443 37.5122 16.4643C37.7322 15.9343 37.9122 15.4643 37.5122 14.9843C37.336 14.6735 37.0453 14.4438 36.7022 14.3443C36.4858 14.2863 36.2652 14.2461 36.0423 14.2243C35.7572 14.2305 35.4741 14.1758 35.2119 14.0637C34.9498 13.9516 34.7146 13.7847 34.5222 13.5743C34.2989 13.0865 34.2325 12.5414 34.3323 12.0143C34.3468 11.7945 34.3468 11.5741 34.3323 11.3543V10.7943C34.3323 10.5543 34.3323 10.3243 34.3323 10.0943C34.3199 9.99882 34.3268 9.90185 34.3526 9.80909C34.3783 9.71634 34.4224 9.62971 34.4822 9.5543C34.5279 9.50418 34.5836 9.46408 34.6455 9.43654C34.7075 9.40899 34.7745 9.39461 34.8423 9.3943L35.2422 9.25428C35.5628 9.11599 35.8984 9.01534 36.2422 8.9543C37.0122 8.8643 37.2423 8.3443 37.5623 7.6743C37.6223 7.5243 37.5622 7.4343 37.5022 7.2643L37.4522 7.15431C37.3596 6.9342 37.2527 6.72039 37.1321 6.5143C36.805 6.04878 36.6303 5.49326 36.6321 4.9243C36.7221 4.3743 37.2522 4.02431 37.7722 3.68431C37.9706 3.55966 38.161 3.42272 38.3423 3.2743C39.6023 2.2043 39.7323 2.19429 41.0923 3.13429L41.2122 3.22429C41.7622 3.61429 42.2123 3.91431 42.8723 3.62431C43.0178 3.57907 43.1526 3.50536 43.2693 3.40751C43.386 3.30966 43.4823 3.18961 43.5523 3.0543C43.6423 2.8843 43.7223 2.68429 43.8123 2.47429C44.0423 1.90429 44.2822 1.3043 44.7522 1.0843C45.2982 0.935318 45.8793 0.984913 46.3921 1.22429C46.6221 1.28429 46.8323 1.3543 47.0423 1.3943C48.7323 1.7343 48.8022 1.81428 48.9322 3.53428V3.72429C48.9035 3.98418 48.9427 4.24707 49.0462 4.48723C49.1496 4.72738 49.3137 4.93655 49.5222 5.09428C49.7217 5.23932 49.9539 5.33261 50.1983 5.36577C50.4426 5.39893 50.6913 5.37093 50.9221 5.28428C52.7621 4.90428 52.8622 4.95429 53.7022 6.63429C53.802 6.82033 53.9122 7.00063 54.0322 7.1743C54.2094 7.37362 54.3448 7.60636 54.4307 7.85881C54.5166 8.11126 54.5511 8.37832 54.5322 8.6443C54.3302 9.12976 53.9803 9.53915 53.5322 9.81428C53.3622 9.95428 53.2023 10.0743 53.0623 10.2043C52.9293 10.3347 52.8236 10.4903 52.7515 10.662C52.6794 10.8337 52.6421 11.0181 52.6421 11.2043C52.6528 11.3953 52.7017 11.5822 52.7859 11.7539C52.8701 11.9257 52.9877 12.0789 53.1321 12.2043C53.2981 12.3438 53.4717 12.474 53.6521 12.5943C54.1221 12.9343 54.6522 13.2843 54.7222 13.7643C54.7387 14.3153 54.5657 14.8553 54.2322 15.2943C54.1222 15.4943 54.0222 15.6743 53.9422 15.8543C53.1922 17.5143 53.0723 17.5743 51.3123 17.2543C51.0153 17.1536 50.6958 17.1397 50.3911 17.2141C50.0865 17.2884 49.8095 17.4481 49.5923 17.6743C49.4911 17.7707 49.4111 17.8872 49.3577 18.0164C49.3043 18.1456 49.2786 18.2846 49.2822 18.4243C49.2677 18.6441 49.2677 18.8645 49.2822 19.0843C49.3767 19.6361 49.2926 20.2036 49.0423 20.7043C48.8486 20.9049 48.615 21.0628 48.3567 21.1679C48.0984 21.2729 47.821 21.3228 47.5423 21.3143C47.2923 21.3143 47.0623 21.3843 46.8523 21.4343C46.4445 21.5722 46.0214 21.6595 45.5923 21.6943M42.7122 18.6943H42.8023C43.8023 18.6943 44.2223 19.4043 44.5923 20.0743C45.3123 21.3843 45.3122 21.3843 46.7322 20.9943C46.9722 20.9343 47.2322 20.9043 47.4822 20.8643C47.9722 20.8043 48.4821 20.7343 48.6721 20.4443C48.8475 20.0207 48.8997 19.5562 48.8223 19.1043C48.8223 18.8743 48.8223 18.6343 48.8223 18.4043C48.835 18.0268 48.9925 17.6687 49.2622 17.4043C49.5304 17.1227 49.8721 16.9219 50.2486 16.8247C50.6251 16.7274 51.0212 16.7377 51.3921 16.8543C52.8821 17.1143 52.8822 17.1143 53.5122 15.7243C53.6122 15.5143 53.7323 15.3043 53.8423 15.1143C54.1028 14.7627 54.2524 14.3414 54.2722 13.9043C54.2122 13.5943 53.7921 13.2943 53.3821 13.0043C53.1921 12.8743 53.0023 12.7343 52.8323 12.5943C52.634 12.422 52.4738 12.2104 52.3618 11.9728C52.2499 11.7352 52.1887 11.4769 52.1822 11.2143C52.1768 10.9589 52.2249 10.7052 52.323 10.4693C52.4212 10.2334 52.5673 10.0206 52.7522 9.84428C52.9022 9.70428 53.0822 9.56431 53.2522 9.43431C53.6222 9.13431 54.0123 8.82431 54.1023 8.49431C54.1923 8.16431 53.9121 7.7843 53.6521 7.3943C53.5321 7.2043 53.4023 7.00428 53.3023 6.81428C52.5923 5.37428 52.5922 5.3743 51.0222 5.7043C50.7186 5.81043 50.3929 5.83816 50.0757 5.78489C49.7585 5.73163 49.4599 5.59909 49.2075 5.39961C48.9552 5.20013 48.7574 4.94015 48.6323 4.64378C48.5073 4.34741 48.459 4.02426 48.4922 3.7043V3.5243C48.4422 2.7943 48.4122 2.39431 48.2522 2.21431C48.0922 2.03431 47.6922 1.9443 46.9722 1.8043C46.7422 1.7543 46.5122 1.6843 46.2822 1.6143C45.8789 1.44133 45.4322 1.39596 45.0022 1.4843C44.7022 1.6243 44.4923 2.13431 44.2923 2.62431C44.2023 2.83431 44.1222 3.04431 44.0222 3.24431C43.829 3.61044 43.5037 3.88931 43.1123 4.0243C42.7557 4.15677 42.3686 4.18479 41.9966 4.10508C41.6246 4.02538 41.2832 3.84125 41.0122 3.57429L40.8921 3.49431C40.3321 3.10431 40.0122 2.88429 39.7822 2.88429C39.5522 2.88429 39.2522 3.14428 38.7222 3.59428C38.5239 3.75549 38.317 3.90572 38.1023 4.04429C37.6723 4.32429 37.2221 4.62429 37.1721 4.97429C37.1933 5.44352 37.346 5.89739 37.6123 6.28428C37.7376 6.50137 37.8509 6.72504 37.9522 6.9543C37.9562 6.98751 37.9562 7.02109 37.9522 7.0543C38.0231 7.16828 38.0665 7.29727 38.0786 7.43098C38.0908 7.56469 38.0715 7.69939 38.0222 7.82429C37.7222 8.55429 37.3523 9.2743 36.3423 9.3943C36.0219 9.44373 35.7092 9.53447 35.4121 9.66429L34.9622 9.82429H34.8223C34.8223 9.82429 34.8223 9.91429 34.8223 10.0443C34.8223 10.1743 34.8223 10.5043 34.8223 10.7443C34.8223 10.9843 34.8223 11.1143 34.8223 11.3043C34.8223 11.4943 34.8223 11.7743 34.8223 12.0043C34.7373 12.4369 34.7788 12.8848 34.9422 13.2943C35.1322 13.5943 35.6221 13.6643 36.1321 13.7343C36.3746 13.7622 36.6153 13.8056 36.8523 13.8643C37.2931 13.9899 37.6687 14.2798 37.9021 14.6743C38.0926 14.9601 38.1944 15.2958 38.1944 15.6393C38.1944 15.9827 38.0926 16.3185 37.9021 16.6043L37.8123 16.8243C37.2823 18.1843 37.2821 18.1843 38.3821 18.9943C38.5849 19.1532 38.7786 19.3235 38.9622 19.5043C39.3422 19.8743 39.7123 20.2243 40.0723 20.1943C40.5689 20.0606 41.0145 19.7821 41.3523 19.3943L41.8223 18.9943C42.0852 18.7939 42.4127 18.6977 42.7422 18.7243M44.6421 15.3743C43.9222 15.3735 43.2164 15.1755 42.6011 14.8017C41.9858 14.428 41.4847 13.8928 41.1521 13.2543C40.9023 12.7818 40.7498 12.2641 40.7034 11.7316C40.657 11.1992 40.7177 10.6629 40.8821 10.1543C41.0394 9.65029 41.298 9.18367 41.6419 8.78303C41.9858 8.38239 42.4077 8.05615 42.8821 7.82429C43.8274 7.36674 44.9132 7.29231 45.9121 7.61659C46.9111 7.94087 47.7459 8.63873 48.2422 9.56428C48.7165 10.5031 48.8019 11.5909 48.48 12.5922C48.1581 13.5936 47.4547 14.4278 46.5222 14.9143C45.9478 15.2138 45.31 15.3716 44.6621 15.3743M44.6621 7.8643C44.1217 7.86569 43.5887 7.98871 43.1023 8.22429C42.6873 8.43517 42.3186 8.72697 42.0181 9.08247C41.7175 9.43797 41.4912 9.84998 41.3523 10.2943C41.1732 10.8467 41.1331 11.4347 41.2356 12.0063C41.3382 12.5779 41.58 13.1154 41.94 13.5711C42.2999 14.0268 42.7668 14.3867 43.2991 14.6188C43.8314 14.8509 44.4129 14.9481 44.9917 14.9018C45.5706 14.8555 46.1291 14.6671 46.6177 14.3533C47.1063 14.0395 47.5098 13.61 47.7927 13.1029C48.0757 12.5958 48.2292 12.0266 48.2395 11.446C48.2499 10.8654 48.117 10.2912 47.8523 9.7743C47.5439 9.1965 47.0839 8.71349 46.522 8.37703C45.9601 8.04057 45.3171 7.86333 44.6621 7.8643Z" fill="#582C89"/>
<path d="M45.6521 21.7643C45.0621 21.7643 44.8222 21.3943 44.2622 20.3843C43.9022 19.7343 43.6223 19.2343 42.8523 19.2243C42.5994 19.1868 42.3415 19.2477 42.1321 19.3943L41.6922 19.7743C41.282 20.2326 40.7409 20.5538 40.1421 20.6943C39.8539 20.6658 39.5747 20.5783 39.3218 20.4372C39.0689 20.2962 38.8478 20.1046 38.6721 19.8743C38.5059 19.7063 38.3288 19.5493 38.1421 19.4043C36.8221 18.4043 36.7821 18.3043 37.4021 16.7143C37.4021 16.6143 37.4822 16.5443 37.5122 16.4643C37.7322 15.9343 37.9122 15.4643 37.5122 14.9843C37.336 14.6735 37.0453 14.4438 36.7022 14.3443C36.4858 14.2863 36.2652 14.2461 36.0423 14.2243C35.7572 14.2305 35.4741 14.1758 35.2119 14.0637C34.9498 13.9516 34.7146 13.7847 34.5222 13.5743C34.2989 13.0865 34.2325 12.5414 34.3323 12.0143C34.3468 11.7945 34.3468 11.5741 34.3323 11.3543V10.7943C34.3323 10.5543 34.3323 10.3243 34.3323 10.0943C34.3199 9.99882 34.3268 9.90185 34.3526 9.80909C34.3783 9.71634 34.4224 9.62971 34.4822 9.5543C34.5279 9.50417 34.5836 9.46408 34.6455 9.43654C34.7075 9.40899 34.7745 9.39461 34.8423 9.3943L35.2422 9.25428C35.5628 9.11599 35.8984 9.01534 36.2422 8.9543C37.0122 8.8643 37.2423 8.3443 37.5623 7.6743C37.6223 7.5243 37.5622 7.4343 37.5022 7.2643L37.4522 7.15431C37.3596 6.9342 37.2527 6.72039 37.1321 6.5143C36.805 6.04878 36.6303 5.49326 36.6321 4.9243C36.7221 4.3743 37.2522 4.02431 37.7722 3.68431C37.9706 3.55966 38.161 3.42272 38.3423 3.2743C39.6023 2.2043 39.7323 2.19429 41.0923 3.13429L41.2122 3.22429C41.7622 3.61429 42.2123 3.91431 42.8723 3.62431C43.0178 3.57907 43.1526 3.50536 43.2693 3.40751C43.386 3.30966 43.4823 3.18961 43.5523 3.0543C43.6423 2.8843 43.7223 2.68429 43.8123 2.47429C44.0423 1.90429 44.2822 1.3043 44.7522 1.0843C45.2982 0.935318 45.8793 0.984913 46.3921 1.22429C46.6221 1.28429 46.8323 1.3543 47.0423 1.3943C48.7323 1.7343 48.8022 1.81428 48.9322 3.53428V3.72429C48.9035 3.98418 48.9427 4.24707 49.0462 4.48723C49.1496 4.72738 49.3137 4.93655 49.5222 5.09428C49.7217 5.23932 49.9539 5.33261 50.1983 5.36577C50.4426 5.39893 50.6913 5.37093 50.9221 5.28428C52.7621 4.90428 52.8622 4.95429 53.7022 6.63429C53.802 6.82034 53.9122 7.00063 54.0322 7.1743C54.2094 7.37362 54.3448 7.60636 54.4307 7.85881C54.5166 8.11126 54.5511 8.37832 54.5322 8.6443C54.3302 9.12976 53.9803 9.53915 53.5322 9.81428C53.3622 9.95428 53.2023 10.0743 53.0623 10.2043C52.9293 10.3347 52.8236 10.4903 52.7515 10.662C52.6794 10.8337 52.6421 11.0181 52.6421 11.2043C52.6528 11.3953 52.7017 11.5822 52.7859 11.7539C52.8701 11.9257 52.9877 12.0789 53.1321 12.2043C53.2981 12.3438 53.4717 12.474 53.6521 12.5943C54.1221 12.9343 54.6522 13.2843 54.7222 13.7643C54.7387 14.3153 54.5657 14.8553 54.2322 15.2943C54.1222 15.4943 54.0222 15.6743 53.9422 15.8543C53.1922 17.5143 53.0723 17.5743 51.3123 17.2543C51.0153 17.1536 50.6958 17.1397 50.3911 17.2141C50.0865 17.2884 49.8095 17.4481 49.5923 17.6743C49.4911 17.7707 49.4111 17.8872 49.3577 18.0164C49.3043 18.1456 49.2786 18.2846 49.2822 18.4243C49.2677 18.6441 49.2677 18.8645 49.2822 19.0843C49.3767 19.6361 49.2926 20.2036 49.0423 20.7043C48.8486 20.9049 48.615 21.0628 48.3567 21.1679C48.0984 21.2729 47.821 21.3228 47.5423 21.3143C47.2923 21.3143 47.0623 21.3843 46.8523 21.4343C46.4668 21.5914 46.0638 21.7022 45.6521 21.7643ZM42.7722 18.7643H42.8623C43.8623 18.7643 44.2821 19.4743 44.6521 20.1443C45.3721 21.4543 45.3723 21.4543 46.7923 21.0643C47.0323 21.0043 47.2923 20.9743 47.5423 20.9343C48.0323 20.8743 48.5422 20.8043 48.7322 20.5143C48.9076 20.0907 48.9595 19.6262 48.8821 19.1743C48.8821 18.9443 48.8821 18.7043 48.8821 18.4743C48.8949 18.0968 49.0526 17.7387 49.3223 17.4743C49.5904 17.1927 49.9321 16.9919 50.3086 16.8947C50.6851 16.7974 51.0812 16.8077 51.4522 16.9243C52.9422 17.1843 52.9423 17.1843 53.5723 15.7943C53.6723 15.5843 53.7921 15.3743 53.9021 15.1843C54.1626 14.8327 54.3125 14.4114 54.3323 13.9743C54.2723 13.6643 53.8522 13.3643 53.4422 13.0743C53.2522 12.9443 53.0621 12.8043 52.8921 12.6643C52.6938 12.4921 52.5338 12.2804 52.4219 12.0428C52.31 11.8052 52.2487 11.5468 52.2422 11.2843C52.2369 11.0289 52.2849 10.7752 52.3831 10.5393C52.4812 10.3034 52.6274 10.0906 52.8123 9.91429C52.9623 9.77429 53.1423 9.63428 53.3123 9.50428C53.6823 9.20428 54.0721 8.89428 54.1621 8.56428C54.2521 8.23428 53.9722 7.85431 53.7122 7.46431C53.5922 7.27431 53.4623 7.07429 53.3623 6.88429C52.6523 5.44429 52.6523 5.4443 51.0823 5.7743C50.7786 5.88044 50.453 5.90816 50.1358 5.8549C49.8185 5.80164 49.5199 5.6691 49.2676 5.46962C49.0153 5.27013 48.8172 5.01016 48.6922 4.71379C48.5671 4.41742 48.5191 4.09426 48.5523 3.7743V3.59428C48.5023 2.86428 48.4723 2.46428 48.3123 2.28428C48.1523 2.10428 47.7522 2.01431 47.0322 1.87431C46.8022 1.82431 46.5723 1.75431 46.3423 1.68431C45.9289 1.47497 45.4588 1.40481 45.0022 1.4843C44.7022 1.6243 44.4923 2.13431 44.2923 2.62431C44.2023 2.83431 44.1222 3.04431 44.0222 3.24431C43.829 3.61044 43.5037 3.88931 43.1123 4.0243C42.7557 4.15677 42.3686 4.18479 41.9966 4.10508C41.6246 4.02538 41.2832 3.84125 41.0122 3.57429L40.8921 3.49431C40.3321 3.10431 40.0122 2.88429 39.7822 2.88429C39.5522 2.88429 39.2522 3.14428 38.7222 3.59428C38.5239 3.75549 38.317 3.90572 38.1023 4.04429C37.6723 4.32429 37.2221 4.62429 37.1721 4.97429C37.1933 5.44352 37.346 5.89739 37.6123 6.28428C37.7376 6.50137 37.8509 6.72504 37.9522 6.9543C37.9562 6.98751 37.9562 7.02109 37.9522 7.0543C38.0231 7.16828 38.0665 7.29727 38.0786 7.43098C38.0908 7.56469 38.0715 7.69939 38.0222 7.82429C37.7222 8.55429 37.3523 9.2743 36.3423 9.3943C36.0219 9.44373 35.7092 9.53447 35.4121 9.66429L34.9622 9.82429H34.8223C34.8223 9.82429 34.8223 9.91429 34.8223 10.0443C34.8223 10.1743 34.8223 10.5043 34.8223 10.7443C34.8223 10.9843 34.8223 11.1143 34.8223 11.3043C34.8223 11.4943 34.8223 11.7743 34.8223 12.0043C34.7373 12.4369 34.7788 12.8848 34.9422 13.2943C35.1322 13.5943 35.6221 13.6643 36.1321 13.7343C36.3746 13.7622 36.6153 13.8056 36.8523 13.8643C37.2931 13.9899 37.6687 14.2798 37.9021 14.6743C38.0926 14.9601 38.1944 15.2958 38.1944 15.6393C38.1944 15.9827 38.0926 16.3185 37.9021 16.6043L37.8123 16.8243C37.2823 18.1843 37.2821 18.1843 38.3821 18.9943C38.5849 19.1532 38.7786 19.3235 38.9622 19.5043C39.3422 19.8743 39.7123 20.2243 40.0723 20.1943C40.5689 20.0606 41.0145 19.7821 41.3523 19.3943L41.8223 18.9943C42.0987 18.8008 42.4379 18.7186 42.7722 18.7643ZM44.6721 15.4143C43.9522 15.4135 43.2464 15.2155 42.6311 14.8417C42.0159 14.468 41.5147 13.9328 41.1822 13.2943C40.9323 12.8218 40.7798 12.3041 40.7334 11.7716C40.687 11.2392 40.7478 10.7028 40.9121 10.1943C41.0694 9.69027 41.328 9.22368 41.6719 8.82304C42.0158 8.4224 42.4378 8.09616 42.9121 7.8643C43.8575 7.40674 44.9432 7.33232 45.9422 7.6566C46.9411 7.98087 47.7759 8.67873 48.2722 9.60429C48.7465 10.5431 48.832 11.6309 48.51 12.6322C48.1881 13.6335 47.4848 14.4678 46.5523 14.9543C45.9718 15.2569 45.3267 15.4148 44.6721 15.4143ZM44.6721 7.90431C44.1317 7.9057 43.5987 8.02872 43.1123 8.2643C42.6973 8.47518 42.3286 8.76695 42.0281 9.12245C41.7276 9.47795 41.5012 9.88999 41.3623 10.3343C41.1832 10.8867 41.1431 11.4747 41.2456 12.0463C41.3482 12.6179 41.59 13.1554 41.95 13.6111C42.3099 14.0668 42.7768 14.4267 43.3091 14.6588C43.8414 14.8909 44.4229 14.9881 45.0017 14.9418C45.5806 14.8955 46.1391 14.7071 46.6277 14.3933C47.1163 14.0795 47.5198 13.65 47.8028 13.1429C48.0857 12.6357 48.2392 12.0667 48.2495 11.486C48.2599 10.9054 48.127 10.3312 47.8623 9.81428C47.5523 9.23347 47.0893 8.7485 46.5235 8.41185C45.9577 8.07519 45.3105 7.8997 44.6521 7.90431H44.6721Z" stroke="#582C89" stroke-width="0.25" stroke-miterlimit="10"/>
<path d="M205.082 70.7927C205.08 69.6559 204.741 68.5452 204.108 67.6009C203.475 66.6567 202.576 65.9212 201.526 65.4876C200.475 65.0539 199.319 64.9415 198.204 65.1644C197.09 65.3874 196.066 65.9359 195.263 66.7404C194.459 67.545 193.913 68.5695 193.692 69.6846C193.471 70.7998 193.585 71.9554 194.021 73.0055C194.456 74.0556 195.193 74.953 196.139 75.5844C197.084 76.2158 198.195 76.5527 199.332 76.5527C200.088 76.5528 200.837 76.4037 201.535 76.1141C202.233 75.8245 202.867 75.4001 203.402 74.8651C203.936 74.3301 204.359 73.695 204.647 72.9962C204.936 72.2975 205.083 71.5487 205.082 70.7927Z" fill="white"/>
<path d="M199.333 76.8934C198.126 76.8934 196.947 76.5356 195.943 75.8653C194.94 75.195 194.158 74.2424 193.697 73.1277C193.235 72.0131 193.114 70.7866 193.35 69.6033C193.585 68.42 194.166 67.3331 195.019 66.48C195.872 65.6269 196.959 65.0459 198.142 64.8106C199.326 64.5752 200.552 64.696 201.667 65.1577C202.781 65.6194 203.734 66.4012 204.404 67.4044C205.075 68.4075 205.432 69.5869 205.432 70.7934C205.43 72.4104 204.786 73.9604 203.643 75.1038C202.499 76.2472 200.95 76.8907 199.333 76.8934ZM199.333 65.3834C198.263 65.3834 197.217 65.7006 196.327 66.2951C195.437 66.8896 194.744 67.7345 194.334 68.723C193.925 69.7116 193.818 70.7994 194.026 71.8488C194.235 72.8982 194.75 73.8622 195.507 74.6188C196.264 75.3754 197.228 75.8907 198.277 76.0994C199.327 76.3082 200.414 76.201 201.403 75.7916C202.391 75.3821 203.236 74.6887 203.831 73.799C204.425 72.9093 204.742 71.8634 204.742 70.7934C204.74 69.3593 204.169 67.9848 203.155 66.9708C202.141 65.9568 200.767 65.386 199.333 65.3834Z" fill="#582C89"/>
<path d="M146.751 68.0625C127.541 66.9625 89.0312 43.0625 89.0312 43.0625H83.9311C83.9311 43.0625 45.4111 66.9425 26.2011 68.0625C26.2011 68.0625 24.6913 156.413 70.3713 178.893C74.3086 180.824 78.4851 182.223 82.7912 183.053H90.1611C94.468 182.226 98.6452 180.827 102.581 178.893C148.261 156.413 146.751 68.0625 146.751 68.0625Z" fill="white"/>
<path d="M146.751 68.0625C127.541 66.9625 89.0312 43.0625 89.0312 43.0625H83.9311C83.9311 43.0625 45.4111 66.9425 26.2011 68.0625C26.2011 68.0625 24.6913 156.413 70.3713 178.893C74.3086 180.824 78.4851 182.223 82.7912 183.053H90.1611C94.468 182.226 98.6452 180.827 102.581 178.893C148.261 156.413 146.751 68.0625 146.751 68.0625Z" stroke="#582C88" stroke-miterlimit="10"/>
<path d="M67.5016 107.344V100.404C67.3694 97.8303 67.7622 95.2565 68.6561 92.8394C69.55 90.4222 70.9263 88.2121 72.7013 86.3437C74.4763 84.4752 76.6129 82.9874 78.9811 81.9707C81.3492 80.954 83.8995 80.4297 86.4767 80.4297C89.0538 80.4297 91.6039 80.954 93.972 81.9707C96.3402 82.9874 98.4768 84.4752 100.252 86.3437C102.027 88.2121 103.403 90.4222 104.297 92.8394C105.191 95.2565 105.584 97.8303 105.452 100.404V107.344" stroke="#582C88" stroke-miterlimit="10"/>
<path d="M115.512 107.344H57.4316V144.704H115.512V107.344Z" fill="#DCDEDB"/>
<path d="M115.512 107.344H57.4316V144.704H115.512V107.344Z" stroke="#582C88" stroke-miterlimit="10"/>
<path d="M92.5811 138.994L89.771 123.264C90.7406 122.568 91.4641 121.582 91.8376 120.448C92.2112 119.314 92.2154 118.091 91.8496 116.955C91.4839 115.819 90.767 114.828 89.8022 114.125C88.8375 113.422 87.6747 113.043 86.481 113.043C85.2873 113.043 84.1244 113.422 83.1597 114.125C82.1949 114.828 81.4781 115.819 81.1123 116.955C80.7466 118.091 80.7507 119.314 81.1243 120.448C81.4978 121.582 82.2214 122.568 83.1909 123.264L80.3809 138.994H92.5811Z" fill="#582C88"/>
<path d="M150.132 82.5625H146.272C144.512 108.562 136.722 162.103 102.592 178.893C98.656 180.827 94.4788 182.226 90.1719 183.053H94.002C98.3085 182.224 102.485 180.825 106.422 178.893C140.532 162.103 148.332 108.583 150.092 82.5625" fill="#582C88"/>
<path fill-rule="evenodd" clip-rule="evenodd" d="M205.083 100.792C205.083 101.93 204.745 103.041 204.113 103.987C203.481 104.933 202.584 105.67 201.533 106.105C200.482 106.54 199.326 106.654 198.211 106.432C197.095 106.21 196.071 105.662 195.267 104.858C194.462 104.054 193.915 103.03 193.693 101.914C193.471 100.799 193.585 99.6427 194.02 98.592C194.455 97.5413 195.192 96.6433 196.138 96.0115C197.084 95.3797 198.195 95.0424 199.333 95.0424C200.858 95.0424 202.32 95.6482 203.398 96.7266C204.477 97.8049 205.083 99.2674 205.083 100.792ZM131.292 97.4024H123.292C122.296 97.453 121.357 97.8844 120.67 98.6074C119.983 99.3304 119.6 100.29 119.6 101.287C119.6 102.285 119.983 103.244 120.67 103.967C121.357 104.69 122.296 105.122 123.292 105.172H172.073C173.092 109.237 175.445 112.843 178.755 115.414C182.065 117.984 186.142 119.371 190.333 119.352C199.553 119.352 208.892 111.042 208.892 100.792C208.838 95.8869 206.865 91.1978 203.396 87.7289C199.927 84.2599 195.238 82.287 190.333 82.2324C180.403 82.2324 173.333 88.6324 171.873 97.4024H131.262H131.292Z" fill="#EFF0F1"/>
<path d="M190.361 119.654C186.142 119.681 182.033 118.303 178.684 115.738C175.334 113.172 172.934 109.564 171.861 105.484H123.321C122.21 105.484 121.144 105.042 120.358 104.256C119.572 103.471 119.131 102.405 119.131 101.294C119.131 100.182 119.572 99.1166 120.358 98.3308C121.144 97.545 122.21 97.1036 123.321 97.1036H171.641C173.331 88.0136 180.821 81.9336 190.361 81.9336C195.343 81.9984 200.102 84.0061 203.625 87.5291C207.148 91.0521 209.156 95.8117 209.221 100.794C209.221 111.594 199.271 119.654 190.361 119.654ZM172.361 104.874L172.421 105.114C173.423 109.119 175.743 112.671 179.008 115.2C182.272 117.728 186.292 119.085 190.421 119.054C199.041 119.054 208.681 111.244 208.681 100.794C208.616 95.9718 206.671 91.3659 203.26 87.957C199.85 84.5481 195.243 82.6057 190.421 82.5436C180.951 82.5436 173.821 88.3936 172.251 97.4536H171.961V97.7236H123.411C122.493 97.7721 121.629 98.171 120.996 98.838C120.363 99.5049 120.01 100.389 120.01 101.309C120.01 102.228 120.363 103.112 120.996 103.779C121.629 104.446 122.493 104.845 123.411 104.894H172.411L172.361 104.874ZM138.821 109.324H130.751V108.714H138.821V109.324ZM199.351 106.854C198.153 106.854 196.981 106.498 195.984 105.832C194.988 105.166 194.211 104.22 193.752 103.113C193.294 102.005 193.174 100.787 193.407 99.6113C193.641 98.4358 194.218 97.356 195.066 96.5085C195.913 95.661 196.993 95.0839 198.169 94.85C199.344 94.6162 200.563 94.7362 201.67 95.1949C202.777 95.6536 203.724 96.4303 204.39 97.4268C205.056 98.4234 205.411 99.595 205.411 100.794C205.408 102.4 204.769 103.94 203.633 105.076C202.497 106.212 200.957 106.851 199.351 106.854ZM199.351 95.3436C198.273 95.3436 197.219 95.6632 196.323 96.2621C195.427 96.8609 194.728 97.7121 194.316 98.7079C193.903 99.7038 193.795 100.8 194.006 101.857C194.216 102.914 194.735 103.885 195.497 104.647C196.26 105.41 197.231 105.929 198.288 106.139C199.345 106.349 200.441 106.241 201.437 105.829C202.432 105.416 203.284 104.718 203.883 103.821C204.481 102.925 204.801 101.871 204.801 100.794C204.798 99.349 204.223 97.9643 203.202 96.9428C202.18 95.9213 200.796 95.3462 199.351 95.3436Z" fill="#582C89"/>
<path fill-rule="evenodd" clip-rule="evenodd" d="M123.322 105.183V114.073H129.112V109.193H132.932L132.952 112.693H136.822L136.802 109.193H140.952V114.113L146.752 114.073V105.143L123.322 105.183Z" fill="white"/>
<path d="M141.001 114.483C140.956 114.483 140.912 114.475 140.871 114.458C140.83 114.44 140.792 114.415 140.76 114.384C140.729 114.352 140.704 114.315 140.687 114.274C140.67 114.232 140.661 114.188 140.661 114.143V109.563H137.191V112.723C137.191 112.769 137.182 112.814 137.164 112.856C137.146 112.898 137.121 112.936 137.088 112.967C137.055 112.999 137.017 113.024 136.974 113.04C136.932 113.057 136.887 113.065 136.841 113.063H133.001C132.911 113.063 132.824 113.028 132.76 112.964C132.697 112.9 132.661 112.814 132.661 112.723V109.563H129.521V114.103C129.521 114.195 129.486 114.282 129.422 114.347C129.359 114.413 129.272 114.451 129.181 114.453H123.381C123.29 114.451 123.203 114.413 123.14 114.347C123.076 114.282 123.041 114.195 123.041 114.103V105.203C123.041 105.159 123.05 105.115 123.067 105.073C123.084 105.032 123.109 104.995 123.141 104.963C123.172 104.931 123.21 104.906 123.251 104.889C123.292 104.872 123.336 104.863 123.381 104.863H146.811C146.857 104.862 146.903 104.87 146.947 104.887C146.99 104.904 147.029 104.93 147.062 104.963C147.094 104.996 147.12 105.035 147.137 105.078C147.154 105.121 147.162 105.167 147.161 105.213V114.143C147.159 114.234 147.122 114.32 147.059 114.385C146.996 114.45 146.911 114.488 146.821 114.493H141.021L141.001 114.483ZM136.851 108.883H141.001C141.091 108.883 141.178 108.919 141.241 108.983C141.305 109.047 141.341 109.133 141.341 109.223V113.803H146.451V105.483H123.701V113.693H128.811V109.153C128.814 109.062 128.852 108.976 128.917 108.912C128.982 108.849 129.07 108.813 129.161 108.813H132.981C133.071 108.813 133.158 108.849 133.221 108.913C133.285 108.977 133.321 109.063 133.321 109.153V112.313H136.511V109.153C136.511 109.109 136.519 109.064 136.536 109.023C136.554 108.982 136.579 108.945 136.611 108.913C136.675 108.851 136.761 108.815 136.851 108.813" fill="#582C89"/>
<path fill-rule="evenodd" clip-rule="evenodd" d="M199.002 145.532C201.49 145.756 203.804 146.901 205.489 148.745C207.174 150.588 208.109 152.995 208.109 155.492C208.109 157.99 207.174 160.397 205.489 162.24C203.804 164.083 201.49 165.229 199.002 165.452H164.382C150.742 165.072 154.872 143.592 170.382 147.192C170.614 145.233 171.244 143.341 172.232 141.632C173.662 139.203 175.788 137.258 178.335 136.051C180.883 134.843 183.734 134.428 186.519 134.859C189.305 135.29 191.898 136.547 193.961 138.468C196.024 140.389 197.464 142.884 198.092 145.632C198.392 145.632 198.702 145.582 199.012 145.582" fill="#EFF0F1"/>
<path d="M199.002 165.684H164.382C160.712 165.584 157.972 163.954 156.672 161.104C155.964 159.345 155.751 157.426 156.054 155.554C156.357 153.683 157.165 151.929 158.392 150.484C161.102 147.174 165.392 145.874 170.172 146.914C170.434 145.014 171.062 143.183 172.022 141.524C173.463 139.071 175.602 137.103 178.166 135.872C180.73 134.64 183.603 134.201 186.418 134.61C189.233 135.018 191.862 136.257 193.97 138.167C196.078 140.077 197.569 142.572 198.252 145.334C198.512 145.334 198.762 145.334 199.002 145.334C200.366 145.291 201.726 145.523 202.999 146.015C204.272 146.508 205.433 147.251 206.413 148.201C207.393 149.151 208.172 150.288 208.705 151.545C209.237 152.802 209.511 154.153 209.511 155.519C209.511 156.884 209.237 158.235 208.705 159.492C208.172 160.749 207.393 161.886 206.413 162.836C205.433 163.786 204.272 164.529 202.999 165.022C201.726 165.514 200.366 165.746 199.002 165.704M167.002 147.044C165.428 147.002 163.865 147.318 162.431 147.967C160.997 148.617 159.729 149.583 158.722 150.794C157.548 152.172 156.773 153.846 156.482 155.633C156.191 157.421 156.395 159.254 157.072 160.934C158.292 163.614 160.892 165.154 164.372 165.254H199.002C200.307 165.295 201.606 165.074 202.824 164.604C204.042 164.134 205.153 163.423 206.09 162.515C207.028 161.607 207.773 160.52 208.283 159.318C208.792 158.116 209.054 156.824 209.054 155.519C209.054 154.213 208.792 152.921 208.283 151.719C207.773 150.517 207.028 149.43 206.09 148.522C205.153 147.614 204.042 146.903 202.824 146.433C201.606 145.963 200.307 145.742 199.002 145.784C198.712 145.784 198.402 145.784 198.102 145.784H197.902V145.594C197.275 142.896 195.853 140.449 193.821 138.568C191.788 136.687 189.239 135.458 186.501 135.04C183.764 134.622 180.964 135.035 178.463 136.225C175.962 137.414 173.875 139.326 172.472 141.714C171.497 143.393 170.877 145.255 170.652 147.184V147.434L170.402 147.374C169.32 147.12 168.213 146.989 167.102 146.984" fill="#582C89"/>
<path fill-rule="evenodd" clip-rule="evenodd" d="M191.431 142.923V129.073H186.281L193.331 119.623L200.371 129.073H195.231V142.923H191.431Z" fill="white"/>
<path d="M195.231 143.183H191.431C191.362 143.183 191.296 143.156 191.248 143.107C191.199 143.058 191.171 142.992 191.171 142.923V129.333H186.292C186.243 129.334 186.194 129.321 186.152 129.297C186.11 129.272 186.075 129.236 186.052 129.193C186.027 129.153 186.014 129.106 186.014 129.058C186.014 129.011 186.027 128.964 186.052 128.923L193.102 119.463C193.126 119.432 193.157 119.407 193.192 119.39C193.228 119.372 193.267 119.363 193.306 119.363C193.346 119.363 193.385 119.372 193.42 119.39C193.456 119.407 193.487 119.432 193.511 119.463L200.562 128.923C200.583 128.965 200.595 129.011 200.595 129.058C200.595 129.105 200.583 129.152 200.562 129.193C200.542 129.237 200.509 129.274 200.468 129.299C200.427 129.324 200.379 129.336 200.332 129.333H195.441V142.923C195.441 142.992 195.414 143.058 195.365 143.107C195.316 143.156 195.25 143.183 195.181 143.183M191.641 142.663H195.001V129.073C195.001 129.004 195.029 128.938 195.078 128.89C195.126 128.841 195.193 128.813 195.261 128.813H199.891L193.362 120.053L186.832 128.813H191.461C191.53 128.813 191.597 128.841 191.645 128.89C191.694 128.938 191.721 129.004 191.721 129.073L191.641 142.663Z" fill="#582C89"/>
<path d="M179.412 119.613C179.439 119.299 179.493 118.988 179.572 118.683C179.646 118.458 179.65 118.217 179.584 117.99C179.518 117.764 179.385 117.562 179.202 117.413C179.072 117.263 178.922 117.283 178.772 117.273C178.282 117.273 177.672 117.363 177.342 117.123C177.012 116.883 177.062 116.223 176.952 115.753C176.722 114.753 176.722 114.753 177.592 114.313C178.012 114.083 178.422 113.903 178.462 113.313C178.481 113.2 178.477 113.084 178.452 112.973C178.426 112.861 178.379 112.756 178.312 112.663C178.032 112.283 177.552 111.883 177.562 111.503C177.572 111.123 178.072 110.753 178.372 110.373C179.012 109.563 179.012 109.563 179.962 109.963C180.137 110.08 180.339 110.151 180.549 110.168C180.759 110.186 180.97 110.149 181.162 110.063C181.317 109.98 181.45 109.861 181.551 109.717C181.652 109.573 181.717 109.407 181.742 109.233C182.032 108.143 182.042 108.133 183.172 108.143C183.612 108.143 184.172 107.963 184.462 108.223C184.752 108.483 184.762 109.023 184.882 109.443C184.918 109.586 184.985 109.72 185.079 109.835C185.173 109.949 185.292 110.041 185.426 110.104C185.56 110.168 185.706 110.2 185.854 110.2C186.002 110.2 186.148 110.166 186.282 110.103C186.702 109.933 187.182 109.563 187.532 109.653C187.882 109.743 188.142 110.303 188.422 110.653C189.102 111.503 189.112 111.513 188.422 112.383C188.26 112.54 188.147 112.74 188.095 112.96C188.044 113.18 188.057 113.41 188.132 113.623C188.165 113.725 188.219 113.819 188.289 113.899C188.36 113.98 188.446 114.046 188.542 114.093C188.952 114.323 189.542 114.463 189.722 114.813C189.902 115.163 189.582 115.713 189.492 116.183C189.282 117.183 189.272 117.183 188.222 117.253C187.732 117.253 187.292 117.253 187.022 117.793C186.912 117.957 186.869 118.158 186.902 118.353C186.992 118.833 187.232 119.353 187.072 119.783C186.912 120.213 186.262 120.253 185.822 120.473C184.932 120.913 184.932 120.903 184.242 120.133C183.962 119.813 183.732 119.433 183.162 119.533C182.902 119.547 182.658 119.662 182.482 119.853C182.172 120.193 181.932 120.783 181.482 120.853C181.032 120.923 180.652 120.513 180.242 120.313L179.512 119.963C179.382 119.903 179.252 119.833 179.342 119.643M185.612 114.563C185.609 113.928 185.355 113.32 184.906 112.872C184.456 112.424 183.847 112.173 183.212 112.173C182.578 112.183 181.972 112.439 181.523 112.886C181.073 113.334 180.815 113.939 180.802 114.573C180.803 114.892 180.868 115.208 180.992 115.503C181.116 115.797 181.297 116.064 181.525 116.288C181.753 116.512 182.022 116.689 182.319 116.808C182.615 116.927 182.932 116.987 183.252 116.983C183.567 116.981 183.878 116.918 184.167 116.795C184.457 116.672 184.72 116.493 184.939 116.267C185.159 116.042 185.332 115.775 185.447 115.483C185.563 115.19 185.619 114.877 185.612 114.563Z" fill="white"/>
<path d="M181.493 121.083C181.156 121.048 180.835 120.924 180.563 120.723L180.203 120.513L179.893 120.363L179.483 120.173C179.41 120.146 179.343 120.105 179.286 120.051C179.229 119.998 179.184 119.934 179.153 119.863C179.112 119.76 179.112 119.646 179.153 119.543V119.293C179.17 119.055 179.217 118.82 179.293 118.593C179.433 118.213 179.293 117.973 178.963 117.593C178.963 117.593 178.913 117.593 178.793 117.543H178.273C177.884 117.598 177.488 117.528 177.143 117.343C177.001 117.2 176.89 117.03 176.818 116.842C176.746 116.654 176.713 116.454 176.723 116.253C176.707 116.108 176.683 115.965 176.653 115.823C176.403 114.743 176.463 114.613 177.433 114.093H177.513C177.923 113.873 178.143 113.743 178.163 113.353C178.179 113.27 178.179 113.185 178.161 113.103C178.144 113.02 178.111 112.942 178.063 112.873C177.983 112.773 177.903 112.663 177.813 112.563C177.636 112.462 177.489 112.317 177.387 112.141C177.284 111.966 177.23 111.766 177.23 111.563C177.23 111.36 177.284 111.16 177.387 110.984C177.489 110.809 177.636 110.663 177.813 110.563C177.908 110.464 177.998 110.361 178.083 110.253C178.803 109.353 178.923 109.313 179.983 109.763L180.103 109.813C180.227 109.897 180.37 109.947 180.519 109.959C180.667 109.971 180.817 109.945 180.953 109.883C181.08 109.817 181.189 109.72 181.269 109.601C181.349 109.483 181.399 109.346 181.413 109.203C181.743 108.003 181.853 107.923 183.103 107.923C183.229 107.932 183.356 107.932 183.483 107.923C183.662 107.875 183.85 107.864 184.034 107.892C184.218 107.919 184.395 107.984 184.553 108.083C184.795 108.363 184.942 108.713 184.973 109.083C184.973 109.213 184.973 109.333 185.053 109.453C185.082 109.555 185.133 109.65 185.202 109.731C185.271 109.812 185.356 109.877 185.453 109.923C185.555 109.967 185.666 109.99 185.778 109.99C185.889 109.99 186 109.967 186.103 109.923C186.227 109.871 186.347 109.811 186.463 109.743C186.771 109.526 187.147 109.427 187.523 109.463C187.873 109.553 188.103 109.903 188.313 110.233L188.543 110.553C189.303 111.503 189.303 111.653 188.543 112.553C188.41 112.678 188.317 112.84 188.274 113.017C188.231 113.195 188.241 113.381 188.303 113.553C188.323 113.625 188.358 113.691 188.407 113.748C188.455 113.805 188.515 113.851 188.583 113.883L188.953 114.063C189.321 114.175 189.644 114.403 189.873 114.713C189.936 114.897 189.961 115.092 189.948 115.286C189.934 115.48 189.881 115.67 189.793 115.843C189.742 115.977 189.698 116.114 189.663 116.253C189.423 117.393 189.313 117.493 188.153 117.533C187.633 117.533 187.363 117.533 187.153 117.933C187.069 118.045 187.033 118.185 187.053 118.323L187.143 118.673C187.293 119.062 187.317 119.489 187.213 119.893C187.053 120.273 186.623 120.423 186.213 120.563C186.072 120.607 185.936 120.66 185.803 120.723C184.803 121.213 184.673 121.183 183.923 120.333L183.803 120.203C183.553 119.903 183.403 119.753 183.073 119.803C182.869 119.814 182.677 119.899 182.533 120.043C182.453 120.133 182.373 120.253 182.283 120.373C182.196 120.551 182.071 120.709 181.917 120.835C181.764 120.961 181.585 121.052 181.393 121.103H181.313M179.483 119.703L179.903 119.903L180.213 120.053C180.353 120.118 180.49 120.192 180.623 120.273C180.822 120.43 181.061 120.531 181.313 120.563C181.493 120.563 181.663 120.303 181.833 120.063C181.918 119.925 182.015 119.794 182.123 119.673C182.342 119.444 182.637 119.302 182.953 119.273C183.189 119.24 183.43 119.277 183.647 119.378C183.863 119.479 184.046 119.64 184.173 119.843L184.273 119.963C184.553 120.273 184.733 120.483 184.843 120.503C185.089 120.463 185.324 120.371 185.533 120.233C185.686 120.164 185.843 120.104 186.003 120.053C186.293 119.953 186.593 119.843 186.663 119.683C186.707 119.38 186.676 119.071 186.573 118.783C186.573 118.653 186.503 118.523 186.473 118.403C186.435 118.149 186.489 117.891 186.623 117.673C186.76 117.431 186.967 117.236 187.217 117.115C187.467 116.993 187.748 116.951 188.023 116.993C188.297 117.012 188.573 116.975 188.833 116.883C188.965 116.65 189.044 116.39 189.063 116.123C189.102 115.963 189.152 115.806 189.213 115.653C189.303 115.373 189.403 115.093 189.323 114.943C189.143 114.741 188.911 114.593 188.653 114.513C188.512 114.454 188.375 114.388 188.243 114.313C188.119 114.253 188.008 114.167 187.919 114.062C187.829 113.957 187.763 113.835 187.723 113.703C187.633 113.451 187.616 113.179 187.672 112.917C187.729 112.656 187.857 112.416 188.043 112.223C188.236 112.024 188.383 111.785 188.473 111.523C188.473 111.393 188.303 111.173 188.023 110.823C187.925 110.706 187.835 110.582 187.753 110.453C187.603 110.213 187.423 109.943 187.263 109.903C187.103 109.863 186.823 110.013 186.573 110.143L186.173 110.343C186.004 110.417 185.822 110.455 185.638 110.455C185.454 110.455 185.271 110.417 185.103 110.343C184.94 110.265 184.795 110.153 184.677 110.015C184.56 109.877 184.474 109.716 184.423 109.543C184.423 109.423 184.363 109.273 184.333 109.133C184.308 108.886 184.222 108.648 184.083 108.443C183.963 108.343 183.683 108.373 183.413 108.443C183.263 108.453 183.112 108.453 182.963 108.443C182.67 108.409 182.374 108.436 182.093 108.523C181.932 108.771 181.827 109.051 181.783 109.343C181.75 109.554 181.668 109.755 181.542 109.929C181.417 110.103 181.253 110.245 181.063 110.343C180.86 110.446 180.634 110.495 180.406 110.486C180.179 110.477 179.957 110.411 179.763 110.293H179.653C179.422 110.161 179.167 110.079 178.903 110.053C178.793 110.053 178.623 110.303 178.363 110.623C178.268 110.747 178.164 110.864 178.053 110.973C177.853 111.183 177.613 111.433 177.613 111.603C177.613 111.773 177.833 112.033 178.033 112.263L178.313 112.603C178.48 112.841 178.551 113.134 178.513 113.423C178.485 113.684 178.384 113.931 178.221 114.137C178.059 114.342 177.84 114.497 177.593 114.583L177.503 114.633C177.272 114.73 177.062 114.869 176.883 115.043C176.872 115.294 176.91 115.545 176.993 115.783C176.993 115.943 177.043 116.113 177.063 116.273C177.063 116.583 177.133 116.893 177.283 117.003C177.535 117.11 177.812 117.145 178.083 117.103H178.643C178.744 117.095 178.845 117.111 178.939 117.149C179.032 117.187 179.116 117.247 179.183 117.323C179.397 117.507 179.551 117.751 179.626 118.024C179.701 118.296 179.693 118.585 179.603 118.853C179.547 119.042 179.513 119.236 179.503 119.433C179.503 119.533 179.503 119.633 179.503 119.743M183.123 117.273C182.415 117.27 181.738 116.988 181.238 116.488C180.737 115.988 180.455 115.31 180.453 114.603C180.47 113.903 180.756 113.237 181.251 112.742C181.747 112.247 182.413 111.961 183.113 111.943C183.791 111.984 184.428 112.283 184.894 112.779C185.36 113.274 185.619 113.928 185.619 114.608C185.619 115.288 185.36 115.942 184.894 116.437C184.428 116.932 183.791 117.231 183.113 117.273M183.113 112.463C182.546 112.473 182.005 112.703 181.604 113.104C181.203 113.505 180.973 114.046 180.963 114.613C180.96 114.895 181.016 115.175 181.126 115.434C181.236 115.694 181.398 115.928 181.603 116.123C181.852 116.37 182.158 116.552 182.494 116.653C182.831 116.753 183.186 116.77 183.53 116.701C183.874 116.632 184.196 116.479 184.467 116.257C184.738 116.034 184.951 115.748 185.085 115.424C185.22 115.1 185.273 114.747 185.239 114.398C185.206 114.049 185.087 113.713 184.893 113.42C184.699 113.128 184.436 112.888 184.127 112.721C183.819 112.554 183.474 112.465 183.123 112.463" fill="#582C89"/>
</svg>
