<svg width="162" height="132" viewBox="0 0 162 132" fill="none" xmlns="http://www.w3.org/2000/svg">
<path d="M35.3496 107.302C45.0003 102.237 55.7361 99.5918 66.6348 99.5918C77.5334 99.5918 88.269 102.237 97.9197 107.302" stroke="#ED1A5C" stroke-miterlimit="10"/>
<path d="M18.1602 83.3804C32.881 74.82 49.6063 70.3105 66.6353 70.3105C83.6642 70.3105 100.389 74.82 115.11 83.3804" stroke="#ED1A5C" stroke-miterlimit="10"/>
<path d="M1 59.5102C20.7622 47.4319 43.4741 41.041 66.635 41.041C89.796 41.041 112.508 47.4319 132.27 59.5102" stroke="#ED1A5C" stroke-miterlimit="10"/>
<path d="M72.4692 119.771H60.7793V131.471H72.4692V119.771Z" stroke="#ED1A5C" stroke-miterlimit="10"/>
<path d="M160.659 70.9208H110.359V29.0908C110.359 28.1519 110.732 27.2515 111.396 26.5876C112.06 25.9237 112.961 25.5508 113.899 25.5508H157.119C158.058 25.5508 158.959 25.9237 159.623 26.5876C160.286 27.2515 160.659 28.1519 160.659 29.0908V70.9208Z" stroke="#582C89" stroke-miterlimit="10"/>
<path d="M142.24 1.07031H128.84C128.044 1.07031 127.281 1.38638 126.719 1.94899C126.156 2.5116 125.84 3.27467 125.84 4.07032V25.5803H145.18V4.00031C145.162 3.22713 144.846 2.49074 144.298 1.9448C143.751 1.39887 143.013 1.08557 142.24 1.07031Z" stroke="#582C89" stroke-miterlimit="10"/>
<path d="M135.82 45L135.82 53" stroke="#582C89" stroke-miterlimit="10"/>
<path d="M139.55 36.6914H131.51V44.7314H139.55V36.6914Z" stroke="#582C89" stroke-miterlimit="10"/>
</svg>
