<svg width="106" height="145" viewBox="0 0 106 145" fill="none" xmlns="http://www.w3.org/2000/svg">
<path d="M105.481 1H7.88086V136.14H105.481V1Z" fill="#DBDEDF"/>
<path d="M105.481 1H7.88086V136.14H105.481V1Z" stroke="#512B82" stroke-miterlimit="10"/>
<path d="M98.6 9.25H1V144.39H98.6V9.25Z" fill="white"/>
<path d="M98.6 9.25H1V144.39H98.6V9.25Z" stroke="#512B82" stroke-miterlimit="10"/>
<path d="M36.62 115.781H14.25V118.841H36.62V115.781Z" fill="#512B82"/>
<path d="M36.62 115.781H14.25V118.841H36.62V115.781Z" stroke="#512B82" stroke-miterlimit="10"/>
<path d="M43.0009 87.7307C43.0108 91.2059 41.9893 94.6058 40.0658 97.5001C38.1423 100.394 35.4032 102.653 32.1954 103.99C28.9877 105.326 25.4554 105.681 22.0458 105.009C18.6362 104.337 15.5026 102.669 13.0418 100.215C10.5809 97.7614 8.90356 94.6326 8.22194 91.2249C7.54032 87.8173 7.88519 84.284 9.21278 81.0724C10.5404 77.8608 12.791 75.1153 15.6798 73.1836C18.5686 71.2519 21.9656 70.2207 25.4408 70.2207C30.098 70.2207 34.5644 72.0708 37.8576 75.3639C41.1507 78.657 43.0009 83.1235 43.0009 87.7807" fill="white"/>
<path d="M27.1119 105.338C36.7629 104.383 43.8127 95.7853 42.8579 86.1343C41.9031 76.4833 33.3053 69.4336 23.6543 70.3884C14.0033 71.3432 6.9537 79.9409 7.90849 89.5919C8.86329 99.2429 17.4609 106.293 27.1119 105.338Z" stroke="#512B82" stroke-miterlimit="10"/>
<path d="M40.0009 87.7307C40.0108 90.6125 39.1651 93.4324 37.5713 95.8334C35.9774 98.2343 33.707 100.108 31.0474 101.218C28.3878 102.328 25.4588 102.623 22.6311 102.067C19.8035 101.511 17.2043 100.128 15.1631 98.0939C13.1218 96.0596 11.7302 93.4654 11.1643 90.6397C10.5984 87.8139 10.8839 84.8839 11.9844 82.2205C13.0849 79.5571 14.9511 77.2801 17.3466 75.678C19.742 74.0759 22.559 73.2207 25.4408 73.2207C27.3532 73.2194 29.2472 73.5951 31.0143 74.3264C32.7814 75.0576 34.387 76.13 35.7393 77.4823C37.0915 78.8346 38.1639 80.4402 38.8951 82.2073C39.6264 83.9744 40.0022 85.8683 40.0009 87.7807" fill="white"/>
<path d="M25.4406 102.28C33.4763 102.28 39.9906 95.7654 39.9906 87.7297C39.9906 79.6939 33.4763 73.1797 25.4406 73.1797C17.4048 73.1797 10.8906 79.6939 10.8906 87.7297C10.8906 95.7654 17.4048 102.28 25.4406 102.28Z" stroke="#512B82" stroke-miterlimit="10" stroke-dasharray="24.24 48.47 24.24 48.47 24.24 48.47"/>
<path d="M36.6301 87.731C36.6301 89.9442 35.9738 92.1076 34.7442 93.9478C33.5146 95.788 31.7669 97.2223 29.7222 98.0692C27.6775 98.9162 25.4276 99.1378 23.2569 98.706C21.0863 98.2742 19.0925 97.2085 17.5275 95.6436C15.9626 94.0786 14.8968 92.0847 14.465 89.9141C14.0333 87.7434 14.2548 85.4935 15.1018 83.4488C15.9487 81.4041 17.383 79.6565 19.2232 78.4269C21.0634 77.1973 23.2268 76.541 25.44 76.541C26.9099 76.5397 28.3656 76.8283 29.7238 77.3901C31.082 77.952 32.3162 78.7762 33.3555 79.8156C34.3949 80.8549 35.2191 82.089 35.781 83.4472C36.3428 84.8054 36.6314 86.2612 36.6301 87.731Z" fill="white"/>
<path d="M36.6301 87.731C36.6301 89.9442 35.9738 92.1076 34.7442 93.9478C33.5146 95.788 31.7669 97.2223 29.7222 98.0692C27.6775 98.9162 25.4276 99.1378 23.2569 98.706C21.0863 98.2742 19.0925 97.2085 17.5275 95.6436C15.9626 94.0786 14.8968 92.0847 14.465 89.9141C14.0333 87.7434 14.2548 85.4935 15.1018 83.4488C15.9487 81.4041 17.383 79.6565 19.2232 78.4269C21.0634 77.1973 23.2268 76.541 25.44 76.541C26.9099 76.5397 28.3656 76.8283 29.7238 77.3901C31.082 77.952 32.3162 78.7762 33.3555 79.8156C34.3949 80.8549 35.2191 82.089 35.781 83.4472C36.3428 84.8054 36.6314 86.2612 36.6301 87.731Z" stroke="#512B82" stroke-miterlimit="10"/>
<path d="M32.2201 78.7012L16.4102 94.5112" stroke="#512B82" stroke-miterlimit="10"/>
<path d="M34.4603 80.9395L18.6504 96.7495" stroke="#512B82" stroke-miterlimit="10"/>
<path d="M12.3516 22.8809H87.2516" stroke="#512B82" stroke-miterlimit="10"/>
<path d="M12.3516 40.5996H60.6716" stroke="#512B82" stroke-miterlimit="10"/>
<path d="M12.3516 47.7207H74.9415" stroke="#512B82" stroke-miterlimit="10"/>
<path d="M12.3516 54.8301H74.9415" stroke="#512B82" stroke-miterlimit="10"/>
<path d="M12.3516 61.9512H74.9415" stroke="#512B82" stroke-miterlimit="10"/>
<path d="M51.8711 85.3105H74.941" stroke="#512B82" stroke-miterlimit="10"/>
<path d="M51.8711 92.4199H74.941" stroke="#512B82" stroke-miterlimit="10"/>
</svg>
