<svg width="259" height="355" viewBox="0 0 259 355" fill="none" xmlns="http://www.w3.org/2000/svg">
<path d="M188.149 184.249C188.149 184.249 186.299 184.509 184.369 184.919C182.239 185.379 179.759 186.089 179.759 186.089L175.259 174.719L171.369 179.609C171.369 179.609 174.559 186.209 174.859 186.889C175.047 187.306 175.258 187.714 175.489 188.109L178.969 190.529L185.219 189.649C185.43 188.964 185.691 188.296 185.999 187.649C186.64 186.469 187.358 185.334 188.149 184.249Z" stroke="#582C89" stroke-width="0.5" stroke-miterlimit="10"/>
<path d="M175.26 174.72L174.93 173.92L172.26 175.09L173.27 177.22L175.26 174.72Z" fill="#582C89"/>
<path d="M175.26 174.72L174.93 173.92L172.26 175.09L173.27 177.22L175.26 174.72Z" stroke="#582C89" stroke-width="0.5" stroke-miterlimit="10"/>
<path d="M174.83 174L174.64 170.11L172.94 167.5C172.94 167.5 172.43 167.66 172.43 167.94C172.43 168.22 172.09 168.15 172.1 168.48C172.216 168.928 172.377 169.364 172.58 169.78C172.471 169.815 172.379 169.887 172.32 169.985C172.261 170.082 172.24 170.198 172.26 170.31C172.38 170.81 172.534 171.301 172.72 171.78C172.539 172.397 172.502 173.047 172.61 173.68C172.672 173.881 172.774 174.068 172.91 174.23C173.045 174.391 173.212 174.524 173.4 174.62L174.83 174Z" fill="#582C89"/>
<path d="M174.83 174L174.64 170.11L172.94 167.5C172.94 167.5 172.43 167.66 172.43 167.94C172.43 168.22 172.09 168.15 172.1 168.48C172.216 168.928 172.377 169.364 172.58 169.78C172.471 169.815 172.379 169.887 172.32 169.985C172.261 170.082 172.24 170.198 172.26 170.31C172.38 170.81 172.534 171.301 172.72 171.78C172.539 172.397 172.502 173.047 172.61 173.68C172.672 173.881 172.774 174.068 172.91 174.23C173.045 174.391 173.212 174.524 173.4 174.62L174.83 174Z" stroke="#582C89" stroke-width="0.5" stroke-miterlimit="10"/>
<path d="M174.83 174L174.64 170.11L172.94 167.5C172.94 167.5 172.43 167.66 172.43 167.94C172.43 168.22 172.09 168.15 172.1 168.48C172.216 168.928 172.377 169.364 172.58 169.78C172.471 169.815 172.379 169.887 172.32 169.985C172.261 170.082 172.24 170.198 172.26 170.31C172.38 170.81 172.534 171.301 172.72 171.78C172.539 172.397 172.502 173.047 172.61 173.68C172.672 173.881 172.774 174.068 172.91 174.23C173.045 174.391 173.212 174.524 173.4 174.62L174.83 174Z" stroke="#582C89" stroke-width="0.5" stroke-miterlimit="10"/>
<path d="M173.8 170.429L172.42 167.949" stroke="#582C89" stroke-width="0.5" stroke-miterlimit="10"/>
<path d="M173.8 170.429L172.42 167.949" stroke="#582C89" stroke-width="0.5" stroke-miterlimit="10"/>
<path d="M173.7 171.71L172.57 169.75" stroke="#582C89" stroke-width="0.5" stroke-miterlimit="10"/>
<path d="M173.7 171.71L172.57 169.75" stroke="#582C89" stroke-width="0.5" stroke-miterlimit="10"/>
<path d="M173.32 178C173.318 178.104 173.348 178.206 173.404 178.293C173.46 178.38 173.541 178.448 173.637 178.489C173.732 178.529 173.838 178.54 173.939 178.521C174.041 178.501 174.135 178.451 174.208 178.378C174.281 178.305 174.331 178.211 174.351 178.109C174.371 178.007 174.359 177.902 174.319 177.807C174.278 177.711 174.21 177.63 174.123 177.574C174.036 177.517 173.934 177.488 173.83 177.49C173.695 177.49 173.565 177.544 173.47 177.64C173.374 177.735 173.32 177.865 173.32 178Z" stroke="#582C89" stroke-width="0.5" stroke-miterlimit="10"/>
<path d="M173.959 180.719C173.959 180.823 173.99 180.924 174.047 181.009C174.105 181.095 174.187 181.162 174.282 181.201C174.378 181.24 174.483 181.249 174.584 181.228C174.685 181.208 174.778 181.157 174.85 181.083C174.923 181.01 174.971 180.916 174.99 180.814C175.009 180.713 174.997 180.608 174.957 180.513C174.916 180.418 174.848 180.338 174.761 180.282C174.674 180.226 174.572 180.197 174.469 180.199C174.401 180.199 174.334 180.213 174.272 180.239C174.209 180.265 174.152 180.304 174.105 180.352C174.057 180.401 174.02 180.458 173.995 180.521C173.97 180.584 173.958 180.651 173.959 180.719Z" stroke="#582C89" stroke-width="0.5" stroke-miterlimit="10"/>
<path d="M175.26 179.39C175.26 179.451 175.284 179.51 175.327 179.553C175.37 179.596 175.429 179.62 175.49 179.62C175.551 179.62 175.609 179.596 175.652 179.553C175.695 179.51 175.72 179.451 175.72 179.39C175.72 179.36 175.714 179.33 175.702 179.302C175.691 179.274 175.674 179.249 175.652 179.228C175.631 179.206 175.606 179.189 175.578 179.178C175.55 179.166 175.52 179.16 175.49 179.16C175.43 179.163 175.372 179.188 175.33 179.23C175.287 179.273 175.262 179.33 175.26 179.39Z" fill="white"/>
<path d="M174.66 176.72C174.66 176.781 174.684 176.84 174.728 176.883C174.771 176.926 174.829 176.95 174.89 176.95C174.95 176.948 175.008 176.923 175.05 176.88C175.093 176.838 175.118 176.78 175.12 176.72C175.12 176.659 175.096 176.601 175.053 176.558C175.01 176.514 174.951 176.49 174.89 176.49C174.829 176.49 174.771 176.514 174.728 176.558C174.684 176.601 174.66 176.659 174.66 176.72Z" fill="white"/>
<path d="M172.469 179.39C172.469 179.451 172.493 179.51 172.536 179.553C172.579 179.596 172.638 179.62 172.699 179.62C172.76 179.62 172.818 179.596 172.861 179.553C172.904 179.51 172.929 179.451 172.929 179.39C172.929 179.329 172.904 179.271 172.861 179.228C172.818 179.184 172.76 179.16 172.699 179.16C172.638 179.16 172.579 179.184 172.536 179.228C172.493 179.271 172.469 179.329 172.469 179.39Z" fill="white"/>
<path d="M173.09 182.07C173.09 182.115 173.103 182.16 173.129 182.198C173.154 182.235 173.19 182.265 173.232 182.282C173.274 182.3 173.32 182.304 173.365 182.295C173.409 182.287 173.45 182.265 173.482 182.232C173.515 182.2 173.537 182.159 173.545 182.115C173.554 182.07 173.55 182.024 173.532 181.982C173.515 181.94 173.485 181.904 173.448 181.879C173.41 181.853 173.365 181.84 173.32 181.84C173.29 181.84 173.26 181.846 173.232 181.857C173.204 181.869 173.179 181.886 173.157 181.907C173.136 181.929 173.119 181.954 173.107 181.982C173.096 182.01 173.09 182.04 173.09 182.07Z" fill="white"/>
<path d="M176.591 177.641C176.45 177.641 176.315 177.696 176.216 177.796C176.116 177.895 176.061 178.03 176.061 178.171C176.061 178.311 176.116 178.446 176.216 178.545C176.315 178.645 176.45 178.701 176.591 178.701C176.698 178.703 176.803 178.671 176.891 178.611" stroke="#582C89" stroke-width="0.5" stroke-miterlimit="10"/>
<path d="M179.1 207.48C184.6 211.62 186.93 219.76 181.61 227.62C181.17 228.274 180.61 228.837 179.96 229.28C168.86 236.78 157.06 229.01 157.06 218.49C157.061 216.355 157.559 214.249 158.516 212.34C159.472 210.43 160.86 208.77 162.57 207.49H124.78V243.37C120.29 239.49 113.31 238.43 106.54 243.04C105.884 243.485 105.32 244.052 104.88 244.71C97.3697 255.85 105.17 267.71 115.74 267.71C119.045 267.704 122.238 266.511 124.74 264.35V299H216.29V207.48H179.1Z" fill="#DDE1E2"/>
<path d="M179.1 207.48C184.6 211.62 186.93 219.76 181.61 227.62C181.17 228.274 180.61 228.837 179.96 229.28C168.86 236.78 157.06 229.01 157.06 218.49C157.061 216.355 157.559 214.249 158.516 212.34C159.472 210.43 160.86 208.77 162.57 207.49H124.78V243.37C120.29 239.49 113.31 238.43 106.54 243.04C105.884 243.485 105.32 244.052 104.88 244.71C97.3697 255.85 105.17 267.71 115.74 267.71C119.045 267.704 122.238 266.511 124.74 264.35V299H216.29V207.48H179.1Z" stroke="#582C89" stroke-width="0.5" stroke-miterlimit="10"/>
<path d="M221.25 71.9102H129.75V106.74C134.14 102.38 141.47 100.96 148.51 105.74C149.151 106.18 149.704 106.736 150.14 107.38C157.62 118.38 149.89 130.18 139.41 130.18C135.787 130.178 132.313 128.74 129.75 126.18V163.4H167.1C161.99 167.63 160 175.5 165.1 183.04C165.535 183.688 166.092 184.245 166.74 184.68C177.74 192.17 189.54 184.43 189.54 173.96C189.537 171.94 189.088 169.946 188.223 168.12C187.359 166.294 186.101 164.682 184.54 163.4H221.21L221.25 71.9102Z" fill="white"/>
<path d="M221.25 71.9102H129.75V106.74C134.14 102.38 141.47 100.96 148.51 105.74C149.151 106.18 149.704 106.736 150.14 107.38C157.62 118.38 149.89 130.18 139.41 130.18C135.787 130.178 132.313 128.74 129.75 126.18V163.4H167.1C161.99 167.63 160 175.5 165.1 183.04C165.535 183.688 166.092 184.245 166.74 184.68C177.74 192.17 189.54 184.43 189.54 173.96C189.537 171.94 189.088 169.946 188.223 168.12C187.359 166.294 186.101 164.682 184.54 163.4H221.21L221.25 71.9102Z" stroke="#582C89" stroke-width="0.5" stroke-miterlimit="10"/>
<path d="M127.72 50.3605C120.78 45.6406 113.65 46.9206 109.23 51.0706V15.3105H17.7305V106.801H53.6505C48.6505 102.491 46.8505 94.6706 52.1405 87.1606C52.4426 86.7284 52.8183 86.3527 53.2505 86.0506C64.3205 78.2606 76.2505 86.0005 76.2505 96.5206C76.2526 98.4713 75.8338 100.4 75.0227 102.174C74.2116 103.948 73.0272 105.526 71.5504 106.801H109.25V71.0506C111.782 73.4393 115.13 74.7701 118.61 74.7706C129.08 74.7706 136.81 63.0305 129.36 52.0005C128.932 51.3543 128.381 50.7974 127.74 50.3605" fill="#DDE1E2"/>
<path d="M127.72 50.3605C120.78 45.6406 113.65 46.9206 109.23 51.0706V15.3105H17.7305V106.801H53.6505C48.6505 102.491 46.8505 94.6706 52.1405 87.1606C52.4426 86.7284 52.8183 86.3527 53.2505 86.0506C64.3205 78.2606 76.2505 86.0006 76.2505 96.5206C76.2526 98.4713 75.8338 100.4 75.0227 102.174C74.2116 103.948 73.0272 105.526 71.5504 106.801H109.25V71.0506C111.782 73.4393 115.13 74.7701 118.61 74.7706C129.08 74.7706 136.81 63.0305 129.36 52.0005C128.926 51.3524 128.369 50.7954 127.72 50.3605Z" stroke="#582C89" stroke-width="0.5" stroke-miterlimit="10"/>
<path d="M36.0499 160.9C31.3299 167.83 32.62 174.97 36.76 179.39H1V270.88H92.5V235C88.18 240 80.36 241.8 72.86 236.51C72.4278 236.208 72.0521 235.832 71.75 235.4C63.96 224.33 71.69 212.4 82.21 212.4C84.1617 212.4 86.0906 212.82 87.866 213.631C89.6413 214.442 91.2217 215.625 92.5 217.1V179.39H56.74C59.1293 176.855 60.46 173.503 60.46 170.02C60.46 159.55 48.7199 151.82 37.6899 159.27C37.0459 159.705 36.4895 160.258 36.0499 160.9Z" fill="#582C89"/>
<path d="M36.0499 160.9C31.3299 167.83 32.62 174.97 36.76 179.39H1V270.88H92.5V235C88.18 240 80.36 241.8 72.86 236.51C72.4278 236.208 72.0521 235.832 71.75 235.4C63.96 224.33 71.69 212.4 82.21 212.4C84.1617 212.4 86.0906 212.82 87.866 213.631C89.6413 214.442 91.2217 215.625 92.5 217.1V179.39H56.74C59.1293 176.855 60.46 173.503 60.46 170.02C60.46 159.55 48.7199 151.82 37.6899 159.27C37.0459 159.705 36.4895 160.258 36.0499 160.9Z" stroke="#582C89" stroke-width="0.5" stroke-miterlimit="10"/>
<path d="M189.59 80.5702L189.17 81.0101L188.07 79.1801C186.978 77.3771 186.169 75.4178 185.67 73.3701L185.35 71.9102H187.11L189.59 80.5702Z" fill="#582C89"/>
<path d="M173.199 71.9102H208.179" stroke="#582C89" stroke-width="0.5" stroke-miterlimit="10"/>
<path d="M240.16 43.13L253.41 40.38C254.261 40.2039 255.069 39.8614 255.788 39.3721C256.506 38.8828 257.121 38.2564 257.597 37.5289C258.073 36.8013 258.4 35.9869 258.56 35.1325C258.72 34.2781 258.71 33.4005 258.53 32.55L251.85 1L231.59 5.57001L240.16 43.13Z" fill="#DDE1E2"/>
<path d="M240.16 43.13L253.41 40.38C254.261 40.2039 255.069 39.8614 255.788 39.3721C256.506 38.8828 257.121 38.2564 257.597 37.5289C258.073 36.8013 258.4 35.9869 258.56 35.1325C258.72 34.2781 258.71 33.4005 258.53 32.55L251.85 1L231.59 5.57001L240.16 43.13Z" stroke="#582C89" stroke-width="0.5" stroke-miterlimit="10"/>
<path d="M185.589 17.2395L159.119 25.3295C159.119 25.3295 140.119 25.8395 132.909 25.3295C125.699 24.8195 125.909 17.6195 125.909 17.6195L201.799 12.2695" fill="white"/>
<path d="M185.589 17.2395L159.119 25.3295C159.119 25.3295 140.119 25.8395 132.909 25.3295C125.699 24.8195 125.909 17.6195 125.909 17.6195L201.799 12.2695" stroke="#582C89" stroke-width="0.5" stroke-miterlimit="10"/>
<path d="M185.589 17.2402L159.119 25.3302L125.889 39.3302C125.889 39.3302 127.939 44.8102 132.739 44.4702C137.539 44.1302 148.269 40.1702 153.609 38.3202C156.609 37.3202 164.219 34.5302 166.609 34.7902" fill="white"/>
<path d="M185.589 17.2402L159.119 25.3302L125.889 39.3302C125.889 39.3302 127.939 44.8102 132.739 44.4702C137.539 44.1302 148.269 40.1702 153.609 38.3202C156.609 37.3202 164.219 34.5302 166.609 34.7902" stroke="#582C89" stroke-width="0.5" stroke-miterlimit="10"/>
<path d="M243.16 2.95898L236.43 14.709L247.39 22.419L241.91 33.899L252.06 40.659" stroke="#582C89" stroke-width="0.5" stroke-miterlimit="10"/>
<path d="M240.16 43.1303L231.59 5.57031L194.81 13.8503C194.81 13.8503 175.81 19.1603 169.81 28.9303C163.81 38.7003 162.44 47.4303 166.55 56.1703C168.337 60.0606 170.42 63.8083 172.78 67.3803C174.107 69.3778 176.092 70.8465 178.39 71.5303C179.518 71.8312 180.684 71.9593 181.85 71.9103H184.7L179.4 60.7903C179.4 60.7903 172.55 47.7903 176.66 40.0603C180.77 32.3303 185.05 30.6403 190.37 31.8403C195.69 33.0403 199.96 38.6903 199.45 45.8403C198.94 52.9903 194.45 59.2003 193.45 60.9203C192.45 62.6403 186.45 69.3203 187.11 73.0903C187.612 75.5765 188.418 77.9914 189.51 80.2803L220.29 47.2103L240.16 43.1303Z" fill="white"/>
<path d="M240.16 43.1303L231.59 5.57031L194.81 13.8503C194.81 13.8503 175.81 19.1603 169.81 28.9303C163.81 38.7003 162.44 47.4303 166.55 56.1703C168.337 60.0606 170.42 63.8083 172.78 67.3803C174.107 69.3778 176.092 70.8465 178.39 71.5303C179.518 71.8312 180.684 71.9593 181.85 71.9103H184.7L179.4 60.7903C179.4 60.7903 172.55 47.7903 176.66 40.0603C180.77 32.3303 185.05 30.6403 190.37 31.8403C195.69 33.0403 199.96 38.6903 199.45 45.8403C198.94 52.9903 194.45 59.2003 193.45 60.9203C192.45 62.6403 186.45 69.3203 187.11 73.0903C187.612 75.5765 188.418 77.9914 189.51 80.2803L220.29 47.2103L240.16 43.1303Z" stroke="#582C89" stroke-width="0.5" stroke-miterlimit="10"/>
<path d="M63.1691 79.13C63.2643 79.1077 63.3631 79.1051 63.4594 79.1223C63.5556 79.1395 63.6475 79.1761 63.7291 79.23C64.1591 79.49 64.2791 80.76 64.2791 80.76C65.7891 83.56 65.4091 84.48 65.4091 84.48L63.2891 84.59L62.7991 83.1L61.1091 82.16L61.0391 81.67H62.2891C62.2891 81.67 61.4391 78.44 61.2891 77.89C61.1391 77.34 61.8891 77.64 61.9691 77.89C62.2191 78.66 62.6791 80.17 62.6791 80.17" fill="#F3F3F1"/>
<path d="M63.1691 79.13C63.2643 79.1077 63.3631 79.1051 63.4594 79.1223C63.5556 79.1395 63.6475 79.1761 63.7291 79.23C64.1591 79.49 64.2791 80.76 64.2791 80.76C65.7891 83.56 65.4091 84.48 65.4091 84.48L63.2891 84.59L62.7991 83.1L61.1091 82.16L61.0391 81.67H62.2891C62.2891 81.67 61.4391 78.44 61.2891 77.89C61.1391 77.34 61.8891 77.64 61.9691 77.89C62.2191 78.66 62.6791 80.17 62.6791 80.17" stroke="#582C89" stroke-width="0.5" stroke-miterlimit="10"/>
<path d="M63.4591 80.5694L62.9991 78.6294C62.9191 78.2894 62.6091 77.8794 62.1191 78.2394L62.7291 80.2394" fill="#F3F3F1"/>
<path d="M63.4591 80.5694L62.9991 78.6294C62.9191 78.2894 62.6091 77.8794 62.1191 78.2394L62.7291 80.2394" stroke="#582C89" stroke-width="0.5" stroke-miterlimit="10"/>
<path d="M71.0605 121.93L76.8304 122.2L76.8204 122.94L71.0605 121.93Z" fill="#582C89"/>
<path d="M63.0605 83.9094L63.2905 84.5894L65.4005 84.4794L65.4504 83.8594" fill="#582C89"/>
<path d="M63.0605 83.9094L63.2905 84.5894L65.4005 84.4794L65.4504 83.8594" stroke="#582C89" stroke-width="0.5" stroke-miterlimit="10"/>
<path d="M66.2798 176.229L69.0099 178.449L71.2399 178.199L68.8799 175.529L69.1299 172.529H66.27L66.1099 175.889C66.1064 175.962 66.1199 176.034 66.1495 176.1C66.179 176.166 66.2236 176.224 66.2798 176.269" fill="white"/>
<path d="M66.2793 176.229L69.0094 178.449L71.2394 178.199L68.8794 175.529L69.1294 172.529H66.2694L66.1094 175.889C66.1118 175.955 66.1283 176.019 66.1576 176.078C66.1869 176.136 66.2284 176.188 66.2793 176.229Z" stroke="#582C89" stroke-width="0.5" stroke-miterlimit="10"/>
<path d="M68.2695 177.709L66.1895 174.779" stroke="#582C89" stroke-width="0.5" stroke-linejoin="round"/>
<path d="M65.9688 176.08L68.2588 177.52C69.1112 178.061 70.1322 178.271 71.1288 178.11H71.2188L72.9487 178.82C73.0079 178.848 73.0566 178.894 73.0873 178.951C73.118 179.009 73.1291 179.075 73.1189 179.139C73.1087 179.204 73.0778 179.263 73.0309 179.308C72.9839 179.353 72.9235 179.382 72.8588 179.39L69.6587 179.52C68.7187 179.52 68.6587 178.4 67.8187 177.73C67.5384 177.519 67.2189 177.366 66.8788 177.28L67.7588 179.48L66.0387 179.54L65.9688 176.08Z" fill="#582C89"/>
<path d="M69.1298 173.289H66.2598V173.729H69.1298V173.289Z" fill="#582C89"/>
<path d="M75.4602 176.229L78.1902 178.449L80.4302 178.199L78.0702 175.529L78.3202 172.529H75.4502L75.3002 175.889C75.2946 175.961 75.3063 176.033 75.3341 176.099C75.3619 176.165 75.4052 176.223 75.4602 176.269" fill="white"/>
<path d="M75.4589 176.229L78.1888 178.449L80.4288 178.199L78.0688 175.529L78.3188 172.529H75.4489L75.2988 175.889C75.2994 175.954 75.3141 176.018 75.3417 176.077C75.3693 176.135 75.4093 176.188 75.4589 176.229Z" stroke="#582C89" stroke-width="0.5" stroke-miterlimit="10"/>
<path d="M77.4489 177.709L75.3789 174.779" stroke="#582C89" stroke-width="0.5" stroke-linejoin="round"/>
<path d="M75.1602 176.08L77.4502 177.52C78.2995 178.059 79.3168 178.269 80.3102 178.11H80.4102L82.1403 178.82C82.1997 178.848 82.2483 178.895 82.2786 178.953C82.3088 179.012 82.319 179.078 82.3076 179.143C82.2963 179.208 82.264 179.267 82.2157 179.312C82.1674 179.356 82.1056 179.384 82.0402 179.39L78.8402 179.52C77.9102 179.52 77.8402 178.4 77.0002 177.73C76.7211 177.517 76.4011 177.364 76.0602 177.28L76.9402 179.48L75.2302 179.54L75.1602 176.08Z" fill="#582C89"/>
<path d="M78.3192 173.289H75.4492V173.729H78.3192V173.289Z" fill="#582C89"/>
<path d="M80.0295 131.46C80.9295 137.03 84.2296 173.85 84.2296 173.85H63.3496C63.3496 173.85 65.8696 145.53 66.0396 136.37C66.0771 131.361 66.5254 126.365 67.3796 121.43L77.2196 123C78.3283 125.76 79.2666 128.585 80.0295 131.46Z" fill="#582C89"/>
<path d="M80.0295 131.46C80.9295 137.03 84.2296 173.85 84.2296 173.85H63.3496C63.3496 173.85 65.8696 145.53 66.0396 136.37C66.0771 131.361 66.5254 126.365 67.3796 121.43L77.2196 123C78.3283 125.76 79.2666 128.585 80.0295 131.46Z" stroke="#582C89" stroke-width="0.5" stroke-miterlimit="10"/>
<path d="M101.22 108.099C102.006 107.996 102.798 107.939 103.59 107.929C103.88 107.929 104.53 108.209 103.8 108.389C103.07 108.569 101.26 108.879 101.26 108.879L98.0503 108.069L96.9503 108.619L96.3203 107.029C96.3203 107.029 97.1204 106.779 97.3804 106.679C97.8643 106.485 98.3859 106.405 98.9058 106.443C99.4256 106.481 99.9299 106.637 100.38 106.899C100.38 106.899 101.76 106.269 102.38 106.799L102.7 107.249" fill="white"/>
<path d="M101.22 108.099C102.006 107.996 102.798 107.939 103.59 107.929C103.88 107.929 104.53 108.209 103.8 108.389C103.07 108.569 101.26 108.879 101.26 108.879L98.0503 108.069L96.9503 108.619L96.3203 107.029C96.3203 107.029 97.1204 106.779 97.3804 106.679C97.8643 106.485 98.3859 106.405 98.9058 106.443C99.4256 106.481 99.9299 106.637 100.38 106.899C100.38 106.899 101.76 106.269 102.38 106.799L102.7 107.249" stroke="#582C89" stroke-width="0.5" stroke-miterlimit="10"/>
<path d="M100.639 107.5C101.484 107.349 102.34 107.268 103.199 107.26C103.339 107.26 103.839 107.57 103.199 107.81C102.804 107.922 102.398 107.992 101.989 108.02L101.249 108.1" stroke="#582C89" stroke-width="0.5" stroke-miterlimit="10"/>
<path d="M96.9805 106.83L98.1705 108.03L97.6505 108.29L96.9805 106.83Z" fill="#582C89"/>
<path d="M78.8905 114.26L86.8905 116.81C87.2305 116.9 88.8905 117.43 89.8905 116.81C92.9183 114.922 95.6938 112.657 98.1505 110.07L96.6305 106.27L88.6305 112.7C86.8005 111.715 85.0245 110.634 83.3104 109.46L80.4604 107.46L78.5704 109.46C77.5704 110.57 75.5705 114.09 75.4805 115.6L76.8004 122.21L77.1804 169.88L84.6804 169.03L80.4604 114.82" fill="white"/>
<path d="M78.8905 114.26L86.8905 116.81C87.2305 116.9 88.8905 117.43 89.8905 116.81C92.9183 114.922 95.6938 112.657 98.1505 110.07L96.6305 106.27L88.6305 112.7C86.8005 111.715 85.0245 110.634 83.3104 109.46L80.4604 107.46L78.5704 109.46C77.5704 110.57 75.5705 114.09 75.4805 115.6L76.8004 122.21L77.1804 169.88L84.6804 169.03L80.4604 114.82" stroke="#582C89" stroke-width="0.5" stroke-miterlimit="10"/>
<path d="M78.2903 107C79.1903 107 78.1803 107.81 77.4603 108.42C77.0359 108.839 76.5283 109.166 75.9703 109.377C75.4124 109.589 74.8163 109.682 74.2203 109.65C72.8703 109.65 71.4603 106.57 71.0703 105.59C72.1118 106.088 73.1146 106.662 74.0703 107.31C74.0703 107.31 77.1703 107.01 78.3203 107" fill="white"/>
<path d="M78.2903 107C79.1903 107 78.1803 107.81 77.4603 108.42C77.0359 108.839 76.5283 109.166 75.9703 109.377C75.4124 109.589 74.8163 109.682 74.2203 109.65C72.8703 109.65 71.4603 106.57 71.0703 105.59C72.1118 106.088 73.1146 106.662 74.0703 107.31C74.0703 107.31 77.1403 107 78.2903 107Z" stroke="#582C89" stroke-width="0.5" stroke-miterlimit="10"/>
<path d="M80.2003 102.09C80.1616 103.939 80.7503 105.748 81.8704 107.22L80.5204 107.66L78.1504 106.93" fill="white"/>
<path d="M80.2003 102.09C80.1616 103.939 80.7503 105.748 81.8704 107.22L80.5204 107.66L78.1504 106.93" stroke="#582C89" stroke-width="0.5" stroke-miterlimit="10"/>
<path d="M71.5898 98.7992C71.5898 98.7992 72.1298 96.0292 74.5898 95.5292C77.0498 95.0292 78.3898 95.5292 79.5898 97.7392C81.6998 101.509 79.6499 106.559 77.8699 107.279H74.0398" fill="white"/>
<path d="M71.5898 98.7992C71.5898 98.7992 72.1298 96.0292 74.5898 95.5292C77.0498 95.0292 78.3898 95.5292 79.5898 97.7392C81.6998 101.509 79.6499 106.559 77.8699 107.279H74.0398" stroke="#582C89" stroke-width="0.5" stroke-miterlimit="10"/>
<path d="M75.039 105.54C77.039 105.38 78.119 103.97 77.809 99.9901C77.8263 99.5382 77.7414 99.0883 77.5603 98.674C77.3793 98.2596 77.1069 97.8915 76.7636 97.5972C76.4203 97.303 76.0148 97.0901 75.5777 96.9746C75.1405 96.859 74.6829 96.8438 74.239 96.9301C71.969 97.1001 71.099 98.4401 71.239 100.49C71.569 104.76 72.9191 105.7 75.0191 105.54" fill="#F3F3F1"/>
<path d="M75.039 105.54C77.039 105.38 78.119 103.97 77.809 99.9901C77.8263 99.5382 77.7414 99.0883 77.5603 98.674C77.3793 98.2596 77.1069 97.8915 76.7636 97.5972C76.4203 97.303 76.0148 97.0901 75.5777 96.9746C75.1405 96.859 74.6829 96.8438 74.239 96.9301C71.969 97.1001 71.099 98.4401 71.239 100.49C71.589 104.76 72.939 105.7 75.039 105.54Z" stroke="#582C89" stroke-width="0.5" stroke-miterlimit="10"/>
<path d="M84.3887 110.13C84.3887 110.13 82.1087 106.47 80.4987 106.76C79.5067 106.93 78.5045 107.033 77.4987 107.07C72.9887 107.07 71.6387 102.76 71.6387 102.76C72.2687 109.94 77.6386 111.02 80.0286 110.83C80.7586 110.77 82.4086 108.77 82.4086 108.77L84.3887 110.13Z" fill="white"/>
<path d="M84.3887 110.13C84.3887 110.13 82.1087 106.47 80.4987 106.76C79.5067 106.93 78.5045 107.033 77.4987 107.07C72.9887 107.07 71.6387 102.76 71.6387 102.76C72.2687 109.94 77.6386 111.02 80.0286 110.83C80.7586 110.77 82.4086 108.77 82.4086 108.77L84.3887 110.13Z" stroke="#582C89" stroke-width="0.5" stroke-miterlimit="10"/>
<path d="M71.3294 101.229C71.3294 101.229 71.0894 98.029 72.0494 97.569C74.6594 96.319 76.0494 97.149 76.0494 97.149C75.3109 97.7063 74.5167 98.1855 73.6794 98.579C71.1294 99.779 71.3394 101.229 71.3394 101.229" fill="#582C89"/>
<path d="M66.5892 99.9995L65.7192 84.4395L62.7192 84.5995L61.7192 97.5995C61.4292 99.2695 62.2292 101.179 62.9292 102.709C63.7492 104.499 66.6692 109.779 66.6692 109.779C66.6692 109.779 67.2292 116.699 67.1092 118.239L62.9292 169.019L68.0692 169.379L71.6892 120.859L72.6892 117.439C72.9682 116.543 73.0198 115.591 72.8392 114.669L71.1092 105.509C70.1092 104.559 66.6092 99.9895 66.6092 99.9895" fill="white"/>
<path d="M66.5892 99.9995L65.7192 84.4395L62.7192 84.5995L61.7192 97.5995C61.4292 99.2695 62.2292 101.179 62.9292 102.709C63.7492 104.499 66.6692 109.779 66.6692 109.779C66.6692 109.779 67.2292 116.699 67.1092 118.239L62.9292 169.019L68.0692 169.379L71.6892 120.859L72.6892 117.439C72.9682 116.543 73.0198 115.591 72.8392 114.669L71.1092 105.509C70.0992 104.609 66.5892 99.9995 66.5892 99.9995Z" stroke="#582C89" stroke-width="0.5" stroke-miterlimit="10"/>
<path d="M77.5195 125.879H78.4795" stroke="#582C89" stroke-width="0.5" stroke-miterlimit="10"/>
<path d="M77.5195 122.199H78.4795" stroke="#582C89" stroke-width="0.5" stroke-miterlimit="10"/>
<path d="M77.5195 118.75H78.4795" stroke="#582C89" stroke-width="0.5" stroke-miterlimit="10"/>
<path d="M77.5195 129.84H78.4795" stroke="#582C89" stroke-width="0.5" stroke-miterlimit="10"/>
<path d="M66.3398 109.33L67.6599 112.11" stroke="#582C89" stroke-width="0.5" stroke-miterlimit="10"/>
<path d="M197.299 245.5L232.489 354.91" stroke="#582C89" stroke-width="0.5" stroke-miterlimit="10"/>
<path d="M179.23 245.5L214.421 354.91" stroke="#582C89" stroke-width="0.5" stroke-miterlimit="10"/>
<path d="M200.09 254.34H182.07" stroke="#582C89" stroke-width="0.5" stroke-miterlimit="10"/>
<path d="M203.52 264.939H185.51" stroke="#582C89" stroke-width="0.5" stroke-miterlimit="10"/>
<path d="M207 275.539H188.98" stroke="#582C89" stroke-width="0.5" stroke-miterlimit="10"/>
<path d="M210.299 286.279H192.289" stroke="#582C89" stroke-width="0.5" stroke-miterlimit="10"/>
<path d="M213.709 297.02H195.689" stroke="#582C89" stroke-width="0.5" stroke-miterlimit="10"/>
<path d="M217.52 308.17H199.51" stroke="#582C89" stroke-width="0.5" stroke-miterlimit="10"/>
<path d="M221.039 319.33H203.029" stroke="#582C89" stroke-width="0.5" stroke-miterlimit="10"/>
<path d="M225.039 331.33H207.029" stroke="#582C89" stroke-width="0.5" stroke-miterlimit="10"/>
<path d="M193.099 172.88C192.444 172.821 191.786 172.943 191.195 173.232C190.605 173.521 190.105 173.966 189.749 174.52C188.796 175.959 188.42 177.706 188.699 179.41C188.889 179.8 189.17 180.139 189.518 180.398C189.866 180.658 190.271 180.83 190.699 180.9" fill="#F3F3F1"/>
<path d="M193.099 172.88C192.444 172.821 191.786 172.943 191.195 173.232C190.605 173.521 190.105 173.966 189.749 174.52C188.796 175.959 188.42 177.706 188.699 179.41C188.889 179.8 189.17 180.139 189.518 180.398C189.866 180.658 190.271 180.83 190.699 180.9" stroke="#582C89" stroke-width="0.5" stroke-miterlimit="10"/>
<path d="M192.741 176.88C192.439 175.587 192.044 174.317 191.561 173.08" stroke="#582C89" stroke-width="0.5" stroke-miterlimit="10"/>
<path d="M192.379 175.78C191.891 175.582 191.449 175.286 191.079 174.91C190.649 174.39 190.469 173.91 190.609 173.59C190.749 173.27 191.549 172.78 191.679 173.39C191.809 174 192.379 175.78 192.379 175.78Z" fill="#582C89"/>
<path d="M196.9 179.869C196.703 180.99 196.572 182.122 196.51 183.259C196.426 183.951 196.566 184.653 196.91 185.259C196.91 185.259 193.73 185.079 193.1 184.959C192.482 184.774 191.885 184.522 191.32 184.209" fill="#DDE1E2"/>
<path d="M196.9 179.869C196.703 180.99 196.572 182.122 196.51 183.259C196.426 183.951 196.566 184.653 196.91 185.259C196.91 185.259 193.73 185.079 193.1 184.959C192.482 184.774 191.885 184.522 191.32 184.209" stroke="#582C89" stroke-width="0.5" stroke-miterlimit="10"/>
<path d="M191.32 184.249C192.405 183.708 193.457 183.104 194.47 182.439C195.772 181.721 196.736 180.517 197.15 179.089C197.58 177.089 197.39 175.569 196.44 174.369C196.063 173.85 195.556 173.438 194.969 173.177C194.383 172.915 193.738 172.813 193.1 172.879C193.1 172.879 193.31 177.319 191.57 179.729L189.75 182.219" fill="#DDE1E2"/>
<path d="M191.32 184.249C192.405 183.708 193.457 183.104 194.47 182.439C195.772 181.721 196.736 180.517 197.15 179.089C197.58 177.089 197.39 175.569 196.44 174.369C196.063 173.85 195.556 173.438 194.969 173.177C194.383 172.915 193.738 172.813 193.1 172.879C193.1 172.879 193.31 177.319 191.57 179.729L189.75 182.219" stroke="#582C89" stroke-width="0.5" stroke-miterlimit="10"/>
<path d="M183.779 252.919C184.653 253.124 185.571 253.021 186.379 252.629C187.379 251.969 188.909 251.049 188.909 251.049V254.169H187.419L188.029 252.299C187.361 252.516 186.77 252.922 186.329 253.469C185.569 254.409 184.859 254.249 184.859 254.249L182.139 254.129C182.139 254.129 181.769 253.869 182.139 253.649C182.509 253.429 183.779 252.919 183.779 252.919Z" fill="#582C89"/>
<path d="M186.34 252.879L188.69 249.689" stroke="#582C89" stroke-width="0.5" stroke-miterlimit="10"/>
<path d="M183.82 253.23L186.01 249.97L186.47 248.06L188.52 247.02L188.69 250.63V251.61" stroke="#582C89" stroke-width="0.5" stroke-miterlimit="10"/>
<path d="M193.871 252.919C194.745 253.124 195.663 253.021 196.471 252.629C197.421 251.969 199.001 251.049 199.001 251.049V254.169H197.511L198.111 252.299C197.442 252.516 196.852 252.922 196.41 253.469C195.66 254.409 194.951 254.249 194.951 254.249L192.221 254.129C192.221 254.129 191.861 253.869 192.221 253.649C192.581 253.429 193.871 252.919 193.871 252.919Z" fill="#582C89"/>
<path d="M196.43 252.879L198.65 249.689" stroke="#582C89" stroke-width="0.5" stroke-miterlimit="10"/>
<path d="M193.9 253.23L196.1 249.97L196.08 248.55L198.14 247.51L198.77 250.63V251.61" stroke="#582C89" stroke-width="0.5" stroke-miterlimit="10"/>
<path d="M199.919 208.15V190.92C199.919 190.92 200.229 186.11 196.919 185.3C193.609 184.49 191.919 186.36 189.599 181.93L188.709 179.41C188.709 179.41 190.439 186.34 190.619 186.73C190.799 187.12 191.189 188.41 193.529 187.33C195.869 186.25 197.849 187.33 197.819 190.33C197.789 193.33 197.879 209.84 197.879 209.84L199.919 208.15Z" fill="#DDE1E2"/>
<path d="M199.919 208.15V190.92C199.919 190.92 200.229 186.11 196.919 185.3C193.609 184.49 191.919 186.36 189.599 181.93L188.709 179.41C188.709 179.41 190.439 186.34 190.619 186.73C190.799 187.12 191.189 188.41 193.529 187.33C195.869 186.25 197.849 187.33 197.819 190.33C197.789 193.33 197.879 209.84 197.879 209.84L199.919 208.15Z" stroke="#582C89" stroke-width="0.5" stroke-miterlimit="10"/>
<path d="M190.12 184.85C190.12 184.85 187.38 187.04 187.4 188.85" stroke="#582C89" stroke-width="0.5" stroke-miterlimit="10"/>
<path d="M196.819 181.84C196.819 181.84 194.939 182.62 193.469 183.08C193.469 183.08 196.289 181.39 196.469 180.6C196.469 180.6 196.999 179.83 196.699 181.15" fill="#582C89"/>
<path d="M189.59 182.26C189.262 181.485 189.03 180.672 188.9 179.84C189.409 180.301 189.977 180.691 190.59 181L190.4 181.3C190.22 181.58 189.58 182.3 189.58 182.3" fill="#582C89"/>
<path d="M189.59 182.439C189.59 182.439 188.181 184.149 187.901 184.619C186.606 186.309 185.645 188.23 185.07 190.279C184.765 191.624 184.62 193.001 184.641 194.379" stroke="#582C89" stroke-width="0.5" stroke-miterlimit="10"/>
<path d="M174.09 187.14L173.39 186.65L171.84 188.85L173.6 190.28L174.09 187.14Z" fill="#582C89"/>
<path d="M174.09 187.14L173.39 186.65L171.84 188.85L173.6 190.28L174.09 187.14Z" fill="#DDE1E2"/>
<path d="M174.09 187.14L173.39 186.65L171.84 188.85L173.6 190.28L174.09 187.14Z" stroke="#582C89" stroke-width="0.5" stroke-miterlimit="10"/>
<path d="M184.359 199.12L182.209 249.04L200.929 248.99L196.679 199.32L197.819 192.91" fill="white"/>
<path d="M184.359 199.12L182.209 249.04L200.929 248.99L196.679 199.32L197.819 192.91" stroke="#582C89" stroke-width="0.5" stroke-miterlimit="10"/>
<path d="M194.59 193.809C194.59 193.809 186.71 198.399 185.99 198.649C185.273 198.888 184.526 199.03 183.771 199.069C183.297 199.022 182.836 198.89 182.41 198.679C179.256 196.939 176.192 195.04 173.23 192.989C173.23 192.989 173.86 187.989 174 187.329L174.06 187.149C174.06 187.149 183.27 193.499 184.38 194.389C184.411 194.415 184.45 194.43 184.49 194.43C184.531 194.43 184.57 194.415 184.6 194.389C187.025 192.213 189.569 190.173 192.22 188.279C194.67 186.689 195.17 186.879 195.84 187.009" fill="#F3F3F1"/>
<path d="M194.59 193.809C194.59 193.809 186.71 198.399 185.99 198.649C185.273 198.888 184.526 199.03 183.771 199.069C183.297 199.022 182.836 198.89 182.41 198.679C179.256 196.939 176.192 195.04 173.23 192.989L174.06 187.149C174.06 187.149 183.27 193.499 184.38 194.389C184.411 194.415 184.45 194.43 184.49 194.43C184.531 194.43 184.57 194.415 184.6 194.389C187.025 192.213 189.569 190.173 192.22 188.279C194.67 186.689 195.17 186.879 195.84 187.009" stroke="#582C89" stroke-width="0.5" stroke-miterlimit="10"/>
<path d="M175.979 193.931C175.977 193.968 175.984 194.006 175.997 194.041C176.01 194.076 176.031 194.108 176.057 194.135C176.083 194.162 176.115 194.184 176.149 194.198C176.184 194.213 176.221 194.221 176.259 194.221C176.336 194.221 176.409 194.19 176.464 194.136C176.518 194.081 176.549 194.008 176.549 193.931C176.549 193.854 176.518 193.78 176.464 193.726C176.409 193.671 176.336 193.641 176.259 193.641C176.221 193.641 176.184 193.648 176.149 193.663C176.115 193.678 176.083 193.699 176.057 193.726C176.031 193.753 176.01 193.785 175.997 193.82C175.984 193.856 175.977 193.893 175.979 193.931Z" fill="#582C89"/>
<path d="M174.09 190.279C174.088 190.377 174.115 190.473 174.168 190.555C174.221 190.637 174.298 190.701 174.388 190.74C174.478 190.778 174.577 190.788 174.673 190.77C174.769 190.751 174.857 190.704 174.926 190.635C174.995 190.566 175.042 190.478 175.061 190.382C175.079 190.286 175.069 190.187 175.031 190.097C174.992 190.007 174.928 189.93 174.846 189.877C174.764 189.824 174.668 189.797 174.57 189.799C174.443 189.799 174.321 189.85 174.231 189.94C174.141 190.03 174.09 190.152 174.09 190.279Z" stroke="#582C89" stroke-width="0.5" stroke-miterlimit="10"/>
<path d="M175.939 192.3C175.939 192.369 175.953 192.437 175.98 192.501C176.007 192.565 176.046 192.622 176.095 192.671C176.145 192.719 176.203 192.757 176.267 192.783C176.332 192.808 176.4 192.821 176.469 192.82C176.607 192.82 176.74 192.765 176.837 192.667C176.935 192.57 176.99 192.437 176.99 192.3C176.991 192.23 176.978 192.162 176.953 192.097C176.927 192.033 176.889 191.975 176.841 191.925C176.792 191.876 176.735 191.837 176.671 191.81C176.607 191.783 176.539 191.77 176.469 191.77C176.329 191.77 176.194 191.825 176.095 191.925C175.995 192.024 175.939 192.159 175.939 192.3Z" stroke="#582C89" stroke-width="0.5" stroke-miterlimit="10"/>
<path d="M176.52 188.82C176.452 188.909 176.416 189.018 176.42 189.13C176.42 189.199 176.434 189.268 176.461 189.332C176.487 189.395 176.527 189.453 176.576 189.502C176.625 189.55 176.684 189.588 176.748 189.614C176.812 189.639 176.881 189.652 176.95 189.65C177.035 189.651 177.119 189.63 177.194 189.59C177.27 189.55 177.334 189.492 177.38 189.42" stroke="#582C89" stroke-width="0.5" stroke-miterlimit="10"/>
<path d="M174.589 193.869C174.649 193.781 174.681 193.676 174.679 193.569C174.68 193.5 174.668 193.431 174.642 193.367C174.617 193.303 174.578 193.244 174.53 193.195C174.482 193.146 174.424 193.106 174.36 193.08C174.296 193.053 174.228 193.039 174.159 193.039C174.073 193.042 173.989 193.064 173.912 193.104C173.836 193.143 173.77 193.2 173.719 193.269" stroke="#582C89" stroke-width="0.5" stroke-miterlimit="10"/>
<path d="M174.09 191.919C174.09 191.996 174.12 192.07 174.175 192.124C174.229 192.178 174.303 192.209 174.38 192.209C174.457 192.209 174.531 192.178 174.585 192.124C174.639 192.07 174.67 191.996 174.67 191.919C174.67 191.842 174.639 191.768 174.585 191.714C174.531 191.659 174.457 191.629 174.38 191.629C174.303 191.629 174.229 191.659 174.175 191.714C174.12 191.768 174.09 191.842 174.09 191.919Z" fill="#582C89"/>
<path d="M174.59 188.601C174.59 188.677 174.62 188.751 174.675 188.806C174.729 188.86 174.803 188.891 174.88 188.891C174.957 188.891 175.031 188.86 175.085 188.806C175.139 188.751 175.17 188.677 175.17 188.601C175.17 188.524 175.139 188.45 175.085 188.395C175.031 188.341 174.957 188.311 174.88 188.311C174.803 188.311 174.729 188.341 174.675 188.395C174.62 188.45 174.59 188.524 174.59 188.601Z" fill="#582C89"/>
<path d="M176.419 190.65C176.411 190.692 176.413 190.735 176.423 190.777C176.434 190.818 176.454 190.856 176.481 190.889C176.508 190.922 176.542 190.948 176.581 190.967C176.619 190.985 176.661 190.994 176.704 190.994C176.747 190.994 176.789 190.985 176.827 190.967C176.866 190.948 176.9 190.922 176.927 190.889C176.955 190.856 176.974 190.818 176.985 190.777C176.996 190.735 176.997 190.692 176.989 190.65C176.977 190.584 176.941 190.524 176.889 190.481C176.837 190.438 176.772 190.414 176.704 190.414C176.636 190.414 176.571 190.438 176.519 190.481C176.467 190.524 176.432 190.584 176.419 190.65Z" fill="#582C89"/>
<path d="M169.979 186C169.001 185.542 168.202 184.772 167.709 183.81C167.459 183.33 168.049 183.37 168.649 184.14C169.246 184.731 169.967 185.182 170.759 185.46C170.609 185.24 169.839 184.05 170.029 183.91C170.219 183.77 170.479 184.14 171.219 184.72C171.745 185.207 172.167 185.796 172.459 186.45C172.53 186.581 172.638 186.689 172.769 186.76L173.079 186.92L172.079 188.67L169.359 187.24C169.003 186.74 168.736 186.182 168.569 185.59" fill="#F3F3F1"/>
<path d="M169.979 186C169.001 185.542 168.202 184.772 167.709 183.81C167.459 183.33 168.049 183.37 168.649 184.14C169.246 184.731 169.967 185.182 170.759 185.46C170.609 185.24 169.839 184.05 170.029 183.91C170.219 183.77 170.479 184.14 171.219 184.72C171.745 185.207 172.167 185.796 172.459 186.45C172.53 186.581 172.638 186.689 172.769 186.76L173.079 186.92L172.079 188.67L169.359 187.24C169.003 186.74 168.736 186.182 168.569 185.59" stroke="#582C89" stroke-width="0.5" stroke-linecap="round" stroke-linejoin="round"/>
<path d="M169.769 186.719C169.378 186.562 169.039 186.297 168.791 185.956C168.543 185.614 168.397 185.21 168.369 184.789" stroke="#582C89" stroke-width="0.5" stroke-linecap="round" stroke-linejoin="round"/>
<path d="M200.931 248.99L199.561 233.02V248.99H200.931Z" fill="#582C89"/>
<path d="M198.45 249.039L196.09 249.639V249.039H198.45Z" fill="#582C89"/>
<path d="M188.61 249.039L186.1 249.579L186.25 249.039H188.61Z" fill="#582C89"/>
<path d="M194.729 194L184.469 200.89L184.359 199.15L185.659 198.9C186.13 198.708 186.579 198.466 186.999 198.18L189.129 197L194.729 194Z" fill="#582C89"/>
</svg>
