<svg width="275" height="335" viewBox="0 0 275 335" fill="none" xmlns="http://www.w3.org/2000/svg">
<path d="M163.795 97.4004C158.075 77.7604 142.635 74.5304 130.845 76.5004C115.405 79.0804 107.965 89.8304 103.725 117.64C100.825 136.64 98.8945 171.64 98.8945 171.64L178.785 171.17C178.785 171.17 170.395 120.08 163.785 97.4204" fill="#F3F3F1"/>
<path d="M163.795 97.4004C158.075 77.7604 142.635 74.5304 130.845 76.5004C115.405 79.0804 107.965 89.8304 103.725 117.64C100.825 136.64 98.8945 171.64 98.8945 171.64L178.785 171.17C178.785 171.17 170.395 120.08 163.785 97.4204" stroke="#582C89" stroke-width="1.5" stroke-miterlimit="10"/>
<path d="M213.915 263.36L200.455 199.69C199.565 191.327 195.881 183.509 189.998 177.499C184.115 171.489 176.377 167.638 168.035 166.57L165.985 166.26L164.445 302.81V333.34H195.735C194.395 321.11 189.685 293.05 187.225 281" fill="#F3F3F1"/>
<path d="M213.915 263.36L200.455 199.69C199.565 191.327 195.881 183.509 189.998 177.499C184.115 171.489 176.377 167.638 168.035 166.57L165.985 166.26L164.445 302.81V333.34H195.735C194.395 321.11 189.685 293.05 187.225 281" stroke="#582C89" stroke-width="1.5" stroke-miterlimit="10"/>
<path d="M166.015 166.26H116.975V282.65H166.015V166.26Z" fill="#F3F3F1"/>
<path d="M166.015 166.26H116.975V282.65H166.015V166.26Z" stroke="#582C89" stroke-width="1.5" stroke-miterlimit="10"/>
<path d="M138.934 141.619C158.624 142.619 165.184 127.159 166.874 115.949C167.091 114.101 167.165 112.239 167.094 110.379C167.094 109.649 167.204 110.489 167.204 110.489C168.411 115.649 169.578 120.946 170.704 126.379C172.211 133.712 173.544 140.879 174.704 147.879C171.814 156.129 164.934 172.319 148.704 184.789C143.185 189.11 137.094 192.647 130.604 195.299C111.244 158.559 114.984 108.619 116.524 100.039C116.524 100.039 111.524 140.229 138.964 141.619" fill="#EFF0F1"/>
<path d="M138.934 141.619C158.624 142.619 165.184 127.159 166.874 115.949C167.091 114.101 167.165 112.239 167.094 110.379C167.094 109.649 167.204 110.489 167.204 110.489C168.411 115.649 169.578 120.946 170.704 126.379C172.211 133.712 173.544 140.879 174.704 147.879C171.814 156.129 164.934 172.319 148.704 184.789C143.185 189.11 137.094 192.647 130.604 195.299C111.244 158.559 114.984 108.619 116.524 100.039C116.494 100.039 111.464 140.229 138.934 141.619Z" stroke="#582C89" stroke-width="1.5" stroke-miterlimit="10"/>
<path d="M75.2656 198.25C76.5625 189.362 81.0147 181.238 87.8084 175.362C94.6022 169.486 103.284 166.252 112.266 166.25H117.036V268.25L116.206 333.25H85.9356L98.9356 284.38" fill="#F3F3F1"/>
<path d="M75.2656 198.25C76.5625 189.362 81.0147 181.238 87.8084 175.362C94.6022 169.486 103.284 166.252 112.266 166.25H117.036V268.25L116.206 333.25H85.9356L98.9356 284.38" stroke="#582C89" stroke-width="1.5" stroke-miterlimit="10"/>
<path d="M115.655 109.259C115.995 93.2593 120.365 86.4993 132.335 84.4993C144.305 82.4993 161.735 86.9593 158.275 118.359C157.145 128.559 152.425 140.799 138.475 141.529C125.575 142.209 115.275 127.669 115.655 109.259Z" fill="#EFF0F1"/>
<path d="M115.655 109.259C115.995 93.2593 120.365 86.4993 132.335 84.4993C144.305 82.4993 161.735 86.9593 158.275 118.359C157.145 128.559 152.425 140.799 138.475 141.529C125.575 142.209 115.275 127.669 115.655 109.259Z" stroke="#582C89" stroke-width="1.5" stroke-miterlimit="10"/>
<path d="M134.535 160.139C134.535 160.139 151.695 161.459 160.055 141.439Z" fill="#F3F3F1"/>
<path d="M134.535 160.139C134.535 160.139 151.695 161.459 160.055 141.439" stroke="#582C89" stroke-width="1.5" stroke-miterlimit="10"/>
<path d="M116.036 103.34C116.036 103.34 122.636 94.5397 136.036 92.9997C149.436 91.4597 156.486 96.9397 156.486 96.9397C156.486 96.9397 151.086 81.1997 132.296 84.4997C115.646 87.4297 116.036 103.34 116.036 103.34Z" fill="#582C89"/>
<path d="M116.036 103.34C116.036 103.34 122.636 94.5397 136.036 92.9997C149.436 91.4597 156.486 96.9397 156.486 96.9397C156.486 96.9397 151.086 81.1997 132.296 84.4997C115.646 87.4297 116.036 103.34 116.036 103.34Z" stroke="#582C89" stroke-width="1.5" stroke-miterlimit="10"/>
<path d="M14.2449 98.6387L136.995 134.279V295.389L12.5449 259.739L14.2449 98.6387Z" fill="#F3F3F1"/>
<path d="M14.2449 98.6387L136.995 134.279V295.389L12.5449 259.739L14.2449 98.6387Z" stroke="#582C89" stroke-width="1.5" stroke-miterlimit="10"/>
<path d="M14.2455 98.6387L136.996 134.279V163.449L13.9355 128.119L14.2455 98.6387Z" fill="#EFF0F1"/>
<path d="M14.2455 98.6387L136.996 134.279V163.449L13.9355 128.119L14.2455 98.6387Z" stroke="#582C89" stroke-width="1.5" stroke-miterlimit="10"/>
<path d="M261.436 98.6387L136.996 134.279V295.389L261.436 259.739V98.6387Z" fill="#F3F3F1"/>
<path d="M261.436 98.6387L136.996 134.279V295.389L261.436 259.739V98.6387Z" stroke="#582C89" stroke-width="1.5" stroke-miterlimit="10"/>
<path d="M261.436 98.6387L136.996 134.279V163.409L261.436 127.769V98.6387Z" fill="#EFF0F1"/>
<path d="M261.436 98.6387L136.996 134.279V163.409L261.436 127.769V98.6387Z" stroke="#582C89" stroke-width="1.5" stroke-miterlimit="10"/>
<path d="M255.265 111.74L248.785 120.37" stroke="#582C89" stroke-width="1.5" stroke-miterlimit="10"/>
<path d="M247.715 112.811L256.345 119.301" stroke="#582C89" stroke-width="1.5" stroke-miterlimit="10"/>
<path d="M45.5352 173.779L136.995 199.889V229.439L45.5352 203.329V173.779Z" fill="#EFF0F1"/>
<path d="M45.5352 173.779L136.995 199.889V229.439L45.5352 203.329V173.779Z" stroke="#582C89" stroke-width="1.5" stroke-miterlimit="10"/>
<path d="M165.086 192.119L136.996 199.989V229.259L165.086 221.379V192.119Z" fill="#EFF0F1"/>
<path d="M165.086 192.119L136.996 199.989V229.259L165.086 221.379V192.119Z" stroke="#582C89" stroke-width="1.5" stroke-miterlimit="10"/>
<path d="M153.316 208.35C153.318 209.278 153.044 210.186 152.53 210.958C152.016 211.731 151.284 212.333 150.427 212.69C149.57 213.047 148.627 213.141 147.717 212.961C146.806 212.781 145.97 212.335 145.313 211.68C144.656 211.024 144.208 210.189 144.026 209.279C143.845 208.369 143.937 207.425 144.292 206.567C144.646 205.71 145.247 204.977 146.019 204.461C146.79 203.945 147.698 203.67 148.626 203.67C149.868 203.67 151.059 204.163 151.938 205.04C152.818 205.917 153.313 207.108 153.316 208.35Z" fill="#EFF0F1"/>
<path d="M153.316 208.35C153.318 209.278 153.044 210.186 152.53 210.958C152.016 211.731 151.284 212.333 150.427 212.69C149.57 213.047 148.627 213.141 147.717 212.961C146.806 212.781 145.97 212.335 145.313 211.68C144.656 211.024 144.208 210.189 144.026 209.279C143.845 208.369 143.937 207.425 144.292 206.567C144.646 205.71 145.247 204.977 146.019 204.461C146.79 203.945 147.698 203.67 148.626 203.67C149.868 203.67 151.059 204.163 151.938 205.04C152.818 205.917 153.313 207.108 153.316 208.35Z" stroke="#582C89" stroke-width="1.5" stroke-miterlimit="10"/>
<path d="M151.445 212.07L157.565 218.19" stroke="#582C89" stroke-width="1.5" stroke-miterlimit="10"/>
<path d="M36.8447 118.969C36.8245 119.524 36.6399 120.062 36.3143 120.512C35.9887 120.963 35.5367 121.307 35.0155 121.501C34.4943 121.694 33.9273 121.729 33.3864 121.6C32.8455 121.472 32.3549 121.185 31.9767 120.778C31.5985 120.37 31.3497 119.86 31.2619 119.311C31.174 118.762 31.251 118.199 31.4831 117.694C31.7153 117.188 32.0921 116.763 32.5658 116.472C33.0396 116.181 33.5891 116.037 34.1447 116.059C34.5134 116.072 34.8758 116.157 35.2113 116.311C35.5468 116.464 35.8486 116.682 36.0995 116.953C36.3504 117.223 36.5454 117.54 36.6733 117.886C36.8012 118.232 36.8594 118.6 36.8447 118.969Z" fill="#582C89"/>
<path d="M48.3447 122.219C48.3245 122.774 48.1399 123.312 47.8143 123.762C47.4887 124.213 47.0367 124.557 46.5155 124.751C45.9943 124.944 45.4273 124.979 44.8864 124.85C44.3455 124.722 43.8549 124.435 43.4767 124.028C43.0985 123.62 42.8497 123.11 42.7619 122.561C42.674 122.012 42.751 121.449 42.9831 120.944C43.2153 120.438 43.5921 120.013 44.0658 119.722C44.5396 119.431 45.0891 119.287 45.6447 119.309C46.3884 119.337 47.0903 119.66 47.5965 120.205C48.1027 120.751 48.3718 121.475 48.3447 122.219Z" fill="#582C89"/>
<path d="M59.8447 125.469C59.8245 126.024 59.6399 126.562 59.3143 127.012C58.9887 127.463 58.5367 127.807 58.0155 128.001C57.4943 128.194 56.9273 128.229 56.3864 128.1C55.8455 127.972 55.3549 127.685 54.9767 127.278C54.5985 126.87 54.3497 126.36 54.2619 125.811C54.174 125.262 54.251 124.699 54.4831 124.194C54.7153 123.688 55.0921 123.263 55.5658 122.972C56.0396 122.681 56.5891 122.537 57.1447 122.559C57.8884 122.587 58.5903 122.91 59.0965 123.455C59.6027 124.001 59.8718 124.725 59.8447 125.469Z" fill="#582C89"/>
<path d="M210.615 160.74L245.645 150.77" stroke="#582C89" stroke-width="1.5" stroke-miterlimit="10"/>
<path d="M210.615 169.009L245.645 159.039" stroke="#582C89" stroke-width="1.5" stroke-miterlimit="10"/>
<path d="M183.346 189.359L245.646 171.389" stroke="#582C89" stroke-width="1.5" stroke-miterlimit="10"/>
<path d="M183.346 199.189L245.646 181.219" stroke="#582C89" stroke-width="1.5" stroke-miterlimit="10"/>
<path d="M183.346 209.019L245.646 191.049" stroke="#582C89" stroke-width="1.5" stroke-miterlimit="10"/>
<path d="M183.346 218.849L245.646 200.879" stroke="#582C89" stroke-width="1.5" stroke-miterlimit="10"/>
<path d="M21.7754 159.039L38.5054 149.209" stroke="#582C89" stroke-width="1.5" stroke-miterlimit="10"/>
<path d="M35.4355 159.04L45.5356 152.07" stroke="#582C89" stroke-width="1.5" stroke-miterlimit="10"/>
<path d="M245.644 215.129L216.734 223.409V260.829L245.644 252.549V215.129Z" fill="#F3F3F1"/>
<path d="M245.644 215.129L216.734 223.409V260.829L245.644 252.549V215.129Z" stroke="#582C89" stroke-width="1.5" stroke-miterlimit="10"/>
<path d="M12.4857 235.789C12.3457 237.989 15.8057 239.999 17.6357 240.899C18.6455 241.396 19.6151 241.971 20.5356 242.619C21.3194 243.106 22.0327 243.698 22.6556 244.379C23.0415 245.099 23.145 245.937 22.9457 246.729L21.7057 249.019L21.1156 250.219C20.7797 250.622 20.3417 250.927 19.8474 251.103C19.3531 251.279 18.8206 251.319 18.3056 251.219L16.5256 250.899L15.3756 252.239C15.0647 252.726 14.6054 253.101 14.0653 253.308C13.5252 253.516 12.9329 253.544 12.3756 253.389L2.62564 249.789C2.62564 249.789 -1.58434 242.259 3.54566 235.669L12.9356 223.139V229.349C12.9356 231.509 12.6756 233.649 12.5356 235.799" fill="#EFF0F1"/>
<path d="M12.4857 235.789C12.3457 237.989 15.8057 239.999 17.6357 240.899C18.6455 241.396 19.6151 241.971 20.5356 242.619C21.3194 243.106 22.0327 243.698 22.6556 244.379C23.0415 245.099 23.145 245.937 22.9457 246.729L21.7057 249.019L21.1156 250.219C20.7797 250.622 20.3417 250.927 19.8474 251.103C19.3531 251.279 18.8206 251.319 18.3056 251.219L16.5256 250.899L15.3756 252.239C15.0647 252.726 14.6054 253.101 14.0653 253.308C13.5252 253.516 12.9329 253.544 12.3756 253.389L2.62564 249.789C2.62564 249.789 -1.58434 242.259 3.54566 235.669L12.9356 223.139V229.349C12.8656 231.499 12.6257 233.639 12.4857 235.789Z" stroke="#582C89" stroke-width="1.5" stroke-miterlimit="10"/>
<path d="M9.06445 248.029L17.5845 251.109" stroke="#582C89" stroke-width="1.5" stroke-miterlimit="10"/>
<path d="M21.8361 248.4L16.4461 246.92C15.3565 246.561 14.2881 246.141 13.2461 245.66L10.2461 244.23" fill="#8E9AA0"/>
<path d="M21.8361 248.4L16.4461 246.92C15.3565 246.561 14.2881 246.141 13.2461 245.66L10.2461 244.23" stroke="#582C89" stroke-width="1.5" stroke-miterlimit="10"/>
<path d="M261.905 232.34C262.045 234.53 258.585 236.54 256.755 237.45C255.745 237.948 254.775 238.523 253.855 239.17C253.071 239.661 252.354 240.252 251.725 240.93C251.344 241.652 251.244 242.489 251.445 243.28L252.675 245.57L253.265 246.76C253.602 247.164 254.042 247.47 254.538 247.646C255.034 247.822 255.568 247.861 256.085 247.76L257.855 247.43L259.005 248.78C259.479 249.329 260.081 249.752 260.758 250.014C261.434 250.276 262.165 250.367 262.885 250.28L271.725 246.28C271.725 246.28 275.935 238.76 270.805 232.17L261.445 220.99C261.445 224.77 261.675 228.5 261.905 232.27" fill="#EFF0F1"/>
<path d="M261.905 232.34C262.045 234.53 258.585 236.54 256.755 237.45C255.745 237.948 254.775 238.523 253.855 239.17C253.071 239.661 252.354 240.252 251.725 240.93C251.344 241.652 251.244 242.489 251.445 243.28L252.675 245.57L253.265 246.76C253.602 247.164 254.042 247.47 254.538 247.646C255.034 247.822 255.568 247.861 256.085 247.76L257.855 247.43L259.005 248.78C259.479 249.329 260.081 249.752 260.758 250.014C261.434 250.276 262.165 250.367 262.885 250.28L271.725 246.28C271.725 246.28 275.935 238.76 270.805 232.17L261.445 220.99C261.485 224.84 261.675 228.57 261.905 232.34Z" stroke="#582C89" stroke-width="1.5" stroke-miterlimit="10"/>
<path d="M265.135 244.6L256.615 247.67" stroke="#582C89" stroke-width="1.5" stroke-miterlimit="10"/>
<path d="M252.375 244.959L257.765 243.489C258.855 243.126 259.923 242.702 260.965 242.219L263.965 240.789" fill="#8E9AA0"/>
<path d="M252.375 244.959L257.765 243.489C258.855 243.126 259.923 242.702 260.965 242.219L263.965 240.789" stroke="#582C89" stroke-width="1.5" stroke-miterlimit="10"/>
<g clip-path="url(#clip0_274_2068)">
<rect width="57" height="57" transform="translate(217)" fill="white"/>
<path d="M273 1H218V56H273V1Z" fill="#F3F3F1"/>
<path d="M273 1H218V56H273V1Z" stroke="#582C89" stroke-width="2" stroke-miterlimit="10"/>
<path d="M231 2V12.25H241.497V22.5H252.005V32.75H262.502V43H273" fill="#F3F3F1"/>
<path d="M231 2V12.25H241.497V22.5H252.005V32.75H262.502V43H273" stroke="#582C89" stroke-width="2" stroke-miterlimit="10"/>
<mask id="path-61-inside-1_274_2068" fill="white">
<path d="M217.5 20.9199C222.293 20.9199 227.04 21.864 231.468 23.6983C235.896 25.5326 239.92 28.2212 243.309 31.6105C246.699 34.9999 249.387 39.0236 251.222 43.452C253.056 47.8804 254 52.6267 254 57.4199L217.5 57.4199V20.9199Z"/>
</mask>
<path d="M217.5 20.9199C222.293 20.9199 227.04 21.864 231.468 23.6983C235.896 25.5326 239.92 28.2212 243.309 31.6105C246.699 34.9999 249.387 39.0236 251.222 43.452C253.056 47.8804 254 52.6267 254 57.4199L217.5 57.4199V20.9199Z" fill="#D8DCDE" stroke="#582C89" stroke-width="4" mask="url(#path-61-inside-1_274_2068)"/>
</g>
<defs>
<clipPath id="clip0_274_2068">
<rect width="57" height="57" fill="white" transform="translate(217)"/>
</clipPath>
</defs>
</svg>
