<svg width="42" height="37" viewBox="0 0 42 37" fill="none" xmlns="http://www.w3.org/2000/svg">
<g id="Modo_de_aislamiento" clip-path="url(#clip0_530_1168)">
<path id="Vector" d="M4.96774 8.46474C4.29886 8.46474 3.68045 8.4509 3.06271 8.47001C2.72395 8.48056 2.43501 8.75402 2.40312 9.10459C2.36925 9.47228 2.39582 9.84525 2.39582 10.2123C3.09924 10.3533 3.15571 10.4212 3.15571 11.1282C3.15571 11.9078 3.15703 12.688 3.15571 13.4675C3.15504 13.9473 2.97437 14.1318 2.5021 14.1344C2.07034 14.137 1.63859 14.1377 1.20683 14.1344C0.735224 14.1304 0.563851 13.9644 0.561858 13.5018C0.558537 12.6781 0.560529 11.8544 0.560529 11.0307C0.560529 10.4179 0.662158 10.3032 1.31975 10.2281C1.31975 9.94344 1.31776 9.65152 1.31975 9.3596C1.32905 8.16162 2.09359 7.40778 3.29719 7.40712C3.83721 7.40712 4.3779 7.40712 4.96907 7.40712C4.96907 6.92279 4.9425 6.46481 4.97572 6.01013C5.01756 5.44343 5.0448 4.86289 5.19093 4.31859C5.87443 1.77766 8.15675 0.128955 10.9452 0.127637C17.4986 0.125661 24.052 0.123684 30.6053 0.132909C31.1666 0.133568 31.7405 0.155973 32.2865 0.271949C34.9461 0.837332 36.8053 3.1305 36.8299 5.82892C36.8345 6.34225 36.8305 6.85491 36.8305 7.40778C37.3506 7.40778 37.8362 7.43611 38.3178 7.40251C39.7107 7.30366 40.5788 8.28682 40.4832 9.54082C40.4659 9.7675 40.4805 9.99681 40.4805 10.2182C41.1607 10.3237 41.2384 10.4159 41.2384 11.0795C41.2384 11.8814 41.2404 12.6827 41.2384 13.4847C41.2371 13.967 41.0664 14.1337 40.5768 14.1364C40.1232 14.1383 39.6688 14.1416 39.2152 14.1331C38.8578 14.1265 38.6512 13.9367 38.6472 13.5848C38.6366 12.6623 38.6353 11.7397 38.6459 10.8172C38.6499 10.4409 38.8399 10.3026 39.4025 10.2235C39.4025 9.84855 39.433 9.4657 39.3932 9.09075C39.358 8.756 39.1242 8.50164 38.7867 8.48187C38.1504 8.44497 37.5101 8.47133 36.8305 8.47133C36.8305 8.62289 36.8305 8.75073 36.8305 8.87922C36.8305 15.4246 36.8319 21.9694 36.8286 28.5148C36.8286 29.7319 36.3111 30.686 35.2497 31.3015C34.8664 31.5236 34.4147 31.6297 33.9418 31.8082C33.9418 31.8722 33.9418 31.9908 33.9418 32.1087C33.9418 33.0642 33.9471 34.0197 33.9385 34.9752C33.9285 36.0473 33.1912 36.8031 32.1098 36.8328C31.3685 36.8532 30.6266 36.8512 29.8853 36.8367C28.7567 36.8143 28.0088 36.046 28.0055 34.9244C28.0028 33.9907 28.0055 33.0576 28.0055 32.1239V31.7522H14.0598C14.0598 31.8873 14.0598 32.0046 14.0598 32.1212C14.0598 33.0655 14.0638 34.0105 14.0578 34.9547C14.0512 36.013 13.3391 36.7807 12.2764 36.8268C11.4813 36.8618 10.6815 36.8598 9.88642 36.8275C8.8449 36.7853 8.13018 36.0143 8.12487 34.9752C8.12022 34.0309 8.12287 33.0866 8.12221 32.1417C8.12221 32.0224 8.12221 31.9031 8.12221 31.7634C7.94818 31.7377 7.79872 31.718 7.6506 31.6929C6.06506 31.4254 4.97904 30.1635 4.97107 28.5655C4.96442 27.2476 4.96974 25.9297 4.96974 24.6118C4.96974 19.3513 4.96841 14.0916 4.96841 8.83112C4.96841 8.72305 4.96841 8.61564 4.96841 8.46672L4.96774 8.46474ZM20.9035 30.6768C25.1094 30.6768 29.3154 30.6781 33.5207 30.6729C33.783 30.6729 34.0574 30.6564 34.3051 30.5793C35.245 30.2874 35.7724 29.5026 35.7724 28.4324C35.7737 20.9658 35.7731 13.4998 35.7724 6.0332C35.7724 3.21682 33.7472 1.18065 30.9069 1.17669C24.1994 1.16747 17.4926 1.16747 10.7851 1.17604C8.10826 1.17933 6.02853 3.25372 6.02654 5.90799C6.02255 13.4181 6.02521 20.9289 6.02654 28.439C6.02654 29.8202 6.8947 30.6768 8.28495 30.6768C12.4909 30.6768 16.6968 30.6768 20.9021 30.6768H20.9035ZM9.19495 31.7417C9.19495 32.9028 9.17635 34.0309 9.20492 35.1577C9.21488 35.5419 9.5636 35.7831 10.0086 35.789C10.728 35.7989 11.4474 35.8008 12.1661 35.7877C12.7008 35.7778 12.9951 35.4635 12.997 34.9284C13.0004 33.9624 12.999 32.9963 12.997 32.0303C12.997 31.9367 12.9811 31.8425 12.9718 31.7417H9.19429H9.19495ZM29.0842 31.7417C29.0756 31.855 29.0643 31.94 29.0643 32.025C29.063 32.9799 29.061 33.9353 29.065 34.8902C29.0676 35.5004 29.3645 35.7877 29.9896 35.791C30.6312 35.7943 31.2729 35.7929 31.9152 35.791C32.606 35.7896 32.8843 35.5175 32.8863 34.8342C32.889 33.9123 32.8863 32.9897 32.885 32.0679C32.885 31.9618 32.873 31.8557 32.8664 31.741H29.0836L29.0842 31.7417Z" fill="white"/>
<path id="Vector_2" d="M21.0535 4.80295C24.6291 4.80295 28.2047 4.80163 31.7809 4.80558C32.0453 4.80558 32.3169 4.81019 32.572 4.87016C33.3492 5.05203 33.8985 5.73998 33.9357 6.53863C33.9423 6.68097 33.943 6.82396 33.943 6.96695C33.943 10.6676 33.9437 14.369 33.943 18.0697C33.943 18.6852 33.8706 18.7768 33.2542 18.9085C28.4444 19.9378 23.5762 20.268 18.6682 20.098C15.622 19.9925 12.5997 19.667 9.60866 19.0753C9.28319 19.0107 8.95837 18.9454 8.63489 18.8716C8.2576 18.786 8.12409 18.6311 8.12343 18.2562C8.12143 14.3683 8.11745 10.4805 8.12675 6.59333C8.12941 5.64114 8.83748 4.91101 9.79598 4.82205C9.99392 4.8036 10.1939 4.8036 10.3931 4.8036C13.9468 4.80229 17.5005 4.80295 21.0541 4.80295H21.0535ZM20.9983 5.84937V5.85068C17.3796 5.85068 13.7601 5.85068 10.1414 5.85068C9.47183 5.85068 9.17292 6.13206 9.17226 6.77915C9.17027 10.3915 9.17359 14.0039 9.16562 17.6157C9.16562 17.8522 9.24067 17.9425 9.47116 17.9781C11.0773 18.2245 12.6754 18.5336 14.2875 18.724C17.5244 19.1056 20.7752 19.1748 24.0319 19.0212C26.8988 18.8861 29.7404 18.554 32.5541 17.9893C32.8065 17.9386 32.8928 17.8483 32.8922 17.5847C32.8835 13.9947 32.8869 10.4041 32.8862 6.81408C32.8862 6.13008 32.6039 5.84937 31.9217 5.84937C28.2804 5.84937 24.639 5.84937 20.9983 5.84937Z" fill="white"/>
<path id="Vector_3" d="M21.0276 24.0172C22.3548 24.0172 23.6826 24.0159 25.0097 24.0172C25.8301 24.0178 26.305 24.4831 26.3116 25.3028C26.3183 26.1476 26.3196 26.993 26.3116 27.8378C26.3043 28.6701 25.8268 29.1353 24.9818 29.136C22.3488 29.1386 19.7164 29.1379 17.0834 29.136C16.2378 29.1353 15.7569 28.6773 15.7443 27.8444C15.7317 26.9996 15.7317 26.1542 15.7436 25.3094C15.7556 24.4712 16.2332 24.0178 17.0781 24.0172C18.3946 24.0165 19.7111 24.0172 21.027 24.0172H21.0276ZM21.0442 25.0669C19.7496 25.0669 18.4557 25.0735 17.1611 25.0616C16.8888 25.059 16.7898 25.1407 16.7945 25.4161C16.8084 26.1845 16.8071 26.9528 16.7945 27.7205C16.7905 27.9821 16.8655 28.0908 17.1492 28.0902C19.7377 28.0823 22.3269 28.0823 24.9154 28.0902C25.1765 28.0908 25.2648 28.0039 25.2608 27.7482C25.2495 26.9693 25.2469 26.1898 25.2621 25.4109C25.2675 25.1302 25.1599 25.059 24.8928 25.0616C23.6095 25.0728 22.3262 25.0669 21.0429 25.0669H21.0442Z" fill="white"/>
<path id="Vector_4" d="M33.9384 26.6022C33.9151 28.0229 32.7441 29.1636 31.3392 29.1339C29.8912 29.1029 28.7679 27.9458 28.7952 26.5119C28.8217 25.1057 30.0014 23.9888 31.4302 24.0171C32.837 24.0455 33.9616 25.2039 33.939 26.6022H33.9384ZM29.852 26.5772C29.8546 27.4035 30.5401 28.0855 31.3717 28.0882C32.1927 28.0908 32.8835 27.3995 32.8875 26.5706C32.8922 25.7508 32.1987 25.0668 31.3638 25.0682C30.5262 25.0695 29.8493 25.7449 29.8513 26.5772H29.852Z" fill="white"/>
<path id="Vector_5" d="M13.2758 26.6022C13.2525 28.0229 12.0815 29.1636 10.6766 29.1339C9.22856 29.1029 8.10533 27.9458 8.13256 26.5119C8.15913 25.1057 9.33882 23.9888 10.7676 24.0171C12.1745 24.0455 13.299 25.2039 13.2764 26.6022H13.2758ZM9.18937 26.5772C9.19202 27.4035 9.87752 28.0855 10.7091 28.0882C11.5301 28.0908 12.2209 27.3995 12.2249 26.5706C12.2296 25.7508 11.5361 25.0668 10.7012 25.0682C9.86357 25.0695 9.18671 25.7449 9.1887 26.5772H9.18937Z" fill="white"/>
</g>
<defs>
<clipPath id="clip0_530_1168">
<rect width="40.6799" height="36.7249" fill="white" transform="translate(0.559814 0.125)"/>
</clipPath>
</defs>
</svg>
