<svg width="26" height="17" viewBox="0 0 26 17" fill="none" xmlns="http://www.w3.org/2000/svg">
<g id="Mastercard">
<path id="Left" fill-rule="evenodd" clip-rule="evenodd" d="M12.9968 14.7334C11.6263 15.9161 9.84853 16.63 7.90592 16.63C3.57136 16.63 0.0574951 13.0754 0.0574951 8.69051C0.0574951 4.30563 3.57136 0.750977 7.90592 0.750977C9.84853 0.750977 11.6263 1.46494 12.9968 2.64762C14.3673 1.46494 16.1451 0.750977 18.0877 0.750977C22.4222 0.750977 25.9361 4.30563 25.9361 8.69051C25.9361 13.0754 22.4222 16.63 18.0877 16.63C16.1451 16.63 14.3673 15.9161 12.9968 14.7334Z" fill="#ED0006"/>
<path id="Right" fill-rule="evenodd" clip-rule="evenodd" d="M12.9968 14.7334C14.6843 13.2771 15.7544 11.1102 15.7544 8.69051C15.7544 6.27078 14.6843 4.10388 12.9968 2.64762C14.3673 1.46494 16.1451 0.750977 18.0877 0.750977C22.4223 0.750977 25.9361 4.30563 25.9361 8.69051C25.9361 13.0754 22.4223 16.63 18.0877 16.63C16.1451 16.63 14.3673 15.9161 12.9968 14.7334Z" fill="#F9A000"/>
<path id="Middle" fill-rule="evenodd" clip-rule="evenodd" d="M12.9968 2.64746C14.6843 4.10372 15.7543 6.27061 15.7543 8.69032C15.7543 11.11 14.6843 13.2769 12.9968 14.7332C11.3093 13.2769 10.2393 11.11 10.2393 8.69032C10.2393 6.27061 11.3093 4.10372 12.9968 2.64746Z" fill="#FF5E00"/>
</g>
</svg>
