<svg width="37" height="18" viewBox="0 0 37 18" fill="none" xmlns="http://www.w3.org/2000/svg">
<g id="Discover">
<path id="Stripe" d="M13.691 17.0287L36.4067 10.4153V12.0287C36.4067 14.7901 34.1681 17.0287 31.4067 17.0287H13.691Z" fill="#FD6020"/>
<path id="DISC-VER" fill-rule="evenodd" clip-rule="evenodd" d="M32.0952 1.05402C33.3449 1.05402 34.0322 1.61017 34.0322 2.66067C34.0947 3.464 33.5323 4.14374 32.7825 4.26733L34.4696 6.55373H33.1574L31.7203 4.32913H31.5953V6.55373H30.533V1.05402H32.0952ZM31.5953 3.58758H31.9077C32.5951 3.58758 32.9075 3.27861 32.9075 2.72246C32.9075 2.2281 32.5951 1.91913 31.9077 1.91913H31.5953V3.58758ZM26.8464 6.55372H29.8457V5.6268H27.9086V4.14373H29.7832V3.21682H27.9086V1.98092H29.8457V1.05401H26.8464V6.55372ZM23.7221 4.76168L22.2849 1.05401H21.1602L23.4722 6.67731H24.0345L26.3465 1.05401H25.2218L23.7221 4.76168ZM11.0375 3.83476C11.0375 5.37963 12.2872 6.67731 13.8494 6.67731C14.3492 6.67731 14.7866 6.55372 15.224 6.36834V5.13245C14.9116 5.50322 14.4742 5.75039 13.9743 5.75039C12.9746 5.75039 12.1622 5.00886 12.1622 4.02015V3.89656C12.0998 2.90784 12.9121 2.04272 13.9118 1.98093C14.4117 1.98093 14.9116 2.2281 15.224 2.59887V1.36298C14.8491 1.1158 14.3492 1.05401 13.9118 1.05401C12.2872 0.930418 11.0375 2.2281 11.0375 3.83476ZM9.10045 3.15502C8.4756 2.90784 8.28814 2.78425 8.28814 2.47528C8.35062 2.10451 8.66305 1.79554 9.03797 1.85734C9.3504 1.85734 9.66282 2.04272 9.91277 2.2899L10.4751 1.54836C10.0377 1.1776 9.47537 0.930417 8.913 0.930417C8.0382 0.868622 7.28837 1.54836 7.22588 2.41349V2.47528C7.22588 3.21682 7.53831 3.64938 8.53808 3.95835C8.78802 4.02015 9.03797 4.14374 9.28791 4.26732C9.47537 4.39091 9.60034 4.5763 9.60034 4.82348C9.60034 5.25604 9.22542 5.6268 8.85051 5.6268H8.78802C8.28814 5.6268 7.85074 5.31783 7.66328 4.88527L6.97594 5.56501C7.35085 6.24475 8.10068 6.61552 8.85051 6.61552C9.85028 6.67731 10.6626 5.93578 10.7251 4.94706V4.76168C10.6626 4.02015 10.3502 3.64938 9.10045 3.15502ZM5.47628 6.55372H6.53854V1.05401H5.47628V6.55372ZM0.539917 1.05402H2.10206H2.41449C3.91414 1.11581 5.10137 2.3517 5.03888 3.83477C5.03888 4.6381 4.66397 5.37964 4.03911 5.93579C3.47674 6.36835 2.7894 6.61553 2.10206 6.55373H0.539917V1.05402ZM1.9146 5.62681C2.41448 5.68861 2.97685 5.50322 3.35177 5.19425C3.72668 4.82348 3.91414 4.32913 3.91414 3.77297C3.91414 3.27862 3.72668 2.78426 3.35177 2.41349C2.97685 2.10452 2.41448 1.91914 1.9146 1.98093H1.60217V5.62681H1.9146Z" fill="black"/>
<path id="O" fill-rule="evenodd" clip-rule="evenodd" d="M18.4108 0.926514C16.8487 0.926514 15.5365 2.16241 15.5365 3.76906C15.5365 5.31393 16.7862 6.61162 18.4108 6.67341C20.0355 6.7352 21.2852 5.43752 21.3477 3.83086C21.2852 2.2242 20.0355 0.926514 18.4108 0.926514V0.926514Z" fill="#FD6020"/>
</g>
</svg>
