<svg width="41" height="28" viewBox="0 0 41 28" fill="none" xmlns="http://www.w3.org/2000/svg">
<g id="Payment Method/Amex">
<rect id="BASE" x="0.662964" y="0.5" width="39.2556" height="26.6038" rx="5.5" fill="#1F72CD" stroke="#D9D9D9"/>
<path id="AMEX" fill-rule="evenodd" clip-rule="evenodd" d="M7.3798 9.77637L3.6134 18.1113H8.12231L8.68128 16.7823H9.95897L10.5179 18.1113H15.481V17.097L15.9232 18.1113H18.4905L18.9327 17.0756V18.1113H29.2545L30.5096 16.8169L31.6848 18.1113L36.9863 18.122L33.208 13.9671L36.9863 9.77637H31.767L30.5453 11.0469L29.4071 9.77637H18.1783L17.2141 11.9277L16.2273 9.77637H11.7278V10.7561L11.2272 9.77637H7.3798ZM22.7932 10.9599H28.7205L30.5334 12.9182L32.4047 10.9599H34.2175L31.4631 13.9659L34.2175 16.9373H32.3224L30.5096 14.9563L28.6287 16.9373H22.7932V10.9599ZM24.257 13.2901V12.1983V12.1972H27.9554L29.5692 13.9433L27.8839 15.6989H24.257V14.507H27.4905V13.2901H24.257ZM8.25225 10.9599H10.4501L12.9484 16.6119V10.9599H15.356L17.2856 15.0124L19.064 10.9599H21.4596V16.9408H20.0019L19.99 12.2542L17.8649 16.9408H16.5609L14.4238 12.2542V16.9408H11.425L10.8565 15.6H7.78505L7.21771 16.9396H5.61099L8.25225 10.9599ZM8.3095 14.3604L9.32143 11.9719L10.3322 14.3604H8.3095Z" fill="white"/>
</g>
</svg>
