<svg width="38" height="51" viewBox="0 0 38 51" fill="none" xmlns="http://www.w3.org/2000/svg">
<g id="Capa_1" clip-path="url(#clip0_530_1142)">
<path id="Vector" d="M12.06 38.6859C11.369 40.4668 10.6922 42.2118 10.0145 43.9577C9.33102 45.7177 8.64335 47.477 7.96737 49.2395C7.70032 49.9347 8.14263 50.5423 8.82862 50.4438C9.18497 50.392 9.38443 50.1609 9.50794 49.8412C9.76748 49.1678 10.0395 48.4985 10.2849 47.82C10.37 47.5855 10.491 47.5112 10.7372 47.5112C16.3829 47.5179 22.0286 47.5179 27.6743 47.5112C27.9247 47.5112 28.0424 47.5896 28.1275 47.8233C28.3737 48.5018 28.6407 49.1736 28.9095 49.8429C29.1164 50.3578 29.5446 50.5731 29.9969 50.4087C30.4651 50.2385 30.6462 49.7803 30.4359 49.2337C29.134 45.8663 27.8271 42.5006 26.5218 39.134C26.4626 38.9821 26.41 38.8277 26.3908 38.776C27.2212 38.2536 28.0657 37.8371 28.7726 37.2546C30.4659 35.8593 31.3088 34.0074 31.3163 31.8134C31.333 26.988 31.3655 22.1618 31.3055 17.3373C31.2679 14.3205 29.7624 12.164 27.0676 10.827C26.8365 10.7119 26.6445 10.7269 26.405 10.8321C25.4895 11.236 24.6508 11.0724 23.8763 10.449C23.7203 10.3238 23.4958 10.242 23.2946 10.2245C22.8941 10.1903 22.4893 10.2128 22.0854 10.2145C21.472 10.2178 20.917 10.2095 20.3562 10.6727C19.5609 11.3286 18.3909 11.1375 17.5838 10.459C17.4236 10.3246 17.1783 10.2345 16.968 10.2253C16.302 10.1961 15.6327 10.2011 14.9667 10.2237C14.794 10.2295 14.5928 10.3096 14.4585 10.4215C13.6665 11.0782 12.8127 11.2268 11.853 10.8329C11.6861 10.7645 11.4366 10.7494 11.2805 10.8237C8.59579 12.1056 7.05521 14.2353 7.00347 17.2113C6.91751 22.1326 6.96174 27.0565 6.98678 31.9786C7.00097 34.8394 8.88871 37.4708 11.5818 38.5023C11.7237 38.5565 11.8655 38.6108 12.0617 38.6859H12.06ZM18.8565 24.8299C15.8388 24.8299 12.8211 24.8316 9.80337 24.8282C8.96048 24.8274 8.45224 24.32 8.44723 23.4813C8.44139 22.5357 8.44306 21.5902 8.44723 20.6446C8.45808 18.0509 10.4218 16.0229 13.0247 16.0021C16.8903 15.9712 20.7568 15.9712 24.6232 16.0021C27.2195 16.0229 29.1749 18.0492 29.1941 20.6538C29.2007 21.5435 29.1957 22.4339 29.1949 23.3244C29.1941 24.365 28.7342 24.8299 27.7019 24.8299C24.7534 24.8299 21.8058 24.8299 18.8574 24.8299H18.8565ZM11.056 45.8488C11.4274 44.8957 11.7721 43.9911 12.1401 43.0964C12.1752 43.0121 12.3579 42.9445 12.4723 42.9437C16.9604 42.9362 21.4486 42.9354 25.9368 42.9487C26.0678 42.9487 26.264 43.0889 26.3174 43.2116C26.5878 43.835 26.8223 44.4734 27.0668 45.1077C27.1578 45.3439 27.2404 45.5826 27.3364 45.8488H11.0552H11.056ZM12.8403 41.2621C13.1048 40.5753 13.3644 39.9485 13.583 39.3084C13.6707 39.0522 13.7867 38.9805 14.0529 38.9813C17.3735 38.9921 20.6942 38.988 24.0157 38.988C24.2485 38.988 24.4814 38.988 24.6967 38.988C24.9904 39.7541 25.2725 40.4893 25.5688 41.2613H12.8403V41.2621ZM12.8703 35.603C11.2346 35.6089 9.9177 34.3003 9.92021 32.6721C9.92271 31.064 11.2304 29.7504 12.8353 29.7437C14.4418 29.737 15.7695 31.0364 15.7921 32.6379C15.8146 34.2578 14.4944 35.5972 12.8703 35.603ZM22.6312 32.6947C22.6295 31.0548 23.9314 29.7429 25.5596 29.7437C27.1628 29.7437 28.4864 31.0598 28.493 32.6579C28.4997 34.2845 27.1836 35.603 25.5546 35.603C23.9364 35.603 22.6328 34.3062 22.6312 32.6947Z" fill="white"/>
<path id="Vector_2" d="M37.9341 23.3211C37.9341 19.5798 37.9199 15.8377 37.9449 12.0964C37.9508 11.266 37.7805 10.5016 37.4584 9.75384C36.1022 6.60593 33.7522 4.42693 30.7428 2.90305C28.4478 1.74136 25.99 1.11629 23.4505 0.807504C19.907 0.376878 16.3711 0.435296 12.8635 1.13131C9.40678 1.8173 6.24636 3.13672 3.67679 5.63619C2.20799 7.06493 1.10555 8.73402 0.504677 10.7069C0.417049 10.9948 0.367813 11.3061 0.367813 11.6065C0.360302 19.4371 0.361973 27.2676 0.362808 35.0982C0.362808 35.2234 0.358631 35.3494 0.374489 35.4729C0.423729 35.8501 0.719158 36.1297 1.09637 36.1672C1.47526 36.2048 1.83495 35.997 1.94594 35.6381C2.00185 35.457 2.0127 35.2559 2.0127 35.0639C2.01604 27.3169 2.01437 19.5698 2.01604 11.8227C2.01604 10.8329 2.50092 10.0034 2.9766 9.19302C4.56308 6.4941 6.97825 4.81082 9.84575 3.70922C12.3644 2.74198 14.9949 2.33222 17.6746 2.2279C21.1705 2.09187 24.6231 2.36644 27.9554 3.52896C30.8212 4.52791 33.2806 6.1002 34.9981 8.67227C35.3128 9.14379 35.5756 9.65369 35.8285 10.1628C36.1598 10.8296 36.3009 11.5298 36.2984 12.2917C36.2792 19.8577 36.2858 27.4245 36.2883 34.9905C36.2883 35.1975 36.2917 35.412 36.3443 35.6089C36.4436 35.9836 36.8208 36.2089 37.2147 36.1664C37.5894 36.1255 37.8848 35.8384 37.9241 35.462C37.9399 35.3101 37.9332 35.1566 37.9332 35.0039C37.9332 31.109 37.9332 27.215 37.9332 23.3202L37.9341 23.3211Z" fill="white"/>
<path id="Vector_3" d="M26.9291 8.66412C26.9107 7.81455 26.2439 7.18614 25.386 7.21117C24.5673 7.23537 23.9406 7.91136 23.9656 8.7459C23.9898 9.56376 24.6833 10.2205 25.4887 10.1897C26.314 10.158 26.9466 9.48865 26.9291 8.66412Z" fill="white"/>
<path id="Vector_4" d="M19.1361 7.21096C18.3124 7.21597 17.6564 7.87526 17.6564 8.69728C17.6564 9.50679 18.3332 10.1869 19.1427 10.192C19.9681 10.197 20.6558 9.49845 20.6407 8.67058C20.6266 7.84772 19.9648 7.20679 19.1361 7.21096Z" fill="white"/>
<path id="Vector_5" d="M11.3715 8.68294C11.364 9.50914 12.0108 10.1776 12.8295 10.1901C13.6398 10.2018 14.3225 9.54085 14.34 8.72633C14.3575 7.88594 13.6941 7.20913 12.8537 7.20996C12.0216 7.20996 11.379 7.84922 11.3715 8.68294Z" fill="white"/>
<path id="Vector_6" d="M10.7882 32.6972C10.7965 33.8405 11.7195 34.7526 12.8628 34.7485C14.0028 34.7443 14.9208 33.8188 14.9183 32.6755C14.9158 31.5154 13.9703 30.5791 12.8203 30.5974C11.682 30.6158 10.7798 31.548 10.7882 32.6963V32.6972Z" fill="white"/>
<path id="Vector_7" d="M23.4874 32.6849C23.4907 33.8266 24.4129 34.7471 25.5546 34.7488C26.687 34.7504 27.6259 33.8208 27.6359 32.6883C27.6459 31.5491 26.6795 30.5869 25.537 30.5977C24.4012 30.6086 23.484 31.5433 23.4874 32.6849Z" fill="white"/>
</g>
<defs>
<clipPath id="clip0_530_1142">
<rect width="37.5838" height="49.9267" fill="white" transform="matrix(-1 0 0 1 37.9459 0.534668)"/>
</clipPath>
</defs>
</svg>
