<svg width="41" height="28" viewBox="0 0 41 28" fill="none" xmlns="http://www.w3.org/2000/svg">
<g id="Payment Method/Visa">
<rect id="BASE" x="0.5" y="0.5" width="39.2556" height="26.6038" rx="5.5" fill="white" stroke="#D9D9D9"/>
<path id="visa-logo" fill-rule="evenodd" clip-rule="evenodd" d="M12.2207 18.6996H9.78198L7.95324 11.7229C7.86644 11.4019 7.68214 11.1182 7.41104 10.9845C6.73448 10.6485 5.98896 10.381 5.17566 10.2461V9.97752H9.10423C9.64643 9.97752 10.0531 10.381 10.1209 10.8496L11.0697 15.8822L13.5072 9.97752H15.8782L12.2207 18.6996ZM17.2336 18.6996H14.9305L16.827 9.97752H19.1302L17.2336 18.6996ZM22.1099 12.3938C22.1777 11.924 22.5843 11.6554 23.0587 11.6554C23.8043 11.588 24.6164 11.7229 25.2941 12.0578L25.7008 10.1799C25.023 9.91125 24.2775 9.77637 23.6009 9.77637C21.3655 9.77637 19.7389 10.9845 19.7389 12.6612C19.7389 13.9368 20.8911 14.6066 21.7044 15.0101C22.5843 15.4124 22.9232 15.681 22.8554 16.0833C22.8554 16.6868 22.1777 16.9554 21.5011 16.9554C20.6878 16.9554 19.8745 16.7543 19.1302 16.4182L18.7235 18.2973C19.5368 18.6322 20.4167 18.767 21.23 18.767C23.7365 18.8333 25.2941 17.6263 25.2941 15.8147C25.2941 13.5333 22.1099 13.3996 22.1099 12.3938ZM33.3546 18.6996L31.5258 9.97752H29.5616C29.1549 9.97752 28.7483 10.2461 28.6127 10.6485L25.2263 18.6996H27.5973L28.0705 17.4252H30.9836L31.2547 18.6996H33.3546ZM29.9004 12.3264L30.577 15.6136H28.6805L29.9004 12.3264Z" fill="#172B85"/>
</g>
</svg>
