<svg width="35" height="57" viewBox="0 0 35 57" fill="none" xmlns="http://www.w3.org/2000/svg">
<g id="Modo_de_aislamiento" clip-path="url(#clip0_530_1112)">
<path id="Vector" d="M10.7657 23.245C9.29881 24.1121 8.50188 25.0816 8.31772 26.691C8.07007 28.8506 7.56524 30.9816 7.12073 33.1125C6.7556 34.8626 5.2665 35.9601 3.69803 35.7169C1.99938 35.4545 0.815083 34.1395 1.08496 32.3158C1.61837 28.6907 2.37086 25.1008 3.03444 21.4949C3.04397 21.4437 3.05984 21.3861 3.09159 21.3477C5.84118 18.1353 8.40662 14.6286 13.1025 14.2447C14.7313 14.1135 16.3823 14.1807 18.0207 14.2319C20.3702 14.3055 21.799 16.0204 22.4213 18.2665C23.1865 21.0213 24.2469 23.7922 27.3712 24.896C29.2095 25.5455 31.0225 26.2782 32.8291 27.0173C34.5087 27.7052 35.2199 29.2282 34.7087 30.8952C34.2515 32.3894 32.6291 33.378 31.0352 32.8405C27.9395 31.7942 24.8978 30.5912 21.853 29.401C21.3481 29.2026 20.9385 28.7579 20.348 28.3259C19.9479 30.0633 19.5002 31.6887 19.2367 33.346C19.1605 33.8292 19.5288 34.4467 19.8241 34.917C22.9166 39.8731 26.0345 44.81 29.1429 49.7533C29.3969 50.1565 29.6763 50.55 29.889 50.9756C30.7717 52.7513 30.3938 54.6838 28.9809 55.7141C27.5077 56.7891 25.5868 56.6964 24.2882 55.0934C21.6815 51.881 19.2621 48.5151 16.7697 45.21C16.0363 44.2373 15.3124 43.2582 14.4678 42.1288C12.9057 46.8161 9.60044 50.2461 7.0604 54.1623C5.78403 56.1268 4.38066 56.706 2.67566 56.242C0.716656 55.7109 -0.451762 53.6024 0.421377 51.7594C1.16434 50.1917 2.11368 48.6815 3.19319 47.3281C5.86341 43.9877 7.57476 40.2923 8.24787 36.024C8.91463 31.7974 9.8862 27.6188 10.7625 23.2386L10.7657 23.245ZM15.5346 15.9117C11.407 15.9117 7.41601 17.9946 5.06012 21.4181C4.80294 21.7956 4.65372 22.282 4.56482 22.7395C3.98061 25.7631 3.4599 28.7995 2.85029 31.8166C2.65344 32.7893 2.74551 33.5988 3.76788 33.842C4.90772 34.1139 5.3427 33.3588 5.51733 32.3222C5.91739 29.9673 6.33332 27.6124 6.82227 25.2767C6.95563 24.6368 7.22233 23.9105 7.67001 23.4754C8.84478 22.3332 10.1307 21.2965 11.4261 20.2886C11.7341 20.0455 12.4961 19.8599 12.6136 20.0071C12.8866 20.3462 13.0708 20.9382 12.9882 21.3669C12.4231 24.2817 11.8611 27.2029 11.134 30.0825C10.5276 32.4885 10.9371 34.5171 12.4485 36.4976C16.3442 41.6009 20.1289 46.7905 23.9612 51.9418C24.5263 52.7001 24.9931 53.6024 25.7202 54.1463C26.1932 54.4983 27.2537 54.6071 27.6919 54.2999C28.1999 53.9415 28.5968 52.9849 28.5269 52.3418C28.4475 51.6187 27.8157 50.9468 27.3934 50.2749C24.2057 45.1972 20.9862 40.1419 17.846 35.0354C17.5127 34.4947 17.4238 33.6372 17.5539 32.9973C18.3318 29.2058 19.1192 25.4079 20.0781 21.6581C21.3449 16.7051 19.986 15.6109 15.5314 15.9117H15.5346ZM10.0354 36.1744C9.8735 36.7663 9.75919 37.1663 9.65124 37.5662C9.14641 39.4476 8.99401 41.5337 8.06054 43.1687C6.49524 45.9011 4.45686 48.3615 2.57088 50.902C1.6914 52.0858 1.64695 53.6152 2.59628 54.3095C3.53927 55.0006 4.58069 54.6742 5.50145 53.3624C7.35568 50.7164 9.30834 48.128 10.9975 45.3795C11.9214 43.879 12.7374 42.1352 12.9279 40.4234C13.0295 39.5148 11.696 38.4397 11.0038 37.4478C10.7625 37.1023 10.4958 36.7759 10.0386 36.1744H10.0354ZM21.8403 21.7508C21.5704 22.8355 21.3545 23.6546 21.1671 24.4801C20.875 25.7631 21.5609 27.4332 22.7896 27.926C25.6217 29.0618 28.4856 30.1305 31.3813 31.0871C31.8131 31.2311 32.4862 30.6328 33.0482 30.3768C32.791 29.8137 32.6799 29.0362 32.2449 28.7323C31.5305 28.2331 30.6161 28.0156 29.7715 27.7244C26.587 26.627 23.3675 25.5903 21.8434 21.754L21.8403 21.7508Z" fill="white"/>
<path id="Vector_2" d="M25.898 7.01395C25.879 10.5271 23.0817 13.2915 19.6114 13.2243C16.2078 13.1603 13.382 10.2103 13.4582 6.80278C13.5344 3.45924 16.4078 0.656434 19.7416 0.672431C23.2246 0.688429 25.9171 3.46244 25.8948 7.01075L25.898 7.01395ZM19.7543 11.4293C22.1959 11.4133 24.2057 9.42321 24.2311 6.99795C24.2565 4.5087 22.2023 2.45778 19.694 2.46738C17.1952 2.48018 15.2838 4.39031 15.2711 6.89876C15.2552 9.4968 17.1825 11.4453 19.7543 11.4293Z" fill="white"/>
</g>
<defs>
<clipPath id="clip0_530_1112">
<rect width="34.7414" height="55.7586" fill="white" transform="translate(0.129272 0.672363)"/>
</clipPath>
</defs>
</svg>
