<svg width="39" height="39" viewBox="0 0 39 39" fill="none" xmlns="http://www.w3.org/2000/svg">
<g id="Modo_de_aislamiento" clip-path="url(#clip0_531_1345)">
<path id="Vector" d="M23.8025 10.3C23.8025 11.5495 23.7966 12.7099 23.8129 13.8703C23.8129 13.9699 23.9507 14.114 24.0573 14.16C25.2571 14.6682 26.4644 15.1629 27.6686 15.6592C28.664 16.0693 29.0536 16.4615 29.4609 17.4927C29.7142 17.4927 29.9838 17.4837 30.2534 17.4941C30.6015 17.5075 30.8222 17.7259 30.8237 18.0424C30.8252 18.3529 30.5956 18.6352 30.2623 18.5951C29.6935 18.5268 29.4313 18.7363 29.181 19.2622C28.6655 20.3454 27.3946 20.7599 26.2022 20.3513C26.0452 20.2978 25.8896 20.2369 25.6511 20.1478C26.1548 21.1299 26.6199 22.0332 27.0983 22.9678C29.6105 21.9842 32.0472 22.0956 34.3713 23.4804C36.1251 24.5264 37.3205 26.0463 37.9189 28.0046C39.1261 31.9553 37.2568 36.0056 33.4529 37.741C29.9438 39.3427 25.5963 37.9757 23.4959 34.6743C21.3733 31.3387 21.8443 26.2425 26.0896 23.4819C25.8704 23.0525 25.6497 22.6186 25.4008 22.1298C25.309 22.2814 25.2408 22.3883 25.1786 22.4983C23.6811 25.137 22.1791 27.7743 20.6934 30.419C20.4875 30.786 20.2372 30.945 19.8091 30.9346C18.787 30.9078 17.7635 30.9316 16.7399 30.9212C16.5133 30.9182 16.4155 30.9762 16.3904 31.2199C16.023 34.6387 13.5938 37.3948 10.2565 38.1927C5.6335 39.2966 1.00903 36.0457 0.481704 31.3209C-0.00562841 26.9542 2.99095 23.0302 7.30139 22.4017C8.83893 22.1774 10.3187 22.4017 11.7318 23.054C11.9096 23.1357 12.0873 23.2174 12.2991 23.314C12.8324 22.4849 13.3612 21.6707 13.8796 20.8476C13.9181 20.7867 13.8989 20.6574 13.8604 20.5861C13.4723 19.8848 13.0812 19.185 12.6695 18.4971C12.6102 18.399 12.4443 18.3232 12.3214 18.3143C11.9777 18.289 11.6311 18.3143 11.286 18.3039C10.8742 18.292 10.6327 18.084 10.6224 17.7556C10.6105 17.4124 10.8579 17.1821 11.2874 17.1762C12.2236 17.1658 13.1612 17.1717 14.0989 17.1717C14.2292 17.1717 14.3581 17.1717 14.5625 17.1717C14.3388 16.9132 14.1626 16.729 14.0085 16.5269C12.7643 14.8896 12.8635 12.6445 14.3062 11.1365C15.5683 9.81709 16.8644 8.52594 18.196 7.27639C18.7352 6.76973 19.4106 6.41017 20.0416 5.97038C19.6387 5.33446 19.7706 4.69706 20.2757 4.0968C20.4742 3.86056 20.6608 3.61392 20.8623 3.38065C21.1437 3.05527 21.4711 2.99286 21.7288 3.20384C22.0028 3.4282 22.0117 3.73873 21.7421 4.08492C21.5303 4.3583 21.2977 4.61534 21.0978 4.89616C21.0208 5.00462 20.9511 5.18737 20.9926 5.28692C21.0326 5.38052 21.2237 5.46076 21.3481 5.46076C24.1951 5.46967 27.0435 5.47264 29.8905 5.46521C30.5497 5.46373 30.8652 4.9645 30.6208 4.35236C29.9483 2.66599 28.6107 1.94687 26.8969 1.75669C25.7163 1.62445 24.6261 1.85178 23.607 2.46987C23.2308 2.69868 22.9079 2.62142 22.7405 2.32129C22.5613 2.00036 22.6798 1.70171 23.0797 1.47587C25.3712 0.184725 27.6523 0.266443 29.8638 1.63188C30.8592 2.24551 31.4947 3.19939 31.785 4.34642C31.9746 5.09525 31.6828 5.68957 31.1303 6.19325C30.9985 6.3136 30.8622 6.49338 30.837 6.66127C30.3719 9.85126 27.1368 11.6877 24.1758 10.4307C24.0988 10.398 24.0203 10.3743 23.8011 10.2955L23.8025 10.3ZM27.9382 24.6051C29.1321 24.1356 30.3289 24.0168 31.5317 24.2842C35.6392 25.1965 37.676 29.6152 35.6926 33.3341C35.3785 33.9225 34.8971 34.4247 34.4572 34.9373C34.2276 35.2047 33.8928 35.1839 33.6677 34.967C33.4337 34.7412 33.4277 34.4559 33.6573 34.1721C33.7432 34.0666 33.8469 33.9775 33.9373 33.8764C35.1326 32.563 35.5859 31.0208 35.2171 29.2868C34.7534 27.1072 32.9685 25.5352 30.7555 25.3034C29.9823 25.2232 29.221 25.3124 28.4729 25.6288C28.5411 25.7655 28.5944 25.8755 28.6492 25.9839C29.3069 27.2677 29.966 28.5514 30.6252 29.8351C30.6815 29.945 30.7467 30.0535 30.7837 30.1694C30.877 30.4666 30.7985 30.7132 30.5171 30.8588C30.2356 31.0044 29.9897 30.9286 29.8031 30.6761C29.7379 30.5869 29.692 30.4844 29.6402 30.3863C28.9692 29.0818 28.2996 27.7758 27.6286 26.4713C27.5753 26.3673 27.5116 26.2677 27.4509 26.1652C25.7252 27.2914 24.8453 29.4874 25.3119 31.4502C26.0333 34.4856 28.9795 36.1334 31.9554 35.1631C32.4205 35.0116 32.7315 35.1111 32.8545 35.4529C32.9759 35.7887 32.7863 36.0769 32.3257 36.2329C30.6445 36.799 29.0091 36.6905 27.4212 35.8927C23.9403 34.1424 22.9627 29.3968 25.4912 26.4371C25.9104 25.9453 26.417 25.5278 26.9013 25.0583C26.8213 24.9053 26.728 24.724 26.6332 24.5412C23.73 26.2618 22.4042 30.2734 24.1995 33.6417C25.9785 36.9773 30.1186 38.2387 33.4959 36.4766C36.8331 34.7352 38.1381 30.5304 36.3443 27.1354C34.5239 23.6914 30.5111 22.7152 27.639 24.0168C27.7323 24.2025 27.8256 24.3867 27.9367 24.6066L27.9382 24.6051ZM10.6742 25.8383C8.87745 24.8191 6.34154 25.241 4.82918 26.7892C3.1924 28.4637 2.89022 31.0059 4.093 32.9939C5.28985 34.973 7.65689 35.8986 9.84026 35.2582C12.3036 34.5361 13.4323 32.2554 13.4234 30.9301C13.2916 30.9301 13.1583 30.9301 13.025 30.9301C11.5348 30.9301 10.0447 30.9272 8.55453 30.9331C8.28642 30.9331 8.0198 30.8826 7.95166 30.6166C7.89982 30.4175 7.97832 30.1768 8.03165 29.9629C8.05979 29.85 8.15756 29.7534 8.22421 29.6494C9.03742 28.385 9.85063 27.1191 10.6742 25.8383ZM28.227 17.4927C28.0182 17.0752 27.7042 16.8983 27.359 16.7557C26.0067 16.1985 24.6557 15.6399 23.3048 15.0812C22.7123 14.8361 22.6694 14.7766 22.6798 14.1526C22.702 12.8555 22.7405 11.5584 22.7523 10.2628C22.7583 9.47832 22.1509 8.91967 21.3733 8.95533C20.6978 8.98504 20.1779 9.47832 20.1527 10.196C20.089 11.973 20.0535 13.7515 20.0165 15.5299C20.0017 16.2862 20.2772 16.6844 20.9837 16.9786C21.868 17.3471 22.7538 17.714 23.6411 18.0781C24.6187 18.4807 25.5919 18.8938 26.5755 19.2771C27.2909 19.5564 28.0567 19.2325 28.1989 18.61C27.8508 18.61 27.5057 18.6189 27.162 18.607C26.8139 18.5966 26.5917 18.3782 26.5843 18.0647C26.5769 17.7334 26.8036 17.5045 27.1694 17.4941C27.5012 17.4837 27.8316 17.4927 28.2285 17.4927H28.227ZM14.6454 30.9509C14.2662 35.0978 10.1158 37.3651 6.65408 36.3414C3.51827 35.4142 1.58227 32.0133 2.43696 28.798C2.87541 27.1458 3.8323 25.8636 5.30911 25.0093C7.2688 23.8786 9.28331 23.8949 11.3126 24.8473C11.4415 24.6482 11.5526 24.4744 11.6666 24.3005C9.21369 22.9143 5.79496 23.2293 3.55086 25.5025C1.29491 27.7877 0.900898 31.2466 2.58953 34.022C4.1952 36.6623 7.54135 37.9089 10.4683 36.9758C13.5345 35.9996 15.1965 33.196 15.2587 30.9509H14.6469H14.6454ZM21.3289 19.1686C20.4905 19.6426 19.7395 20.0616 18.9959 20.4925C18.9233 20.5356 18.8626 20.6396 18.8418 20.7272C18.3738 22.7048 17.9057 24.6824 17.4554 26.6644C17.325 27.235 17.6924 27.7966 18.2479 27.9541C18.8641 28.1279 19.4803 27.7669 19.6462 27.0819C20.2179 24.7106 20.7749 22.3378 21.3229 19.9606C21.3748 19.7332 21.3303 19.4836 21.3303 19.1686H21.3289ZM14.6736 12.5732C14.0603 13.4766 14.1137 14.949 14.9298 15.842C16.026 17.0425 17.1976 18.1732 18.3441 19.3261C18.4019 19.3841 18.556 19.4212 18.6211 19.3856C19.2433 19.0498 19.8565 18.6947 20.4386 18.3648C18.5011 16.4184 16.5844 14.4929 14.6721 12.5732H14.6736ZM18.8803 14.9728C18.9174 14.9757 18.9529 14.9787 18.99 14.9817C18.99 13.4632 18.9751 11.9447 18.9944 10.4263C19.0122 9.10539 19.7232 8.16786 20.886 7.8811C21.1185 7.82464 21.3614 7.80979 21.6088 7.77561C21.514 7.44428 21.4296 7.15158 21.3437 6.84848C20.5127 7.04015 19.7676 7.37148 19.1647 7.92865C18.1797 8.84092 17.2391 9.80223 16.2793 10.7442C15.9919 11.0265 15.706 11.3088 15.4661 11.5451C16.6259 12.7099 17.7531 13.8406 18.8803 14.9728ZM13.2427 23.9365C15.1476 25.4446 16.2111 27.391 16.4318 29.7861H19.0359C18.8858 29.3879 18.629 29.1606 18.2656 29.1041C17.3887 28.9704 16.7829 28.4994 16.4541 27.6659C16.1978 27.0151 16.3548 26.3851 16.4926 25.7418C16.537 25.5382 16.4985 25.2752 16.4022 25.091C16.0067 24.3392 15.5727 23.6067 15.1535 22.8668C14.9698 22.5429 14.7847 22.2175 14.5817 21.8609C14.124 22.5711 13.6974 23.2323 13.2427 23.938V23.9365ZM28.5381 6.61224C28.5011 7.04163 28.6048 7.59138 27.9856 7.61663C27.2998 7.64338 27.4316 7.04163 27.3724 6.61373H25.5934C25.5934 7.58246 25.586 8.53039 25.6067 9.47832C25.6082 9.5541 25.7904 9.68336 25.897 9.69228C27.716 9.83343 29.4195 8.4457 29.6816 6.61224H28.5396H28.5381ZM24.4499 21.4879C23.7196 21.4879 23.0693 21.4969 22.4191 21.4835C22.1895 21.479 22.1095 21.5563 22.0576 21.7821C21.6592 23.522 21.2341 25.2544 20.8386 26.9958C20.6801 27.6926 20.4164 28.3077 19.7958 28.7371C19.8832 28.8916 19.9646 29.0328 20.0713 29.22C21.5362 26.6347 22.9716 24.1 24.4499 21.4894V21.4879ZM11.6385 26.4326C10.9068 27.5708 10.2046 28.6613 9.48772 29.7786H13.4664C13.2916 28.4147 12.6887 27.3315 11.6385 26.4326ZM17.7546 20.3394C17.0421 19.6248 16.4126 18.9903 15.7801 18.3589C15.746 18.3247 15.7001 18.2816 15.6601 18.2816C15.0809 18.2772 14.5032 18.2786 13.853 18.2786C14.2514 18.9829 14.5906 19.5936 14.9432 20.1953C14.9832 20.2651 15.0943 20.332 15.1743 20.3335C15.9963 20.3439 16.817 20.3394 17.7546 20.3394ZM12.2547 25.4713C13.6382 26.5991 14.407 28.0418 14.6143 29.7861H15.2928C15.0898 27.7713 14.2025 26.1697 12.6339 24.8919C12.505 25.088 12.391 25.2618 12.2532 25.4699L12.2547 25.4713ZM24.4306 9.29854V6.61373H22.4739C22.7094 7.82167 23.333 8.70126 24.4306 9.29854ZM16.968 23.7671C17.1576 22.9589 17.325 22.2427 17.4969 21.5073H15.6882C16.1148 22.2606 16.5177 22.9722 16.968 23.7671ZM24.4913 20.3261C24.2928 19.9858 24.198 19.6084 23.9625 19.4628C23.4915 19.1731 22.9405 19.0126 22.4368 18.8031V20.3246H24.4928L24.4913 20.3261Z" fill="white"/>
</g>
<defs>
<clipPath id="clip0_531_1345">
<rect width="37.8549" height="37.8549" fill="white" transform="translate(0.42981 0.55957)"/>
</clipPath>
</defs>
</svg>
