<svg width="47" height="37" viewBox="0 0 47 37" fill="none" xmlns="http://www.w3.org/2000/svg">
<g id="Capa_1" clip-path="url(#clip0_530_1336)">
<path id="Vector" d="M43.4384 18.1173C43.8231 18.9993 44.2365 19.8457 44.5622 20.7259C44.7286 21.1759 44.8038 21.683 44.8074 22.1669C44.8235 23.9471 44.8646 25.7326 44.7555 27.5074C44.6588 29.0983 43.7444 30.2339 42.3038 30.9071C41.9764 31.0588 41.8797 31.2249 41.8905 31.5659C41.9155 32.3819 41.903 33.1997 41.8976 34.0157C41.8851 35.7102 40.7559 36.8351 39.0666 36.8422C38.188 36.8458 37.3093 36.8458 36.4307 36.8422C34.7396 36.8368 33.6068 35.7119 33.5943 34.0193C33.5871 33.1443 33.5943 32.2677 33.5943 31.357H13.3854C13.3854 32.023 13.3943 32.6997 13.3818 33.3765C13.3729 33.8354 13.3818 34.3032 13.2959 34.7495C13.0686 35.9476 11.9985 36.8154 10.7459 36.8386C9.77774 36.8565 8.80962 36.8493 7.84149 36.8422C6.2542 36.8315 5.11249 35.7119 5.08207 34.1264C5.06418 33.2497 5.07312 32.3748 5.08207 31.4981C5.08386 31.2874 5.05344 31.1499 4.82438 31.0588C3.15835 30.4089 2.23496 29.1644 2.17054 27.4038C2.10254 25.5665 2.13475 23.7221 2.20454 21.883C2.25286 20.6117 2.77003 19.4707 3.48046 18.4208C3.52878 18.3494 3.57352 18.2744 3.67194 18.1191C3.26572 18.1191 2.92035 18.1226 2.57318 18.1191C1.3241 18.1048 0.610091 17.387 0.606512 16.1443C0.606512 15.7729 0.601143 15.4015 0.606512 15.0301C0.624407 14.0088 1.35453 13.2553 2.37812 13.2338C3.27109 13.2142 4.16584 13.2053 5.05881 13.2428C5.41671 13.257 5.76924 13.407 6.17009 13.5088C6.20588 13.4106 6.26673 13.2481 6.32041 13.0821C6.89126 11.3215 7.38875 9.53242 8.04908 7.8058C8.70403 6.09348 10.0694 5.21856 11.9037 5.12214C12.6911 5.08108 13.482 5.09536 14.2712 5.11857C14.6058 5.1275 14.7651 5.04894 14.8564 4.69897C15.1123 3.72585 15.4111 2.76345 15.7064 1.80105C16.0374 0.720797 16.8373 0.127999 17.9576 0.126213C21.6511 0.122642 25.3447 0.122642 29.0382 0.126213C30.1298 0.126213 30.9369 0.724368 31.2608 1.77605C31.565 2.76702 31.8513 3.76335 32.1466 4.75789C32.1806 4.87038 32.22 4.9793 32.2647 5.10964C33.0968 5.10964 33.9146 5.10786 34.7324 5.10964C36.9282 5.11679 38.4653 6.23453 39.1346 8.31468C39.6697 9.9788 40.1976 11.6429 40.7309 13.3088C40.7577 13.391 40.7935 13.4695 40.7828 13.4427C41.3787 13.366 41.9227 13.2624 42.4703 13.2338C43.1539 13.1981 43.841 13.2178 44.5246 13.2285C45.6269 13.2463 46.3571 13.9891 46.366 15.0926C46.3696 15.464 46.3678 15.8354 46.366 16.2068C46.3589 17.3602 45.6359 18.0887 44.4691 18.1137C44.1041 18.1208 43.739 18.1137 43.4366 18.1137L43.4384 18.1173ZM41.3554 18.0369C40.9384 18.7851 40.5859 19.4707 40.1833 20.1242C39.9453 20.5117 39.6715 20.8991 39.3368 21.2009C38.5387 21.9223 37.5563 22.1544 36.4915 22.1526C29.5947 22.1437 22.698 22.149 15.8012 22.149C15.7117 22.149 15.6223 22.1508 15.5328 22.1472C15.1176 22.124 14.8295 21.8598 14.8224 21.4991C14.8152 21.1598 15.0783 20.8724 15.463 20.8188C15.6097 20.7974 15.7601 20.8081 15.9086 20.8081C18.872 20.8081 21.8372 20.8081 24.8007 20.8081C28.7036 20.8081 32.6065 20.8045 36.5094 20.8099C37.3147 20.8099 38.12 20.6813 38.6085 20.0278C39.2134 19.2154 39.6679 18.2923 40.271 17.2745C39.6661 17.2192 39.2044 17.1388 38.7445 17.1388C28.5712 17.1317 18.396 17.1334 8.22266 17.1334C8.01507 17.1334 7.80212 17.1227 7.59812 17.1549C7.34401 17.1942 7.09706 17.2727 6.8 17.3459C7.19727 18.0601 7.58559 18.6922 7.91307 19.3547C8.42129 20.3849 9.27668 20.792 10.3719 20.8081C10.9982 20.817 11.6227 20.8009 12.2491 20.8134C12.7465 20.8241 13.0293 21.0813 13.0311 21.4866C13.0329 21.8865 12.7412 22.1437 12.2508 22.149C11.5655 22.1562 10.8801 22.1651 10.1947 22.1437C8.68077 22.0937 7.5158 21.4544 6.78389 20.0956C6.48147 19.5332 6.1683 18.9779 5.85514 18.4226C5.79251 18.3119 5.71377 18.2119 5.62966 18.0905C5.53482 18.1512 5.46503 18.1798 5.41313 18.228C4.35553 19.1993 3.6451 20.3885 3.56278 21.8205C3.46078 23.6274 3.49836 25.4415 3.48941 27.2521C3.48941 27.5003 3.53952 27.7556 3.60573 27.9966C3.96363 29.2644 4.98902 29.9822 6.43494 29.9822C17.7106 29.9822 28.9881 29.9822 40.2638 29.9822C40.398 29.9822 40.5322 29.9822 40.6664 29.975C42.1374 29.8732 43.3203 28.8198 43.4133 27.361C43.5118 25.8219 43.4724 24.2756 43.4831 22.7311C43.4885 21.8598 43.3274 21.0206 42.9642 20.2242C42.5937 19.41 42.1177 18.6726 41.35 18.0405L41.3554 18.0369ZM6.84116 15.8693C7.21516 15.8407 7.52296 15.7943 7.83076 15.7996C8.11708 15.805 8.23518 15.6997 8.32108 15.4229C8.92057 13.4999 9.54152 11.584 10.1535 9.66633C10.6045 8.25397 11.2827 7.75581 12.7734 7.75581C17.5245 7.75581 22.2757 7.75581 27.0268 7.75581C27.2058 7.75581 27.3847 7.75938 27.5601 7.78438C27.9108 7.83616 28.122 8.09506 28.0737 8.40039C28.0379 8.63072 27.8249 8.87713 27.6227 9.02354C27.4778 9.12889 27.2219 9.09675 27.0161 9.09675C22.2649 9.10032 17.5138 9.09853 12.7626 9.10032C11.8786 9.10032 11.6943 9.23959 11.4241 10.0877C10.8729 11.8233 10.3235 13.5606 9.77237 15.2961C9.72584 15.4461 9.68111 15.5961 9.63458 15.7514H37.3523C36.7241 13.7784 36.1103 11.8465 35.4912 9.91631C35.2818 9.26637 35.0492 9.1021 34.3459 9.10032C33.1988 9.09496 32.0517 9.1021 30.9047 9.09496C30.6989 9.09496 30.4394 9.1146 30.3016 9.00568C30.1191 8.85927 29.9222 8.58787 29.933 8.38253C29.9437 8.1772 30.1799 7.954 30.3696 7.80402C30.4752 7.7201 30.6846 7.75581 30.8474 7.75581C31.9945 7.75224 33.1416 7.75045 34.2886 7.75581C35.6755 7.76117 36.3841 8.2879 36.81 9.61991C37.4274 11.5519 38.043 13.4856 38.6676 15.4158C38.7123 15.5515 38.8179 15.7514 38.9217 15.7693C39.3064 15.8336 39.7037 15.8354 40.1242 15.8639C40.024 15.5497 39.9363 15.2676 39.8468 14.9872C39.1686 12.8571 38.5029 10.7216 37.805 8.5968C37.3612 7.24515 36.3018 6.45594 34.9507 6.45415C27.3095 6.44701 19.6701 6.4488 12.0289 6.45415C10.7512 6.45415 9.66321 7.1773 9.2552 8.38789C8.42308 10.8573 7.6518 13.3445 6.84295 15.8693H6.84116ZM30.8367 5.08643C30.5342 4.06511 30.2515 3.08663 29.9509 2.11173C29.8166 1.67784 29.4963 1.46358 29.0418 1.46358C25.3339 1.46358 21.6279 1.46358 17.92 1.46358C17.5084 1.46358 17.1809 1.64392 17.0539 2.04031C16.7353 3.03842 16.4454 4.04547 16.1341 5.08465H30.8367V5.08643ZM6.42778 31.3427C6.42778 32.3355 6.40452 33.2836 6.43494 34.2282C6.45999 34.971 7.02548 35.4888 7.77528 35.5013C8.74162 35.5155 9.70795 35.5138 10.6743 35.5013C11.3955 35.4923 11.9717 35.0334 12.011 34.3282C12.0665 33.3425 12.0254 32.3516 12.0254 31.341H6.42778V31.3427ZM34.9454 31.332C34.9454 32.3498 34.9078 33.3265 34.9579 34.2996C34.9955 35.0227 35.5717 35.4923 36.3144 35.5013C37.2664 35.512 38.2184 35.512 39.1686 35.5013C39.9649 35.4923 40.5125 34.9585 40.5465 34.1692C40.5626 33.7854 40.5501 33.3979 40.5519 33.0122C40.5519 32.4551 40.5519 31.898 40.5519 31.332H34.9454ZM3.66478 16.7746C4.06563 16.7746 4.46648 16.7871 4.86733 16.771C5.26997 16.7549 5.48471 16.5228 5.48829 16.1318C5.49187 15.7907 5.49187 15.4515 5.4865 15.1104C5.47934 14.7551 5.30397 14.5641 4.93354 14.5658C4.11753 14.5694 3.30151 14.5658 2.48371 14.5676C2.12044 14.5694 1.94327 14.7605 1.94685 15.1247C1.95043 15.4658 1.94327 15.805 1.94685 16.146C1.95401 16.6264 2.09538 16.7656 2.59466 16.7728C2.95077 16.7781 3.30688 16.7728 3.66299 16.7728L3.66478 16.7746ZM43.2827 14.5676C42.8818 14.5676 42.481 14.5748 42.0801 14.5658C41.6632 14.5551 41.4842 14.7623 41.486 15.1604C41.486 15.4854 41.5021 15.8121 41.4807 16.1371C41.4538 16.5674 41.7276 16.7478 42.0676 16.7621C42.8818 16.796 43.6996 16.7799 44.5157 16.7692C44.8503 16.7638 45.0293 16.5764 45.0257 16.23C45.0221 15.8604 45.0221 15.4908 45.0257 15.1194C45.0293 14.7533 44.8467 14.5712 44.4835 14.5676C44.0826 14.5641 43.6818 14.5676 43.2809 14.5676H43.2827Z" fill="white"/>
<path id="Vector_2" d="M23.4875 28.5548C21.1647 28.5548 18.8437 28.5566 16.5209 28.5548C15.1287 28.5548 14.42 27.6406 14.7618 26.2961C14.9229 25.6658 15.0804 25.0319 15.2593 24.407C15.4723 23.666 16.0073 23.241 16.7714 23.1785C16.92 23.166 17.0685 23.166 17.217 23.166C21.3991 23.166 25.583 23.166 29.7651 23.166C31.0356 23.166 31.517 23.5392 31.8427 24.7766C31.9894 25.3354 32.1344 25.8943 32.2686 26.455C32.5442 27.6138 31.8248 28.5476 30.6312 28.553C28.2493 28.5637 25.8675 28.5565 23.4857 28.5565L23.4875 28.5548ZM23.4696 27.2156C25.778 27.2156 28.0865 27.2156 30.395 27.2156C30.998 27.2156 31.0571 27.1424 30.9139 26.5746C30.7922 26.0872 30.6383 25.6033 30.5506 25.1087C30.4665 24.6409 30.2411 24.4945 29.7651 24.4962C26.2791 24.5159 22.7949 24.507 19.309 24.507C18.5502 24.507 17.7897 24.5123 17.0309 24.5052C16.7321 24.5016 16.571 24.6141 16.503 24.9212C16.3813 25.4694 16.2203 26.0104 16.0807 26.555C15.9375 27.1156 16.0145 27.2156 16.5871 27.2156C18.8813 27.2156 21.1736 27.2156 23.4678 27.2156H23.4696Z" fill="white"/>
<path id="Vector_3" d="M39.8812 22.8885C40.8743 22.876 41.506 23.6295 41.2984 24.4883C41.1105 25.2651 40.8761 26.0293 40.665 26.8006C40.4967 27.4166 40.0726 27.7541 39.457 27.8237C37.8769 28.0023 36.295 28.1737 34.7113 28.3201C33.7091 28.413 33.0041 27.5005 33.3656 26.5596C33.6805 25.7454 34.0563 24.9544 34.4249 24.1616C34.62 23.7438 34.9725 23.4938 35.4306 23.4349C36.9481 23.2403 38.4692 23.0599 39.8812 22.8867V22.8885ZM39.9688 24.2901C39.8543 24.2794 39.7953 24.2634 39.7398 24.2705C38.4299 24.4223 37.1182 24.5723 35.8082 24.7365C35.7152 24.749 35.5953 24.8472 35.5541 24.9365C35.2499 25.59 34.9618 26.2525 34.6701 26.9077C34.7148 26.931 34.7274 26.9435 34.7381 26.9417C36.227 26.7953 37.7176 26.6488 39.2065 26.4935C39.2745 26.4864 39.3711 26.4078 39.389 26.3453C39.5877 25.6704 39.772 24.9937 39.967 24.2901H39.9688Z" fill="white"/>
<path id="Vector_4" d="M12.337 28.3327C10.7247 28.1631 9.11231 28.0042 7.50354 27.8203C6.90226 27.7506 6.50141 27.3971 6.3332 26.8097C6.12562 26.0847 5.9073 25.3616 5.72298 24.6295C5.45276 23.5528 6.15425 22.7904 7.27448 22.9208C8.63272 23.0779 9.99095 23.2368 11.3492 23.3957C11.9165 23.4618 12.371 23.6921 12.6144 24.2421C12.9436 24.9866 13.2962 25.7223 13.604 26.4758C13.9995 27.4417 13.3534 28.3702 12.3388 28.3327H12.337ZM7.01321 24.2367C7.21901 24.9706 7.38543 25.6133 7.58586 26.2454C7.62165 26.3561 7.79165 26.4811 7.91513 26.499C8.64882 26.6025 9.38789 26.6793 10.1252 26.7579C10.8446 26.8347 11.5639 26.9007 12.3495 26.9775C12.2189 26.6704 12.0847 26.4383 12.0185 26.1865C11.7375 25.1205 11.1613 24.5385 9.95338 24.5599C9.00136 24.5759 8.04755 24.3599 7.015 24.2385L7.01321 24.2367Z" fill="white"/>
<path id="Vector_5" d="M25.2251 2.91059C25.3826 2.64276 25.4899 2.38921 25.6617 2.1928C25.744 2.09817 25.9463 2.10888 26.0948 2.07138C26.1127 2.20887 26.2004 2.40706 26.1395 2.47313C25.6062 3.06236 25.5937 3.61766 26.1503 4.20153C26.2147 4.26938 26.1395 4.47114 26.127 4.61042C25.9695 4.56578 25.7906 4.55149 25.6581 4.46579C25.5579 4.40151 25.5186 4.24438 25.4488 4.13011C25.3808 4.0194 25.3074 3.91227 25.2161 3.77121C25.0533 4.03904 24.9298 4.29616 24.7509 4.50864C24.6757 4.59792 24.4842 4.59256 24.3464 4.63006C24.3196 4.49257 24.291 4.35687 24.2695 4.21938C24.2659 4.19796 24.2945 4.16582 24.3142 4.14439C24.8242 3.61944 24.8654 3.0945 24.3411 2.54634C24.2086 2.40885 24.0977 2.21958 24.3572 2.06781C24.6166 1.91604 24.733 2.07138 24.8439 2.27315C24.9567 2.47849 25.0837 2.67847 25.2233 2.91237L25.2251 2.91059Z" fill="white"/>
<path id="Vector_6" d="M23.0758 4.1407C22.7108 4.15499 22.2705 3.94251 22.1793 4.55316C22.1721 4.59958 21.961 4.66922 21.8876 4.6353C21.7927 4.59244 21.6621 4.43532 21.6818 4.36389C21.8822 3.63718 22.0916 2.91225 22.3421 2.20161C22.4441 1.91057 22.9559 1.90343 23.0615 2.19268C23.3174 2.89975 23.5304 3.62468 23.7344 4.34961C23.7558 4.42282 23.6288 4.59423 23.5375 4.62637C23.4516 4.65672 23.287 4.59244 23.219 4.51566C23.1385 4.42639 23.1241 4.2764 23.0758 4.13892V4.1407ZM22.4459 3.69432C22.666 3.67825 22.802 3.66753 22.9613 3.65504C22.8772 3.36399 22.8092 3.12295 22.7412 2.8819C22.7143 2.8819 22.6893 2.8819 22.6624 2.88011C22.5962 3.1283 22.53 3.37649 22.4459 3.69432Z" fill="white"/>
<path id="Vector_7" d="M20.209 2.54426C20.014 2.53533 19.878 2.5639 19.7813 2.51391C19.6847 2.46391 19.5863 2.34428 19.572 2.24251C19.563 2.17466 19.6972 2.0211 19.7706 2.01931C20.2591 1.99789 20.7495 1.99967 21.2362 2.01931C21.3078 2.02288 21.4241 2.1693 21.4259 2.25143C21.4295 2.33892 21.34 2.47463 21.2559 2.50855C21.1414 2.55855 20.9946 2.53355 20.7978 2.54426C20.7978 3.09956 20.7978 3.65486 20.7978 4.21017C20.7978 4.4155 20.8371 4.65119 20.524 4.66369C20.1822 4.67798 20.2072 4.428 20.2072 4.20302C20.2072 3.66022 20.2072 3.11563 20.2072 2.54248L20.209 2.54426Z" fill="white"/>
<path id="Vector_8" d="M27.4261 3.36241C27.4261 3.67309 27.4511 3.98735 27.4136 4.29446C27.3975 4.42659 27.2686 4.62657 27.1595 4.64978C26.8892 4.7087 26.866 4.48908 26.8678 4.27839C26.8713 3.64095 26.8534 3.00351 26.8821 2.36786C26.8874 2.24645 27.061 2.13396 27.1559 2.01611C27.2453 2.13932 27.3975 2.25359 27.4136 2.38393C27.4511 2.70533 27.4261 3.03387 27.4261 3.36062V3.36241Z" fill="white"/>
</g>
<defs>
<clipPath id="clip0_530_1336">
<rect width="45.7649" height="36.7249" fill="white" transform="translate(0.60498 0.125)"/>
</clipPath>
</defs>
</svg>
